<svg width="158" height="34" viewBox="0 0 158 34" fill="none" xmlns="http://www.w3.org/2000/svg">
<rect width="33.6599" height="33.6599" rx="16.8299" fill="white"/>
<path d="M21.7694 12.0546C21.8021 11.8827 21.7126 11.7122 21.5549 11.6383C20.7152 11.2504 19.5914 11.0274 18.469 11.0274C14.6855 11.0274 11.6068 14.1062 11.6068 17.891C11.6068 20.4029 13.2847 21.7171 14.9413 21.7171C16.4387 21.7171 17.6435 21.1176 18.6054 19.8886C18.7091 20.3319 18.9066 20.7112 19.1936 21.0124C19.6255 21.4671 20.2421 21.7185 20.9312 21.7185C23.5397 21.7185 26.1794 19.3516 26.1794 14.8279C26.1794 9.95046 22.7511 6.54492 17.841 6.54492C11.9335 6.54492 7.47949 11.2235 7.47949 17.4265C7.47949 22.5909 11.1237 26.3388 16.1461 26.3388C18.1436 26.3388 19.6994 25.9879 21.1912 25.2008C21.3616 25.1113 21.4384 24.911 21.3702 24.7305L20.934 23.5542C20.8942 23.4519 20.8118 23.3695 20.7081 23.3297C20.6044 23.2913 20.4879 23.3013 20.3899 23.3553C19.3314 23.9491 17.9675 24.2631 16.4473 24.2631C12.472 24.2631 9.79958 21.4486 9.79958 17.2602C9.79958 12.2208 13.09 8.56239 17.6237 8.56239C21.471 8.56239 23.8593 11.026 23.8593 14.9913C23.8593 17.847 22.5409 19.6158 21.2991 19.6158C21.0619 19.6087 20.9553 19.5093 20.8971 19.4354C20.7365 19.2336 20.5163 18.6511 20.8417 17.0031L21.7694 12.0546ZM18.1408 13.2395C18.4633 13.2395 18.7745 13.2693 19.0686 13.3318L18.5585 16.0739C18.2786 17.6481 16.9246 19.478 15.5977 19.478C14.3133 19.478 14.1741 18.2917 14.1741 17.7802C14.1741 15.3195 15.9898 13.2395 18.1408 13.2395Z" fill="#5B428F" stroke="white" stroke-width="0.467498"/>
<path d="M44.5114 23.87V9.47106H47.0209L52.3691 20.2497L57.6967 9.47106H60.1651V23.87H58.0258V12.9062L52.8628 23.4792H51.8137L46.6712 12.9268V23.87H44.5114ZM67.1836 24.1374C64.6329 24.1374 62.9668 22.7386 62.9668 20.7022C62.9668 18.6247 64.6124 17.2671 67.307 17.2671C68.9937 17.2671 70.3102 17.8019 71.133 18.563V17.2876C71.133 16.6088 70.7422 14.737 67.6978 14.737C65.8671 14.737 64.3449 15.3952 64.057 15.5392L63.9541 14.0787C64.3244 13.9347 65.8465 13.2971 68.027 13.2971C70.9273 13.2971 73.1077 14.3667 73.1077 17.1848V23.87H71.4004C71.2976 23.4586 71.1742 22.9443 71.133 22.4507C70.4131 23.438 69.0143 24.1374 67.1836 24.1374ZM67.7801 22.9238C69.1789 22.9238 70.4748 22.2861 71.1124 21.0931V19.6326C70.4131 18.8921 69.2612 18.3984 67.883 18.3984C65.9905 18.3984 64.9415 19.2829 64.9415 20.5994C64.9415 21.9776 66.0728 22.9238 67.7801 22.9238ZM77.3572 11.3223C76.5755 11.3223 76.0201 10.8081 76.0201 10.1704C76.0201 9.55334 76.5755 9.03909 77.3572 9.03909C78.1183 9.03909 78.6737 9.55334 78.6737 10.1704C78.6737 10.8081 78.1183 11.3223 77.3572 11.3223ZM76.3493 23.87V13.5439H78.324V23.87H76.3493ZM81.6812 23.87V9.05966H83.6559V23.87H81.6812ZM93.1865 24.1374C91.4175 24.1374 89.7925 23.3969 88.9286 22.0598C88.908 22.7181 88.8257 23.294 88.7434 23.87H86.9538V9.05966H88.9286V15.3541C89.8131 14.017 91.4175 13.2971 93.166 13.2971C96.1692 13.2971 98.2262 15.4775 98.2262 18.7069C98.2262 21.9776 96.1075 24.1374 93.1865 24.1374ZM92.59 22.6152C94.6676 22.6152 96.272 21.0519 96.272 18.7069C96.272 16.362 94.6676 14.7987 92.59 14.7987C90.9033 14.7987 89.4428 15.8066 88.9286 17.3493V20.0646C89.4634 21.6073 90.9033 22.6152 92.59 22.6152ZM104.545 24.1374C101.995 24.1374 100.328 22.7386 100.328 20.7022C100.328 18.6247 101.974 17.2671 104.669 17.2671C106.355 17.2671 107.672 17.8019 108.495 18.563V17.2876C108.495 16.6088 108.104 14.737 105.06 14.737C103.229 14.737 101.707 15.3952 101.419 15.5392L101.316 14.0787C101.686 13.9347 103.208 13.2971 105.389 13.2971C108.289 13.2971 110.469 14.3667 110.469 17.1848V23.87H108.762C108.659 23.4586 108.536 22.9443 108.495 22.4507C107.775 23.438 106.376 24.1374 104.545 24.1374ZM105.142 22.9238C106.541 22.9238 107.836 22.2861 108.474 21.0931V19.6326C107.775 18.8921 106.623 18.3984 105.245 18.3984C103.352 18.3984 102.303 19.2829 102.303 20.5994C102.303 21.9776 103.435 22.9238 105.142 22.9238ZM117.455 24.1374C115.706 24.1374 113.896 23.6643 112.826 23.0061L113.073 21.6073C114.143 22.2861 115.789 22.8209 117.29 22.8209C118.874 22.8209 119.985 22.2244 119.985 21.2782C119.985 20.0646 118.133 19.5709 116.714 19.0978C114.925 18.5012 113.176 17.8019 113.176 16.0946C113.176 14.3461 114.986 13.2971 117.516 13.2971C119.018 13.2971 120.581 13.6879 121.322 14.0376L121.198 15.3952C120.54 15.0661 119.1 14.5724 117.66 14.5724C116.118 14.5724 115.027 15.1689 115.027 16.0123C115.027 17.0408 116.694 17.4728 118.051 17.9047C119.923 18.5012 121.857 19.2829 121.857 21.1548C121.857 22.9238 120.129 24.1374 117.455 24.1374ZM124.507 23.87V9.05966H126.482V18.0076L131.171 13.5439H133.516L128.436 18.3161L134.216 23.87H131.974L126.482 18.7687V23.87H124.507ZM141.6 24.1374C137.897 24.1374 135.511 22.0187 135.511 18.6864C135.511 15.3746 137.877 13.2765 141.127 13.2765C144.5 13.2765 146.639 15.5392 146.639 18.563C146.639 18.8921 146.619 19.1183 146.578 19.3446H137.445C137.671 21.3605 139.399 22.6769 141.908 22.6769C143.492 22.6769 144.788 22.1627 145.57 21.5867L145.817 23.0472C144.932 23.6232 143.389 24.1374 141.6 24.1374ZM137.424 18.3161H144.809C144.788 16.1563 143.184 14.7164 141.127 14.7164C139.111 14.7164 137.547 16.074 137.424 18.3161ZM154.456 24.1374C152.029 24.1374 150.651 23.0678 150.651 20.7434V14.9632H148.162V13.8113L151.556 10.191H152.646V13.5439H157.028V14.9632H152.646V20.3937C152.646 21.0725 152.79 22.5947 154.971 22.5947C155.937 22.5947 156.719 22.3067 156.945 22.2244L157.089 23.6437C156.699 23.8083 155.752 24.1374 154.456 24.1374Z" fill="white"/>
<path d="M44.5114 23.87H44.2309V24.1505H44.5114V23.87ZM44.5114 9.47106V9.19056H44.2309V9.47106H44.5114ZM47.0209 9.47106L47.2722 9.34638L47.1948 9.19056H47.0209V9.47106ZM52.3691 20.2497L52.1178 20.3744L52.3696 20.8817L52.6205 20.374L52.3691 20.2497ZM57.6967 9.47106V9.19056H57.5224L57.4452 9.34677L57.6967 9.47106ZM60.1651 9.47106H60.4456V9.19056H60.1651V9.47106ZM60.1651 23.87V24.1505H60.4456V23.87H60.1651ZM58.0258 23.87H57.7453V24.1505H58.0258V23.87ZM58.0258 12.9062H58.3063L57.7738 12.7831L58.0258 12.9062ZM52.8628 23.4792V23.7597H53.0379L53.1148 23.6023L52.8628 23.4792ZM51.8137 23.4792L51.5615 23.602L51.6383 23.7597H51.8137V23.4792ZM46.6712 12.9268L46.9234 12.8039L46.3907 12.9268H46.6712ZM46.6712 23.87V24.1505H46.9517V23.87H46.6712ZM44.7919 23.87V9.47106H44.2309V23.87H44.7919ZM44.5114 9.75155H47.0209V9.19056H44.5114V9.75155ZM46.7696 9.59573L52.1178 20.3744L52.6203 20.125L47.2722 9.34638L46.7696 9.59573ZM52.6205 20.374L57.9481 9.59535L57.4452 9.34677L52.1176 20.1254L52.6205 20.374ZM57.6967 9.75155H60.1651V9.19056H57.6967V9.75155ZM59.8846 9.47106V23.87H60.4456V9.47106H59.8846ZM60.1651 23.5895H58.0258V24.1505H60.1651V23.5895ZM58.3063 23.87V12.9062H57.7453V23.87H58.3063ZM57.7738 12.7831L52.6107 23.3561L53.1148 23.6023L58.2779 13.0293L57.7738 12.7831ZM52.8628 23.1987H51.8137V23.7597H52.8628V23.1987ZM52.0658 23.3563L46.9234 12.8039L46.4191 13.0497L51.5615 23.602L52.0658 23.3563ZM46.3907 12.9268V23.87H46.9517V12.9268H46.3907ZM46.6712 23.5895H44.5114V24.1505H46.6712V23.5895ZM71.133 18.563L70.9425 18.7689L71.4135 19.2045V18.563H71.133ZM64.057 15.5392L63.7772 15.5589L63.8067 15.9779L64.1824 15.7901L64.057 15.5392ZM63.9541 14.0787L63.8524 13.8173L63.6598 13.8922L63.6743 14.0984L63.9541 14.0787ZM73.1077 23.87V24.1505H73.3882V23.87H73.1077ZM71.4004 23.87L71.1283 23.938L71.1814 24.1505H71.4004V23.87ZM71.133 22.4507L71.4125 22.4274L71.35 21.677L70.9064 22.2854L71.133 22.4507ZM71.1124 21.0931L71.3598 21.2253L71.3929 21.1633V21.0931H71.1124ZM71.1124 19.6326H71.3929V19.5211L71.3164 19.44L71.1124 19.6326ZM67.1836 23.8569C65.9576 23.8569 64.9711 23.5208 64.2967 22.9668C63.627 22.4164 63.2473 21.6375 63.2473 20.7022H62.6863C62.6863 21.8033 63.1396 22.742 63.9406 23.4002C64.737 24.0546 65.8589 24.4179 67.1836 24.4179V23.8569ZM63.2473 20.7022C63.2473 19.7445 63.6231 18.9678 64.3017 18.4245C64.9868 17.876 66.0038 17.5476 67.307 17.5476V16.9866C65.9156 16.9866 64.7625 17.3369 63.9511 17.9866C63.1332 18.6415 62.6863 19.5824 62.6863 20.7022H63.2473ZM67.307 17.5476C68.9362 17.5476 70.1804 18.0639 70.9425 18.7689L71.3235 18.357C70.44 17.5398 69.0513 16.9866 67.307 16.9866V17.5476ZM71.4135 18.563V17.2876H70.8525V18.563H71.4135ZM71.4135 17.2876C71.4135 16.9045 71.3049 16.1934 70.7692 15.5742C70.2254 14.9457 69.2807 14.4565 67.6978 14.4565V15.0175C69.1593 15.0175 69.9322 15.4641 70.3449 15.9413C70.7657 16.4277 70.8525 16.9919 70.8525 17.2876H71.4135ZM67.6978 14.4565C65.8083 14.4565 64.242 15.1331 63.9315 15.2883L64.1824 15.7901C64.4479 15.6573 65.9259 15.0175 67.6978 15.0175V14.4565ZM64.3368 15.5195L64.2339 14.059L63.6743 14.0984L63.7772 15.5589L64.3368 15.5195ZM64.0558 14.3401C64.4197 14.1986 65.9013 13.5776 68.027 13.5776V13.0166C65.7918 13.0166 64.229 13.6708 63.8524 13.8173L64.0558 14.3401ZM68.027 13.5776C69.4503 13.5776 70.6553 13.8413 71.4968 14.4158C72.3211 14.9785 72.8272 15.8598 72.8272 17.1848H73.3882C73.3882 15.6916 72.8042 14.6291 71.8131 13.9525C70.8393 13.2876 69.504 13.0166 68.027 13.0166V13.5776ZM72.8272 17.1848V23.87H73.3882V17.1848H72.8272ZM73.1077 23.5895H71.4004V24.1505H73.1077V23.5895ZM71.6725 23.802C71.5694 23.3896 71.4516 22.8956 71.4125 22.4274L70.8535 22.474C70.8967 22.9931 71.0257 23.5276 71.1283 23.938L71.6725 23.802ZM70.9064 22.2854C70.2511 23.184 68.947 23.8569 67.1836 23.8569V24.4179C69.0816 24.4179 70.575 23.692 71.3597 22.6159L70.9064 22.2854ZM67.7801 23.2043C69.2597 23.2043 70.6635 22.528 71.3598 21.2253L70.8651 20.9608C70.286 22.0442 69.0981 22.6433 67.7801 22.6433V23.2043ZM71.3929 21.0931V19.6326H70.8319V21.0931H71.3929ZM71.3164 19.44C70.5556 18.6344 69.3251 18.1179 67.883 18.1179V18.6789C69.1972 18.6789 70.2706 19.1497 70.9085 19.8252L71.3164 19.44ZM67.883 18.1179C66.8969 18.1179 66.0941 18.3479 65.531 18.7833C64.9599 19.2249 64.661 19.859 64.661 20.5994H65.222C65.222 20.0233 65.4476 19.5569 65.8741 19.2271C66.3087 18.8911 66.9766 18.6789 67.883 18.6789V18.1179ZM64.661 20.5994C64.661 21.3716 64.9808 22.0324 65.5422 22.4949C66.0992 22.9538 66.8765 23.2043 67.7801 23.2043V22.6433C66.9764 22.6433 66.3344 22.4207 65.8989 22.0619C65.4678 21.7068 65.222 21.2053 65.222 20.5994H64.661ZM76.3493 23.87H76.0688V24.1505H76.3493V23.87ZM76.3493 13.5439V13.2634H76.0688V13.5439H76.3493ZM78.324 13.5439H78.6045V13.2634H78.324V13.5439ZM78.324 23.87V24.1505H78.6045V23.87H78.324ZM77.3572 11.0418C76.6958 11.0418 76.3006 10.6207 76.3006 10.1704H75.7396C75.7396 10.9955 76.4552 11.6028 77.3572 11.6028V11.0418ZM76.3006 10.1704C76.3006 9.74378 76.6923 9.31959 77.3572 9.31959V8.75859C76.4587 8.75859 75.7396 9.36289 75.7396 10.1704H76.3006ZM77.3572 9.31959C77.9984 9.31959 78.3932 9.74111 78.3932 10.1704H78.9542C78.9542 9.36556 78.2381 8.75859 77.3572 8.75859V9.31959ZM78.3932 10.1704C78.3932 10.6234 77.9949 11.0418 77.3572 11.0418V11.6028C78.2416 11.6028 78.9542 10.9928 78.9542 10.1704H78.3932ZM76.6298 23.87V13.5439H76.0688V23.87H76.6298ZM76.3493 13.8244H78.324V13.2634H76.3493V13.8244ZM78.0435 13.5439V23.87H78.6045V13.5439H78.0435ZM78.324 23.5895H76.3493V24.1505H78.324V23.5895ZM81.6812 23.87H81.4007V24.1505H81.6812V23.87ZM81.6812 9.05966V8.77916H81.4007V9.05966H81.6812ZM83.6559 9.05966H83.9364V8.77916H83.6559V9.05966ZM83.6559 23.87V24.1505H83.9364V23.87H83.6559ZM81.9617 23.87V9.05966H81.4007V23.87H81.9617ZM81.6812 9.34016H83.6559V8.77916H81.6812V9.34016ZM83.3754 9.05966V23.87H83.9364V9.05966H83.3754ZM83.6559 23.5895H81.6812V24.1505H83.6559V23.5895ZM88.9286 22.0598L89.1642 21.9076L88.6763 21.1526L88.6482 22.0511L88.9286 22.0598ZM88.7434 23.87V24.1505H88.9867L89.0211 23.9097L88.7434 23.87ZM86.9538 23.87H86.6733V24.1505H86.9538V23.87ZM86.9538 9.05966V8.77916H86.6733V9.05966H86.9538ZM88.9286 9.05966H89.2091V8.77916H88.9286V9.05966ZM88.9286 15.3541H88.6481V16.2865L89.1625 15.5088L88.9286 15.3541ZM88.9286 17.3493L88.6625 17.2606L88.6481 17.3038V17.3493H88.9286ZM88.9286 20.0646H88.6481V20.1118L88.6635 20.1564L88.9286 20.0646ZM93.1865 23.8569C91.4896 23.8569 89.965 23.147 89.1642 21.9076L88.693 22.2121C89.62 23.6467 91.3454 24.4179 93.1865 24.4179V23.8569ZM88.6482 22.0511C88.6282 22.6917 88.5482 23.2532 88.4657 23.8303L89.0211 23.9097C89.1032 23.3348 89.1878 22.7444 89.2089 22.0686L88.6482 22.0511ZM88.7434 23.5895H86.9538V24.1505H88.7434V23.5895ZM87.2343 23.87V9.05966H86.6733V23.87H87.2343ZM86.9538 9.34016H88.9286V8.77916H86.9538V9.34016ZM88.6481 9.05966V15.3541H89.2091V9.05966H88.6481ZM89.1625 15.5088C89.984 14.267 91.4897 13.5776 93.166 13.5776V13.0166C91.3453 13.0166 89.6421 13.767 88.6946 15.1993L89.1625 15.5088ZM93.166 13.5776C94.5967 13.5776 95.7854 14.0952 96.6176 14.9828C97.4513 15.8718 97.9457 17.1521 97.9457 18.7069H98.5067C98.5067 17.0324 97.9726 15.6076 97.0269 14.5991C96.0798 13.5891 94.7384 13.0166 93.166 13.0166V13.5776ZM97.9457 18.7069C97.9457 20.281 97.4367 21.5665 96.5976 22.4562C95.7594 23.345 94.5751 23.8569 93.1865 23.8569V24.4179C94.7189 24.4179 96.0544 23.8499 97.0058 22.8411C97.9563 21.8332 98.5067 20.4035 98.5067 18.7069H97.9457ZM92.59 22.8957C94.8315 22.8957 96.5525 21.1977 96.5525 18.7069H95.9915C95.9915 20.9062 94.5036 22.3347 92.59 22.3347V22.8957ZM96.5525 18.7069C96.5525 16.2162 94.8315 14.5182 92.59 14.5182V15.0792C94.5036 15.0792 95.9915 16.5077 95.9915 18.7069H96.5525ZM92.59 14.5182C90.7906 14.5182 89.2174 15.5959 88.6625 17.2606L89.1947 17.438C89.6682 16.0173 91.0159 15.0792 92.59 15.0792V14.5182ZM88.6481 17.3493V20.0646H89.2091V17.3493H88.6481ZM88.6635 20.1564C89.2389 21.8162 90.7881 22.8957 92.59 22.8957V22.3347C91.0184 22.3347 89.6878 21.3984 89.1936 19.9727L88.6635 20.1564ZM108.495 18.563L108.304 18.7689L108.775 19.2045V18.563H108.495ZM101.419 15.5392L101.139 15.5589L101.168 15.9779L101.544 15.7901L101.419 15.5392ZM101.316 14.0787L101.214 13.8173L101.021 13.8922L101.036 14.0984L101.316 14.0787ZM110.469 23.87V24.1505H110.75V23.87H110.469ZM108.762 23.87L108.49 23.938L108.543 24.1505H108.762V23.87ZM108.495 22.4507L108.774 22.4274L108.712 21.677L108.268 22.2854L108.495 22.4507ZM108.474 21.0931L108.722 21.2253L108.755 21.1633V21.0931H108.474ZM108.474 19.6326H108.755V19.5211L108.678 19.44L108.474 19.6326ZM104.545 23.8569C103.319 23.8569 102.333 23.5208 101.658 22.9668C100.989 22.4164 100.609 21.6375 100.609 20.7022H100.048C100.048 21.8033 100.501 22.742 101.302 23.4002C102.099 24.0546 103.221 24.4179 104.545 24.4179V23.8569ZM100.609 20.7022C100.609 19.7445 100.985 18.9678 101.663 18.4245C102.348 17.876 103.365 17.5476 104.669 17.5476V16.9866C103.277 16.9866 102.124 17.3369 101.313 17.9866C100.495 18.6415 100.048 19.5824 100.048 20.7022H100.609ZM104.669 17.5476C106.298 17.5476 107.542 18.0639 108.304 18.7689L108.685 18.357C107.802 17.5398 106.413 16.9866 104.669 16.9866V17.5476ZM108.775 18.563V17.2876H108.214V18.563H108.775ZM108.775 17.2876C108.775 16.9045 108.667 16.1934 108.131 15.5742C107.587 14.9457 106.642 14.4565 105.06 14.4565V15.0175C106.521 15.0175 107.294 15.4641 107.707 15.9413C108.127 16.4277 108.214 16.9919 108.214 17.2876H108.775ZM105.06 14.4565C103.17 14.4565 101.604 15.1331 101.293 15.2883L101.544 15.7901C101.81 15.6573 103.288 15.0175 105.06 15.0175V14.4565ZM101.698 15.5195L101.596 14.059L101.036 14.0984L101.139 15.5589L101.698 15.5195ZM101.417 14.3401C101.781 14.1986 103.263 13.5776 105.389 13.5776V13.0166C103.154 13.0166 101.591 13.6708 101.214 13.8173L101.417 14.3401ZM105.389 13.5776C106.812 13.5776 108.017 13.8413 108.859 14.4158C109.683 14.9785 110.189 15.8598 110.189 17.1848H110.75C110.75 15.6916 110.166 14.6291 109.175 13.9525C108.201 13.2876 106.866 13.0166 105.389 13.0166V13.5776ZM110.189 17.1848V23.87H110.75V17.1848H110.189ZM110.469 23.5895H108.762V24.1505H110.469V23.5895ZM109.034 23.802C108.931 23.3896 108.813 22.8956 108.774 22.4274L108.215 22.474C108.258 22.9931 108.387 23.5276 108.49 23.938L109.034 23.802ZM108.268 22.2854C107.613 23.184 106.309 23.8569 104.545 23.8569V24.4179C106.443 24.4179 107.937 23.692 108.721 22.6159L108.268 22.2854ZM105.142 23.2043C106.621 23.2043 108.025 22.528 108.722 21.2253L108.227 20.9608C107.648 22.0442 106.46 22.6433 105.142 22.6433V23.2043ZM108.755 21.0931V19.6326H108.194V21.0931H108.755ZM108.678 19.44C107.917 18.6344 106.687 18.1179 105.245 18.1179V18.6789C106.559 18.6789 107.632 19.1497 108.27 19.8252L108.678 19.44ZM105.245 18.1179C104.259 18.1179 103.456 18.3479 102.893 18.7833C102.322 19.2249 102.023 19.859 102.023 20.5994H102.584C102.584 20.0233 102.809 19.5569 103.236 19.2271C103.67 18.8911 104.338 18.6789 105.245 18.6789V18.1179ZM102.023 20.5994C102.023 21.3716 102.342 22.0324 102.904 22.4949C103.461 22.9538 104.238 23.2043 105.142 23.2043V22.6433C104.338 22.6433 103.696 22.4207 103.261 22.0619C102.83 21.7068 102.584 21.2053 102.584 20.5994H102.023ZM112.826 23.0061L112.55 22.9573L112.517 23.145L112.679 23.2449L112.826 23.0061ZM113.073 21.6073L113.224 21.3705L112.87 21.146L112.797 21.5586L113.073 21.6073ZM116.714 19.0978L116.803 18.8317L116.803 18.8317L116.714 19.0978ZM121.322 14.0376L121.601 14.063L121.619 13.8677L121.442 13.7839L121.322 14.0376ZM121.198 15.3952L121.073 15.6461L121.441 15.8299L121.478 15.4206L121.198 15.3952ZM118.051 17.9047L118.136 17.6375L118.136 17.6374L118.051 17.9047ZM117.455 23.8569C115.745 23.8569 113.989 23.3921 112.973 22.7672L112.679 23.2449C113.803 23.9365 115.667 24.4179 117.455 24.4179V23.8569ZM113.103 23.0548L113.35 21.6561L112.797 21.5586L112.55 22.9573L113.103 23.0548ZM112.923 21.8441C114.035 22.55 115.733 23.1014 117.29 23.1014V22.5404C115.844 22.5404 114.251 22.0223 113.224 21.3705L112.923 21.8441ZM117.29 23.1014C118.112 23.1014 118.838 22.9474 119.369 22.6489C119.905 22.3474 120.265 21.8808 120.265 21.2782H119.704C119.704 21.6217 119.509 21.9266 119.094 22.1599C118.674 22.3962 118.052 22.5404 117.29 22.5404V23.1014ZM120.265 21.2782C120.265 20.5025 119.668 20.0045 119.012 19.6616C118.345 19.3139 117.496 19.0627 116.803 18.8317L116.625 19.3639C117.352 19.6059 118.137 19.8382 118.752 20.1589C119.376 20.4846 119.704 20.8402 119.704 21.2782H120.265ZM116.803 18.8317C115.905 18.5324 115.058 18.2192 114.435 17.783C113.824 17.3553 113.457 16.8302 113.457 16.0946H112.896C112.896 17.0662 113.402 17.7444 114.113 18.2425C114.812 18.7318 115.734 19.0666 116.625 19.3639L116.803 18.8317ZM113.457 16.0946C113.457 15.3336 113.844 14.717 114.546 14.278C115.257 13.8335 116.285 13.5776 117.516 13.5776V13.0166C116.217 13.0166 115.076 13.2851 114.249 13.8023C113.413 14.325 112.896 15.1071 112.896 16.0946H113.457ZM117.516 13.5776C118.982 13.5776 120.503 13.9613 121.202 14.2912L121.442 13.7839C120.659 13.4145 119.054 13.0166 117.516 13.0166V13.5776ZM121.042 14.0122L120.919 15.3698L121.478 15.4206L121.601 14.063L121.042 14.0122ZM121.324 15.1443C120.636 14.8006 119.154 14.2919 117.66 14.2919V14.8529C119.047 14.8529 120.444 15.3316 121.073 15.6461L121.324 15.1443ZM117.66 14.2919C116.857 14.2919 116.149 14.4465 115.631 14.73C115.113 15.0132 114.747 15.4515 114.747 16.0123H115.308C115.308 15.7297 115.487 15.448 115.9 15.2222C116.312 14.9966 116.921 14.8529 117.66 14.8529V14.2919ZM114.747 16.0123C114.747 16.7038 115.31 17.1385 115.906 17.4335C116.517 17.7364 117.303 17.9609 117.966 18.172L118.136 17.6374C117.442 17.4166 116.716 17.2091 116.155 16.9309C115.578 16.6449 115.308 16.3493 115.308 16.0123H114.747ZM117.966 18.172C118.902 18.4704 119.816 18.8043 120.495 19.281C121.162 19.7499 121.576 20.3368 121.576 21.1548H122.137C122.137 20.1008 121.584 19.361 120.817 18.822C120.061 18.2907 119.072 17.9356 118.136 17.6375L117.966 18.172ZM121.576 21.1548C121.576 21.9357 121.199 22.5992 120.5 23.078C119.793 23.5617 118.753 23.8569 117.455 23.8569V24.4179C118.83 24.4179 119.991 24.1063 120.817 23.5409C121.65 22.9707 122.137 22.1429 122.137 21.1548H121.576ZM124.507 23.87H124.226V24.1505H124.507V23.87ZM124.507 9.05966V8.77916H124.226V9.05966H124.507ZM126.482 9.05966H126.762V8.77916H126.482V9.05966ZM126.482 18.0076H126.201V18.6618L126.675 18.2108L126.482 18.0076ZM131.171 13.5439V13.2634H131.059L130.978 13.3407L131.171 13.5439ZM133.516 13.5439L133.708 13.7484L134.225 13.2634H133.516V13.5439ZM128.436 18.3161L128.244 18.1117L128.028 18.3138L128.241 18.5184L128.436 18.3161ZM134.216 23.87V24.1505H134.913L134.41 23.6677L134.216 23.87ZM131.974 23.87L131.783 24.0755L131.864 24.1505H131.974V23.87ZM126.482 18.7687L126.672 18.5631L126.201 18.1253V18.7687H126.482ZM126.482 23.87V24.1505H126.762V23.87H126.482ZM124.787 23.87V9.05966H124.226V23.87H124.787ZM124.507 9.34016H126.482V8.77916H124.507V9.34016ZM126.201 9.05966V18.0076H126.762V9.05966H126.201ZM126.675 18.2108L131.365 13.7471L130.978 13.3407L126.288 17.8044L126.675 18.2108ZM131.171 13.8244H133.516V13.2634H131.171V13.8244ZM133.324 13.3394L128.244 18.1117L128.628 18.5206L133.708 13.7484L133.324 13.3394ZM128.241 18.5184L134.021 24.0723L134.41 23.6677L128.63 18.1139L128.241 18.5184ZM134.216 23.5895H131.974V24.1505H134.216V23.5895ZM132.165 23.6645L126.672 18.5631L126.291 18.9742L131.783 24.0755L132.165 23.6645ZM126.201 18.7687V23.87H126.762V18.7687H126.201ZM126.482 23.5895H124.507V24.1505H126.482V23.5895ZM146.578 19.3446V19.6251H146.812L146.854 19.3948L146.578 19.3446ZM137.445 19.3446V19.0641H137.131L137.166 19.3759L137.445 19.3446ZM145.57 21.5867L145.846 21.54L145.77 21.0905L145.403 21.3609L145.57 21.5867ZM145.817 23.0472L145.97 23.2823L146.124 23.1819L146.093 23.0005L145.817 23.0472ZM137.424 18.3161L137.144 18.3007L137.128 18.5966H137.424V18.3161ZM144.809 18.3161V18.5966H145.092L145.089 18.3134L144.809 18.3161ZM141.6 23.8569C139.801 23.8569 138.35 23.3426 137.354 22.4523C136.36 21.5651 135.792 20.2817 135.792 18.6864H135.231C135.231 20.4234 135.855 21.8655 136.98 22.8707C138.102 23.8729 139.696 24.4179 141.6 24.4179V23.8569ZM135.792 18.6864C135.792 17.1005 136.356 15.8245 137.292 14.9438C138.23 14.0613 139.562 13.557 141.127 13.557V12.996C139.441 12.996 137.965 13.5407 136.908 14.5352C135.849 15.5316 135.231 16.9605 135.231 18.6864H135.792ZM141.127 13.557C142.749 13.557 144.053 14.0998 144.951 14.9855C145.849 15.8715 146.359 17.1187 146.359 18.563H146.92C146.92 16.9834 146.36 15.5875 145.345 14.5861C144.33 13.5845 142.878 12.996 141.127 12.996V13.557ZM146.359 18.563C146.359 18.8786 146.339 19.0877 146.302 19.2944L146.854 19.3948C146.898 19.149 146.92 18.9056 146.92 18.563H146.359ZM146.578 19.0641H137.445V19.6251H146.578V19.0641ZM137.166 19.3759C137.413 21.5742 139.301 22.9574 141.908 22.9574V22.3964C139.497 22.3964 137.929 21.1467 137.723 19.3133L137.166 19.3759ZM141.908 22.9574C143.55 22.9574 144.905 22.4251 145.736 21.8126L145.403 21.3609C144.671 21.9003 143.434 22.3964 141.908 22.3964V22.9574ZM145.293 21.6335L145.54 23.0939L146.093 23.0005L145.846 21.54L145.293 21.6335ZM145.664 22.8121C144.83 23.3549 143.342 23.8569 141.6 23.8569V24.4179C143.437 24.4179 145.034 23.8914 145.97 23.2823L145.664 22.8121ZM137.424 18.5966H144.809V18.0356H137.424V18.5966ZM145.089 18.3134C145.067 15.9898 143.327 14.4359 141.127 14.4359V14.9969C143.04 14.9969 144.509 16.3228 144.528 18.3188L145.089 18.3134ZM141.127 14.4359C140.055 14.4359 139.089 14.7977 138.373 15.4712C137.657 16.1455 137.209 17.1158 137.144 18.3007L137.704 18.3315C137.762 17.2743 138.158 16.4448 138.758 15.8797C139.359 15.3139 140.183 14.9969 141.127 14.9969V14.4359ZM150.651 14.9632H150.931V14.6827H150.651V14.9632ZM148.162 14.9632H147.882V15.2437H148.162V14.9632ZM148.162 13.8113L147.957 13.6195L147.882 13.7004V13.8113H148.162ZM151.556 10.191V9.9105H151.435L151.351 9.99916L151.556 10.191ZM152.646 10.191H152.927V9.9105H152.646V10.191ZM152.646 13.5439H152.366V13.8244H152.646V13.5439ZM157.028 13.5439H157.308V13.2634H157.028V13.5439ZM157.028 14.9632V15.2437H157.308V14.9632H157.028ZM152.646 14.9632V14.6827H152.366V14.9632H152.646ZM156.945 22.2244L157.224 22.1961L157.188 21.8377L156.85 21.9608L156.945 22.2244ZM157.089 23.6437L157.198 23.9022L157.389 23.8218L157.368 23.6154L157.089 23.6437ZM154.456 23.8569C153.278 23.8569 152.404 23.5965 151.827 23.0995C151.257 22.6092 150.931 21.8488 150.931 20.7434H150.37C150.37 21.9623 150.734 22.899 151.46 23.5246C152.179 24.1435 153.208 24.4179 154.456 24.4179V23.8569ZM150.931 20.7434V14.9632H150.37V20.7434H150.931ZM150.651 14.6827H148.162V15.2437H150.651V14.6827ZM148.443 14.9632V13.8113H147.882V14.9632H148.443ZM148.367 14.0032L151.761 10.3828L151.351 9.99916L147.957 13.6195L148.367 14.0032ZM151.556 10.4715H152.646V9.9105H151.556V10.4715ZM152.366 10.191V13.5439H152.927V10.191H152.366ZM152.646 13.8244H157.028V13.2634H152.646V13.8244ZM156.747 13.5439V14.9632H157.308V13.5439H156.747ZM157.028 14.6827H152.646V15.2437H157.028V14.6827ZM152.366 14.9632V20.3937H152.927V14.9632H152.366ZM152.366 20.3937C152.366 20.745 152.401 21.3662 152.757 21.9037C153.128 22.4631 153.807 22.8752 154.971 22.8752V22.3142C153.954 22.3142 153.471 21.9652 153.225 21.5937C152.964 21.2004 152.927 20.7211 152.927 20.3937H152.366ZM154.971 22.8752C155.989 22.8752 156.809 22.5724 157.041 22.488L156.85 21.9608C156.629 22.041 155.886 22.3142 154.971 22.3142V22.8752ZM156.666 22.2527L156.81 23.672L157.368 23.6154L157.224 22.1961L156.666 22.2527ZM156.981 23.3852C156.614 23.5395 155.705 23.8569 154.456 23.8569V24.4179C155.799 24.4179 156.783 24.0771 157.198 23.9022L156.981 23.3852Z" fill="white"/>
</svg>
