<?xml version="1.0" encoding="utf-8"?>
<!-- Generator: Adobe Illustrator 25.4.1, SVG Export Plug-In . SVG Version: 6.00 Build 0)  -->
<svg version="1.1" id="Layer_1" xmlns="http://www.w3.org/2000/svg" xmlns:xlink="http://www.w3.org/1999/xlink" x="0px" y="0px"
	 viewBox="0 0 1367.5 172.6" style="enable-background:new 0 0 1367.5 172.6;" xml:space="preserve">
<style type="text/css">
	.st0{fill-rule:evenodd;clip-rule:evenodd;fill:#FFFFFF;}
	.st1{display:none;fill-rule:evenodd;clip-rule:evenodd;}
	.st2{fill:#FFFFFF;}
</style>
<path class="st0" d="M19.2,8.5c2-1.3,5.9-4.1,7.6-5.2c0.4-0.3,1.1-0.4,1.5-0.1c1.8,1.1,6.2,4,8.3,5.3c1,0.6,0.5,1,0,1.4
	c-1.9,1.1-5.8,3.6-7.8,4.6c-1.2,0.6-1.6,0.4-2.1,0.1c-1.8-1.1-5.7-3.5-7.5-4.7C18.4,9.5,18.2,9.1,19.2,8.5z"/>
<path id="Shape_1_copy" class="st0" d="M42.6,28.6c3-2,8.4-5.8,11-7.6c0.8-0.8,2.1-0.8,2.9,0c2.8,1.9,9,5.7,12,7.8
	c0.8,0.6,1.2,1.5,0.2,2.2C66,32.8,60,36,57,37.9c-1.8,1.1-2.6,0.8-3.6,0.1c-2.7-1.7-7.9-4.9-10.7-6.8C41.2,30.2,40.7,29.8,42.6,28.6
	z"/>
<path id="Shape_1_copy_2" class="st0" d="M68.6,16.1c2.6-1.7,6.4-4.2,8.4-5.6c0.8-0.8,2-0.9,2.9-0.4c2.4,1.6,7.6,4.9,10,6.5
	c0.6,0.4,1.1,1.1-0.3,1.8c-2.4,1.4-6.8,3.9-9.2,5.3c-1.7,1-2.4,0.7-3.6-0.2c-2.2-1.5-5.9-3.8-8.1-5.1C67.2,17.6,67.3,16.9,68.6,16.1
	z"/>
<path class="st0" d="M77.3,57.1c-3.5-2.2-10.2-5.9-13.8-8.1c-1.7-1-2.2-1.9-0.3-3.1c3.8-2.3,10.9-6.9,14.4-9
	c1.1-0.7,2.5-0.8,3.6-0.2c3.4,1.9,10.9,6.3,14.7,8.6c1.4,0.9,2.2,1.7,0.4,2.8c-3.5,2.1-10.4,6.3-14,8.7
	C80.8,58.1,78.8,58.1,77.3,57.1z"/>
<path id="Rectangle_3_copy_3" class="st0" d="M98.1,73.4c-3.7-2.2-10-5.7-13.5-7.9c-1.9-1.2-1.6-2.1,0.2-3.2
	c3.6-2.3,10-6.5,13.6-8.5c1.4-1,3.2-1,4.6-0.1c3.4,2,9.9,5.7,13.7,8c2.3,1.5,1.9,2.5,0.6,3.3c-3.5,2.1-9.8,6.1-13.4,8.4
	C102.3,74.4,101,75.1,98.1,73.4z"/>
<path id="Rectangle_3_copy_4" class="st0" d="M125.1,61.6c-3.7-2.2-10.5-6.3-14.5-8.6c-2-1.1-2.3-2.3-0.1-3.7
	c3.9-2.4,10.7-6.5,14.3-8.8c1.4-1.1,3.3-1.2,4.8-0.2c3.6,2.1,10.5,6.3,14.6,8.7c1.7,1,2.3,2.4,0.5,3.5c-3.8,2.3-10.5,6.5-14.4,8.8
	C127.8,62.9,126.6,62.5,125.1,61.6z"/>
<path id="Rectangle_3_copy_5" class="st0" d="M152.6,50.3c-4.1-2.5-11.6-7-16.1-9.8c-2.6-1.6-3.3-2.7-0.2-4.5
	c4.6-2.8,12.3-7.7,16.3-10.3c1.6-1.1,3.7-1.1,5.3,0c4.3,2.6,12.6,7.5,17,10.4c1,0.7,1.3,2.1,0.7,3.1c-0.1,0.2-0.3,0.4-0.5,0.6
	c-4.3,2.6-12.2,7.8-16.6,10.4C156.7,51.2,154.5,51.3,152.6,50.3z"/>
<path id="Rectangle_3_copy" class="st0" d="M99.1,41.4c-3-2-8.9-5.3-12.2-7.1c-1.4-0.8-1.7-1.6,0-2.7C90.1,29.5,96,26,99,24.1
	c1-0.9,2.5-1,3.6-0.1c3,1.7,8.9,5.1,12.3,7.1c1.9,1.1,1.5,2.1,0.1,3c-3.2,1.9-8.9,5.3-11.8,7.3C101.9,42.2,100.3,42.2,99.1,41.4z"/>
<path id="Rectangle_3_copy_2" class="st0" d="M120.6,27.3c-3-1.6-9-5.1-12-6.9c-1.3-0.8-1.2-1.6-0.1-2.2c3-1.7,8.7-5.4,11.7-7.2
	c1.7-1.1,1.7-1.4,4,0.1c3,1.9,8.7,5,11.6,6.7c1.4,0.8,1.2,1.5,0,2.2c-2.9,1.8-8.3,5.3-11.4,7C122.6,28,121.9,28,120.6,27.3z"/>
<path class="st0" d="M2,30.3v16.1c-0.1,0.5,0.2,1.1,0.7,1.3c2.3,1.4,10.5,6.1,14.2,8.1c1.5,0.8,1.8,0.5,1.8-0.3V39.8
	c0-0.9-0.5-1.8-1.4-2.1c-3.4-1.8-12.1-6.6-14.6-7.8C2.3,29.6,2,29.8,2,30.3z"/>
<path class="st0" d="M18.1,63.7c3.1,1.5,11.3,6.1,14.3,7.8c0.8,0.4,1.2,1.3,1,2.1c0,3.2-0.4,10.7-0.4,14.3c0,1-0.1,1.9-1.6,1.1
	c-3.3-1.7-10.9-5.9-13.8-7.5c-0.8-0.4-1.3-1.3-1.1-2.2c0-3.3,0.4-11.3,0.4-14.6C16.9,64.3,17.1,63.2,18.1,63.7z"/>
<path id="Rectangle_1_copy" class="st0" d="M36.8,46.7c3,1.6,12,6.6,15.5,8.5c1.3,0.7,1.3,1.1,1.3,1.8c0,3.4-0.5,13.7-0.5,17.1
	c0,0.5-0.1,1.1-1.1,0.5c-3.3-1.7-12.6-7-15.7-8.7c-0.7-0.3-1.1-1-1-1.8c0-3.5,0.5-13.9,0.5-17.1C35.9,46.6,36,46.2,36.8,46.7z"/>
<path id="Rectangle_1_copy_2" class="st0" d="M37.7,96.6c3.2,2,9.8,5.8,12.5,7.4c0.8,0.5,1.3,1.4,1.2,2.3c0,3.2-0.4,10.4-0.4,14.2
	c0,1.4-0.4,2.2-1.7,1.4c-3-1.8-9.4-5.5-12.4-7.3c-1.5-0.9-1.5-1.7-1.5-3.2c0-3.6,0.4-10.7,0.4-14C35.7,96.2,35.8,95.4,37.7,96.6z"/>
<path id="Rectangle_1_copy_3" class="st0" d="M56.1,82.5c3.9,2.3,11.8,6.7,15.4,8.8c1.5,0.9,1.9,1.5,1.9,2.9c0,3.8,0,12.6,0,16.8
	c0,1.5-0.7,1.8-2.2,1.1c-4-2.1-12.3-6.6-15.8-8.6c-1.6-0.9-1.6-1.5-1.6-2.8c0-3.9,0-12.3,0-16.6C53.7,82.7,53.6,81.1,56.1,82.5z"/>
<path id="Rectangle_1_copy_4" class="st0" d="M57.5,115.1c3.4,2.1,10.2,6.3,13.7,8.3c2.1,1.2,2.1,2.3,2.1,3.8c0,4,0,11.7,0,15.7
	c0,1.5-0.9,1.9-2.1,1.2c-3.4-2-9.9-6.1-13.4-8.1c-1.7-1-2.3-1.7-2.3-3.2c0-3.8,0-12.5,0-16.5C55.5,115.2,56,114.2,57.5,115.1z"/>
<path id="Rectangle_1_copy_5" class="st0" d="M76.8,69.7c3.6,2.1,12.1,7,15.9,9.3c1.5,0.9,2,1.6,2,3.3c0,4.2,0,13.3,0,17.3
	c0,1.1-0.2,1.8-1.4,1.1c-3.5-1.9-12.6-7-16.5-9.1C75.3,90.8,75,90.1,75,89c0-3.9,0-13.7,0-18.1C75.1,69.6,75.6,69,76.8,69.7z"/>
<path id="Rectangle_1_copy_6" class="st0" d="M80.5,99.5c3.9,2,12.5,6.9,16.7,9c1.5,0.7,2.4,2.3,2.2,3.9c0,4.2,0,12.4,0,16.6
	c0,2-0.4,2.5-2.3,1.5c-4.2-2.3-13.1-7.1-16.8-9.1c-1.4-0.8-1.6-1.5-1.6-3.1c0-4.2-0.1-13.3,0-17.6C78.7,99.1,78.9,98.6,80.5,99.5z"
	/>
<path id="Rectangle_1_copy_7" class="st0" d="M83.5,129.9c4.3,2.5,13.5,8.2,17.8,10.8c1.5,0.9,1.9,2,1.8,3.7
	c0,4.8-0.1,15.4-0.1,20.1c0,1.3-0.3,2.1-2.4,0.9c-4.6-2.6-14.7-8.4-18.5-10.7c-1.6-1-1.6-1.8-1.6-3.4c0-5.1,0-15.5,0-20.1
	C80.5,129.2,81.9,129.1,83.5,129.9z"/>
<path class="st0" d="M107.6,82.3c4.2-2.4,13.3-8,17.8-10.8c1.2-0.8,2.6-1,2.6,2c0.1,4.8,0.4,13.8,0.5,18.8c0.2,2-0.9,3.9-2.7,4.7
	c-4.4,2.5-13,7.5-17.6,9.9c-2.1,1.1-2.9,0.6-2.9-1.1V86.3C105.4,83.8,106.2,83.1,107.6,82.3z"/>
<path id="Rectangle_2_copy" class="st0" d="M107.9,111.2c4.6-2.8,14.3-8.8,18.6-11.4c0.8-0.5,2.1-1,2.1,1.2v21.2
	c0.1,1.6-0.8,3-2.2,3.7c-4.3,2.3-13.5,7.7-18.2,10.2c-2.7,1.4-2.8,0.5-2.8-1.5c0-5.1-0.1-15.1,0-19.6
	C105.5,113.5,105.8,112.5,107.9,111.2z"/>
<path id="Rectangle_2_copy_2" class="st0" d="M108.1,140.2c4.4-3,13.5-8.4,17.9-11.1c1.7-1,2.6-1.1,2.6,1v21.2
	c0.2,1.5-0.7,3-2.1,3.7c-4.1,2.3-13,7.4-17.9,10.1c-2.1,1.2-3.2,1.8-3.2-0.8v-19.8C105.4,142.8,105.5,142,108.1,140.2z"/>
<path id="Rectangle_2_copy_3" class="st0" d="M133.4,67.3c4-2.6,12.4-7.6,17.1-10.3c2.3-1.4,3.2-1,3.2,0.9c0,5.1,0.4,15.8,0.5,20.5
	c0,1.3-0.3,2.3-2.3,3.6c-4.2,2.7-13.6,7.6-18.2,10.2c-1.7,1-2.7,0.6-2.7-1.4V71.1C131,69.9,131.2,68.6,133.4,67.3z"/>
<path id="Rectangle_2_copy_3-2" class="st0" d="M132.8,96.8c4-2.6,13.8-8.4,18.6-11.5c1.8-1.2,2.8-1,2.8,0.8v21.6
	c0.1,1.2-0.6,2.4-1.8,3c-4.1,2.3-14.2,8-18.9,10.7c-1.8,1-2.5,1.1-2.5-0.9V99.6C131,98.5,131.3,97.7,132.8,96.8z"/>
<path id="Rectangle_2_copy_3-3" class="st0" d="M132.8,125.9c4.2-2.7,14.9-9.2,19.3-11.9c1.4-0.9,2-0.3,2,0.9v22.3
	c0,1.2-0.7,2.3-1.8,2.8c-4.3,2.5-15.1,8.7-19.5,11c-1.2,0.6-1.8,0.3-1.8-1.4v-20.7C131,127.6,131.4,126.8,132.8,125.9z"/>
<path id="Rectangle_2_copy_4" class="st0" d="M157.6,53.5c4-2.6,14.5-8.9,18.9-11.5c0.9-0.6,2-0.7,2,0.8c0,4.8,0.5,16.9,0.5,21.6
	c0,1.9-0.3,2.1-1.7,2.9c-4.2,2.4-14.9,8.4-19.4,10.9c-1.5,0.8-2,0.6-2-1.3V56.2C156,55.1,156.1,54.5,157.6,53.5z"/>
<path id="Rectangle_2_copy_4-2" class="st0" d="M158.2,82.2c4.1-3,13.7-8.5,18.3-11.3c1.6-1,2.7-1,2.7,1.2c0,4.7-0.1,14.2,0,19.5
	c0.1,3.4-1,4.4-2.2,5.1c-4,2.3-12.6,7.1-17.4,9.8c-2.2,1.2-3.5,2.2-3.6-1.5c-0.1-4.7,0-13,0-17.3C156,85.2,156.2,83.7,158.2,82.2z"
	/>
<path id="Rectangle_2_copy_4-3" class="st0" d="M158.4,110.9c2.8-1.8,14-8.3,18.9-11.3c0.8-0.5,1.9,0,1.9,0.6v21.4
	c0,2.3-1,3.5-1.7,3.9c-4.2,2.4-14.2,7.9-18.6,10.4c-1.8,1-3-0.2-3-1.1c0-5,0-17.3,0-19.7C155.9,113.4,156.8,111.7,158.4,110.9z"/>
<path id="webbycrown" class="st1" d="M202.6,135.1h16.2c0.6,0,1.2-0.2,1.7-0.6c0.5-0.4,1-0.9,1.4-1.4c0.4-0.6,0.7-1.2,1-1.9
	s0.5-1.3,0.8-1.9c1.5-3.9,2.9-7.7,4.4-11.4c1.5-3.7,2.9-7.5,4.4-11.4l10.4,26.6c0.2,0.6,0.6,1.1,1.1,1.4c0.7,0.4,1.4,0.6,2.2,0.5
	h16.1c0.8,0,1.6-0.3,2.2-0.9c0.5-0.4,0.9-1,1.2-1.6c2.9-7.5,6-14.9,9.1-22.4s6.2-15,9.4-22.4c3.1-7.5,6.3-14.9,9.4-22.4
	s6.2-15,9.2-22.5v-0.2c0.1-0.2,0.1-0.5,0.1-0.7c0-0.6-0.2-1.1-0.6-1.4c-0.6-0.4-1.4-0.6-2.1-0.5h-20.8c-1.6-0.1-3.1,0.9-3.6,2.4
	l-21.4,58.2l-8.8-25.2l11.7-32.6v-0.2c0.1-0.2,0.1-0.5,0.1-0.7c0-0.6-0.2-1.1-0.6-1.4c-0.6-0.4-1.4-0.6-2.1-0.5H233
	c-1.6-0.1-3.1,0.9-3.6,2.4l-18.7,58.3l-20.2-58.3c-0.4-1.5-1.9-2.5-3.4-2.4h-21.2c-1.6,0-2.4,0.6-2.4,1.8c0,0.2,0,0.3,0.1,0.5
	s0.1,0.4,0.1,0.6c5.7,14.5,11.3,28.9,16.9,43.1s11.3,28.6,16.9,43.1c0.3,0.8,0.7,1.5,1.1,2.3c0.4,0.8,0.8,1.5,1.3,2.2
	C200.4,134.7,201.5,135.2,202.6,135.1L202.6,135.1L202.6,135.1z M313.6,132.3c-0.1,0.8,0.2,1.5,0.8,2.1c0.6,0.5,1.3,0.7,2.1,0.7
	h66.7c1.6,0,2.5-0.6,2.7-1.8c0.3-0.3,0.5-0.7,0.5-1.1v-16.1c0-2-1-2.9-3-2.9h-44.3V96.8h33c0.8,0.1,1.6-0.3,2.1-0.8
	c0.4-0.5,0.7-1.1,0.7-1.7V80.4c0.1-0.7-0.2-1.5-0.8-1.9c-0.6-0.4-1.3-0.6-2.1-0.6h-33V62h42.7c0.9,0.1,1.7-0.3,2.3-1
	c0.5-0.6,0.8-1.3,0.8-2.1V43.1c0-0.8-0.2-1.6-0.8-2.2c-0.6-0.6-1.4-0.9-2.2-0.8h-65.4c-0.8,0-1.6,0.2-2.1,0.8s-0.8,1.4-0.8,2.1
	L313.6,132.3L313.6,132.3z M401.2,132.3c-0.1,0.8,0.2,1.5,0.8,2.1c0.6,0.5,1.3,0.7,2.1,0.7h47.7c3.8,0,7.6-0.8,11-2.3
	s6.5-3.6,9.2-6.2c2.6-2.6,4.7-5.7,6.2-9.2s2.3-7.2,2.3-11c0-4.3-0.9-8.5-2.8-12.4c-1.8-3.8-4.4-7.2-7.5-10c1.9-2.2,3.4-4.7,4.4-7.4
	c1.1-2.9,1.6-5.9,1.5-8.9c0-3.7-0.7-7.4-2.2-10.8c-1.5-3.3-3.5-6.3-6.1-8.8s-5.7-4.5-9-5.9c-3.5-1.4-7.2-2.2-10.9-2.1h-43.8
	c-0.8,0-1.6,0.2-2.1,0.8s-0.8,1.4-0.8,2.1L401.2,132.3L401.2,132.3z M453.6,109.4c-0.5,1.3-1.2,2.4-2.1,3.4s-2,1.8-3.2,2.4
	c-1.3,0.6-2.6,0.9-4,0.9h-17.4V94.7h17.4c1.4,0,2.8,0.3,4.1,1c1.2,0.6,2.3,1.5,3.2,2.5c0.9,1,1.6,2.2,2.1,3.4
	c0.5,1.2,0.8,2.5,0.8,3.8C454.3,106.8,454.1,108.1,453.6,109.4L453.6,109.4z M450.1,72c-0.5,1.1-1.2,2.1-2.1,2.9
	c-0.9,0.9-2,1.5-3.2,1.9c-1.3,0.5-2.7,0.7-4.1,0.7h-13.9V58.9h14.1c1.4,0,2.7,0.2,4,0.7c1.2,0.5,2.3,1.1,3.2,2
	c0.9,0.8,1.6,1.8,2,2.9c0.5,1.1,0.7,2.4,0.7,3.6C450.9,69.5,450.6,70.8,450.1,72L450.1,72z M492.8,132.3c-0.1,0.8,0.2,1.5,0.8,2.1
	c0.6,0.5,1.3,0.7,2.1,0.7h47.7c3.8,0,7.6-0.8,11-2.3s6.5-3.6,9.2-6.2c2.6-2.6,4.7-5.7,6.2-9.2s2.3-7.2,2.3-11
	c0-4.3-0.9-8.5-2.8-12.4c-1.8-3.8-4.4-7.2-7.5-10c1.9-2.2,3.4-4.7,4.4-7.4c1.1-2.9,1.6-5.9,1.5-8.9c0-3.7-0.7-7.4-2.2-10.8
	c-1.5-3.3-3.5-6.3-6.1-8.8s-5.7-4.5-9-5.9c-3.5-1.4-7.2-2.2-10.9-2.1h-43.8c-0.8,0-1.6,0.2-2.1,0.8s-0.8,1.4-0.8,2.1L492.8,132.3
	L492.8,132.3z M545.2,109.4c-0.5,1.3-1.2,2.4-2.1,3.4c-0.9,1-2,1.8-3.2,2.4c-1.3,0.6-2.6,0.9-4,0.9h-17.4V94.7h17.4
	c1.4,0,2.8,0.3,4.1,1c1.2,0.6,2.3,1.5,3.2,2.5s1.6,2.2,2.1,3.4c0.5,1.2,0.8,2.5,0.8,3.8C546,106.8,545.7,108.1,545.2,109.4
	L545.2,109.4z M541.7,72c-0.5,1.1-1.2,2.1-2.1,2.9c-0.9,0.9-2,1.5-3.2,1.9c-1.3,0.5-2.7,0.7-4.1,0.7h-13.9V58.9h14.1
	c1.4,0,2.7,0.2,4,0.7c1.2,0.5,2.3,1.1,3.2,2c0.9,0.8,1.6,1.8,2,2.9c0.5,1.1,0.7,2.4,0.7,3.6C542.5,69.5,542.2,70.8,541.7,72
	L541.7,72z M604.4,42c-0.3-0.5-0.5-0.9-0.7-1.1c-0.1-0.2-0.3-0.4-0.5-0.5s-0.3-0.2-0.5-0.2s-0.5-0.1-0.7-0.2h-25.4
	c-0.3,0-0.5,0.1-0.7,0.3s-0.3,0.4-0.3,0.7c0.1,0.6,0.4,1.2,0.9,1.6l31.2,53.6v35.9c0,0.8,0.2,1.6,0.7,2.2c0.5,0.6,1.3,0.8,2,0.8H630
	c2,0,3-1,3-3V96.3l31.2-53.7c0.5-0.4,0.8-1,0.9-1.6c0-0.3-0.1-0.5-0.3-0.7S664.3,40,664,40h-25.4c-0.2,0.1-0.5,0.1-0.7,0.2
	c-0.2,0-0.4,0.1-0.6,0.2c-0.2,0.1-0.4,0.3-0.5,0.5c-0.2,0.4-0.5,0.7-0.7,1.1l-15.9,33.1L604.4,42z M738.3,41.1
	c-9.4-2.9-19.5-3.1-29-0.6c-4.2,1.1-8.2,2.8-12,4.9c-3.7,2.1-7.1,4.7-10.2,7.6c-3,3-5.7,6.3-7.9,9.9c-2.2,3.6-3.9,7.6-5.1,11.7
	c-2.4,8.5-2.4,17.5,0,26c1.2,4.1,2.9,8,5,11.6c2.2,3.6,4.8,6.9,7.8,9.9c3.1,3,6.5,5.5,10.2,7.6c3.8,2.2,7.8,3.8,12,4.9
	c9.7,2.5,19.9,2.3,29.5-0.7c4.9-1.6,9.5-3.9,13.6-6.8c1-0.4,1.6-1.4,1.6-2.4c0-0.5-0.2-1.1-0.5-1.5l-3.8-6c-0.4-0.9-1.2-1.5-2.2-1.6
	c-0.7,0.1-1.4,0.3-2,0.7c-2.1,1.3-4.2,2.5-6.5,3.6c-1.9,0.9-3.8,1.7-5.8,2.4c-1.8,0.6-3.6,1-5.5,1.3c-6.6,0.9-13.4,0.1-19.6-2.3
	c-4.4-1.7-8.4-4.3-11.9-7.5c-3.4-3.2-6.2-7.1-8.1-11.4c-2-4.5-3.1-9.5-3-14.4c0-4.8,1-9.6,3-14s4.7-8.3,8.2-11.6
	c3.6-3.4,7.8-6.1,12.4-8c5-2,10.3-3,15.7-3c3.8,0.2,7.5,0.9,11,2c3.5,1.2,6.9,2.9,10,5c0.4,0.3,0.8,0.5,1.3,0.7
	c0.3,0.1,0.7,0.2,1,0.2c1-0.1,1.8-0.7,2.3-1.5l3.5-5.6c0.4-0.4,0.5-1,0.5-1.5s-0.2-1-0.5-1.4c-0.3-0.5-0.7-0.9-1.2-1.2
	C748,45.1,743.3,42.7,738.3,41.1L738.3,41.1z M768.7,132.3c0,1.9,1,2.8,2.9,2.8h6.9c2,0,3-0.9,3-2.8v-31.7h23.7c1.3,0,2.3,0,3.1,0
	s1.4,0,1.8,0c0.4,0,0.8,0,1.2-0.1l15.8,32.3c0.7,1.6,1.8,2.4,3.2,2.4h8c1.6,0,2.4-0.7,2.4-2v-0.8l-17.4-34.6c2.6-1.2,5-2.8,7.2-4.6
	c2.1-1.8,4-4,5.5-6.3c1.5-2.4,2.8-4.9,3.6-7.6c0.9-2.8,1.3-5.7,1.3-8.6c0-4.1-0.8-8.1-2.4-11.8c-1.6-3.6-3.8-6.9-6.6-9.7
	c-2.9-2.8-6.2-5-9.9-6.5c-3.9-1.6-8.1-2.4-12.3-2.4h-38c-1.9,0-2.9,1-2.9,3.1L768.7,132.3L768.7,132.3z M826.8,77.2
	c-0.9,2.1-2.2,4.1-3.8,5.8c-1.7,1.7-3.6,3-5.8,4c-2.3,1-4.8,1.5-7.3,1.5h-28.4V52.3h28.1c2.5,0,5,0.5,7.3,1.5c2.2,1,4.2,2.3,5.9,4
	c1.6,1.7,3,3.6,3.9,5.8c0.9,2.1,1.4,4.4,1.4,6.8C828.2,72.7,827.7,75,826.8,77.2L826.8,77.2z M868.9,77.8c0.9-3.1,2.1-6,3.8-8.7
	c1.6-2.7,3.6-5.2,5.9-7.4c2.3-2.2,4.8-4.1,7.6-5.7c2.8-1.6,5.8-2.8,9-3.7c3.3-0.9,6.6-1.3,10-1.3c5,0,10,0.9,14.6,2.9
	c4.4,1.8,8.5,4.5,11.9,7.8c3.4,3.3,6.1,7.2,8,11.6c3.3,7.5,3.9,16,1.6,23.9c-0.9,3.1-2.2,6-3.8,8.7s-3.6,5.2-5.9,7.4
	c-2.3,2.2-4.8,4.1-7.6,5.7s-5.8,2.8-9,3.7c-6.5,1.7-13.4,1.7-19.9,0c-3.1-0.9-6.1-2.1-9-3.7c-2.8-1.6-5.3-3.5-7.6-5.7
	s-4.2-4.7-5.9-7.4c-1.6-2.7-2.9-5.6-3.8-8.7C867.1,90.8,867.1,84.1,868.9,77.8L868.9,77.8z M891.8,40.5c-4.2,1.1-8.2,2.8-12,4.9
	c-3.7,2.1-7.1,4.7-10.2,7.6c-3,3-5.7,6.3-7.9,9.9c-2.2,3.6-3.9,7.6-5.1,11.7c-2.4,8.5-2.4,17.5,0,26c1.2,4.1,2.9,8,5,11.6
	c2.2,3.6,4.8,6.9,7.8,9.9c3.1,3,6.5,5.5,10.2,7.6c3.8,2.2,7.8,3.8,12,4.9c13.1,3.5,27.1,1.7,38.9-4.9c7.4-4.2,13.6-10.2,18.1-17.5
	c6.8-11.3,8.6-25,5-37.7c-1.2-4.1-2.9-8.1-5.1-11.7c-2.2-3.6-4.8-7-7.9-9.9c-3.1-3-6.5-5.5-10.2-7.6c-3.8-2.2-7.8-3.8-12-4.9
	c-4.4-1.2-8.8-1.7-13.3-1.7C900.7,38.8,896.2,39.4,891.8,40.5L891.8,40.5z M1009.8,116.3L979,42.7c-0.3-0.8-0.7-1.5-1.4-2
	c-0.5-0.4-1.2-0.6-1.8-0.6h-7.4c-1.7,0-2.6,0.7-2.6,2c0,0.2,0,0.4,0.1,0.6c0,0.1,0.1,0.3,0.2,0.4l38.3,89.7c0.3,0.6,0.7,1.1,1.1,1.6
	c0.6,0.6,1.4,0.9,2.2,0.9h4.7c0.7,0,1.4-0.3,1.9-0.8s0.9-1.2,1.2-1.9l16.8-39.1l17,39.4c0.1,0.6,0.4,1.2,0.8,1.5
	c0.7,0.6,1.6,0.9,2.5,0.8h4.5c0.6,0,1.1-0.1,1.6-0.4c0.4-0.2,0.8-0.5,1.1-0.9c0.2-0.3,0.4-0.6,0.6-0.9c0.1-0.2,0.1-0.3,0.2-0.5
	l38.4-89.7v-0.6c0-0.6-0.2-1.1-0.6-1.5c-0.7-0.5-1.5-0.7-2.3-0.6h-6.8c-1.6-0.1-3,0.9-3.5,2.4l-30.8,73.9l-16.1-38l15.1-35.3v-0.8
	c0-0.6-0.2-1.1-0.6-1.5c-0.6-0.5-1.4-0.7-2.2-0.6h-8.6c-0.9,0-1.6,0.6-1.8,1.4L1009.8,116.3z M1191.8,135.1c2.2,0,3.2-0.9,3.2-2.8
	V42.9c0-0.8-0.4-1.6-1-2c-0.6-0.5-1.4-0.8-2.2-0.8h-6.7c-1.4-0.2-2.7,0.9-2.9,2.3v0.1v71.4l-56.1-72.4c-0.6-0.9-1.7-1.4-2.8-1.4
	h-8.8c-0.8,0-1.6,0.3-2.1,0.8c-0.5,0.6-0.8,1.3-0.8,2.1v89.3c0,1.9,1,2.8,2.9,2.8h6.7c2,0,3-0.9,3-2.8V58.8l57.6,74.9
	c0.5,0.9,1.5,1.4,2.5,1.4L1191.8,135.1L1191.8,135.1z"/>
<path id="Solutions" class="st1" d="M945.2,170.3c0.2,0,0.4-0.1,0.6-0.2l1.2-1.2c0.2-0.1,0.3-0.3,0.3-0.6c0-0.2-0.1-0.4-0.3-0.6
	c-0.5-0.6-1.1-1.1-1.7-1.5c-0.7-0.5-1.4-0.9-2.1-1.2c-0.7-0.3-1.5-0.6-2.3-0.8s-1.5-0.3-2.3-0.3c-1.3,0-2.5,0.2-3.7,0.5
	c-1,0.3-2,0.8-2.8,1.5c-0.8,0.6-1.4,1.4-1.8,2.3c-0.4,0.9-0.7,1.9-0.6,2.9c0,0.8,0.1,1.6,0.5,2.3c0.3,0.7,0.8,1.3,1.4,1.8
	c0.8,0.6,1.6,1.1,2.5,1.5c1.2,0.5,2.4,0.9,3.6,1.3c1,0.3,2,0.6,2.9,0.9c0.8,0.2,1.6,0.5,2.3,0.9c0.6,0.3,1.1,0.7,1.6,1.2
	c0.4,0.5,0.6,1.1,0.6,1.7c0,0.7-0.2,1.5-0.6,2.1c-0.4,0.6-0.9,1.1-1.5,1.5s-1.3,0.7-2,0.9s-1.4,0.3-2.2,0.3c-0.5,0-1-0.1-1.5-0.2
	c-0.6-0.1-1.2-0.3-1.8-0.6c-0.7-0.3-1.3-0.6-1.9-1c-0.6-0.4-1.2-0.9-1.7-1.4l-0.2-0.2c-0.1-0.2-0.3-0.3-0.5-0.3s-0.4,0.1-0.6,0.2
	l-1.4,1.2c-0.2,0.1-0.3,0.3-0.3,0.5s0.1,0.4,0.2,0.6c0.6,0.7,1.2,1.4,1.9,1.9c0.7,0.6,1.5,1,2.3,1.4s1.7,0.7,2.6,0.9
	c0.9,0.2,1.8,0.3,2.7,0.3c1.3,0,2.6-0.2,3.8-0.6c1.1-0.4,2.2-0.9,3.1-1.6c0.9-0.7,1.6-1.6,2.1-2.6s0.8-2.2,0.8-3.3
	c0-0.9-0.2-1.9-0.6-2.7c-0.4-0.8-1-1.4-1.7-1.9c-0.7-0.6-1.6-1-2.4-1.3c-0.9-0.4-1.8-0.7-2.8-1c-0.9-0.3-1.9-0.6-2.8-0.8
	c-0.8-0.2-1.6-0.5-2.4-0.9c-0.6-0.3-1.2-0.7-1.7-1.2c-0.4-0.4-0.7-1-0.6-1.6c0-0.5,0.1-1,0.3-1.4c0.2-0.5,0.5-0.9,1-1.2
	c0.5-0.4,1-0.7,1.6-0.9c0.8-0.2,1.6-0.3,2.4-0.3c0.7,0,1.5,0.1,2.2,0.4c0.6,0.2,1.2,0.5,1.8,0.8c0.5,0.3,0.9,0.6,1.4,0.9
	c0.4,0.3,0.6,0.5,0.8,0.6C944.8,170.2,945,170.3,945.2,170.3z M964.7,174.7c0.5-1.7,1.3-3.2,2.6-4.4c0.6-0.6,1.3-1.1,2-1.6
	c0.7-0.4,1.5-0.8,2.4-1c2.2-0.6,4.5-0.4,6.5,0.4c2.4,1,4.3,2.9,5.3,5.3c0.9,2.1,1,4.4,0.4,6.5c-0.2,0.8-0.6,1.6-1,2.4
	c-0.9,1.5-2.1,2.7-3.6,3.6c-0.7,0.4-1.5,0.8-2.4,1c-1.7,0.5-3.6,0.5-5.3,0c-0.8-0.2-1.6-0.6-2.4-1c-1.5-0.9-2.7-2.1-3.6-3.6
	c-0.4-0.7-0.8-1.5-1-2.4C964.2,178.3,964.2,176.4,964.7,174.7L964.7,174.7z M970.8,164.5c-1.1,0.3-2.2,0.8-3.2,1.3
	c-1,0.6-1.9,1.3-2.7,2.1s-1.5,1.7-2.1,2.7c-3.1,5.2-2.2,11.9,2.1,16.2c0.8,0.8,1.7,1.5,2.7,2.1s2.1,1,3.2,1.3c4.6,1.3,9.6,0,13-3.4
	c0.8-0.8,1.5-1.7,2.1-2.7c1.8-3.1,2.3-6.8,1.3-10.3c-0.3-1.1-0.8-2.2-1.3-3.2c-0.6-1-1.3-1.9-2.1-2.7s-1.7-1.5-2.7-2.1
	s-2.1-1-3.2-1.3c-1.2-0.3-2.3-0.5-3.5-0.5C973.2,164,972,164.2,970.8,164.5z M1004.7,187v-21.8c0-0.2-0.1-0.4-0.2-0.6
	c-0.2-0.1-0.3-0.2-0.5-0.2h-1.8c-0.4,0-0.8,0.3-0.8,0.7c0,0,0,0,0,0.1v24.4c-0.1,0.4,0.2,0.7,0.6,0.8c0.1,0,0.1,0,0.2,0h14.9
	c0.2,0,0.4-0.1,0.6-0.2c0.1-0.1,0.2-0.3,0.2-0.5v-1.8c0-0.2-0.1-0.4-0.2-0.6c-0.1-0.1-0.3-0.2-0.5-0.2L1004.7,187L1004.7,187z
	 M1033.2,165.1c0-0.2-0.1-0.4-0.3-0.5c-0.1-0.1-0.3-0.2-0.5-0.2h-1.9c-0.2,0-0.4,0.1-0.5,0.3c-0.1,0.1-0.2,0.3-0.2,0.5v14.9
	c0,1.4,0.3,2.8,0.8,4.1c1.1,2.6,3.1,4.6,5.7,5.7c1.3,0.6,2.7,0.8,4.1,0.8s2.8-0.3,4.2-0.8c1.3-0.5,2.4-1.3,3.4-2.2
	c1-1,1.8-2.1,2.3-3.4c0.6-1.4,0.9-2.8,0.8-4.3v-14.9c0-0.2-0.1-0.4-0.3-0.6c-0.2-0.1-0.4-0.2-0.6-0.2h-1.7c-0.2,0-0.4,0.1-0.6,0.2
	c-0.1,0.1-0.2,0.3-0.2,0.5v14.5c0,1-0.1,2.1-0.4,3.1c-0.3,0.9-0.7,1.8-1.3,2.5c-0.6,0.7-1.4,1.3-2.3,1.7c-1,0.4-2.1,0.6-3.2,0.6
	s-2.1-0.2-3.1-0.6c-0.9-0.4-1.7-0.9-2.3-1.7c-0.6-0.7-1.1-1.6-1.4-2.5c-0.3-1-0.5-2-0.5-3.1V165.1L1033.2,165.1z M1064.2,164.4
	c-0.2,0-0.4,0.1-0.6,0.2c-0.2,0.1-0.2,0.3-0.2,0.6v1.8c0,0.2,0.1,0.5,0.2,0.6c0.2,0.1,0.4,0.2,0.6,0.2h7.3v21.8
	c0,0.2,0.1,0.4,0.2,0.6c0.2,0.1,0.4,0.2,0.6,0.2h1.8c0.2,0,0.4-0.1,0.6-0.2c0.1-0.2,0.2-0.4,0.2-0.6v-21.8h7.3
	c0.2,0,0.5-0.1,0.6-0.3s0.2-0.4,0.2-0.6v-1.8c0-0.2-0.1-0.4-0.3-0.6c-0.2-0.1-0.4-0.2-0.6-0.2L1064.2,164.4L1064.2,164.4z
	 M1095.7,189.6c-0.1,0.4,0.2,0.7,0.6,0.8c0.1,0,0.1,0,0.2,0h1.8c0.4,0.1,0.7-0.2,0.8-0.6c0-0.1,0-0.1,0-0.2v-24.4
	c0-0.2-0.1-0.4-0.2-0.6c-0.2-0.1-0.4-0.2-0.6-0.2h-1.8c-0.2,0-0.4,0.1-0.6,0.2c-0.1,0.2-0.2,0.3-0.2,0.5L1095.7,189.6L1095.7,189.6z
	 M1116.4,174.7c0.2-0.8,0.6-1.6,1-2.4c0.9-1.5,2.1-2.7,3.6-3.6c0.7-0.4,1.5-0.8,2.4-1c2.2-0.6,4.5-0.4,6.5,0.4
	c2.4,1,4.3,2.9,5.3,5.3c0.5,1.2,0.8,2.5,0.8,3.9c0,0.9-0.1,1.8-0.4,2.7c-0.2,0.8-0.6,1.6-1,2.4c-1.3,2.2-3.4,3.9-5.9,4.6
	c-1.7,0.5-3.6,0.5-5.3,0c-0.8-0.2-1.6-0.6-2.4-1c-1.5-0.9-2.7-2.1-3.6-3.6c-0.4-0.7-0.8-1.5-1-2.4
	C1115.9,178.3,1115.9,176.4,1116.4,174.7L1116.4,174.7z M1122.5,164.5c-1.1,0.3-2.2,0.8-3.2,1.3c-1,0.6-1.9,1.3-2.7,2.1
	c-0.8,0.8-1.5,1.7-2.1,2.7s-1,2.1-1.3,3.2c-1.3,4.6,0,9.6,3.4,13c0.8,0.8,1.7,1.5,2.7,2.1s2.1,1,3.2,1.3c4.6,1.3,9.6,0,13-3.4
	c0.8-0.8,1.5-1.7,2.1-2.7c1.2-2,1.8-4.4,1.8-6.7c0-1.2-0.2-2.4-0.5-3.6c-0.3-1.1-0.8-2.2-1.3-3.2c-0.6-1-1.3-1.9-2.1-2.7
	c-0.8-0.8-1.7-1.5-2.7-2.1s-2.1-1-3.2-1.3C1127.2,163.9,1124.8,163.9,1122.5,164.5L1122.5,164.5z M1174.3,190.4
	c0.4,0.1,0.8-0.2,0.8-0.6c0-0.1,0-0.1,0-0.2v-24.4c0-0.2-0.1-0.4-0.3-0.6c-0.2-0.1-0.4-0.2-0.6-0.2h-1.8c-0.4,0-0.7,0.2-0.8,0.6l0,0
	v19.5l-14.9-19.8c-0.2-0.2-0.4-0.4-0.7-0.4h-2.3c-0.2,0-0.4,0.1-0.6,0.2c-0.1,0.2-0.2,0.4-0.2,0.6v24.4c-0.1,0.4,0.2,0.7,0.6,0.8
	c0.1,0,0.1,0,0.2,0h1.8c0.4,0.1,0.7-0.2,0.8-0.6c0-0.1,0-0.1,0-0.2v-20.1l15.3,20.5c0.1,0.2,0.4,0.4,0.7,0.4L1174.3,190.4
	L1174.3,190.4z M1204.9,170.3c0.2,0,0.4-0.1,0.6-0.2l1.2-1.2c0.2-0.1,0.3-0.3,0.3-0.6c0-0.2-0.1-0.4-0.3-0.6
	c-0.5-0.6-1.1-1.1-1.7-1.5c-0.7-0.5-1.4-0.9-2.1-1.2s-1.5-0.6-2.3-0.8s-1.5-0.3-2.3-0.3c-1.3,0-2.5,0.2-3.7,0.5
	c-1,0.3-2,0.8-2.8,1.5c-0.8,0.6-1.4,1.4-1.8,2.3c-0.4,0.9-0.7,1.9-0.6,2.9c0,0.8,0.1,1.6,0.5,2.3c0.3,0.7,0.8,1.3,1.4,1.8
	c0.8,0.6,1.6,1.1,2.5,1.5c1.2,0.5,2.4,0.9,3.6,1.3c1,0.3,2,0.6,2.9,0.9c0.8,0.2,1.6,0.5,2.3,0.9c0.6,0.3,1.1,0.7,1.6,1.2
	c0.4,0.5,0.6,1.1,0.6,1.7c0,0.7-0.2,1.5-0.6,2.1s-0.9,1.1-1.5,1.5s-1.3,0.7-2,0.9s-1.5,0.3-2.2,0.3c-0.5,0-1-0.1-1.4-0.2
	c-0.6-0.1-1.2-0.3-1.8-0.6c-0.7-0.3-1.3-0.6-1.9-1s-1.2-0.9-1.7-1.4l-0.2-0.2c-0.1-0.2-0.3-0.3-0.5-0.3s-0.4,0.1-0.6,0.2l-1.4,1.2
	c-0.2,0.1-0.3,0.3-0.3,0.5s0.1,0.4,0.2,0.6c0.6,0.7,1.2,1.4,1.9,1.9c0.7,0.6,1.5,1,2.3,1.4s1.7,0.7,2.6,0.9s1.8,0.3,2.7,0.3
	c1.3,0,2.6-0.2,3.8-0.6c1.1-0.4,2.2-0.9,3.1-1.6c0.9-0.7,1.6-1.6,2.1-2.6s0.8-2.2,0.8-3.3c0-0.9-0.2-1.9-0.6-2.7s-1-1.4-1.7-1.9
	c-0.7-0.6-1.6-1-2.4-1.3c-0.9-0.4-1.8-0.7-2.8-1s-1.9-0.6-2.8-0.8c-0.8-0.2-1.6-0.5-2.4-0.9c-0.6-0.3-1.2-0.7-1.7-1.2
	c-0.4-0.4-0.7-1-0.7-1.6c0-0.5,0.1-1,0.3-1.4c0.2-0.5,0.5-0.9,0.9-1.2c0.5-0.4,1-0.7,1.7-0.9c0.8-0.2,1.6-0.3,2.4-0.3
	c0.7,0,1.5,0.1,2.2,0.4c0.6,0.2,1.2,0.5,1.8,0.8c0.5,0.3,0.9,0.6,1.4,0.9c0.4,0.3,0.6,0.5,0.8,0.6
	C1204.5,170.2,1204.7,170.3,1204.9,170.3L1204.9,170.3z"/>
<g>
	<path class="st2" d="M200.1,135c-0.4-0.7-0.9-1.5-1.3-2.3c-0.4-0.8-0.7-1.6-1.1-2.4c-5.7-15-11.3-29.8-17-44.5
		c-5.6-14.7-11.3-29.5-17-44.5c0-0.2,0-0.4-0.1-0.6c-0.1-0.2-0.1-0.4-0.1-0.5c0-1.2,0.8-1.8,2.4-1.8h21.2c1.7,0,2.8,0.8,3.4,2.5
		L211,101l18.7-60.1c0.6-1.7,1.8-2.5,3.6-2.5h21.4c1,0,1.7,0.2,2.1,0.6c0.4,0.4,0.6,0.9,0.6,1.5c0,0.4,0,0.6-0.1,0.7v0.2L245.7,75
		l8.8,25.9l21.4-60c0.6-1.7,1.8-2.5,3.6-2.5h20.8c1,0,1.7,0.2,2.1,0.6c0.4,0.4,0.6,0.9,0.6,1.5c0,0.4,0,0.6-0.1,0.7v0.2
		c-3,7.7-6,15.5-9.2,23.2c-3.1,7.7-6.3,15.4-9.4,23.1s-6.3,15.4-9.4,23.1s-6.1,15.4-9.1,23.1c-0.2,0.5-0.6,1-1.2,1.6
		s-1.4,0.9-2.2,0.9h-0.2h-16c-1,0-1.7-0.2-2.2-0.6c-0.5-0.4-0.9-0.9-1.1-1.5l-10.4-27.4c-1.5,4-3,7.9-4.4,11.8
		c-1.5,3.8-2.9,7.8-4.4,11.8c-0.2,0.6-0.5,1.3-0.8,1.9c-0.3,0.7-0.6,1.3-1,1.9c-0.4,0.6-0.8,1.1-1.4,1.5c-0.5,0.4-1.1,0.6-1.7,0.6
		h-0.2h-16C201.5,136.4,200.5,135.9,200.1,135z"/>
	<path class="st2" d="M315.3,41.5c0-0.9,0.3-1.7,0.8-2.2s1.2-0.8,2.1-0.8h65.5c1,0,1.7,0.3,2.2,0.9s0.8,1.3,0.8,2.3V58
		c0,0.7-0.3,1.5-0.8,2.1c-0.5,0.7-1.3,1-2.3,1h-42.8v16.4h33c0.8,0,1.5,0.2,2.1,0.6c0.5,0.4,0.8,1.1,0.8,2v14.3
		c0,0.6-0.2,1.2-0.7,1.8c-0.5,0.6-1.2,0.9-2.1,0.9h-33.1V114h44.3c2,0,3,1,3,3v16.6c0,0.4-0.2,0.8-0.5,1.2c-0.2,1.2-1.1,1.8-2.7,1.8
		h-66.7c-0.9,0-1.6-0.2-2.1-0.7s-0.8-1.2-0.8-2.1L315.3,41.5L315.3,41.5z"/>
	<path class="st2" d="M404.3,41.5c0-0.9,0.3-1.7,0.8-2.2s1.2-0.8,2.1-0.8H451c3.9,0,7.5,0.7,11,2.2c3.4,1.5,6.4,3.5,9,6.1
		s4.6,5.6,6.1,9c1.5,3.5,2.2,7.2,2.2,11.1c0,3.3-0.5,6.4-1.6,9.2c-1,2.8-2.5,5.4-4.4,7.6c3.2,2.9,5.7,6.4,7.5,10.4s2.8,8.2,2.8,12.7
		c0,4-0.8,7.8-2.3,11.4s-3.6,6.7-6.2,9.4s-5.7,4.8-9.2,6.4s-7.2,2.4-11.1,2.4h-47.7c-0.9,0-1.6-0.2-2.1-0.7s-0.8-1.2-0.8-2.1V41.5
		H404.3z M454,67.4c0-1.3-0.2-2.6-0.7-3.7c-0.5-1.1-1.2-2.2-2.1-3c-0.9-0.9-1.9-1.6-3.2-2.1c-1.2-0.5-2.6-0.8-4-0.8h-14.2V77h14
		c1.5,0,2.9-0.2,4.1-0.7c1.3-0.5,2.3-1.1,3.2-2c0.9-0.9,1.6-1.9,2.1-3C453.7,70.1,454,68.9,454,67.4z M457.5,105.8
		c0-1.3-0.3-2.6-0.8-4c-0.5-1.3-1.2-2.5-2.1-3.5s-2-1.9-3.2-2.5c-1.3-0.7-2.6-1-4.1-1h-17.5v22h17.5c1.5,0,2.8-0.3,4-0.9
		s2.3-1.4,3.2-2.5c0.9-1,1.6-2.2,2.1-3.5S457.5,107.2,457.5,105.8z"/>
	<path class="st2" d="M497.3,41.5c0-0.9,0.3-1.7,0.8-2.2s1.2-0.8,2.1-0.8H544c3.9,0,7.5,0.7,11,2.2c3.4,1.5,6.4,3.5,9,6.1
		s4.6,5.6,6.1,9c1.5,3.5,2.2,7.2,2.2,11.1c0,3.3-0.5,6.4-1.6,9.2c-1,2.8-2.5,5.4-4.4,7.6c3.2,2.9,5.7,6.4,7.5,10.4s2.8,8.2,2.8,12.7
		c0,4-0.8,7.8-2.3,11.4s-3.6,6.7-6.2,9.4c-2.6,2.7-5.7,4.8-9.2,6.4s-7.2,2.4-11.1,2.4h-47.7c-0.9,0-1.6-0.2-2.1-0.7
		s-0.8-1.2-0.8-2.1V41.5H497.3z M547,67.4c0-1.3-0.2-2.6-0.7-3.7c-0.5-1.1-1.2-2.2-2.1-3c-0.9-0.9-1.9-1.6-3.2-2.1
		c-1.2-0.5-2.6-0.8-4-0.8h-14.2V77h14c1.5,0,2.9-0.2,4.1-0.7c1.3-0.5,2.3-1.1,3.2-2s1.6-1.9,2.1-3C546.8,70.1,547,68.9,547,67.4z
		 M550.5,105.8c0-1.3-0.3-2.6-0.8-4c-0.5-1.3-1.2-2.5-2.1-3.5c-0.9-1-2-1.9-3.2-2.5c-1.3-0.7-2.6-1-4.1-1h-17.5v22h17.5
		c1.5,0,2.8-0.3,4-0.9s2.3-1.4,3.2-2.5c0.9-1,1.6-2.2,2.1-3.5S550.5,107.2,550.5,105.8z"/>
	<path class="st2" d="M626.4,74.6l15.9-34.1c0.3-0.5,0.5-0.9,0.7-1.2c0.2-0.2,0.4-0.4,0.5-0.5c0.2-0.1,0.4-0.2,0.6-0.2
		c0.2,0,0.4-0.1,0.7-0.2h25.4c0.3,0,0.6,0.1,0.8,0.3s0.3,0.4,0.3,0.7c0,0.5-0.3,1-0.9,1.6L639,96.4v36.9c0,2.1-1,3.1-3,3.1h-19.7
		c-0.9,0-1.6-0.3-2-0.8c-0.5-0.5-0.7-1.3-0.7-2.3v-37l-31.2-55.2c-0.6-0.6-0.9-1.1-0.9-1.6c0-0.3,0.1-0.5,0.3-0.7s0.4-0.3,0.7-0.3
		h25.4c0.3,0.1,0.5,0.1,0.7,0.2c0.2,0,0.4,0.1,0.5,0.2c0.2,0.1,0.4,0.3,0.5,0.5c0.2,0.2,0.4,0.6,0.7,1.2L626.4,74.6z"/>
	<path class="st2" d="M747.2,38.4c0.8,0,1.5,0.2,2.1,0.7s1,1.2,1.1,2.2V48c0,0.9-0.3,1.6-0.8,2.3c-0.5,0.6-1.3,1-2.4,1h-27.4v82.1
		c0,0.8-0.3,1.5-0.8,2.1s-1.3,0.9-2.2,0.9h-6.7c-0.8,0-1.5-0.3-2.1-0.9c-0.6-0.6-0.9-1.3-0.9-2.2V51.2h-27.6c-0.9,0-1.6-0.3-2.2-0.8
		c-0.6-0.5-0.9-1.3-0.9-2.4v-6.7c0-0.9,0.3-1.6,0.9-2.1c0.6-0.5,1.3-0.8,2.2-0.8H747.2z"/>
	<path class="st2" d="M831.5,38.4c2,0,3,1.1,3,3.2v6.5c0,0.8-0.3,1.6-0.8,2.2c-0.5,0.6-1.3,0.9-2.4,0.9h-53.2v27.1H820
		c0.8,0,1.5,0.2,2,0.7c0.6,0.5,0.9,1.2,0.9,2.3V88c0,0.8-0.2,1.5-0.7,2.1S821,91,820,91h-41.8v32.5h53.4c2,0,3,1,3,3.1v6.8
		c0,1.9-1,2.9-2.9,2.9h-63.5c-1.9,0-2.9-0.9-2.9-2.8v-92c0-2,1-3,2.9-3L831.5,38.4L831.5,38.4z"/>
	<path class="st2" d="M897.5,132.2c-1,0-1.8-0.8-2.6-2.4l-29-70.1l-7.7,73.8c0,1.9-1,2.9-2.9,2.9h-6.9c-2,0-3-1-3-2.9l10.4-92.2
		c0-0.9,0.3-1.6,1-2.1s1.4-0.8,2.2-0.8h10.2c1.4,0,2.4,0.8,2.9,2.4l28.6,70l28.9-70c0.2-0.8,0.6-1.4,1.1-1.8c0.5-0.4,1-0.6,1.6-0.6
		h10.5c0.9,0,1.6,0.3,2.1,0.9c0.5,0.6,0.8,1.3,0.8,2l10.4,92.2c0,1.9-1,2.9-2.9,2.9h-6.9c-2,0-3-1-3-2.9l-7.7-73.8l-29.1,70.1
		c-0.7,1.6-1.6,2.4-2.6,2.4L897.5,132.2L897.5,132.2z"/>
	<path class="st2" d="M972.5,41.6c0-2.1,1-3.2,3-3.2h32.8c4.4,0,8.4,0.8,12.1,2.4c3.7,1.6,6.9,3.8,9.7,6.6c2.7,2.8,4.9,6,6.4,9.8
		c1.5,3.7,2.3,7.6,2.3,11.8c0,4-0.8,7.9-2.3,11.5c-1.5,3.7-3.6,6.9-6.3,9.7c-2.7,2.8-5.9,5-9.6,6.7c-3.7,1.6-7.7,2.5-12,2.5h-23.4
		v34.1c0,1.9-1,2.9-2.9,2.9h-6.9c-1.9,0-2.9-1-2.9-2.9L972.5,41.6L972.5,41.6z M1026,68.9c0-2.3-0.5-4.6-1.4-6.7
		c-0.9-2.2-2.2-4.1-3.8-5.7c-1.6-1.6-3.5-3-5.6-4c-2.2-1-4.5-1.5-6.9-1.5h-23.1v35.8h23.1c2.4,0,4.6-0.5,6.8-1.5s4-2.3,5.7-3.9
		c1.6-1.6,2.9-3.6,3.9-5.7C1025.6,73.5,1026,71.3,1026,68.9z"/>
	<path class="st2" d="M1115.8,123.6c0.8,0,1.5,0.3,2,0.8c0.6,0.6,0.9,1.3,0.9,2.3v6.8c0,0.8-0.3,1.5-0.8,2c-0.5,0.6-1.2,0.9-2.1,0.9
		h-56.1c-1.9,0-2.9-1-2.9-2.9V41.3c0-0.8,0.3-1.5,0.8-2c0.5-0.6,1.3-0.9,2.2-0.9h6.8c0.8,0,1.5,0.2,2.1,0.7c0.5,0.5,0.8,1.2,0.8,2.2
		v82.3C1069.5,123.6,1115.8,123.6,1115.8,123.6z"/>
	<path class="st2" d="M1137.4,134c-0.3,0.7-0.7,1.3-1.3,1.8c-0.6,0.4-1.3,0.7-2.2,0.7h-7c-2,0-3-0.8-3-2.3c0-0.3,0-0.6,0-0.8
		s0.1-0.4,0.1-0.6c0-0.2,0.1-0.3,0.1-0.5l38.1-91.4c0.1-0.2,0.2-0.5,0.3-0.8c0.1-0.3,0.3-0.5,0.5-0.8c0.2-0.2,0.5-0.5,1-0.6
		c0.4-0.2,1-0.3,1.7-0.3h4.4c0.7,0,1.2,0.1,1.6,0.3s0.7,0.4,1,0.6c0.2,0.2,0.4,0.5,0.5,0.8s0.2,0.5,0.3,0.8l37.7,91.4
		c0,0.2,0.1,0.4,0.1,0.7c0,0.2,0.1,0.4,0.1,0.6c0,0.2,0.1,0.4,0.1,0.5c0,1.5-1,2.3-3,2.3h-7c-0.9,0-1.6-0.2-2.2-0.7
		c-0.6-0.4-1-1-1.3-1.8l-7.3-18.1h-46.3c-1.5,3.9-2.9,7.5-4.2,10.6C1139,129.6,1138,132.1,1137.4,134z M1149.8,103h36L1168,57.9
		L1149.8,103z"/>
	<path class="st2" d="M1277.3,38.4c0.8,0,1.5,0.2,2.1,0.7s1,1.2,1.1,2.2V48c0,0.9-0.3,1.6-0.8,2.3c-0.5,0.6-1.3,1-2.4,1h-27.4v82.1
		c0,0.8-0.3,1.5-0.8,2.1s-1.3,0.9-2.2,0.9h-6.7c-0.8,0-1.5-0.3-2.1-0.9c-0.6-0.6-0.9-1.3-0.9-2.2V51.2h-27.6c-0.9,0-1.6-0.3-2.2-0.8
		s-0.9-1.3-0.9-2.4v-6.7c0-0.9,0.3-1.6,0.9-2.1s1.3-0.8,2.2-0.8H1277.3z"/>
	<path class="st2" d="M1361.6,38.4c2,0,3,1.1,3,3.2v6.5c0,0.8-0.3,1.6-0.8,2.2c-0.5,0.6-1.3,0.9-2.4,0.9h-53.2v27.1h41.8
		c0.8,0,1.5,0.2,2,0.7c0.6,0.5,0.9,1.2,0.9,2.3V88c0,0.8-0.2,1.5-0.7,2.1S1351,91,1350,91h-41.8v32.5h53.4c2,0,3,1,3,3.1v6.8
		c0,1.9-1,2.9-2.9,2.9h-63.5c-1.9,0-2.9-0.9-2.9-2.8v-92c0-2,1-3,2.9-3L1361.6,38.4L1361.6,38.4z"/>
</g>
</svg>
