<?xml version="1.0" encoding="utf-8"?>
<!-- Generator: Adobe Illustrator 25.4.1, SVG Export Plug-In . SVG Version: 6.00 Build 0)  -->
<svg version="1.1" id="Layer_1" xmlns="http://www.w3.org/2000/svg" xmlns:xlink="http://www.w3.org/1999/xlink" x="0px" y="0px"
	 viewBox="0 0 500 500" style="enable-background:new 0 0 500 500;" xml:space="preserve">
<style type="text/css">
	.st0{display:none;}
	.st1{display:inline;fill:#F5F5F5;}
	.st2{display:inline;fill:#EBEBEB;}
	.st3{display:inline;fill:#E0E0E0;}
	.st4{display:inline;fill:#FFFFFF;}
	.st5{fill:#263238;}
	.st6{fill:#455A64;}
	.st7{opacity:0.3;}
	.st8{fill:#0F5754;}
	.st9{fill:#FFFFFF;}
	.st10{fill:#F3F9F7;}
	.st11{fill:#E0E0E0;}
	.st12{opacity:0.6;}
	.st13{fill:#AE7461;}
	.st14{fill:#6F4439;}
	.st15{fill:#F9BC60;}
	.st16{fill:#EDAB54;}
</style>
<g id="freepik--background-complete--inject-32" class="st0">
	<path class="st1" d="M66.7,47h208.9c4,0,7.2,3.2,7.2,7.2v291.4c0,4-3.2,7.2-7.2,7.2H66.7c-4,0-7.2-3.2-7.2-7.2V54.2
		C59.5,50.2,62.7,47,66.7,47z"/>
	<path class="st2" d="M445.2,65.2l0.4,2.1l-4.2,22.8l0,0c-3,2.2-6.8,3.1-10.4,2.4l-23.8-4.4c0,0-3.8-0.8-2.7-5.8
		c0,0,0.2-2.6,2.4-2.8c0,0-4.6-1.9-4.1-5.4s3.1-3.5,3.1-3.5s-4.3-1.1-3.9-5.1s2.8-4,2.8-4s-5-1.2-3.8-5.7c0.6-2.5,3.1-4,5.5-3.4
		c0,0,0,0,0.1,0l16.9,3.1l14.8,2.7C441.8,59.1,444.6,61.8,445.2,65.2z"/>
	<path class="st2" d="M441,59.4c0,0-5.2-4.7-7-9.8c-0.8-2.6-1.2-5.2-1.2-7.9c0-0.2,0.3-2,0.6-3.5c0.2-1.2-0.6-2.3-1.8-2.6
		c-3.7-0.5-7.2,1.8-8.2,5.4c-2,6.8-0.3,11.5-0.2,13.5l0,2.1L441,59.4z"/>
	
		<rect x="432" y="69.7" transform="matrix(0.1817 -0.9834 0.9834 0.1817 290.6998 505.6938)" class="st2" width="34.3" height="16.9"/>
	<path class="st3" d="M437.8,93.5c0,0,1.3-7.6,3-16.9s3.2-16.9,3.2-16.9s-1.3,7.6-3.1,16.9S437.8,93.5,437.8,93.5z"/>
	<path class="st3" d="M454.4,96.6c0,0,1.3-7.6,3.1-16.9s3.1-16.9,3.2-16.9s-1.3,7.6-3,16.9S454.4,96.6,454.4,96.6z"/>
	<path class="st4" d="M448.5,68.6c-0.3,1.7,0.8,3.4,2.6,3.7c1.7,0.3,3.4-0.8,3.7-2.6c0.3-1.7-0.8-3.3-2.5-3.7
		C450.4,65.7,448.8,66.8,448.5,68.6C448.5,68.5,448.5,68.6,448.5,68.6z"/>
	<path class="st3" d="M419.6,55c0,0,1.8,0.3,4.1,0.7s4,0.8,4,0.8s-1.8-0.3-4.1-0.7S419.6,55,419.6,55z"/>
	<path class="st3" d="M405.5,70.8c0,0,1.2,0.2,2.6,0.4c0.9,0.1,1.7,0.3,2.6,0.6c0,0-1.2-0.2-2.6-0.4C407.2,71.2,406.3,71,405.5,70.8
		z"/>
	<path class="st3" d="M404.5,61.4c0,0,1.6,0.2,3.7,0.6s3.7,0.7,3.7,0.8s-1.6-0.2-3.7-0.6S404.5,61.5,404.5,61.4z"/>
	<path class="st3" d="M405.8,79.4c0,0,1.6,0.2,3.7,0.6s3.7,0.7,3.7,0.7s-1.6-0.2-3.7-0.6S405.8,79.5,405.8,79.4z"/>
	<path class="st4" d="M447.8,61.4c0,0,2.3,0.4,5.2,0.9s5.2,1,5.2,1s-2.3-0.4-5.2-0.9S447.8,61.5,447.8,61.4z"/>
	<path class="st4" d="M403.6,67.3c0-0.1-0.1-0.1-0.1-0.2c-0.1-0.2-0.1-0.4-0.1-0.6c0-0.3,0-0.6,0-0.8c0-0.3,0.1-0.7,0.2-1
		c0.1-0.3,0.3-0.6,0.5-0.9c0.1-0.2,0.3-0.4,0.5-0.6c0.1-0.1,0.3-0.3,0.4-0.4l0.2-0.1c0,0-0.2,0.2-0.5,0.5c-0.2,0.2-0.3,0.4-0.5,0.7
		c-0.2,0.3-0.3,0.6-0.4,0.9c-0.1,0.3-0.2,0.7-0.2,1c0,0.3,0,0.5,0,0.8C403.5,67,403.6,67.3,403.6,67.3z"/>
	<path class="st4" d="M402.7,58.3c-0.1-0.1-0.3-0.3-0.3-0.4c-0.2-0.4-0.3-0.8-0.3-1.3c0-0.4,0.1-0.9,0.4-1.3
		c0.1-0.2,0.2-0.3,0.4-0.4c0,0-0.1,0.2-0.3,0.5c-0.4,0.8-0.4,1.7,0,2.4C402.5,58,402.6,58.1,402.7,58.3z"/>
	<path class="st4" d="M404.8,77c-0.2-0.1-0.3-0.2-0.5-0.4c-0.3-0.4-0.5-0.9-0.5-1.4c0-0.5,0.2-1,0.5-1.4c0.2-0.3,0.5-0.4,0.5-0.4
		c-0.1,0.1-0.3,0.3-0.4,0.4c-0.6,0.8-0.6,1.9,0,2.7C404.6,76.8,404.8,77,404.8,77z"/>
	<path class="st4" d="M406.7,85.6c-0.1-0.1-0.2-0.3-0.3-0.4c-0.4-0.8-0.4-1.8,0-2.6c0.1-0.2,0.2-0.3,0.3-0.4c0,0-0.1,0.2-0.2,0.5
		c-0.3,0.8-0.3,1.7,0,2.5C406.6,85.4,406.7,85.6,406.7,85.6z"/>
	<path class="st4" d="M423.5,48.9c0-0.1-0.1-0.2-0.1-0.4c0-0.1-0.1-0.3-0.1-0.5c0-0.2-0.1-0.4-0.1-0.6c-0.1-0.5-0.1-1.1-0.1-1.6
		c0-0.7,0-1.3,0.1-2c0.1-0.6,0.2-1.3,0.4-1.9c0.2-0.5,0.4-1,0.6-1.5c0.1-0.2,0.2-0.4,0.3-0.5l0.2-0.4c0.1-0.1,0.1-0.2,0.2-0.3
		c0,0.1-0.1,0.2-0.2,0.3l-0.2,0.4c-0.1,0.2-0.2,0.3-0.3,0.5c-0.2,0.4-0.4,0.9-0.5,1.5c-0.2,0.6-0.3,1.3-0.4,1.9
		c-0.1,0.6-0.1,1.3-0.1,1.9c0,0.5,0,1,0.1,1.6c0,0.2,0.1,0.4,0.1,0.6s0.1,0.3,0.1,0.5C423.5,48.6,423.5,48.8,423.5,48.9z"/>
	<path class="st2" d="M419.5,273.3l1.1,1.3l6.1,17.3l0,0c-1.2,2.7-3.5,4.8-6.2,5.8l-18.1,6.4c0,0-2.9,0.9-4.1-2.9
		c0,0-0.9-1.9,0.6-2.9c0,0-3.9,0.5-5-2.1s0.8-3.6,0.8-3.6s-3.4,1-4.7-2s0.3-3.9,0.3-3.9s-3.9,1.1-4.8-2.4c-0.6-1.9,0.5-3.9,2.4-4.5
		c0,0,0,0,0.1,0l12.8-4.5l11.3-4C414.7,270.3,417.7,271.1,419.5,273.3z"/>
	<path class="st2" d="M414.3,271c0,0-5.4-1.2-8.7-4c-1.6-1.4-2.9-3.1-4-4.9l-1-2.6c-0.3-0.9-1.3-1.4-2.2-1.1c-2.8,1.1-4.3,4.1-3.5,7
		c1.4,5.5,4.3,8,5.2,9.4l0.9,1.4L414.3,271z"/>
	
		<rect x="420.6" y="267" transform="matrix(0.9425 -0.3341 0.3341 0.9425 -69.201 158.9171)" class="st2" width="13.4" height="27.2"/>
	<path class="st3" d="M425.6,295.6c0,0-2.1-5.7-4.6-12.8s-4.5-12.8-4.5-12.8s2.1,5.7,4.6,12.8S425.6,295.6,425.6,295.6z"/>
	<path class="st3" d="M438.2,291.2c0,0-2.1-5.7-4.6-12.8s-4.5-12.8-4.5-12.8s2.1,5.7,4.6,12.8S438.2,291.1,438.2,291.2z"/>
	<path class="st4" d="M423,274.3c0.5,1.3,1.9,2,3.2,1.5c1.3-0.5,2-1.9,1.5-3.2c-0.5-1.3-1.9-2-3.2-1.5
		C423.2,271.6,422.5,273,423,274.3z"/>
	<path class="st3" d="M397.9,276.4c0,0,1.4-0.5,3.1-1.1s3.1-1.1,3.1-1s-1.4,0.5-3.1,1.1S397.9,276.4,397.9,276.4z"/>
	<path class="st3" d="M394.4,292.8c0,0,0.9-0.4,2-0.7c0.7-0.3,1.3-0.5,2-0.6c-0.6,0.3-1.3,0.5-2,0.8
		C395.8,292.4,395.1,292.6,394.4,292.8z"/>
	<path class="st3" d="M390,286.8c0,0,1.2-0.5,2.8-1s2.8-1,2.8-0.9s-1.2,0.5-2.8,1S390,286.8,390,286.8z"/>
	<path class="st3" d="M398.1,298.6c0,0,1.2-0.5,2.8-1s2.8-1,2.8-0.9s-1.2,0.5-2.8,1S398.1,298.7,398.1,298.6z"/>
	<path class="st4" d="M419.7,269.7c0,0,1.7-0.7,3.9-1.5s3.9-1.4,4-1.3s-1.7,0.7-3.9,1.4S419.7,269.7,419.7,269.7z"/>
	<path class="st4" d="M391.8,291.2l-0.1-0.1c-0.1-0.1-0.2-0.2-0.3-0.3c-0.1-0.2-0.2-0.4-0.3-0.6c-0.1-0.2-0.2-0.5-0.2-0.8
		c0-0.3-0.1-0.5-0.1-0.8c0-0.2,0.1-0.4,0.1-0.6c0-0.1,0.1-0.3,0.1-0.4c0-0.1,0.1-0.1,0.1-0.1s-0.1,0.2-0.2,0.6
		c0,0.2-0.1,0.4-0.1,0.6c0,0.3,0,0.5,0.1,0.8c0.1,0.3,0.1,0.5,0.2,0.8c0.1,0.2,0.2,0.4,0.3,0.6C391.6,291,391.8,291.2,391.8,291.2z"
		/>
	<path class="st4" d="M387.6,285.3c-0.1,0-0.3-0.1-0.4-0.2c-0.3-0.2-0.5-0.4-0.7-0.8c-0.2-0.3-0.3-0.6-0.3-1c0-0.1,0-0.3,0.1-0.4
		c0,0,0,0.2,0,0.4c0,0.3,0.1,0.7,0.3,1c0.2,0.3,0.4,0.5,0.7,0.7C387.4,285.3,387.6,285.3,387.6,285.3z"/>
	<path class="st4" d="M396.4,297.3c-0.2,0-0.3,0-0.5-0.1c-0.4-0.2-0.7-0.4-0.9-0.8c-0.2-0.4-0.3-0.8-0.2-1.2c0-0.2,0.1-0.3,0.2-0.5
		c0,0-0.1,0.2-0.1,0.5c0,0.4,0,0.8,0.2,1.1c0.2,0.3,0.5,0.6,0.8,0.8C396.2,297.3,396.4,297.3,396.4,297.3z"/>
	<path class="st4" d="M401.2,302.5c-0.1,0-0.3-0.1-0.4-0.2c-0.3-0.2-0.6-0.5-0.7-0.8c-0.2-0.3-0.3-0.6-0.3-1c0-0.1,0-0.3,0-0.4
		c0,0,0,0.2,0,0.4c0,0.4,0.2,0.7,0.3,1c0.2,0.3,0.4,0.6,0.7,0.8C400.9,302.4,401,302.4,401.2,302.5z"/>
	<path class="st4" d="M398.2,270.7l-0.2-0.2c-0.1-0.1-0.2-0.2-0.2-0.3c-0.1-0.1-0.2-0.2-0.3-0.4c-0.3-0.3-0.5-0.7-0.7-1
		c-0.3-0.4-0.5-0.9-0.7-1.4c-0.2-0.5-0.3-1-0.5-1.5c-0.1-0.4-0.2-0.8-0.2-1.2c0-0.2,0-0.3,0-0.5s0-0.3,0-0.4c0-0.1,0-0.2,0-0.3
		c0,0.1,0,0.2,0,0.3c0,0.1,0,0.2,0,0.4s0,0.3,0,0.5c0,0.4,0.1,0.8,0.2,1.2c0.3,1.4,1,2.7,1.8,3.9c0.1,0.1,0.2,0.3,0.3,0.4l0.2,0.3
		C398,270.6,398.1,270.6,398.2,270.7z"/>
	<path class="st3" d="M214.7,396.2h48.7c7.4,0,13.3,6,13.3,13.3v48.7c0,7.4-6,13.3-13.3,13.3h-48.7c-7.4,0-13.3-6-13.3-13.3v-48.7
		C201.4,402.2,207.3,396.2,214.7,396.2z"/>
	<path class="st2" d="M201.1,396.2h48.7c7.4,0,13.3,6,13.3,13.3v48.7c0,7.4-6,13.3-13.3,13.3h-48.7c-7.4,0-13.3-6-13.3-13.3v-48.7
		C187.8,402.2,193.8,396.2,201.1,396.2z"/>
	<polygon class="st4" points="199.5,435 207.1,427.4 221.7,440.4 246.1,415.9 253.2,423.5 220.6,455 	"/>
	<path class="st3" d="M57.7,412.4h31.8c7.4,0,13.3,6,13.3,13.3v31.8c0,7.4-6,13.3-13.3,13.3H57.7c-7.4,0-13.3-6-13.3-13.3v-31.8
		C44.3,418.4,50.3,412.4,57.7,412.4z"/>
	<path class="st2" d="M47.2,412.4H79c7.4,0,13.3,6,13.3,13.3v31.8c0,7.4-6,13.3-13.3,13.3H47.2c-7.4,0-13.3-6-13.3-13.3v-31.8
		C33.9,418.4,39.8,412.4,47.2,412.4z"/>
	<polygon class="st4" points="42.9,442.5 48.8,436.6 60.1,446.7 79.1,427.6 84.6,433.5 59.3,458 	"/>
</g>
<g id="freepik--Flor--inject-32">
	<path class="st5" d="M446.9,469.1c0,0.1-90,0.3-200.9,0.3s-200.9-0.1-200.9-0.3s89.9-0.3,200.9-0.3S446.9,469,446.9,469.1z"/>
</g>
<g id="freepik--Plant--inject-32">
	<path class="st5" d="M406.6,440.5c0,0-4.2-28.6-3.8-45.3s0-35.4,0-35.4h1.9c0,0-1.3,33.1,0.1,53.1s5.1,27.7,5.1,27.7L406.6,440.5"
		/>
	<path class="st6" d="M419.1,327.5c-0.3-1-0.9-1.9-1.8-2.6c-1.2-0.8-2.8-0.5-4.2,0c-5.8,2-11,12.9-13.3,18.6l7.7,26
		C421.5,356.5,423.9,339.6,419.1,327.5z"/>
	<path class="st5" d="M416.9,326c0,0.1-0.1,0.2-0.1,0.3l-0.4,0.9c-0.3,0.8-0.8,2-1.4,3.5c-1.1,3-2.6,7.1-3.9,11.7s-2.2,8.9-2.7,12
		c-0.3,1.6-0.5,2.8-0.6,3.7c-0.1,0.4-0.1,0.7-0.2,1c0,0.1,0,0.2-0.1,0.4c0-0.1,0-0.2,0-0.4c0-0.3,0.1-0.6,0.1-1
		c0.1-0.9,0.3-2.1,0.5-3.7c0.7-4.1,1.5-8.1,2.6-12.1c1.1-4,2.5-7.9,4-11.7c0.6-1.5,1.1-2.6,1.5-3.4c0.2-0.4,0.3-0.7,0.4-0.9
		C416.7,326.2,416.8,326.1,416.9,326z"/>
	<path class="st6" d="M404.1,375.7c-7.1-4.1-11.6-11.5-11.9-19.7c-0.3-5.8,1.5-11.4,3.5-16.8c0.1-0.5,0.4-0.9,0.8-1.2
		c0.7-0.3,1.4-0.1,2,0.3c5.2,3,8.4,8.7,10.1,14.5c1.2,3.8,1.6,7.9,1.2,11.9C409.2,368.8,407.2,372.7,404.1,375.7"/>
	<path class="st5" d="M404.1,375.7c0-0.1,0-0.2,0-0.4c0-0.3,0-0.6,0-1c0-0.9,0-2.1-0.1-3.7c-0.2-4-0.7-8-1.3-12
		c-0.8-4.6-1.8-8.8-2.5-11.8l-0.9-3.6c-0.1-0.4-0.2-0.7-0.2-1c0-0.1-0.1-0.2-0.1-0.3c0.1,0.1,0.1,0.2,0.1,0.3c0.1,0.2,0.2,0.6,0.3,1
		c0.2,0.8,0.6,2,1,3.5c0.8,3,1.8,7.2,2.6,11.8c0.7,4,1.1,8,1.2,12c0,1.5,0,2.8,0,3.7l0,1C404.2,375.4,404.2,375.6,404.1,375.7z"/>
	<g class="st7">
		<path d="M404.1,375.7c-7.1-4.1-11.6-11.5-11.9-19.7c-0.3-5.8,1.5-11.4,3.5-16.8c0.1-0.5,0.4-0.9,0.8-1.2c0.7-0.3,1.4-0.1,2,0.3
			c5.2,3,8.4,8.7,10.1,14.5c1.2,3.8,1.6,7.9,1.2,11.9C409.2,368.8,407.2,372.7,404.1,375.7"/>
	</g>
	<path class="st6" d="M412.3,419.5c7.1,1.6,13,6.6,19.8,9c4.5,1.6,9.7,2.2,13.3,5.4c-0.9-2.2-2.9-3.6-4.9-4.9
		c-5.7-3.5-11.7-6.4-18-8.6c-3.2-1.1-6.7-2-10-1.1"/>
	<path class="st6" d="M402,425.9c-8.9-0.1-18.3-7.7-27.1-8.2C384.1,414.7,397.4,417.1,402,425.9"/>
	<path class="st6" d="M405.5,404.5c4.6-1.5,9.5-1.9,14.2-1c4.7,0.9,9.4,2.1,13.9,3.8c-0.5-3.1-3-5.4-5.3-7.5c-1.7-1.6-3.6-3-5.6-4.3
		c-2-1.3-4.3-1.9-6.7-1.9c-2.9,0.2-5.5,1.5-7.4,3.7C406.8,399.3,405.7,401.8,405.5,404.5"/>
	<path class="st6" d="M387.2,394.7c-5.6-4.8-14.1-4.3-21.5-4.1c11.8,5.6,23,12.6,33.3,20.7C399.3,406,394.3,400.7,387.2,394.7z"/>
	<g class="st7">
		<path d="M387.2,394.7c-5.6-4.8-14.1-4.3-21.5-4.1c11.8,5.6,23,12.6,33.3,20.7C399.3,406,394.3,400.7,387.2,394.7z"/>
	</g>
	<path class="st6" d="M408,388.1c2.7-1.9,5.6-3.6,8.6-5c2.9-1.3,5.7-3.5,8.5-5c3.7-2,6.9-4.8,10.3-7.3s7.1-4.7,11.3-5.4
		c-3.4-0.6-6.9-0.4-10.2,0.6c-3.3,1-6.5,2.2-9.6,3.8c-4.4,2-8.8,4-12.4,7.2S407.6,383.3,408,388.1"/>
	<path class="st5" d="M431.9,425.9l-0.3-0.1l-0.8-0.4c-0.7-0.4-1.6-0.9-2.8-1.5c-0.6-0.3-1.3-0.6-2-1s-1.5-0.7-2.3-1.1
		c-1.8-0.8-3.6-1.4-5.5-1.9c-1.9-0.5-3.8-0.6-5.7-0.1c-0.8,0.2-1.6,0.4-2.4,0.7c-1.7,0.7-3.2,1.7-4.4,3c-0.5,0.5-0.8,0.9-0.8,0.9
		c0-0.1,0.1-0.2,0.2-0.3c0.2-0.2,0.3-0.5,0.5-0.7c0.7-0.8,1.5-1.5,2.4-2.1c0.6-0.4,1.3-0.8,2-1.1c0.8-0.3,1.6-0.6,2.5-0.8
		c1.9-0.4,3.9-0.4,5.9,0.1c1.9,0.5,3.7,1.1,5.5,2c0.8,0.4,1.6,0.7,2.3,1.1s1.4,0.7,2,1c1.2,0.6,2.1,1.2,2.8,1.6l0.8,0.5
		C431.8,425.8,431.9,425.9,431.9,425.9z"/>
	<path class="st5" d="M395.4,421.5c0.2,0,0.4,0.1,0.6,0.2c0.5,0.2,1,0.4,1.5,0.6c3.1,1.6,5.7,4.1,7.4,7.1c0.3,0.5,0.5,0.9,0.7,1.4
		c0.1,0.2,0.2,0.4,0.2,0.5c0,0-0.4-0.7-1.1-1.9c-0.9-1.5-2-2.8-3.2-4c-1.2-1.2-2.6-2.2-4.1-3C396.1,421.8,395.3,421.5,395.4,421.5z"
		/>
	<path class="st5" d="M375.7,394.2l0.4,0.1l1.1,0.4l1.7,0.6c0.7,0.2,1.4,0.6,2.2,1c4.2,1.9,8.1,4.4,11.6,7.4
		c1.9,1.6,3.8,3.4,5.4,5.3c1.4,1.6,2.6,3.2,3.8,4.9c1,1.4,1.8,2.6,2.3,3.5l0.6,1c0.1,0.1,0.1,0.2,0.2,0.3c-0.1-0.1-0.2-0.2-0.2-0.3
		c-0.1-0.2-0.4-0.5-0.7-0.9c-0.6-0.8-1.4-2-2.4-3.4s-2.3-3.1-3.9-4.8c-1.7-1.9-3.5-3.6-5.4-5.3c-3.5-2.9-7.4-5.4-11.5-7.4
		c-0.8-0.4-1.5-0.7-2.1-1l-1.7-0.7l-1.1-0.5C375.9,394.4,375.8,394.3,375.7,394.2z"/>
	<path class="st5" d="M418.8,399.5c-0.2,0-0.5,0-0.7-0.1l-0.8-0.1c-0.3-0.1-0.7-0.1-1.1-0.1c-2.1-0.2-4.2,0.2-6.1,1.2
		c-1,0.5-2,1.2-2.8,2.1c-0.7,0.7-1.3,1.4-1.8,2.2c-0.5,0.7-0.9,1.5-1.2,2.3c0-0.2,0.1-0.5,0.2-0.7c0.2-0.6,0.5-1.2,0.9-1.8
		c0.5-0.8,1.1-1.6,1.8-2.3c0.8-0.9,1.8-1.6,2.9-2.1c1.9-1,4.1-1.4,6.3-1.1c0.4,0.1,0.8,0.1,1.1,0.1l0.8,0.2
		C418.4,399.3,418.6,399.4,418.8,399.5z"/>
	<path class="st5" d="M427.8,371.8c-0.1,0.1-0.2,0.1-0.3,0.2l-1,0.5c-0.9,0.5-2.1,1.2-3.6,2s-3.3,2-5.1,3.4c-2.1,1.4-4,3-5.8,4.8
		c-0.9,0.9-1.7,1.9-2.4,3c-0.6,1.1-1.1,2.2-1.7,3.2c-0.9,1.8-1.7,3.7-2.5,5.6c-0.5,1.3-0.9,2.6-1.2,4c-0.2,1-0.3,1.5-0.3,1.5
		s0-0.1,0-0.4s0.1-0.6,0.2-1.1c0.3-1.4,0.6-2.7,1.1-4c0.7-1.9,1.5-3.8,2.4-5.7c0.5-1,1.1-2.1,1.6-3.3c0.7-1.1,1.5-2.2,2.4-3.1
		c1.8-1.8,3.7-3.4,5.8-4.8c1.9-1.3,3.7-2.4,5.2-3.3s2.8-1.5,3.7-2l1-0.5C427.5,371.8,427.6,371.8,427.8,371.8z"/>
	<path class="st5" d="M402.8,398.7c-0.1-0.2-0.1-0.5-0.2-0.8c-0.1-0.5-0.2-1.2-0.4-2.1c-0.4-2.3-1-4.5-1.7-6.7
		c-0.7-2.2-1.6-4.3-2.5-6.4l-0.9-1.9c-0.1-0.2-0.2-0.5-0.3-0.7c0.2,0.2,0.3,0.4,0.4,0.7c0.2,0.4,0.6,1.1,1,1.9
		c2.1,4.1,3.5,8.6,4.2,13.1c0.1,0.9,0.2,1.6,0.3,2.1C402.8,398.2,402.8,398.4,402.8,398.7z"/>
	<path class="st6" d="M402.2,378.5c-0.3-3.4-1.3-6.6-2.9-9.6c-4.5-8.2-12.3-14.1-21.5-16l19.9,29.7l2.6,5.3
		C401.9,385,402.5,381.7,402.2,378.5z"/>
	<rect x="384.4" y="436.9" class="st8" width="46.3" height="8.2"/>
	<polygon class="st8" points="387.9,443.5 391.8,469 422.6,469 427.3,443.5 	"/>
	<path class="st5" d="M430.7,445.1c0,0.1-10.5,0.2-23.3,0.2s-23.3-0.1-23.3-0.2s10.4-0.2,23.3-0.2S430.7,445,430.7,445.1z"/>
</g>
<g id="freepik--Boxes--inject-32">
	<path class="st8" d="M102.1,401.4h41.1c7.4,0,13.3,6,13.3,13.3v41.1c0,7.4-6,13.3-13.3,13.3h-41.1c-7.4,0-13.3-6-13.3-13.3v-41.1
		C88.8,407.4,94.7,401.4,102.1,401.4z"/>
	<g class="st7">
		<path d="M102.1,401.4h41.1c7.4,0,13.3,6,13.3,13.3v41.1c0,7.4-6,13.3-13.3,13.3h-41.1c-7.4,0-13.3-6-13.3-13.3v-41.1
			C88.8,407.4,94.7,401.4,102.1,401.4z"/>
	</g>
	<path class="st8" d="M89.9,401.4H131c7.4,0,13.3,6,13.3,13.3v41.1c0,7.4-6,13.3-13.3,13.3H89.9c-7.4,0-13.3-6-13.3-13.3v-41.1
		C76.6,407.4,82.6,401.4,89.9,401.4z"/>
	<polygon class="st9" points="87.1,436.2 93.9,429.4 107.1,441.1 129,419.1 135.3,425.9 106.1,454.3 	"/>
	<path class="st5" d="M151.8,425.8h26.8c4.5,0,8.2,3.7,8.2,8.2v26.8c0,4.5-3.7,8.2-8.2,8.2h-26.8c-4.5,0-8.2-3.7-8.2-8.2V434
		C143.6,429.5,147.3,425.8,151.8,425.8z"/>
	<path class="st6" d="M144.1,425.8h26.8c4.5,0,8.2,3.7,8.2,8.2v26.8c0,4.5-3.7,8.2-8.2,8.2h-26.8c-4.5,0-8.2-3.7-8.2-8.2V434
		C135.9,429.5,139.5,425.8,144.1,425.8z"/>
	<polygon class="st9" points="142.6,448.1 146.9,443.7 155.3,451.2 169.4,437.1 173.4,441.5 154.7,459.6 	"/>
</g>
<g id="freepik--List--inject-32">
	<path class="st10" d="M76.8,33.7h208.9c4,0,7.2,3.2,7.2,7.2v291.4c0,4-3.2,7.2-7.2,7.2H76.8c-4,0-7.2-3.2-7.2-7.2V40.9
		C69.6,36.9,72.8,33.7,76.8,33.7z"/>
	<path class="st5" d="M285.7,339.4c0.9,0,1.8-0.2,2.6-0.5c1-0.4,2-1.1,2.7-1.9c1-1.1,1.7-2.6,1.8-4.1c0-7,0-17.2,0-30.5
		c0-26.5,0-64.8-0.1-112.1c0-23.7,0-49.6,0-77.4c0-13.9,0-28.3,0-43.1V41.6c0.1-1.9-0.5-3.8-1.7-5.2c-1.2-1.5-3-2.3-4.9-2.5
		c-1.9,0-3.9,0-5.8,0H76.8c-2.2,0-4.3,1.1-5.6,2.8c-0.7,0.9-1.1,1.9-1.3,3c-0.1,1.1-0.1,2.2-0.1,3.3V83c0,17.6,0,34.9,0,51.9
		c0,34,0,66.9,0,98.2s0,61,0,88.8v10.3c0,1.7,0.6,3.3,1.7,4.5c1.1,1.3,2.6,2.1,4.2,2.3c0.8,0.1,1.6,0.1,2.5,0.1h17.2h37.1l112.1,0.1
		l30.5,0h7.9L285.7,339.4l-2.7-0.1h-7.9h-30.5l-112.1,0.1H78.2c-0.8,0-1.7,0-2.5-0.1c-3.6-0.6-6.2-3.6-6.3-7.3c0-3.4,0-6.9,0-10.3
		c0-27.8,0-57.5,0-88.8s0-64.1,0-98.2V43c0-1.1,0-2.3,0.1-3.4c0.2-1.2,0.6-2.3,1.3-3.2c1.4-1.9,3.6-3,6-3h203.5c2,0,3.9,0,5.9,0
		c2,0.1,3.9,1.1,5.2,2.6c1.3,1.5,1.9,3.5,1.8,5.5v5.7c0,7.6,0,15.1,0,22.5c0,14.8,0,29.2,0,43.1c0,27.8,0,53.7,0,77.4
		c0,47.3-0.1,85.6-0.1,112.1c0,13.2,0,23.5-0.1,30.5c-0.2,1.5-0.8,3-1.9,4.2c-0.7,0.8-1.7,1.5-2.7,1.9c-0.6,0.3-1.3,0.4-2,0.5
		L285.7,339.4z"/>
	<path class="st11" d="M153.1,124.6h99c3.5,0,6.3,2.8,6.3,6.3v0.6c0,3.5-2.8,6.3-6.3,6.3h-99c-3.5,0-6.3-2.8-6.3-6.3v-0.6
		C146.8,127.4,149.6,124.6,153.1,124.6z"/>
	<path class="st8" d="M109.2,116.7h20.3c2.8,0,5.1,2.3,5.1,5.1v20.3c0,2.8-2.3,5.1-5.1,5.1h-20.3c-2.8,0-5.1-2.3-5.1-5.1v-20.3
		C104.1,119,106.4,116.7,109.2,116.7z"/>
	<polygon class="st9" points="108.8,132.5 111.9,129.4 117.9,134.7 127.8,124.7 130.7,127.8 117.4,140.6 	"/>
	<path class="st11" d="M153.1,172.1h99c3.5,0,6.3,2.8,6.3,6.3v0.6c0,3.5-2.8,6.3-6.3,6.3h-99c-3.5,0-6.3-2.8-6.3-6.3v-0.6
		C146.8,174.9,149.6,172.1,153.1,172.1z"/>
	<path class="st8" d="M109.2,164.2h20.3c2.8,0,5.1,2.3,5.1,5.1v20.3c0,2.8-2.3,5.1-5.1,5.1h-20.3c-2.8,0-5.1-2.3-5.1-5.1v-20.3
		C104.1,166.5,106.4,164.2,109.2,164.2z"/>
	<polygon class="st9" points="108.8,179.9 111.9,176.9 117.9,182.1 127.8,172.2 130.7,175.3 117.4,188.1 	"/>
	<path class="st11" d="M153.1,219.6h99c3.5,0,6.3,2.8,6.3,6.3v0.6c0,3.5-2.8,6.3-6.3,6.3h-99c-3.5,0-6.3-2.8-6.3-6.3v-0.6
		C146.8,222.4,149.6,219.6,153.1,219.6z"/>
	<path class="st8" d="M109.2,211.7h20.3c2.8,0,5.1,2.3,5.1,5.1v20.3c0,2.8-2.3,5.1-5.1,5.1h-20.3c-2.8,0-5.1-2.3-5.1-5.1v-20.3
		C104.1,214,106.4,211.7,109.2,211.7z"/>
	<polygon class="st9" points="108.8,227.4 111.9,224.3 117.9,229.6 127.8,219.7 130.7,222.7 117.4,235.6 	"/>
	<path class="st11" d="M153.1,267h99c3.5,0,6.3,2.8,6.3,6.3v0.6c0,3.5-2.8,6.3-6.3,6.3h-99c-3.5,0-6.3-2.8-6.3-6.3v-0.6
		C146.8,269.9,149.6,267,153.1,267z"/>
	<path class="st8" d="M109.2,259.2h20.3c2.8,0,5.1,2.3,5.1,5.1v20.3c0,2.8-2.3,5.1-5.1,5.1h-20.3c-2.8,0-5.1-2.3-5.1-5.1v-20.3
		C104.1,261.5,106.4,259.2,109.2,259.2z"/>
	<polygon class="st9" points="108.8,274.9 111.9,271.8 117.9,277.1 127.8,267.1 130.7,270.2 117.4,283 	"/>
	<path class="st5" d="M132.1,84.4h-4.8l-0.9,2.2h-3.3l5-11.4h3.2l5.1,11.4H133L132.1,84.4z M131.2,82l-1.5-3.7l-1.5,3.7H131.2z"/>
	<path class="st5" d="M137.3,75.2h5.4c3.8,0,6.4,2.2,6.4,5.7s-2.6,5.7-6.4,5.7h-5.4V75.2z M142.5,84c1.7,0,3.1-1.4,3.1-3.1
		c0-1.7-1.4-3.1-3.1-3.1h-2V84H142.5z"/>
	<path class="st5" d="M161.9,75.2L157,86.6h-3.2L149,75.2h3.5l3.1,7.4l3.2-7.4H161.9z"/>
	<path class="st5" d="M169.8,84.4H165l-0.9,2.2h-3.3l5-11.4h3.2l5.1,11.4h-3.4L169.8,84.4z M168.8,82l-1.5-3.7L166,82L168.8,82z"/>
	<path class="st5" d="M185.9,75.2v11.4h-2.7l-5-6.1v6.1H175V75.2h2.7l5,6.1v-6.1H185.9z"/>
	<path class="st5" d="M190.6,77.7h-3.5v-2.6h10.2v2.6h-3.5v8.8h-3.2V77.7z"/>
	<path class="st5" d="M205.6,84.4h-4.8l-0.9,2.2h-3.3l5-11.4h3.2l5.1,11.4h-3.4L205.6,84.4z M204.6,82l-1.5-3.7l-1.5,3.7H204.6z"/>
	<path class="st5" d="M218.2,80.6h2.9v4.7c-1.4,1-3.1,1.5-4.8,1.4c-3.6,0-6.3-2.5-6.3-5.9s2.7-5.9,6.3-5.9c1.9-0.1,3.7,0.7,5,2.1
		l-2.1,1.9c-0.7-0.8-1.7-1.3-2.8-1.3c-1.8,0-3.3,1.5-3.3,3.3c0,1.8,1.5,3.3,3.3,3.3c0.6,0,1.2-0.1,1.8-0.4L218.2,80.6z"/>
	<path class="st5" d="M232.3,84.1v2.5h-9.2V75.2h9v2.5h-5.8v1.9h5.1V82h-5.1v2.1H232.3z"/>
	<path class="st5" d="M233.2,85.6l1.1-2.4c1.1,0.7,2.4,1.1,3.8,1.1c1.3,0,1.9-0.4,1.9-0.9c0-1.8-6.5-0.5-6.5-4.7
		c0-2,1.7-3.7,5.1-3.7c1.4,0,2.9,0.3,4.1,1l-1,2.4c-1-0.5-2.1-0.8-3.2-0.9c-1.4,0-1.8,0.5-1.8,1c0,1.8,6.5,0.4,6.5,4.7
		c0,2-1.7,3.7-5.1,3.7C236.4,86.8,234.7,86.4,233.2,85.6z"/>
</g>
<g id="freepik--Character--inject-32">
	<path class="st5" d="M332.2,433.8l-0.9,22.6c0,0,22.6,8.5,22.9,12.6l-43.8-0.1l-0.1-35.2L332.2,433.8z"/>
	<path class="st11" d="M317.8,454.4c-0.9,0.3-1.4,1.1-1.2,2c0.2,0.9,1.1,1.4,2,1.2c0.9-0.3,1.5-1.2,1.3-2.2
		c-0.3-0.9-1.3-1.4-2.2-1.1"/>
	<path class="st6" d="M310.4,468.9l0.1-3.5l42,1.4c0,0,2,0.9,1.7,2.2L310.4,468.9z"/>
	<path class="st9" d="M332.1,456.1c0,0.2-1.1,0.3-2.1,1s-1.6,1.6-1.8,1.5s0.1-1.3,1.4-2.1S332.1,455.9,332.1,456.1z"/>
	<path class="st9" d="M336.6,458c0,0.2-0.9,0.6-1.6,1.5s-0.9,1.9-1.2,1.9s-0.3-1.2,0.6-2.3S336.6,457.9,336.6,458z"/>
	<path class="st9" d="M339.2,463.6c-0.2,0-0.5-1,0.1-2.2s1.5-1.6,1.6-1.5s-0.5,0.8-1,1.8S339.5,463.5,339.2,463.6z"/>
	<path class="st9" d="M331.7,451c-0.1,0.2-1.1-0.1-2.3,0s-2.1,0.5-2.3,0.3s0.8-1,2.2-1S331.8,450.8,331.7,451z"/>
	<path class="st5" d="M278.5,430.7l-2.4,27.3l4.3,22c0.3,1.5-0.7,3-2.2,3.3c-0.1,0-0.1,0-0.2,0l0,0c-0.9,0.1-1.8-0.2-2.4-0.9
		c-3.9-4.3-18.2-20-17.9-22c0.3-2.3,0.6-28.9,0.6-28.9L278.5,430.7z"/>
	<path class="st6" d="M278.1,483.3l-20.2-24.7l-0.1,1.2c-0.1,1,0.2,2,0.8,2.8c1.6,2.1,6.2,8,17,19.9
		C276.3,483.1,277.2,483.5,278.1,483.3L278.1,483.3z"/>
	<g class="st12">
		<path class="st9" d="M264.1,450.2c0.7,0.6,0.8,1.5,0.3,2.2c-0.5,0.7-1.5,0.8-2.2,0.3c-0.7-0.6-0.8-1.6-0.3-2.4
			c0.6-0.7,1.7-0.7,2.3-0.1"/>
	</g>
	<path class="st9" d="M272.6,471c0.7-0.8,1.6-1.5,2.5-2c1-0.3,2.1-0.5,3.2-0.4c0-0.1-0.3-0.3-0.9-0.4c-1.7-0.3-3.4,0.4-4.4,1.8
		C272.6,470.6,272.6,471,272.6,471z"/>
	<path class="st9" d="M274.4,474.8c0.8-0.4,1.6-0.7,2.5-1c0.9-0.1,1.8-0.2,2.7-0.2c-0.8-0.6-1.9-0.7-2.8-0.4
		C275.1,473.6,274.2,474.7,274.4,474.8z"/>
	<path class="st9" d="M269.3,466.1c0.1,0.1,1.5-1.1,3.7-1.8s4.1-0.5,4.1-0.7s-2-0.7-4.3,0.1C271.4,464.1,270.2,464.9,269.3,466.1z"
		/>
	<path class="st9" d="M269.4,457.8c0.1,0.2,1.6-0.4,3.6-0.3s3.5,0.6,3.6,0.5C274.3,456.6,271.6,456.5,269.4,457.8z"/>
	<path class="st9" d="M269.9,449.8c1.2-0.3,2.5-0.5,3.7-0.4c2.1,0.2,3.5,1.3,3.6,1.1s-0.2-0.4-0.8-0.8c-0.8-0.5-1.7-0.8-2.7-0.9
		c-0.9-0.1-1.9,0-2.8,0.4C270.1,449.4,269.8,449.7,269.9,449.8z"/>
	<path class="st9" d="M273.6,447.8c0.1-0.3,0.1-0.7,0.1-1c0-1-0.3-1.9-0.6-2.8c-0.2-0.7-0.7-1.2-1.3-1.6c-0.4-0.2-0.9-0.1-1.3,0.2
		c-0.3,0.3-0.5,0.8-0.5,1.2c0,1.9,1.4,3.5,3.2,3.9c1.8,0.3,3.7-0.5,4.6-2.1c0.2-0.4,0.3-0.9,0.2-1.3c-0.2-0.4-0.6-0.7-1.1-0.7
		c-0.7,0.1-1.3,0.4-1.9,0.8c-0.8,0.5-1.5,1.2-2,2c-0.2,0.3-0.4,0.6-0.5,0.9c0.8-1,1.7-1.8,2.7-2.6c0.5-0.4,1-0.6,1.6-0.7
		c0.3,0,0.5,0.1,0.6,0.4c0.1,0.3,0,0.6-0.1,0.9c-0.9,1.3-2.5,2-4.1,1.8c-1.6-0.3-2.7-1.6-2.8-3.2c0-0.3,0.1-0.6,0.3-0.9
		c0.2-0.2,0.5-0.2,0.7-0.1c0.5,0.3,0.9,0.8,1.1,1.3C273.2,445.4,273.5,446.6,273.6,447.8z"/>
	<path class="st5" d="M353.3,243.5c2.1,9.4,2.8,19,2.1,28.5c-0.4,6.1-20.9,173.9-20.9,173.9h-27.6l7.8-157.7l-2.3,0.5
		c0,0-15.1,67.3-16.3,78.2c-1.1,9.8-13.8,80.9-13.8,80.9L257,448l8-94l9.4-90.3l3.6-26.3L353.3,243.5z"/>
	<path class="st6" d="M313.6,277.5c0,0,0,0.1,0.2,0.2c0.2,0.1,0.4,0.3,0.7,0.3c0.9,0.2,1.9,0,2.6-0.6c1.1-0.9,1.7-2.2,1.8-3.6
		c0.2-1.5,0.2-3.1,0.3-4.8c0.2-3.4,0.3-6.5,0.4-8.8c0.1-1.2,0.1-2.4,0-3.6c-0.2,1.2-0.4,2.4-0.4,3.6c-0.2,2.2-0.4,5.3-0.6,8.7
		c-0.1,1.7-0.1,3.4-0.3,4.8c-0.1,1.3-0.6,2.5-1.5,3.3c-0.6,0.6-1.5,0.8-2.3,0.7C314.2,277.7,313.9,277.6,313.6,277.5z"/>
	<path class="st6" d="M273,261.2c0.2,0.1,0.5,0.2,0.8,0.3c0.7,0.2,1.5,0.3,2.2,0.4c5,0.4,10-1.6,13.3-5.3c0.5-0.6,0.9-1.2,1.3-1.8
		c0.2-0.2,0.3-0.5,0.4-0.7c-0.1,0-0.7,0.9-2,2.3c-3.4,3.5-8.1,5.4-13,5.2C274.1,261.4,273,261.1,273,261.2z"/>
	<path class="st6" d="M342.3,254.2c0,0.9,0.1,1.9,0.4,2.8c1.2,4.4,3.8,8.3,7.4,11.1c0.7,0.6,1.5,1.1,2.4,1.5
		c0.1-0.1-3.7-2.3-6.6-6.7S342.5,254.2,342.3,254.2z"/>
	<polygon class="st13" points="426.7,206.7 433.1,208.7 444.6,202.4 451.1,220.6 435.5,224.3 423.6,223 	"/>
	<path class="st11" d="M353,133.6c0,0,6.5,3.9,11.9,17.1c10.5,26,17.2,40,17.2,40l48.4,15.2l-3.9,19.4c0,0-49.1-6.8-55.6-9.3
		c-9-3.4-15.7-21.1-15.7-21.1L353,133.6z"/>
	<path class="st5" d="M339.7,75.4c2.8,0.1,5.2-2.1,5.3-4.9c0.1-2.3-1.4-4.4-3.6-5.1c1.9-2.2,1.7-5.6-0.5-7.5c-1.3-1.1-3-1.6-4.6-1.2
		c-0.3-3.5-3.4-6.1-6.9-5.7c-1,0.1-2,0.4-2.9,1c-2.6-1.9-6.3-1.8-8.8,0.3c-2.8-0.3-5.3,1.6-5.7,4.4c-0.2,1.7,0.4,3.3,1.7,4.4"/>
	<path class="st13" d="M316.8,57.3h1.1c11.3-0.6,21.1,7.6,22.6,18.8c1.4,10.4,2.7,21.9,2.9,27.6c0.4,11.6-11.1,14-11.1,14l1.7,13.9
		l-28.2,0.5l-5-50.5C299.1,69.6,304.7,58.6,316.8,57.3z"/>
	<path class="st14" d="M332.4,117.6c-5.4,0.3-10.7-1-15.4-3.7c0,0,4,8.2,15.5,6.6L332.4,117.6z"/>
	<path class="st5" d="M336.3,86.8c0.1,0.9-0.6,1.7-1.5,1.8c-0.9,0.1-1.7-0.5-1.8-1.4c0-0.9,0.6-1.7,1.5-1.8
		C335.4,85.3,336.2,85.9,336.3,86.8C336.3,86.8,336.3,86.8,336.3,86.8z"/>
	<path class="st5" d="M338.2,81.9c-0.2,0.2-1.5-0.6-3.3-0.6s-3,1.1-3.2,0.8s0.1-0.5,0.6-0.9c0.7-0.6,1.7-0.9,2.6-0.9
		c0.9,0,1.8,0.2,2.6,0.7C338.1,81.4,338.3,81.8,338.2,81.9z"/>
	<path class="st5" d="M320,87.2c0.1,0.9-0.6,1.7-1.5,1.8c0,0,0,0,0,0c-0.9,0.1-1.7-0.5-1.8-1.4c0,0,0,0,0-0.1
		c-0.1-0.9,0.6-1.7,1.5-1.8C319.1,85.7,319.9,86.3,320,87.2C320,87.2,320,87.2,320,87.2z"/>
	<path class="st5" d="M320.7,83.1c-0.2,0.2-1.5-0.7-3.3-0.6s-3,1-3.3,0.8s0.1-0.5,0.6-0.9c0.7-0.6,1.7-0.9,2.6-0.9
		c0.9,0,1.9,0.2,2.6,0.7C320.6,82.6,320.8,83,320.7,83.1z"/>
	<path class="st5" d="M327.8,96c0.9-0.3,1.9-0.6,2.9-0.7c0.5-0.1,0.9-0.2,0.9-0.5c0-0.5-0.1-0.9-0.4-1.3c-0.5-1.1-1-2.2-1.5-3.4
		c-2.1-4.8-3.7-8.8-3.5-8.9s2.1,3.8,4.2,8.6c0.5,1.2,1,2.3,1.5,3.4c0.3,0.5,0.4,1.2,0.3,1.8c-0.1,0.3-0.4,0.6-0.7,0.7
		c-0.2,0.1-0.5,0.1-0.8,0.2C329.8,96,328.8,96.1,327.8,96z"/>
	<path class="st5" d="M321.9,76.1c-0.2,0.5-1.8,0.1-3.7,0.1s-3.5,0.4-3.6,0c-0.1-0.2,0.2-0.7,0.9-1c0.9-0.5,1.8-0.7,2.8-0.7
		c1,0,1.9,0.2,2.8,0.7C321.7,75.5,322,75.9,321.9,76.1z"/>
	<path class="st5" d="M338,74.5c-0.4,0.4-1.9,0.1-3.6,0.1s-3.2,0.4-3.6,0c-0.2-0.2,0-0.6,0.7-1c0.9-0.5,1.9-0.8,2.9-0.8
		c1,0,2,0.2,2.9,0.7C337.9,73.9,338.1,74.3,338,74.5z"/>
	<path class="st5" d="M339.1,70.8c0,0-3.4-7.1-7-8.6c-4.4-1.8-5.9,2.9-10,2s-8.3-2.7-12.2,0.6c-4.4,3.7-2.1,5.9-2.1,11.1
		c-0.1,20.9-3.6,27.1-5.2,17.3c-0.2-1.1-3.2-1.8-3.9-6.3c-0.9-5.9-1.5-13-0.3-17.3c0.9-3.6,2.8-6.1,6.3-9c5.5-4.5,13.3-5,18.7-4.7
		S339.1,61.7,339.1,70.8z"/>
	<path class="st13" d="M303.2,92.8c-0.1-1.7-1.7-3-3.4-2.9c0,0-0.1,0-0.1,0c-2.2,0.3-4.5,1.7-4.1,6.1c0.6,7.9,8.5,5.6,8.5,5.4
		S303.5,96.1,303.2,92.8z"/>
	<path class="st14" d="M302,98.6c0,0-0.1,0.1-0.4,0.2c-0.3,0.2-0.7,0.2-1,0.1c-0.9-0.2-1.7-1.5-1.8-2.9c-0.1-0.7,0-1.4,0.2-2
		c0.1-0.5,0.5-0.9,1-1.2c0.3-0.1,0.7,0,0.9,0.3c0.1,0.2,0.1,0.4,0.1,0.4s0.2-0.2,0.1-0.5c-0.1-0.2-0.2-0.4-0.4-0.5
		c-0.2-0.2-0.5-0.2-0.8-0.1c-0.7,0.2-1.2,0.7-1.3,1.3c-0.3,0.7-0.4,1.5-0.3,2.2c0.2,1.6,1.1,3,2.3,3.3c0.4,0.1,0.9,0,1.2-0.3
		C302,98.8,302,98.6,302,98.6z"/>
	<path class="st5" d="M302.5,77.4c1,0.7,2.2,1.2,3.5,1.4c1.3,0.1,2.5-0.7,2.8-2c0.1-0.6-0.1-1.2,0.2-1.6s1.2-0.4,1.9-0.4
		c2.3,0.1,4.9-2.6,5.4-4.8c0.7,0.9,1.9,1,2.8,0.4c0.7-0.5,1.3-1.1,1.8-1.8c0.6-0.9,1.6-1.5,2.7-1.5c0.6,0.2,1.2,0.3,1.7,0.3
		c1-0.1,1.5-1.4,1.6-2.4s0.2-2.3,1-2.9s1.9-0.3,2.8-0.2s2.2-0.2,2.4-1.2c0.1-0.5-0.1-1-0.4-1.4c-1.4-1.9-4-2.6-6.2-1.6
		c-1.3-3.6-5.4-5.5-9-4.2c-1.7,0.6-3.1,1.9-3.9,3.5c-3-2.5-7.5-2-10,1c-0.5,0.6-0.9,1.4-1.2,2.1c-2.8-0.6-5.5,1.2-6.1,4
		c-0.3,1.3,0,2.6,0.7,3.8c-1.5,0.8-2.4,2.3-2.5,4c0,1.6,1.7,3.2,3.3,2.7c-0.7,1.4-0.1,3.1,1.3,3.8c1.4,0.7,3.1,0.1,3.8-1.3"/>
	<path class="st6" d="M327.2,60c0,0,0,0,0,0.2s0,0.2,0,0.4c-0.1,0.5-0.3,1.1-0.5,1.5c-0.4,0.8-1,1.5-1.7,2c-0.9,0.7-2,1.1-3.2,1.1
		L322,65c0.3,0.7,0.3,1.5,0,2.2c-0.3,0.7-0.8,1.4-1.3,2c-0.2,0.4-0.5,0.7-0.9,1c-0.4,0.3-0.8,0.5-1.2,0.5c-0.9,0.2-1.9-0.1-2.6-0.8
		l0.3-0.1c-0.1,1.7-1,3.2-2.3,4.2c-0.7,0.6-1.6,1-2.6,1c-0.9,0-1.8-0.1-2.6-0.4l0.2-0.1c-0.4,1-1,1.8-1.8,2.5
		c-0.7,0.7-1.7,1-2.7,0.9c-1.7-0.3-3.1-1.5-3.5-3.2l0.2,0.1c-0.8,0.5-1.8,0.7-2.7,0.5c-0.7-0.1-1.4-0.3-2-0.8
		c-0.4-0.3-0.7-0.6-0.9-0.9c-0.1-0.1-0.2-0.3-0.2-0.4c0.3,0.5,0.8,0.9,1.2,1.2c0.6,0.4,1.2,0.6,1.9,0.7c0.9,0.1,1.8-0.1,2.5-0.6
		l0.1-0.1v0.2c0.4,1.6,1.7,2.7,3.3,3c0.9,0.1,1.8-0.2,2.5-0.8c0.7-0.7,1.3-1.5,1.6-2.4l0-0.2h0.2c0.8,0.3,1.6,0.4,2.5,0.4
		c0.9,0,1.7-0.4,2.4-0.9c1.3-1,2.1-2.4,2.2-4v-0.4l0.3,0.3c0.6,0.6,1.5,0.9,2.3,0.7c0.4-0.1,0.8-0.2,1.1-0.5
		c0.3-0.3,0.6-0.6,0.8-0.9c0.5-0.6,0.9-1.2,1.2-1.9c0.3-0.6,0.3-1.4,0.1-2l-0.1-0.2h0.2c1.1,0,2.2-0.3,3.1-1
		c0.7-0.5,1.3-1.1,1.7-1.8C326.9,61.4,327.2,60.7,327.2,60z"/>
	<path class="st5" d="M327.8,102.1c-0.1-0.3-2,0.2-3.8-1.1s-2.1-3.4-2.4-3.3s-0.3,0.6,0,1.4c0.3,1.1,1,2.1,1.9,2.8
		c0.9,0.7,2,0.9,3.1,0.8C327.4,102.6,327.8,102.2,327.8,102.1z"/>
	<path class="st11" d="M374.9,175.5c-0.2-0.6-10.5-28.8-13.8-34.9c-4-7.4-12.2-10.6-17.4-11s-60.2,4.1-60.2,4.1s-16.5,3.7-18.6,17.8
		c-2.4,16.3-4.5,53.6-4.5,53.6l25.1-12.9l3.2-8.2l51.9,11.6l12.7-18.7L374.9,175.5z"/>
	<path class="st11" d="M279.8,135.3l21.5-9.5l2.4-9.3l25.1,11.9l5.3-5.8l2.2,6.6l5.5,1.8l12.9,22.6v48.2l2.6,41.6l-2.8,6.6l-23,3.4
		c-2.5,0.4-5.1,0.4-7.6,0l-46.8-7.6l-1.2-13.8l5-37.9L279.8,135.3z"/>
	<path class="st11" d="M303.7,116.6c0,0,2.8,0.8,10,4.7c7.1,3.8,15.1,7.2,15.1,7.2l-0.6,11.3l-26.7-13.4"/>
	<polyline class="st11" points="334.1,122.6 328.8,128.4 331.6,140.6 336.3,129.6 	"/>
	<g class="st7">
		<path d="M328.9,129.7c0.2,0.2,1.7,14,1.7,14l-26.8-16.2l24.4,12.2L328.9,129.7z"/>
	</g>
	<path class="st6" d="M328.8,181.4c-0.4-10.6,1.3-37.6,1.3-37.6l3.5-0.6c4.5,19.3,7.5,38.8,9,58.5c1,13,1,28.1,1,28.1l-7,15.1
		l-7.8-15C328.8,229.9,329.2,194.3,328.8,181.4z"/>
	<path class="st5" d="M278.2,137c0,0.1,0.7,0.6,1.8,1.8c2.8,2.9,4.8,6.6,5.7,10.6c0.3,1.5,0.4,2.5,0.5,2.5c0-0.2,0-0.5,0-0.7
		c0-0.6-0.1-1.2-0.2-1.9c-0.4-2-1-4-2-5.8c-1-1.8-2.2-3.5-3.7-4.9c-0.4-0.4-0.9-0.8-1.4-1.2C278.6,137.2,278.4,137.1,278.2,137z"/>
	<polygon class="st6" points="328.8,133.9 331.1,132.9 333.4,136.8 333.8,143.2 330.6,143.7 328.2,139.8 	"/>
	<path class="st5" d="M354.6,152.9c-0.1,0-0.2,13.8-0.2,30.9s0.1,30.9,0.2,30.9s0.2-13.8,0.2-30.9S354.7,152.9,354.6,152.9z"/>
	<path class="st5" d="M328.6,128.4c0.4,0.8,0.9,1.6,1.4,2.3c1.1,1.8,2.1,3.8,3,5.7c0.1,0.2,0.2,0.4,0.3,0.6l0.2,0.4l0.2-0.4
		c0.9-1.8,1.6-3.7,2.2-5.7c0.2-0.7,0.4-1.3,0.5-1.8c0.1-0.2,0.1-0.4,0.1-0.7c0,0-0.3,0.9-0.9,2.3c-0.7,1.9-1.5,3.8-2.3,5.6h0.3
		l-0.3-0.6c-0.9-2-2-3.9-3.1-5.7c-0.5-0.7-0.9-1.2-1.1-1.6S328.6,128.3,328.6,128.4z"/>
	<path class="st5" d="M301.3,125.8c0.1,0.1,0.2,0.2,0.4,0.2l1.1,0.6l4,2.1c3.4,1.8,8,4.2,13.1,7c3.1,1.7,6.1,3.2,8.6,4.5l0.2,0.1
		V140c0-3.3,0.1-6.1,0.1-8.2c0-1,0-1.7,0-2.3c0-0.3,0-0.5,0-0.8c0,0.3-0.1,0.5-0.1,0.8c0,0.6,0,1.3-0.1,2.3c0,2-0.1,4.8-0.2,8.2
		l0.2-0.1c-2.5-1.3-5.5-2.9-8.6-4.5c-5.1-2.7-9.8-5.2-13.1-6.9c-1.7-0.8-3.1-1.5-4-2l-1.1-0.5C301.6,125.9,301.5,125.9,301.3,125.8z
		"/>
	<path class="st5" d="M351.4,134.6c-0.1,0,0.4,0.7,0.9,2c0.7,1.6,1.2,3.2,1.5,4.9c0.3,1.7,0.4,3.4,0.3,5.2c-0.1,1.3-0.2,2.1-0.1,2.1
		c0.1-0.2,0.1-0.4,0.2-0.6c0.1-0.5,0.2-1,0.2-1.6c0.4-3.5-0.3-7.1-1.9-10.2c-0.2-0.5-0.5-0.9-0.8-1.4
		C351.5,134.8,351.4,134.6,351.4,134.6z"/>
	<path class="st5" d="M331.2,144.1c0,0.1,0.7-0.2,1.4-0.6s1.2-0.9,1.2-0.9c-0.5,0.1-1,0.3-1.4,0.6
		C331.7,143.6,331.2,144.1,331.2,144.1z"/>
	<path class="st5" d="M330.1,142.6c0.6-1,1.2-2.1,1.6-3.2c0.5-1.1,1-2.2,1.3-3.3c-0.7,1-1.2,2.1-1.6,3.2
		C330.8,140.3,330.4,141.4,330.1,142.6z"/>
	<path class="st11" d="M275.4,137.7c0,0-8.3,6-9.3,9.3s-5.4,56.9-6.2,63.3s-1.6,18.3,3.4,22.2s15.5,6.8,15.5,6.8l9.8-20.2l-5.2-10.9
		l5.2-40.7L275.4,137.7z"/>
	<path class="st5" d="M276.4,238.5c0.2,0,0.4,0,0.5,0c0.5,0,1,0,1.5-0.1c1.9-0.2,3.7-0.8,5.3-1.9c2.3-1.7,4.1-4.2,5.1-6.9
		c1.3-3.5,1.9-7.2,1.9-10.9l0,0.1l-7.6-10.6l-0.1-0.1v-0.1c0-0.3,0.1-0.6,0.1-0.9c1.5-11.4,2.8-21.8,3.8-29.3
		c0.5-3.7,0.9-6.7,1.1-8.9c0.1-1,0.2-1.8,0.3-2.4s0.1-0.8,0.1-0.8c0,0.1,0,0.1,0,0.2c0,0.1,0,0.4,0,0.6c-0.1,0.6-0.1,1.4-0.2,2.4
		c-0.2,2.1-0.5,5.1-1,8.9c-0.9,7.5-2.1,17.9-3.6,29.3c0,0.3-0.1,0.6-0.1,0.9V208l7.6,10.6v0.1v0.1c0,3.8-0.7,7.5-2,11.1
		c-1,2.8-2.8,5.3-5.3,7c-0.9,0.6-1.9,1.1-3,1.4l-0.7,0.2l-0.6,0.1c-0.4,0.1-0.7,0.1-1.1,0.1c-0.5,0-1,0-1.5,0
		C276.7,238.6,276.6,238.6,276.4,238.5z"/>
	<path class="st5" d="M266.4,211.8c0.6-0.6,1.4-1.2,2.2-1.6c3.8-2.1,8.2-3,12.5-2.4c0.9,0.1,1.8,0.3,2.6,0.6
		C277.6,207.5,271.5,208.7,266.4,211.8L266.4,211.8z"/>
	<path class="st15" d="M331.4,158.5L331.4,158.5c0,0,0.5,1.8,1.2,4.9c1.7-2.4,3.9-4.5,6.4-6.1l0,0c0,0,12.8-12.7,16.9-26.1
		c3-9.7,2.2-20.5,2.2-20.5c-0.1-0.5-1.1-5.1-1.9-8.8c-0.7-3.1,1.2-6.1,4.2-6.9c6.3-1.7,23.5-5,27.5,6.5c5.9,17.2-3.6,35.9-3.5,41.2
		c0,1,0,1.8,0,2.5c5-1.2,9-2,9-1.9l0,0l33.1-7.7c0,0,11-3.3,14.7,7.9s-9,15-9,15s6-0.3,7.6,9.9s-9.3,13.5-9.3,13.5s6.7-0.4,8.5,8.6
		c1.7,8.8-9.3,14.1-9.9,14.4c0.9-0.2,1.8-0.4,2.6-0.5c-0.7,0.2-1.3,0.4-2,0.6c5.1,0.6,5.9,6.7,5.9,6.7c3.3,12.5-6.3,15.1-6.3,15.1
		L368.9,241c-6,1.4-12.3,1.2-18.2-0.7c0.6,2.6,0.9,4,0.9,4l0,0l-42.3,9.9c-0.1,0-4.6-19.2-10.2-42.9s-10-43-9.9-43L331.4,158.5z"/>
	<g class="st7">
		<path d="M331.4,158.5L331.4,158.5c0,0,0.5,1.8,1.2,4.9c1.7-2.4,3.9-4.5,6.4-6.1l0,0c0,0,12.8-12.7,16.9-26.1
			c3-9.7,2.2-20.5,2.2-20.5c-0.1-0.5-1.1-5.1-1.9-8.8c-0.7-3.1,1.2-6.1,4.2-6.9c6.3-1.7,23.5-5,27.5,6.5c5.9,17.2-3.6,35.9-3.5,41.2
			c0,1,0,1.8,0,2.5c5-1.2,9-2,9-1.9l0,0l33.1-7.7c0,0,11-3.3,14.7,7.9s-9,15-9,15s6-0.3,7.6,9.9s-9.3,13.5-9.3,13.5s6.7-0.4,8.5,8.6
			c1.7,8.8-9.3,14.1-9.9,14.4c0.9-0.2,1.8-0.4,2.6-0.5c-0.7,0.2-1.3,0.4-2,0.6c5.1,0.6,5.9,6.7,5.9,6.7c3.3,12.5-6.3,15.1-6.3,15.1
			L368.9,241c-6,1.4-12.3,1.2-18.2-0.7c0.6,2.6,0.9,4,0.9,4l0,0l-42.3,9.9c-0.1,0-4.6-19.2-10.2-42.9s-10-43-9.9-43L331.4,158.5z"/>
	</g>
	<path class="st16" d="M339.6,170.5l-0.8,5.5l13.5,57.8l0,0c8,5.3,17.8,7.1,27.2,4.9l60.5-14.1c0,0,9.6-2.6,6.3-15.1
		c0,0-0.8-6.6-6.5-6.8c0,0,11.6-5.4,9.9-14.4s-8.4-8.6-8.4-8.6s11-3.3,9.3-13.5s-7.6-9.9-7.6-9.9s12.8-3.7,9-15s-14.7-7.9-14.7-7.9
		l-43,10l-37.7,8.8C347.6,154.2,340.9,161.5,339.6,170.5z"/>
	<path class="st16" d="M349.6,155.1c0,0,12.8-12.7,16.9-26.1c3-9.7,2.2-20.5,2.2-20.5c-0.1-0.5-1.1-5.1-1.9-8.8
		c-0.7-3.1,1.2-6.1,4.2-6.9c6.4-1.7,17.8,1.4,21.8,13c5.9,17.2,2.1,29.4,2.2,34.7l0.1,5.3L349.6,155.1z"/>
	
		<rect x="309.3" y="160" transform="matrix(0.9738 -0.2275 0.2275 0.9738 -37.7581 80.6453)" class="st16" width="43.4" height="88.2"/>
	<path class="st5" d="M362.1,242.1c0.1,0-4.3-19.3-9.9-43s-10.1-42.9-10.2-42.9s4.3,19.3,9.9,43S362,242.2,362.1,242.1z"/>
	<path class="st5" d="M319.9,252c0.1,0-4.3-19.3-9.9-43s-10.1-42.9-10.2-42.9s4.3,19.3,9.9,43S319.8,252,319.9,252z"/>
	<path class="st9" d="M331.7,179.4c1,4.4-1.7,8.7-6.1,9.8c-4.4,1-8.7-1.7-9.8-6.1c-1-4.4,1.7-8.7,6.1-9.8
		C326.3,172.3,330.7,175.1,331.7,179.4z"/>
	<path class="st5" d="M404.1,141.1c0-0.1-4.6,0.9-10.3,2.2s-10.3,2.5-10.3,2.6s4.6-0.9,10.3-2.2S404.1,141.2,404.1,141.1z"/>
	<path class="st5" d="M442.2,179.9c0-0.1-3,0.5-6.6,1.4c-2.2,0.5-4.4,1-6.6,1.7c0,0.1,3-0.5,6.6-1.4
		C437.8,181.2,440,180.6,442.2,179.9z"/>
	<path class="st5" d="M443.7,155.9c0-0.1-4.2,0.8-9.4,2s-9.3,2.2-9.3,2.4s4.2-0.8,9.4-2S443.7,156,443.7,155.9z"/>
	<path class="st5" d="M442.5,202.2c0-0.1-4.2,0.8-9.4,2s-9.3,2.2-9.3,2.3s4.2-0.8,9.4-2S442.5,202.3,442.5,202.2z"/>
	<g class="st7">
		<path class="st9" d="M371.4,97.1c-1.2,1.4-1.6,3.3-1,5c0.6,1.7,1.4,3.3,2.3,4.9c1.7,3.6,2.2,7.7,1.4,11.6
			c-0.2,1.2-0.6,2.6,0.2,3.5c1.1,1.3,3.2,0.6,4.6-0.4c5.2-4.2,7.5-11,6-17.5c-0.6-2.7-2.1-5.1-4.3-6.9
			C378.5,95.7,375.1,94.2,371.4,97.1"/>
	</g>
	<g class="st7">
		<path class="st9" d="M441.2,134.9c-1.5-0.2-3,0-4.5,0.5l-25.5,6.5c-2.8,0.7-8,1.3-8.1,4.2l0,0c-0.6,1.6,0.6,3.3,2.1,3.9
			c1.6,0.5,3.3,0.6,4.9,0.2c3.4-0.5,6.8-1.3,10.1-2.1c6.8-1.6,13.5-3.3,20-6c1-0.4,1.9-0.9,2.7-1.5c0.8-0.7,1.3-1.7,1.3-2.7
			C443.9,136.2,442.7,135.1,441.2,134.9z"/>
	</g>
	<path class="st9" d="M332.7,161c0-0.1-6,1.2-13.2,2.9s-13.2,3.1-13.1,3.2s5.9-1.2,13.2-2.9S332.7,161.1,332.7,161z"/>
	<path class="st9" d="M446.7,170.8c0.1-0.2,0.1-0.3,0.2-0.5c0.1-0.5,0.2-0.9,0.2-1.4c0-0.7,0-1.4-0.1-2.1c-0.1-0.9-0.4-1.7-0.7-2.5
		c-0.3-0.8-0.8-1.6-1.3-2.3c-0.4-0.6-0.9-1.1-1.4-1.6c-0.4-0.3-0.7-0.6-1.1-0.9c-0.1-0.1-0.3-0.2-0.5-0.2c0,0.1,0.6,0.5,1.4,1.3
		c0.5,0.5,0.9,1,1.3,1.6c0.5,0.7,0.9,1.5,1.2,2.2c0.3,0.8,0.5,1.6,0.7,2.4c0.1,0.7,0.2,1.4,0.1,2.1
		C446.8,170,446.6,170.8,446.7,170.8z"/>
	<path class="st9" d="M447.9,147.6c0.3-0.3,0.6-0.7,0.8-1.1c0.5-1,0.7-2.2,0.6-3.3c-0.1-1.1-0.4-2.2-1-3.2c-0.2-0.4-0.6-0.7-0.9-1
		c0,0,0.3,0.4,0.7,1.1c0.5,0.9,0.8,2,0.9,3.1c0.1,1.1-0.1,2.2-0.5,3.2C448.1,147.1,447.8,147.5,447.9,147.6z"/>
	<path class="st9" d="M444.7,195.8c0.5-0.3,0.8-0.7,1.1-1.1c1.6-2.2,1.4-5.2-0.4-7.2c-0.3-0.4-0.8-0.8-1.3-1c0,0,0.5,0.4,1.1,1.1
		c0.8,1,1.2,2.2,1.3,3.4c0.1,1.2-0.3,2.5-0.9,3.6C445.1,195.3,444.6,195.7,444.7,195.8z"/>
	<path class="st9" d="M440.8,218.2c0.3-0.3,0.6-0.8,0.8-1.2c1-2.2,0.8-4.6-0.3-6.7c-0.2-0.4-0.5-0.8-0.9-1.1c0,0,0.3,0.5,0.6,1.2
		c0.5,1,0.7,2.1,0.8,3.2c0,1.1-0.1,2.2-0.5,3.3C441.1,217.7,440.8,218.1,440.8,218.2z"/>
	<path class="st9" d="M393.3,126.1c0.1-0.3,0.2-0.7,0.2-1c0.1-0.3,0.1-0.7,0.2-1.2s0.2-1,0.2-1.6c0.1-1.4,0.2-2.7,0.1-4.1
		c-0.1-3.4-0.7-6.7-1.9-9.8c-0.5-1.3-1-2.5-1.7-3.7c-0.3-0.5-0.5-1-0.8-1.4s-0.5-0.7-0.6-1c-0.2-0.3-0.4-0.6-0.6-0.8
		c0.1,0.3,0.3,0.6,0.5,0.9c0.2,0.3,0.4,0.6,0.6,1s0.5,0.9,0.7,1.4c0.6,1.2,1.1,2.5,1.6,3.7c0.5,1.6,1,3.2,1.3,4.8
		c0.3,1.6,0.5,3.3,0.6,4.9c0.1,1.3,0,2.7-0.1,4c0,0.6-0.1,1.1-0.1,1.6s-0.1,0.8-0.2,1.2C393.3,125.4,393.3,125.8,393.3,126.1z"/>
	<path class="st13" d="M296.8,227.4c0,0,3.3-2.6,5.8-2.7s5.7,0.9,6.3,0.5s2.1-1.7,3.1-0.5s2.1,5.5-3,6.6h-3.5c0,0,0.4,3.5,1.3,4.9
		s12.9,16.5,12.9,16.5s1.5,1.5,0.8,3s-4,0.6-4,0.6s-2.2,2-4.8,1.1c-1.3-0.4-2.5-1-3.6-1.7c-1.7,1.3-4.1,1.3-5.8,0
		c-3-2.2-13-14.8-13-14.8l3.6-14L296.8,227.4z"/>
	<path class="st13" d="M286.4,219.1l10.4,8.3l-7.6,13.6l-15.3-5.5C273.9,235.5,274.3,219.4,286.4,219.1z"/>
	<path class="st13" d="M448.9,200.6c0,0-0.3-3.7-2.4-3s-3,5.2-3,5.2L448.9,200.6z"/>
	<path class="st13" d="M441.5,204.3c0,0,3.6-4.1,8.7-3.7s1.9,4.6,1.9,4.6s3.7,2.3,1,5.6l-0.4,0.9c0,0,3.2,1.2-0.1,4.6
		c0.7,1.2,0.5,2.8-0.4,3.9c-1.6,1.6-5.8-0.6-5.8-0.6s-3.8,0.9-4.1-0.7c-0.3-1.1,0.1-2.2,0.9-2.9c0.3-0.2,2.3-1,2.3-1
		s-4.4,0.6-4.5-0.6s-0.5-2.3,2.7-3.4l1.8-0.5c0,0-4.6,0.1-4.6-1s-0.2-1.5,1.4-2.3c1-0.5,2-1,3-1.6
		C445.1,205.6,440.8,206.6,441.5,204.3z"/>
	<path class="st14" d="M440.6,208.6c1.6-1.2,3.5-2.2,5.4-2.8c2-0.5,4-0.6,6.1-0.5c-0.6-0.2-1.2-0.4-1.8-0.4c-3-0.3-6,0.6-8.4,2.4
		C441.5,207.6,441,208.1,440.6,208.6z"/>
	<path class="st14" d="M441.1,214.9c0,0-0.1-0.1-0.2-0.4c-0.1-0.4-0.1-0.8,0-1.1c0.2-0.6,0.5-1,1-1.4c0.6-0.4,1.3-0.7,2-0.8
		c1.9-0.3,3.8-0.6,5.8-0.7c-0.6-0.2-1.1-0.2-1.7-0.2c-1.4,0-2.8,0.1-4.1,0.4c-0.8,0.2-1.5,0.5-2.1,0.9c-0.5,0.4-0.9,1-1.1,1.6
		c-0.1,0.4-0.1,0.9,0.1,1.3C441,214.8,441.1,214.9,441.1,214.9z"/>
	<path class="st14" d="M443,219.7c0,0-0.2-0.1-0.4-0.3c-0.7-0.7-0.8-1.9,0-2.6c0,0,0.1-0.1,0.1-0.1c0.7-0.4,1.4-0.8,2.1-1
		c1.4-0.3,2.9-0.4,4.4-0.2c0.6,0.1,1.3,0,1.9-0.1c-0.6-0.1-1.2-0.2-1.9-0.2c-1.5-0.2-3.1-0.2-4.5,0.1c-0.8,0.2-1.6,0.6-2.3,1.1
		c-0.3,0.3-0.5,0.6-0.6,1c-0.1,0.3-0.1,0.7,0,1c0.1,0.5,0.3,0.9,0.8,1.2C442.8,219.7,443,219.7,443,219.7z"/>
	<path class="st14" d="M441.4,204.5c0,0,0.1-0.1,0.3-0.4c0.3-0.3,0.7-0.6,1-0.8c1.1-0.8,2.4-1.5,3.7-2c1.3-0.5,2.7-0.7,4.1-0.6
		c0.6,0.1,1.1,0.3,1.7,0.5c-0.4-0.4-1-0.7-1.6-0.8c-1.5-0.2-3,0-4.3,0.5C443,202.1,441.1,204.3,441.4,204.5z"/>
</g>
</svg>
