<?xml version="1.0" encoding="utf-8"?>
<!-- Generator: Adobe Illustrator 25.4.1, SVG Export Plug-In . SVG Version: 6.00 Build 0)  -->
<svg version="1.1" id="Layer_1" xmlns="http://www.w3.org/2000/svg" xmlns:xlink="http://www.w3.org/1999/xlink" x="0px" y="0px"
	 viewBox="0 0 488.81 590.74" style="enable-background:new 0 0 488.81 590.74;" xml:space="preserve">
<style type="text/css">
	.st0{fill:#004643;}
</style>
<g>
	<path class="st0" d="M251.34,0c30.42,4.95,51.94,24.63,72.73,44.92c20.59,20.08,44.52,33.37,71.9,41.83
		c17.69,5.46,35.31,12.12,51.64,20.74c23.23,12.26,35.57,32.94,34.42,59.46c-0.76,17.54-3.08,35.28-7.16,52.35
		c-7.52,31.41-7.09,62.24,0.55,93.48c3.41,13.93,5.62,28.3,6.71,42.6c2.64,34.5-12.97,57.06-44.93,73.38
		c-3.7,1.89-7.68,3.22-12.19,5.09c2.72,3.54,5.12,6.7,7.56,9.83c17.47,22.45,34.95,44.9,52.42,67.35c2.8,3.6,5.07,7.3,3.01,12.13
		c-2.34,5.5-6.78,7.01-12.22,6.34c-19.45-2.4-38.89-4.9-58.33-7.34c-4.16-0.52-8.33-0.97-12.85-1.5
		c-5.36,18.72-10.64,37.15-15.91,55.58c-0.32,1.11-0.73,2.19-0.97,3.32c-1.11,5.13-3.01,9.81-8.78,10.97
		c-6.02,1.21-9.53-2.78-12.81-7.02c-12.47-16.12-24.99-32.19-37.5-48.27c-8.14-10.46-16.29-20.91-24.72-31.71
		c-39.5,34.09-79.07,34.3-118.95-0.02c-5.62,7.19-11.15,14.24-16.65,21.32c-15.22,19.57-30.43,39.16-45.65,58.74
		c-0.59,0.76-1.03,1.84-1.81,2.21c-3.63,1.71-7.33,4.44-11.04,4.51c-4.58,0.08-6.93-4.2-8.17-8.54
		c-5.09-17.91-10.19-35.81-15.3-53.72c-0.68-2.37-1.41-4.73-2.21-7.4c-16.7,2.06-33.07,4.07-49.43,6.1
		c-6.86,0.85-13.72,1.73-20.57,2.69c-5.11,0.71-9.74,0.02-12.63-4.74c-2.94-4.84-1.15-9.18,2.02-13.24
		c18.78-24.11,37.55-48.23,56.31-72.36c1.26-1.62,2.42-3.32,3.56-4.88c-7.41-3.69-14.7-6.67-21.34-10.72
		c-29.4-17.91-39.66-44.75-34.68-77.87c2.56-17.07,6.17-34,9.67-50.92c5.47-26.43,1.92-52.24-3.74-78.19
		c-3.3-15.13-5.72-30.64-6.57-46.09c-1.77-32.11,14.04-54.47,42.48-67.51c15.98-7.33,32.85-12.91,49.66-18.18
		c24.14-7.58,45.27-19.75,63.31-37.49c6.85-6.73,14.11-13.06,21.35-19.39C199.19,14.1,216.56,3.57,237.49,0
		C242.11,0,246.73,0,251.34,0z M243.23,20.56c-8.75-0.12-18.47,2.38-26.35,8.33c-14.53,10.96-28.7,22.5-42.23,34.67
		c-17.77,16-36.94,29.3-59.77,37.04c-18.16,6.15-36.56,11.82-54.17,19.32c-26.93,11.48-36.67,29.1-33.36,58.19
		c1.45,12.75,3.73,25.47,6.6,37.98c6.36,27.67,8.68,55.3,2.88,83.4c-3.68,17.85-7.24,35.76-9.72,53.8
		c-3.37,24.56,5.39,42.38,27.44,53.27c15.05,7.42,31.14,13.05,47.23,17.96c28.9,8.84,54.1,23.26,75.75,44.4
		c10.01,9.77,20.73,18.98,31.96,27.32c23.54,17.48,46.52,17.49,70.02-0.16c12.26-9.21,23.61-19.67,34.92-30.07
		c17.61-16.18,36.94-29.29,59.79-36.99c18.17-6.13,36.56-11.84,54.16-19.35c26.58-11.34,36.46-29.22,33.13-57.78
		c-1.51-12.94-3.83-25.84-6.72-38.54c-6.25-27.48-8.59-54.93-2.83-82.83c3.65-17.66,7.19-35.38,9.63-53.23
		c3.53-25.84-5.11-43.35-28.61-54.79c-15.77-7.67-32.79-12.92-49.51-18.48c-22.67-7.54-43.69-17.72-61.65-33.8
		c-13.88-12.42-27.78-24.87-42.28-36.55C269.55,25.61,257.87,20.58,243.23,20.56z M319.43,490.27
		c17.33,22.26,34.84,44.76,52.8,67.83c0.73-1.81,1.22-2.8,1.52-3.85c4.29-14.93,8.52-29.87,12.84-44.79
		c2.42-8.36,5.6-10.65,14.23-9.82c8.21,0.79,16.39,1.99,24.58,2.99c9.55,1.16,19.1,2.3,30.06,3.62
		c-17.13-22.03-33.23-42.79-49.47-63.43c-0.75-0.96-2.99-1.5-4.27-1.17C369.73,449.75,341.66,464.63,319.43,490.27z M116.29,558.49
		c18.25-23.45,35.76-45.95,53.94-69.31c-1.17-0.72-2.36-1.14-3.13-1.96c-21.58-22.82-47.95-37.27-78.15-45.28
		c-3.57-0.95-5.37-0.37-7.58,2.52C66.9,463.36,52.2,482.1,37.59,500.9c-1.12,1.44-2.09,2.99-3.54,5.07c1.74-0.1,2.66-0.11,3.57-0.22
		c17.15-2.07,34.28-4.3,51.45-6.18c7.36-0.8,10.55,1.62,12.77,8.69c1.49,4.75,2.75,9.58,4.13,14.37
		C109.3,534.19,112.62,545.74,116.29,558.49z"/>
	<path class="st0" d="M427.82,265.04c-0.27,101.04-82.12,182.8-183.26,183.05C143.62,448.34,60.79,365.6,61.02,264.74
		c0.23-101.16,83.27-183.88,183.79-183.09C346.25,82.43,428.09,164.45,427.82,265.04z M244.27,427.9
		c89.43,0.21,162.92-73.25,163.02-162.95c0.09-89.73-72.88-162.87-162.77-163.12c-89.52-0.26-162.81,73-162.98,162.91
		C81.38,354.42,154.45,427.68,244.27,427.9z"/>
	<path class="st0" d="M173.03,213.83c9.42,0,18.84-0.16,28.25,0.08c3.52,0.09,5.03-1.2,6.06-4.46
		c5.67-17.93,11.41-35.83,17.41-53.65c4.2-12.47,16.18-18.3,27.37-13.66c6.27,2.6,10.03,7.44,12.09,13.82
		c5.62,17.34,11.53,34.59,16.84,52.02c1.47,4.82,3.75,6.02,8.45,5.95c17.87-0.26,35.75-0.23,53.63-0.06
		c14.51,0.14,23.58,9.37,22.48,22.51c-0.57,6.83-4.35,11.67-9.75,15.56c-14.96,10.79-29.77,21.79-44.83,32.43
		c-3.31,2.34-3.75,4.34-2.51,8.02c5.87,17.46,11.56,34.98,17.08,52.55c4.55,14.48-2.91,27.31-17.13,28.02
		c-5.22,0.26-11.32-2.22-15.81-5.24c-14.8-10-29.17-20.65-43.4-31.44c-3.86-2.93-6.23-2.55-9.87,0.16
		c-14.78,11.03-29.67,21.92-44.78,32.5c-13.49,9.45-30.24,2.8-32.66-12.94c-0.55-3.6,0.27-7.66,1.38-11.23
		c5.4-17.41,10.97-34.76,16.81-52.03c1.32-3.91,0.94-6.03-2.59-8.51c-15.23-10.73-30.33-21.67-45.27-32.8
		c-12.15-9.05-12.53-25.97-0.5-33.59c3.96-2.51,9.32-3.52,14.13-3.84C154.93,213.42,163.99,213.84,173.03,213.83z M306.44,352.79
		c-0.83-3-1.17-4.46-1.63-5.88c-6.15-18.98-12.33-37.95-18.48-56.93c-2.77-8.55-1.86-11.31,5.51-16.69
		c15.84-11.54,31.7-23.03,47.55-34.56c1.57-1.14,3.08-2.38,5.77-4.46c-23.24,0-44.75,0.01-66.26-0.01
		c-8.62-0.01-11.18-1.85-13.84-9.99c-6.14-18.78-12.23-37.58-18.37-56.36c-0.55-1.69-1.3-3.32-2.38-6.04
		c-1.05,2.96-1.72,4.7-2.29,6.46c-6.13,18.78-12.22,37.58-18.37,56.36c-2.44,7.47-5.27,9.55-13.01,9.56
		c-19.99,0.04-39.97,0.01-59.96,0.01c-1.82,0-3.64,0-6.96,0c2.86,2.22,4.43,3.51,6.07,4.7c15.68,11.42,31.39,22.81,47.07,34.24
		c7.6,5.54,8.4,8.11,5.47,17.17c-6.09,18.8-12.19,37.59-18.26,56.39c-0.49,1.52-0.8,3.09-1.51,5.88
		c18.17-13.2,35.24-25.59,52.31-37.98c8.31-6.03,10.79-6.04,18.98-0.09C270.93,326.99,288,339.39,306.44,352.79z"/>
</g>
</svg>
