<?xml version="1.0" encoding="utf-8"?>
<!-- Generator: Adobe Illustrator 25.4.1, SVG Export Plug-In . SVG Version: 6.00 Build 0)  -->
<svg version="1.1" id="Layer_1" xmlns="http://www.w3.org/2000/svg" xmlns:xlink="http://www.w3.org/1999/xlink" x="0px" y="0px"
	 viewBox="0 0 586.21 586.71" style="enable-background:new 0 0 586.21 586.71;" xml:space="preserve">
<style type="text/css">
	.st0{fill:#004643;}
</style>
<g>
	<path class="st0" d="M586.21,78.54c0,143.45,0,286.89,0,430.34c-12.82,39.05-38.8,64.94-77.76,77.83c-143.32,0-286.65,0-429.97,0
		c-57.56-20.05-79.62-60.8-78.44-121.19C2.36,346.6,0.65,227.6,0.75,108.64C0.81,40.47,40.45,0.81,108.58,0.75
		c118.86-0.1,237.76,1.6,356.58-0.71C525.47-1.13,566.2,20.92,586.21,78.54z M380.65,286.16c25.06-15.62,42.78-33.5,45.59-61.99
		c5.51-55.77-26.76-93.09-85.49-94.91c-56.35-1.74-112.8-0.72-169.2-0.75c-3.5,0-6.99,1.5-9.94,2.18c0,113.15,0,224.98,0,336.34
		c65.28,0,129.1,0.34,192.91-0.36c9.53-0.1,19.25-4.41,28.45-7.91c39.1-14.88,59.08-43.15,59.5-83.32
		C442.95,330.9,424.99,303.94,380.65,286.16z"/>
	<path class="st0" d="M221.11,418.61c0-34.31,0-68.21,0-102.67c40.56,0,79.99-1.66,119.2,0.57c26.75,1.52,41.01,20.67,41.9,48.05
		c0.95,29.01-11.73,50.89-38.65,53.18C303.76,421.11,263.46,418.61,221.11,418.61z"/>
	<path class="st0" d="M220.91,270.83c0-31.83,0-61.27,0-91.59c38.92,0,77.5-1.92,115.76,0.73c22.68,1.57,32.14,20.64,30.12,48.44
		c-1.8,24.79-18.36,41.33-45.16,42.18C288.98,271.61,256.28,270.83,220.91,270.83z"/>
</g>
</svg>
