<svg width="178" height="178" viewBox="0 0 178 178" fill="none" xmlns="http://www.w3.org/2000/svg">
<g clip-path="url(#clip0_113_22)">
<path d="M29.1733 31.3094C29.2164 31.7582 29.414 32.1805 29.7356 32.5021C30.1013 32.8678 30.5973 33.0732 31.1144 33.0732H35.0126C36.3135 33.0732 37.622 33.3991 38.8434 34.3313C39.9799 35.1987 40.8655 36.46 41.6508 37.991L29.1733 31.3094ZM29.1733 31.3094V31.1143C29.1733 30.5971 29.3788 30.1011 29.7445 29.7354C30.1102 29.3698 30.6062 29.1643 31.1233 29.1643H35.0215C40.1396 29.1643 43.1854 32.4018 45.1402 36.2135C46.4842 38.8449 47.4855 42.1286 48.3731 45.195L48.8956 46.9999H50.7745H142.399C142.4 46.9999 142.4 46.9999 142.4 46.9999C143.389 47.0003 144.364 47.2298 145.249 47.6703C146.134 48.1109 146.905 48.7507 147.502 49.5394C148.098 50.3281 148.504 51.2444 148.687 52.2162C148.87 53.1881 148.825 54.1891 148.556 55.1407L135.243 102.084C134.332 105.286 132.403 108.103 129.747 110.109C127.09 112.115 123.853 113.2 120.524 113.2H120.524H75.3207H75.3199C71.9636 113.201 68.7001 112.099 66.0321 110.062C63.3642 108.026 61.4397 105.169 60.5554 101.931L54.8419 80.9732L54.8191 80.8894L54.7905 80.8074C54.7757 80.7649 54.7622 80.722 54.7502 80.6786L54.7447 80.6587L54.7389 80.6389L45.563 49.5156L45.5617 49.5114L44.6743 46.5207C44.6551 46.4545 44.636 46.3883 44.6169 46.3221C43.7672 43.381 42.9291 40.4801 41.6515 37.9923L29.1733 31.3094ZM83.3221 145.622C81.2874 147.657 78.5276 148.8 75.65 148.8C72.7724 148.8 70.0127 147.657 67.9779 145.622C65.9431 143.587 64.8 140.827 64.8 137.95C64.8 135.072 65.9431 132.313 67.9779 130.278C70.0127 128.243 72.7724 127.1 75.65 127.1C78.5276 127.1 81.2874 128.243 83.3221 130.278C85.3569 132.313 86.5 135.072 86.5 137.95C86.5 140.827 85.3569 143.587 83.3221 145.622ZM127.822 145.622C125.787 147.657 123.028 148.8 120.15 148.8C117.272 148.8 114.513 147.657 112.478 145.622C110.443 143.587 109.3 140.827 109.3 137.95C109.3 135.072 110.443 132.313 112.478 130.278C114.513 128.243 117.272 127.1 120.15 127.1C123.028 127.1 125.787 128.243 127.822 130.278C129.857 132.313 131 135.072 131 137.95C131 140.827 129.857 143.587 127.822 145.622Z" stroke="#004643" stroke-width="5"/>
<path d="M98 67.3878L97.0456 68.3325C97.1692 68.4643 97.3175 68.5692 97.4815 68.6409C97.6455 68.7125 97.8218 68.7494 98 68.7494C98.1782 68.7494 98.3545 68.7125 98.5185 68.6409C98.6825 68.5692 98.8308 68.4643 98.9544 68.3325L98 67.3878ZM93.4506 90.6809C90.7712 88.51 87.8425 86.3899 85.5183 83.7013C83.2419 81.0635 81.6512 77.9861 81.6512 73.995H79C79 78.8381 80.9619 82.5332 83.537 85.5107C86.0645 88.4355 89.2883 90.779 91.8087 92.8209L91.8043 91.439L93.4524 90.6809H93.4506ZM81.6512 73.995C81.6512 70.0892 83.7986 66.8119 86.7308 65.4331C89.5799 64.0942 93.4082 64.4485 97.0456 68.3325L98.9544 66.445C94.6419 61.8362 89.6294 61.075 85.6279 62.9552C81.7148 64.7955 79 69.0682 79 73.995H81.6512ZM91.8087 92.8209C92.7153 93.5548 93.6874 94.336 94.6719 94.9282C95.6564 95.5186 96.7805 96 98 96V93.275C97.4521 93.275 96.8087 93.057 96.0099 92.5756C95.2092 92.096 94.3803 91.4348 93.4506 90.6809L92.6296 91.7509L91.8087 92.8209ZM104.191 92.8209C106.712 90.7771 109.936 88.4373 112.463 85.5107C115.038 82.5314 117 78.8381 117 73.995H114.349C114.349 77.9861 112.758 81.0635 110.482 83.7013C108.157 86.3899 105.229 88.51 102.549 90.6809L104.191 92.8209ZM117 73.995C117 69.0682 114.287 64.7955 110.372 62.9552C106.371 61.075 101.362 61.8362 97.0456 66.4432L98.9544 68.3325C102.592 64.4503 106.42 64.0942 109.269 65.4331C112.201 66.8119 114.349 70.0874 114.349 73.995H117ZM102.549 90.6809C101.62 91.4348 100.791 92.096 99.9901 92.5756C99.1913 93.0552 98.5479 93.275 98 93.275V96C99.2195 96 100.344 95.5186 101.328 94.9282C102.314 94.336 103.285 93.5548 104.191 92.8209L102.549 90.6809Z" fill="#004643"/>
<path d="M92.6305 91.749L93.4506 90.6809M93.4506 90.6809C90.7712 88.51 87.8425 86.3899 85.5183 83.7013C83.2419 81.0635 81.6512 77.9861 81.6512 73.995M93.4506 90.6809H93.4524L91.8043 91.439L91.8087 92.8209M93.4506 90.6809C94.3803 91.4348 95.2092 92.096 96.0099 92.5756C96.8087 93.057 97.4521 93.275 98 93.275M93.4506 90.6809L92.6296 91.7509L91.8087 92.8209M97.0456 68.3325L98 67.3878L98.9544 68.3325M97.0456 68.3325C97.1692 68.4643 97.3175 68.5692 97.4815 68.6409C97.6455 68.7125 97.8218 68.7494 98 68.7494C98.1782 68.7494 98.3545 68.7125 98.5185 68.6409C98.6825 68.5692 98.8308 68.4643 98.9544 68.3325M97.0456 68.3325C93.4082 64.4485 89.5799 64.0942 86.7308 65.4331C83.7986 66.8119 81.6512 70.0892 81.6512 73.995M97.0456 68.3325L98.9544 66.445C94.6419 61.8362 89.6294 61.075 85.6279 62.9552C81.7148 64.7955 79 69.0682 79 73.995M98.9544 68.3325L97.0456 66.4432C101.362 61.8362 106.371 61.075 110.372 62.9552C114.287 64.7955 117 69.0682 117 73.995M98.9544 68.3325C102.592 64.4503 106.42 64.0942 109.269 65.4331C112.201 66.8119 114.349 70.0874 114.349 73.995M103.369 91.749L104.191 92.8209M104.191 92.8209C106.712 90.7771 109.936 88.4373 112.463 85.5107C115.038 82.5314 117 78.8381 117 73.995M104.191 92.8209L102.549 90.6809M104.191 92.8209C103.285 93.5548 102.314 94.336 101.328 94.9282C100.344 95.5186 99.2195 96 98 96M81.6512 73.995H79M79 73.995C79 78.8381 80.9619 82.5332 83.537 85.5107C86.0645 88.4355 89.2883 90.779 91.8087 92.8209M91.8087 92.8209C92.7153 93.5548 93.6874 94.336 94.6719 94.9282C95.6564 95.5186 96.7805 96 98 96M98 96V93.275M98 93.275C98.5479 93.275 99.1913 93.0552 99.9901 92.5756C100.791 92.096 101.62 91.4348 102.549 90.6809M117 73.995H114.349M114.349 73.995C114.349 77.9861 112.758 81.0635 110.482 83.7013C108.157 86.3899 105.229 88.51 102.549 90.6809" stroke="#004643"/>
</g>
<defs>
<clipPath id="clip0_113_22">
<rect width="126" height="126" fill="white" transform="translate(26 26)"/>
</clipPath>
</defs>
</svg>
