<?xml version="1.0" encoding="utf-8"?>
<!-- Generator: Adobe Illustrator 25.4.1, SVG Export Plug-In . SVG Version: 6.00 Build 0)  -->
<svg version="1.1" id="Layer_1" xmlns="http://www.w3.org/2000/svg" xmlns:xlink="http://www.w3.org/1999/xlink" x="0px" y="0px"
	 viewBox="0 0 186.4 165" style="enable-background:new 0 0 186.4 165;" xml:space="preserve">
<style type="text/css">
	.st0{fill:#061E1D;}
</style>
<g>
	<path class="st0" d="M149.3,133.1c8,0,14.4,6.5,14.4,14.4c0,8-6.5,14.4-14.4,14.4s-14.4-6.5-14.4-14.4S141.3,133.1,149.3,133.1
		L149.3,133.1z"/>
	<path class="st0" d="M58.9,133.1c8,0,14.4,6.5,14.4,14.4c0,8-6.5,14.4-14.4,14.4s-14.4-6.5-14.4-14.4
		C44.5,139.6,51,133.1,58.9,133.1L58.9,133.1z"/>
	<path class="st0" d="M8.6,3.1h19.9c0,0,9-0.7,12.1,9c2.5,8,16.8,85.9,16.8,85.9s1,10.2,10.2,10.2s89.7,0,89.7,0s6.5,0.6,6.5,7.1
		c0,6.5-6.7,7-6.7,7H61.8c0,0-13.8-1-17-16c-2.6-12.2-17.5-89.6-17.5-89.6L8.6,16.7c0,0-5.2-0.8-5.2-6.2C3.4,3.5,8.6,3.1,8.6,3.1z"
		/>
	<path class="st0" d="M45.8,27.4H167l-11.2,42.4c0,0-1.5,7.9-6,7.9s-96.1,0-96.1,0l2.8,15.1h94.1c0,0,13.5-2.7,17.6-15.3
		c4.1-12.6,13.4-48.4,13.4-48.4s7-15.9-9.5-15.9s-131.1,0-131.1,0L44,27.5L45.8,27.4z"/>
</g>
</svg>
