<svg width="126" height="126" viewBox="0 0 126 126" fill="none" xmlns="http://www.w3.org/2000/svg">
<g clip-path="url(#clip0_113_24)">
<path d="M3.73557 6.50206C3.41401 6.18051 3.21636 5.75821 3.17333 5.30935V5.11431C3.17333 4.59713 3.37877 4.10114 3.74447 3.73545C4.11017 3.36975 4.60615 3.16431 5.12333 3.16431H9.02153C14.1396 3.16431 17.1854 6.40179 19.1402 10.2135C20.4842 12.8449 21.4855 16.1286 22.3731 19.1951L22.8956 20.9999H24.7745H116.399C116.4 20.9999 116.4 20.9999 116.4 20.9999C117.389 21.0003 118.364 21.2298 119.249 21.6703C120.134 22.1109 120.905 22.7507 121.502 23.5394C122.098 24.3281 122.504 25.2444 122.687 26.2162C122.87 27.1876 122.825 28.1881 122.556 29.1393C122.556 29.1397 122.556 29.1402 122.556 29.1407L109.243 76.0844C108.332 79.286 106.403 82.1034 103.747 84.1094C101.09 86.1153 97.8526 87.2003 94.5241 87.1999H94.5238H49.3207H49.3199C45.9636 87.201 42.7001 86.0986 40.0321 84.0623C37.3645 82.0264 35.4402 79.1698 34.5557 75.9327C34.5556 75.9323 34.5555 75.9319 34.5554 75.9315L28.8419 54.9732L28.8191 54.8894L28.7905 54.8074C28.7757 54.765 28.7622 54.722 28.7502 54.6786L28.7447 54.6587L28.7389 54.6389L19.563 23.5156L19.5617 23.5114L18.6743 20.5207C18.6552 20.4545 18.636 20.3883 18.6169 20.3221C17.7672 17.381 16.9291 14.4801 15.6515 11.9923C14.8659 10.4607 13.9803 9.19896 12.8434 8.33128C11.622 7.39906 10.3135 7.07321 9.01263 7.07321H5.11443C4.59726 7.07321 4.10127 6.86776 3.73557 6.50206ZM57.3221 119.622C55.2874 121.657 52.5276 122.8 49.65 122.8C46.7724 122.8 44.0127 121.657 41.9779 119.622C39.9431 117.587 38.8 114.827 38.8 111.95C38.8 109.072 39.9431 106.313 41.9779 104.278C44.0127 102.243 46.7724 101.1 49.65 101.1C52.5276 101.1 55.2874 102.243 57.3221 104.278C59.3569 106.313 60.5 109.072 60.5 111.95C60.5 114.827 59.3569 117.587 57.3221 119.622ZM101.822 119.622C99.7874 121.657 97.0276 122.8 94.15 122.8C91.2724 122.8 88.5127 121.657 86.4779 119.622C84.4431 117.587 83.3 114.827 83.3 111.95C83.3 109.072 84.4431 106.313 86.4779 104.278C88.5127 102.243 91.2724 101.1 94.15 101.1C97.0276 101.1 99.7874 102.243 101.822 104.278C103.857 106.313 105 109.072 105 111.95C105 114.827 103.857 117.587 101.822 119.622Z" stroke="#004643" stroke-width="5"/>
<path d="M66.9286 41.5888C66.9286 42.1914 66.8108 42.7881 66.5819 43.3449C66.3531 43.9016 66.0177 44.4075 65.5948 44.8336C65.172 45.2597 64.67 45.5977 64.1176 45.8283C63.5651 46.0589 62.973 46.1776 62.375 46.1776C61.777 46.1776 61.1849 46.0589 60.6324 45.8283C60.0799 45.5977 59.578 45.2597 59.1551 44.8336C58.7323 44.4075 58.3969 43.9016 58.168 43.3449C57.9392 42.7881 57.8214 42.1914 57.8214 41.5888C57.8214 40.3718 58.3012 39.2046 59.1551 38.344C60.0091 37.4835 61.1673 37 62.375 37C63.5827 37 64.7409 37.4835 65.5948 38.344C66.4488 39.2046 66.9286 40.3718 66.9286 41.5888ZM88.1786 41.5888C88.1786 42.8058 87.6988 43.973 86.8448 44.8336C85.9909 45.6942 84.8327 46.1776 83.625 46.1776C82.4173 46.1776 81.2591 45.6942 80.4051 44.8336C79.5512 43.973 79.0714 42.8058 79.0714 41.5888C79.0714 40.3718 79.5512 39.2046 80.4051 38.344C81.2591 37.4835 82.4173 37 83.625 37C84.8327 37 85.9909 37.4835 86.8448 38.344C87.6988 39.2046 88.1786 40.3718 88.1786 41.5888ZM61.6586 66.503C67.2746 59.7972 78.7193 59.7972 84.3414 66.503C84.5923 66.8283 84.9058 67.0991 85.263 67.2993C85.6203 67.4994 86.014 67.6248 86.4205 67.6679C86.8271 67.711 87.238 67.671 87.6288 67.5501C88.0196 67.4292 88.3822 67.2301 88.6947 66.9646C89.0073 66.6991 89.2634 66.3727 89.4477 66.005C89.632 65.6374 89.7408 65.2359 89.7674 64.8249C89.7941 64.4138 89.7381 64.0016 89.6027 63.6129C89.4674 63.2241 89.2556 62.867 88.98 62.5628C80.9353 52.9568 65.0586 52.9568 57.02 62.5628C56.7444 62.867 56.5325 63.2241 56.3972 63.6129C56.2619 64.0016 56.2059 64.4138 56.2325 64.8249C56.2592 65.2359 56.3679 65.6374 56.5523 66.005C56.7366 66.3727 56.9927 66.6991 57.3053 66.9646C57.6178 67.2301 57.9803 67.4292 58.3711 67.5501C58.7619 67.671 59.1729 67.711 59.5794 67.6679C59.986 67.6248 60.3797 67.4994 60.7369 67.2993C61.0942 67.0991 61.4077 66.8283 61.6586 66.503Z" fill="#004643"/>
</g>
<defs>
<clipPath id="clip0_113_24">
<rect width="126" height="126" fill="white"/>
</clipPath>
</defs>
</svg>
