<?xml version="1.0" encoding="utf-8"?>
<!-- Svg Vector Icons : http://www.onlinewebfonts.com/icon -->
<!DOCTYPE svg PUBLIC "-//W3C//DTD SVG 1.1//EN" "http://www.w3.org/Graphics/SVG/1.1/DTD/svg11.dtd">
<svg version="1.1" xmlns="http://www.w3.org/2000/svg" xmlns:xlink="http://www.w3.org/1999/xlink" x="0px" y="0px" viewBox="0 0 256 256" enable-background="new 0 0 256 256" xml:space="preserve">
<metadata> Svg Vector Icons : http://www.onlinewebfonts.com/icon </metadata>
<g><g><g><path fill="#004643" d="M139.1,10.3c-9.6,2.5-10.4,3.2-69.1,61.7C7.6,134.2,9.5,131.9,10.2,142c0.8,11.2,0.5,10.8,46.7,57.1c37.8,37.8,42.2,42,47.1,44.3c7.2,3.5,14.3,3.7,20.3,0.6c5.5-2.8,110.6-108.2,115.5-115.7c5.6-8.8,6.3-11.9,6.2-27.4c-0.1-18.1-3.4-66.1-4.9-71.3c-1.6-5.6-7.2-11.9-12.8-14.3c-3.6-1.6-7.7-2.1-27.4-3.5C172.8,10,143.5,9.3,139.1,10.3z M209.8,39.9c3.8,1.7,6.5,4.4,7.7,7.7c4.4,11.4-7.1,22.7-18.5,18.3c-11.7-4.4-12.4-20.1-1.2-25.8C202.2,37.9,205.5,37.8,209.8,39.9z M140,74.8c-0.3,2-0.7,9.9-1.1,17.7l-0.6,14.2l2.1,1c1.9,0.8,3,0.2,15.3-8.2c7.3-5,13.7-9.4,14.3-9.6c0.7-0.2,3.4,3.3,7,9.1l5.9,9.5l-15.8,8c-14.3,7.3-15.8,8.3-16.1,10.4c-0.2,2.2,0.2,2.6,15.2,9.7c8.5,4.1,15.7,7.6,15.8,7.7c0.4,0.5-10.1,19.4-10.8,19.4c-0.3,0-6.8-4.1-14.6-9.1c-9.6-6.3-14.6-9.1-15.9-8.8c-1.8,0.2-1.9,0.6-1.9,6.8c0,3.6,0.3,11.7,0.7,17.9l0.7,11.4h-11.3h-11.3l0.5-5.2c0.2-2.8,0.7-10.7,1-17.5c0.5-12.4,0.5-12.5-1.3-13.5c-1.7-0.9-3.1-0.1-16.1,8.7c-8.4,5.7-14.7,9.4-15,8.9c-1.2-1.4-10.9-16.8-11.1-17.7c-0.1-0.5,6.9-4.4,15.5-8.8c14-7.2,15.7-8.2,15.9-10.2c0.3-2.7,0.3-2.7-17.3-11c-7.6-3.5-13.8-6.8-13.8-7.1c0-1.3,10.1-18.8,11-18.8c0.4,0,7.2,4.1,14.8,9.1c12.9,8.4,14.2,9.1,16.1,8.2c2.3-1.1,2.2,2.1,0.5-26.7l-0.6-8.8h11.4h11.3L140,74.8z"/></g></g></g>
</svg>