<?xml version="1.0" encoding="utf-8"?>
<!-- Generator: Adobe Illustrator 25.4.1, SVG Export Plug-In . SVG Version: 6.00 Build 0)  -->
<svg version="1.1" id="svg3476" xmlns="http://www.w3.org/2000/svg" xmlns:xlink="http://www.w3.org/1999/xlink" x="0px" y="0px"
	 viewBox="0 0 290.19 420.65" style="enable-background:new 0 0 290.19 420.65;" xml:space="preserve">
<style type="text/css">
	.st0{fill:#004643;}
</style>

<g id="layer1" transform="translate(-193.633,-276.3622)">
	<g id="g3013" transform="translate(119,276.3622)">
		<path class="st0" d="M74.63,85.87l26.41,296.2l118.51,32.9l118.83-32.94l26.44-296.16H74.63z M128.63,146.41h90.97v36.33h-87.67
			L128.63,146.41z M135.17,219.94h84.43v36.33h-81.17L135.17,219.94z M145.14,331.48l-5.09-57.04h36.47l2.59,28.97l40.45,10.92
			l0.04-0.01v37.8l0.12-0.03v-37.8l40.4-10.9l4.21-47.12h-44.61v-36.33h47.76l3.31-37.2h-51.07v-36.33h90.88l-6.56,73.53l-0.88,9.76
			l-8.54,95.64l-0.55,6.14l-74.35,20.61l-0.16,0.05L145.14,331.48z"/>
		<polygon class="st0" points="260.12,303.39 219.72,314.29 219.72,256.27 264.33,256.27 		"/>
		<polygon class="st0" points="267.48,219.94 219.72,219.94 219.72,182.74 270.79,182.74 		"/>
		<polygon class="st0" points="338.34,110.09 315.75,363.17 219.72,389.79 219.72,352.09 294.07,331.48 294.62,325.34 303.16,229.7 
			304.04,219.94 310.6,146.41 219.72,146.41 219.72,110.09 		"/>
		<path id="path2999" class="st0" d="M142.93,5.37h44v18.4h-25.6v18.4h25.6v18.4h-44V5.37z"/>
		<path id="path3001" class="st0" d="M195.73,5.37h44v16h-25.6v3.2h25.6v36.8h-44v-16.8h25.6v-3.2h-25.6V5.37z"/>
		<path id="path3003" class="st0" d="M248.53,5.37h44v16h-25.6v3.2h25.6v36.8h-44v-16.8h25.6v-3.2h-25.6V5.37z"/>
	</g>
</g>
</svg>
