<svg width="199" height="184" viewBox="0 0 199 184" fill="none" xmlns="http://www.w3.org/2000/svg">
<g clip-path="url(#clip0_157_27)">
<g filter="url(#filter0_d_157_27)">
<path opacity="0.6" fill-rule="evenodd" clip-rule="evenodd" d="M24.2011 6.86881C26.3048 5.4794 30.444 2.51179 32.245 1.34891C32.4719 1.17062 32.7499 1.06933 33.0385 1.05982C33.3271 1.05031 33.6111 1.13308 33.8493 1.29605C35.7638 2.42118 40.4101 5.53981 42.6046 6.95188C43.6413 7.61638 43.1645 8.05435 42.6046 8.4017C40.5538 9.60234 36.4675 12.1773 34.326 13.2647C34.0113 13.5304 33.6161 13.6824 33.2041 13.6961C32.7921 13.7098 32.3875 13.5844 32.0558 13.3402C30.1413 12.1471 26.0021 9.69295 24.1254 8.39415C23.346 7.88822 23.1795 7.54842 24.2011 6.86881Z" fill="white"/>
<path opacity="0.88" fill-rule="evenodd" clip-rule="evenodd" d="M50.2265 29.2825C53.4047 27.1984 59.1634 23.1358 61.88 21.2103C62.3002 20.8196 62.8532 20.6024 63.4275 20.6024C64.0018 20.6024 64.5548 20.8196 64.975 21.2103C67.9187 23.2265 74.4795 27.2512 77.6577 29.4486C78.5582 30.098 78.9214 31.0646 77.8696 31.7819C74.9638 33.6924 68.63 37.0677 65.4518 39.0839C64.9354 39.5658 64.2617 39.845 63.5552 39.87C62.8486 39.895 62.1569 39.664 61.6076 39.2198C58.8077 37.4378 53.2383 34.0473 50.2416 32.0689C48.6677 31.0268 48.1607 30.6342 50.2265 29.2825Z" fill="white"/>
<path opacity="0.8" fill-rule="evenodd" clip-rule="evenodd" d="M81.2649 16.1208C83.9664 14.3614 88.0148 11.643 90.1185 10.1554C90.5151 9.75785 91.0291 9.49781 91.5849 9.41353C92.1407 9.32925 92.7089 9.42519 93.2059 9.68722C95.7637 11.3409 101.212 14.8145 103.8 16.5965C104.421 17.027 104.958 17.7141 103.49 18.5447C100.955 19.987 96.3388 22.7054 93.7357 24.1628C93.1959 24.6065 92.5106 24.835 91.8119 24.8044C91.1132 24.7737 90.4507 24.486 89.952 23.9967C87.6819 22.426 83.7091 20.0021 81.3481 18.5749C79.8422 17.6764 79.9784 16.959 81.2649 16.1208Z" fill="white"/>
<path fill-rule="evenodd" clip-rule="evenodd" d="M86.92 60.6516C83.2196 58.3636 76.1594 54.3993 72.2623 52.0811C70.4689 51.0239 69.9921 50.0196 71.8991 48.8341C75.887 46.395 83.4315 41.5019 87.1092 39.3649C87.6755 39.0007 88.3289 38.7939 89.0021 38.7661C89.6752 38.7382 90.3436 38.8902 90.9382 39.2063C94.5705 41.1847 102.44 45.8362 106.542 48.3206C108.055 49.2494 108.873 50.1178 106.981 51.2504C103.288 53.4554 95.9704 57.8955 92.1565 60.478C91.4164 61.0604 90.5089 61.3914 89.5668 61.4227C88.6247 61.4539 87.6973 61.1838 86.92 60.6516Z" fill="white"/>
<path fill-rule="evenodd" clip-rule="evenodd" d="M110.213 77.9061C106.286 75.6407 99.5815 71.8651 95.9417 69.5998C93.891 68.3085 94.2769 67.3948 96.1612 66.2017C100.013 63.725 106.755 59.3528 110.539 57.2536C111.243 56.7524 112.082 56.4736 112.947 56.4535C113.812 56.4333 114.662 56.6725 115.389 57.1403C119.014 59.2622 125.908 63.1284 129.858 65.5901C132.34 67.1381 131.924 68.1802 130.479 69.0636C126.801 71.329 120.149 75.5199 116.29 77.8985C115.431 78.5929 114.359 78.9723 113.253 78.9737C112.147 78.9751 111.075 78.5983 110.213 77.9061Z" fill="white"/>
<path fill-rule="evenodd" clip-rule="evenodd" d="M136.91 64.1565C133.043 61.8912 125.824 57.4964 121.548 55.0498C119.46 53.8568 119.119 52.6033 121.48 51.1232C125.612 48.5407 132.778 44.2215 136.615 41.8655C137.339 41.3054 138.222 40.9878 139.138 40.958C140.054 40.9282 140.956 41.1876 141.715 41.6994C145.544 43.9194 152.854 48.3368 157.167 50.8589C159.021 51.9388 159.634 53.4188 157.674 54.5892C153.671 56.9754 146.52 61.4306 142.464 63.8847C141.7 64.538 140.739 64.9192 139.734 64.9685C138.728 65.0177 137.735 64.7321 136.91 64.1565Z" fill="white"/>
<path fill-rule="evenodd" clip-rule="evenodd" d="M164.361 48.3647C160.023 46.097 152.075 41.9145 147.258 39.405C144.5 37.9672 143.778 36.9478 147.045 35.2551C151.946 32.7195 160.167 28.2102 164.414 25.8771C165.226 25.3663 166.205 25.0909 167.21 25.0909C168.216 25.0909 169.195 25.3663 170.006 25.8771C174.565 28.2363 183.424 32.7587 188.097 35.3532C188.416 35.5307 188.681 35.7717 188.87 36.0558C189.058 36.34 189.164 36.6589 189.179 36.9857C189.194 37.3125 189.117 37.6376 188.955 37.9336C188.793 38.2295 188.551 38.4876 188.249 38.6861C183.69 41.0976 175.249 45.8748 170.561 48.2406C169.623 48.7076 168.563 48.9638 167.479 48.9855C166.396 49.0072 165.323 48.7937 164.361 48.3647Z" fill="white"/>
<path fill-rule="evenodd" clip-rule="evenodd" d="M111.25 44.0392C108.08 41.9702 101.784 38.4664 98.3405 36.488C96.8271 35.6196 96.5547 34.8041 98.3405 33.6714C101.716 31.4892 108.004 27.7589 111.129 25.7427C111.643 25.2793 112.305 25.0122 112.997 24.9888C113.69 24.9653 114.368 25.1869 114.913 25.6143C118.061 27.3813 124.334 31.0512 127.898 33.1278C129.873 34.2831 129.525 35.3251 127.981 36.2464C124.538 38.2928 118.507 41.872 115.458 43.9712C114.851 44.4191 114.119 44.6664 113.365 44.6786C112.61 44.6907 111.871 44.4672 111.25 44.0392Z" fill="white"/>
<path fill-rule="evenodd" clip-rule="evenodd" d="M135.149 30.3959C131.994 28.7195 125.652 25.0497 122.429 23.1015C121.021 22.218 121.112 21.3345 122.33 20.7002C125.524 18.9408 131.562 15.0142 134.703 13.1037C136.549 11.9862 136.466 11.6615 138.956 13.2397C142.141 15.2634 148.127 18.5783 151.199 20.3378C152.713 21.2137 152.44 21.9537 151.199 22.7013C148.112 24.5589 142.368 28.274 139.13 30.0637C138.588 30.5345 137.91 30.8207 137.194 30.8804C136.478 30.9402 135.762 30.7705 135.149 30.3959Z" fill="white"/>
<path opacity="0.6" fill-rule="evenodd" clip-rule="evenodd" d="M5.98676 29.9073V46.9654C5.93581 47.2359 5.97658 47.5156 6.10265 47.7603C6.22872 48.0051 6.4329 48.201 6.68295 48.3171C9.15743 49.8273 17.8068 54.7507 21.7115 56.9027C23.2249 57.756 23.6184 57.3936 23.6184 56.5403V39.9277C23.6233 39.4487 23.4808 38.9797 23.2102 38.5841C22.9395 38.1884 22.5538 37.8852 22.105 37.7152C18.4727 35.7821 9.24067 30.7908 6.64511 29.4542C6.26675 29.2277 5.98676 29.3787 5.98676 29.9073Z" fill="white"/>
<path opacity="0.9" fill-rule="evenodd" clip-rule="evenodd" d="M23.0054 65.2544C26.3275 66.8477 35.0071 71.7408 38.1399 73.5002C38.5472 73.7042 38.8752 74.0373 39.0724 74.4472C39.2696 74.8572 39.3249 75.3209 39.2296 75.7656C39.2296 79.1863 38.8058 87.0924 38.8058 90.8679C38.8058 91.9175 38.6847 92.8312 37.141 92.0082C33.6828 90.1732 25.6313 85.718 22.5136 84.0341C22.0976 83.8334 21.7567 83.5054 21.5403 83.098C21.3239 82.6906 21.2434 82.225 21.3104 81.7688C21.3104 78.2499 21.7493 69.853 21.7493 66.2964C21.7115 65.8132 21.9385 64.7484 23.0054 65.2544Z" fill="white"/>
<path opacity="0.9" fill-rule="evenodd" clip-rule="evenodd" d="M42.8693 47.1995C46.0324 48.8985 55.6277 54.207 59.3129 56.2609C59.7444 56.3611 60.1251 56.6133 60.3851 56.9713C60.6451 57.3292 60.7669 57.7688 60.728 58.2091C60.728 61.7808 60.2059 72.6696 60.2059 76.2791C60.2059 76.8378 60.1453 77.3966 59.0027 76.8076C55.5293 75.0331 45.6692 69.4528 42.3548 67.6632C41.9878 67.5258 41.6815 67.263 41.4903 66.9215C41.2991 66.58 41.2354 66.182 41.3105 65.798C41.3105 62.0225 41.8326 51.0959 41.8326 47.6752C41.8251 47.1391 41.984 46.7464 42.8693 47.1995Z" fill="white"/>
<path fill-rule="evenodd" clip-rule="evenodd" d="M43.7397 99.9899C47.1146 102.074 54.0841 106.144 56.9672 107.813C57.3846 108.066 57.7223 108.431 57.9418 108.866C58.1612 109.301 58.2535 109.789 58.2082 110.275C58.2082 113.673 57.8223 121.299 57.8223 125.249C57.8223 126.759 57.4363 127.514 56.0288 126.706C52.8355 124.856 46.0552 120.846 42.93 118.958C42.3264 118.658 41.8408 118.165 41.5502 117.557C41.2595 116.95 41.1805 116.263 41.3257 115.606C41.3257 111.777 41.7116 104.279 41.7116 100.76C41.7041 99.5444 41.7949 98.7893 43.7397 99.9899Z" fill="white"/>
<path fill-rule="evenodd" clip-rule="evenodd" d="M63.2706 85.1519C67.4478 87.5306 75.7793 92.25 79.5553 94.4701C80.185 94.6962 80.7219 95.1241 81.082 95.687C81.4421 96.2499 81.6051 96.916 81.5455 97.5812C81.5455 101.644 81.5455 110.924 81.5455 115.296C81.5455 116.912 80.7888 117.229 79.2753 116.421C75.0452 114.224 66.2521 109.467 62.5442 107.36C61.9586 107.151 61.4643 106.745 61.1465 106.212C60.8288 105.678 60.7076 105.051 60.8037 104.438C60.8037 100.3 60.8037 91.3892 60.8037 86.8585C60.7735 85.3558 60.5767 83.6115 63.2706 85.1519Z" fill="white"/>
<path fill-rule="evenodd" clip-rule="evenodd" d="M64.784 119.608C68.3784 121.79 75.5976 126.238 79.3055 128.39C80.0795 128.703 80.7247 129.268 81.1367 129.993C81.5488 130.718 81.7034 131.561 81.5757 132.384C81.5757 136.598 81.5757 144.806 81.5757 148.997C81.5757 150.628 80.6676 150.998 79.3509 150.235C75.7186 148.151 68.8627 143.855 65.1321 141.65C64.4155 141.409 63.7924 140.95 63.35 140.338C62.9076 139.726 62.6682 138.991 62.6652 138.237C62.6652 134.234 62.6652 125.037 62.6652 120.816C62.6576 119.691 63.21 118.649 64.784 119.608Z" fill="white"/>
<path fill-rule="evenodd" clip-rule="evenodd" d="M90.0353 75.1743C93.887 77.3868 102.847 82.6122 106.925 84.9908C107.604 85.2605 108.176 85.7446 108.553 86.3691C108.93 86.9937 109.092 87.7243 109.014 88.4492C109.014 92.844 109.014 102.51 109.014 106.693C109.014 107.841 108.779 108.543 107.538 107.871C103.83 105.855 94.2048 100.456 90.1336 98.2582C89.5622 98.0688 89.07 97.6953 88.7345 97.1964C88.3989 96.6975 88.2389 96.1015 88.2797 95.502C88.2797 91.3867 88.2797 81.0114 88.2797 76.3976C88.2343 75.0761 88.7186 74.4041 90.0353 75.1743Z" fill="white"/>
<path fill-rule="evenodd" clip-rule="evenodd" d="M90.3629 105.43C94.4946 107.537 103.636 112.747 108.093 114.952C108.87 115.308 109.516 115.897 109.939 116.638C110.363 117.379 110.543 118.234 110.454 119.083V136.677C110.454 138.776 109.992 139.282 108.01 138.187C103.522 135.763 94.0936 130.636 90.1662 128.567C89.548 128.31 89.0375 127.848 88.7205 127.26C88.4035 126.671 88.2994 125.991 88.4257 125.335C88.4257 120.918 88.3122 111.26 88.4257 106.736C88.456 105.03 88.6073 104.532 90.3629 105.43Z" fill="white"/>
<path fill-rule="evenodd" clip-rule="evenodd" d="M91.6983 135.563C96.0426 138.146 105.21 144.157 109.461 146.815C110.116 147.189 110.644 147.764 110.975 148.463C111.306 149.161 111.424 149.949 111.312 150.72C111.312 155.76 111.219 166.81 111.219 171.686C111.219 173.06 110.876 173.859 108.861 172.664C104.252 169.924 94.1848 163.846 90.2835 161.464C89.6686 161.148 89.1754 160.622 88.8856 159.973C88.5959 159.324 88.5269 158.591 88.6901 157.895C88.6901 152.609 88.6901 141.685 88.6901 136.84C88.7259 134.741 90.1692 134.652 91.6983 135.563Z" fill="white"/>
<path fill-rule="evenodd" clip-rule="evenodd" d="M117.845 84.8801C122.303 82.3051 131.951 76.4227 136.695 73.4853C137.974 72.6925 139.435 72.4206 139.488 75.5695C139.571 80.659 139.874 90.181 140.04 95.4895C140.154 96.5078 139.943 97.5362 139.436 98.4273C138.929 99.3184 138.152 100.027 137.218 100.451C132.556 103.109 123.468 108.417 118.61 110.932C116.43 112.057 115.583 111.596 115.583 109.799V89.1163C115.437 88.2599 115.58 87.3795 115.99 86.613C116.399 85.8464 117.052 85.237 117.845 84.8801Z" fill="white"/>
<path fill-rule="evenodd" clip-rule="evenodd" d="M118.209 115.409C123.089 112.442 133.343 106.106 137.883 103.327C138.686 102.837 140.108 102.27 140.108 104.558V127.023C140.173 127.831 139.986 128.639 139.571 129.335C139.156 130.032 138.535 130.583 137.793 130.912C133.252 133.351 123.536 139.052 118.519 141.733C115.696 143.243 115.545 142.254 115.545 140.139C115.545 134.74 115.424 124.123 115.545 119.404C115.527 118.546 115.772 117.704 116.249 116.989C116.725 116.275 117.409 115.724 118.209 115.409Z" fill="white"/>
<path fill-rule="evenodd" clip-rule="evenodd" d="M118.383 146.12C122.991 142.956 132.677 137.262 137.369 134.393C139.178 133.29 140.116 133.283 140.116 135.412V157.802C140.208 158.597 140.044 159.401 139.648 160.097C139.252 160.793 138.645 161.346 137.914 161.675C133.593 164.054 124.126 169.491 118.996 172.322C116.726 173.553 115.575 174.195 115.575 171.469V150.469C115.515 149.54 115.755 148.616 116.261 147.833C116.766 147.05 117.51 146.449 118.383 146.12Z" fill="white"/>
<path fill-rule="evenodd" clip-rule="evenodd" d="M145.133 69.015C149.401 66.2966 158.307 60.9881 163.203 58.1187C165.678 56.6688 166.631 57.0766 166.631 59.0248C166.631 64.4163 167.07 75.7657 167.116 80.7193C167.14 81.5149 166.926 82.2997 166.5 82.9726C166.073 83.6455 165.455 84.1757 164.724 84.4949C160.282 87.3115 150.347 92.5822 145.489 95.3157C143.688 96.3276 142.636 95.9651 142.636 93.8055V73.0624C142.602 72.2165 142.821 71.3797 143.266 70.6588C143.711 69.9378 144.361 69.3656 145.133 69.015Z" fill="white"/>
<path fill-rule="evenodd" clip-rule="evenodd" d="M144.52 100.186C148.712 97.4903 159.155 91.2757 164.195 88.1042C166.132 86.8809 167.154 87.0168 167.154 88.9877V111.853C167.186 112.499 167.027 113.14 166.696 113.696C166.365 114.252 165.876 114.699 165.292 114.979L145.254 126.26C143.377 127.317 142.598 127.408 142.598 125.263V103.191C142.587 102.557 142.763 101.934 143.105 101.4C143.447 100.865 143.939 100.443 144.52 100.186Z" fill="white"/>
<path fill-rule="evenodd" clip-rule="evenodd" d="M144.558 130.934C149.015 128.08 160.305 121.261 165.035 118.362C166.548 117.425 167.191 117.992 167.191 119.298V142.828C167.218 143.458 167.047 144.081 166.701 144.609C166.354 145.138 165.851 145.544 165.262 145.772C160.721 148.37 149.265 154.947 144.588 157.409C143.339 158.066 142.628 157.756 142.628 155.899V134.038C142.603 133.388 142.773 132.745 143.117 132.191C143.461 131.638 143.963 131.201 144.558 130.934Z" fill="white"/>
<path fill-rule="evenodd" clip-rule="evenodd" d="M170.839 54.3959C175.099 51.6926 186.208 45.0098 190.9 42.2611C191.891 41.6797 193.056 41.506 193.056 43.1371C193.056 48.2266 193.616 61.0183 193.578 66.002C193.724 66.6537 193.616 67.3364 193.276 67.9114C192.936 68.4865 192.389 68.9107 191.747 69.098C187.245 71.6125 175.992 78.0008 171.232 80.6437C169.666 81.5121 169.083 81.3158 169.083 79.3072V57.288C169.016 56.6803 169.152 56.0676 169.469 55.5448C169.787 55.022 170.268 54.6181 170.839 54.3959Z" fill="white"/>
<path fill-rule="evenodd" clip-rule="evenodd" d="M171.437 84.8044C175.75 81.6631 185.905 75.8109 190.794 72.8131C192.436 71.8088 193.639 71.7786 193.624 74.0968C193.578 79.0504 193.556 89.0859 193.624 94.7266C193.853 95.746 193.757 96.8114 193.35 97.7739C192.943 98.7365 192.245 99.5481 191.354 100.095C187.116 102.482 178.02 107.571 172.874 110.501C170.559 111.822 169.144 112.827 169.091 108.915C169.023 103.939 169.091 95.2174 169.091 90.6414C168.898 89.547 169.016 88.4207 169.43 87.3894C169.845 86.3581 170.54 85.4628 171.437 84.8044Z" fill="white"/>
<path fill-rule="evenodd" clip-rule="evenodd" d="M171.603 115.16C174.569 113.242 186.45 106.371 191.58 103.222C191.752 103.107 191.948 103.032 192.153 103.003C192.357 102.973 192.566 102.99 192.763 103.051C192.961 103.113 193.142 103.218 193.293 103.358C193.445 103.499 193.563 103.672 193.639 103.864V126.487C193.724 127.268 193.607 128.057 193.3 128.78C192.993 129.503 192.505 130.136 191.883 130.617C187.426 133.132 176.892 138.969 172.208 141.567C171.948 141.791 171.632 141.943 171.294 142.005C170.955 142.067 170.606 142.039 170.282 141.922C169.959 141.805 169.672 141.604 169.452 141.34C169.232 141.076 169.086 140.758 169.03 140.419C169.03 135.095 169.03 122.168 169.03 119.578C168.98 118.671 169.197 117.77 169.654 116.985C170.112 116.2 170.789 115.566 171.603 115.16Z" fill="white"/>
</g>
</g>
<defs>
<filter id="filter0_d_157_27" x="-4.11624" y="-3.98173" width="207.944" height="192.485" filterUnits="userSpaceOnUse" color-interpolation-filters="sRGB">
<feFlood flood-opacity="0" result="BackgroundImageFix"/>
<feColorMatrix in="SourceAlpha" type="matrix" values="0 0 0 0 0 0 0 0 0 0 0 0 0 0 0 0 0 0 127 0" result="hardAlpha"/>
<feOffset dy="5.04082"/>
<feGaussianBlur stdDeviation="5.04082"/>
<feComposite in2="hardAlpha" operator="out"/>
<feColorMatrix type="matrix" values="0 0 0 0 0 0 0 0 0 0 0 0 0 0 0 0 0 0 0.1 0"/>
<feBlend mode="normal" in2="BackgroundImageFix" result="effect1_dropShadow_157_27"/>
<feBlend mode="normal" in="SourceGraphic" in2="effect1_dropShadow_157_27" result="shape"/>
</filter>
<clipPath id="clip0_157_27">
<rect width="198.759" height="184" fill="white"/>
</clipPath>
</defs>
</svg>
