<svg width="252" height="176" viewBox="0 0 252 176" fill="none" xmlns="http://www.w3.org/2000/svg">
<g clip-path="url(#clip0_171_40)">
<g clip-path="url(#clip1_171_40)">
<path d="M4 172H68" stroke="#004643" stroke-width="8" stroke-linecap="round" stroke-linejoin="round"/>
<path d="M116 12C116 9.87827 115.157 7.84344 113.657 6.34315C112.157 4.84286 110.122 4 108 4H28C25.8783 4 23.8434 4.84286 22.3431 6.34315C20.8429 7.84344 20 9.87827 20 12V164C20 166.122 20.8429 168.157 22.3431 169.657C23.8434 171.157 25.8783 172 28 172H216C218.122 172 220.157 171.157 221.657 169.657C223.157 168.157 224 166.122 224 164V28C224 25.8783 223.157 23.8434 221.657 22.3431C220.157 20.8429 218.122 20 216 20H124C121.878 20 119.843 19.1571 118.343 17.6569C116.843 16.1566 116 14.1217 116 12Z" stroke="#004643" stroke-width="8" stroke-linecap="round" stroke-linejoin="round"/>
<path d="M240 48H52C49.8783 48 47.8434 48.8429 46.3431 50.3431C44.8429 51.8434 44 53.8783 44 56L20 164C20 166.122 20.8429 168.157 22.3431 169.657C23.8434 171.157 25.8783 172 28 172H216C218.122 172 220.157 171.157 221.657 169.657C223.157 168.157 224 166.122 224 164L248 56C248 53.8783 247.157 51.8434 245.657 50.3431C244.157 48.8429 242.122 48 240 48Z" fill="white" stroke="#004643" stroke-width="8" stroke-linecap="round" stroke-linejoin="round"/>
<path d="M123.44 128C126.17 125.394 129.398 123.367 132.932 122.04C136.465 120.713 140.23 120.115 144 120.28C147.744 120.137 151.479 120.746 154.983 122.072C158.487 123.398 161.689 125.414 164.4 128" stroke="#004643" stroke-width="8" stroke-linecap="round" stroke-linejoin="round"/>
<path d="M176 100C180.418 100 184 96.4183 184 92C184 87.5817 180.418 84 176 84C171.582 84 168 87.5817 168 92C168 96.4183 171.582 100 176 100Z" fill="#004643"/>
<path d="M116 100C120.418 100 124 96.4183 124 92C124 87.5817 120.418 84 116 84C111.582 84 108 87.5817 108 92C108 96.4183 111.582 100 116 100Z" fill="#004643"/>
</g>
</g>
<defs>
<clipPath id="clip0_171_40">
<rect width="252" height="176" fill="white"/>
</clipPath>
<clipPath id="clip1_171_40">
<rect width="252" height="176" fill="white"/>
</clipPath>
</defs>
</svg>
