<?xml version="1.0" encoding="utf-8"?>
<!-- Generator: Adobe Illustrator 25.4.1, SVG Export Plug-In . SVG Version: 6.00 Build 0)  -->
<svg version="1.1" id="Layer_1" xmlns="http://www.w3.org/2000/svg" xmlns:xlink="http://www.w3.org/1999/xlink" x="0px" y="0px"
	 viewBox="0 0 115 132.1" style="enable-background:new 0 0 115 132.1;" xml:space="preserve">
<style type="text/css">
	.st0{fill:#014643;}
</style>
<g>
	<path class="st0" d="M89.1,106.9c0-0.9,0-1.8-0.1-2.8c-1.5-9.4-8.9-15.7-18.5-15.7c-1,0-2,0-3.2,0c0-1.5,0-2.9,0-4.2
		c0-0.4,0.3-0.8,0.5-1.1c3.1-2.9,4.8-6.5,5.4-10.6c0.4-2.5,0.9-4.9,1.8-7.2c0.7-1.9,1.1-3.9,1.3-6c0.4-3.2-0.4-6.1-2.7-8.6
		c-0.5-0.6-1-1.3-1.2-2c-1.9-5.7-6.3-9-12.3-8.9c-7.8,0.2-13.9,3.8-18.3,10.2c-3.8,5.6-3.8,11.5-0.5,17.4c0.5,0.9,0.8,1.9,0.9,2.9
		c0.5,4.6,1.9,8.9,5.3,12.3c0.2,0.3,0.5,0.6,0.5,0.9c0.1,1.5,0,3.1,0,4.8c-1.2,0-2.2,0-3.2,0c-10.5,0-18.5,8-18.6,18.5
		c0,6.6,0,13.3,0,19.9c0,1.8,0.4,2.2,2.2,2.2c19.4,0,38.9,0,58.3,0c1.9,0,2.2-0.3,2.2-2.2C89.1,120.2,89.1,113.6,89.1,106.9z
		 M43.6,64.7c-1.6-2.6-2-5.4-1.3-8.3c1.4-5.6,5.1-9.2,10.1-11.6c2.1-1,4.4-1.6,6.7-2c5.3-0.7,9.4,2.2,10.9,7.5
		c0.2,0.8,0.7,1.6,1.3,2.1c2.3,2.3,2.5,5.1,2.1,8c-0.1,0.4-0.2,0.8-0.3,1.5c-0.3-1.1-0.5-2-0.9-2.7c-0.8-1.5-1.6-3.1-2.6-4.5
		c-0.5-0.8-1.4-0.9-2.3-0.4c-4.3,2.7-8.9,2.8-13.6,1c-1.4-0.6-2.9-1-4.4-1.4c-2.2-0.7-4.6,0.9-4.6,3.5
		C44.9,59.8,44.2,62.3,43.6,64.7z M45.5,71.5c-0.3-1.8,0-3.4,0.5-5.1c0.8-2.7,1.3-5.6,1.8-8.4c0.3-1.5,0.3-1.6,1.8-1.2
		c2.1,0.7,4.2,1.5,6.3,2.1c4.3,1.1,8.4,0.5,12.3-1.7c1.4,1.9,1.9,4,2.2,6.2c0.8,5,0.6,9.9-2,14.5c-3.6,6.3-11.2,8.3-16.9,4.3
		C47.9,79.6,46.2,75.9,45.5,71.5z M64.5,88.8c0,0.3-0.2,0.7-0.4,0.9c-2.1,2-4.3,4.1-6.4,6c-2-1.9-4.1-3.9-6.2-6
		c-0.4-0.4-0.4-1.1-0.4-1.7c-0.1-0.8,0-1.6,0-2.6c4.5,2.2,8.9,2.3,13.4,0.2C64.5,86.7,64.6,87.7,64.5,88.8z M86.3,125.4
		c0,0.2,0,0.4-0.1,0.7h-9.1v-1.5c0-5.8,0-11.5,0-17.3c0-0.4,0.1-0.9-0.1-1.2c-0.3-0.5-0.8-1.1-1.3-1.1c-0.5,0-1,0.5-1.4,1
		c-0.2,0.3-0.1,0.8-0.1,1.2c0,5.8,0,11.6,0,17.4v1.4H41.4v-18.7c0-0.4,0.1-0.9-0.1-1.1c-0.4-0.5-0.9-1.2-1.4-1.2
		c-0.5,0-1,0.8-1.4,1.3c-0.2,0.3,0,0.7,0,1.1v18.6h-9c0-0.4-0.1-0.8-0.1-1.2c0-6,0-12,0-17.9c0-9,6.6-15.4,15.6-15.7
		c3-0.1,5.3,0.6,7.1,3c1.2,1.6,2.8,3,4.3,4.4c1.3,1.3,1.8,1.3,3.1,0c2.1-2.2,4.2-4.4,6.4-6.5c0.4-0.4,1.1-0.7,1.7-0.7
		c2.8,0,5.7-0.2,8.4,0.8c6,2.1,10.2,7.7,10.3,14C86.4,112.6,86.3,119,86.3,125.4z"/>
	<path class="st0" d="M23.6,39.8c-1.6-0.4-3.2-0.7-4.7-1.2c-0.6-0.2-1.2-0.6-1.5-1.1c-1-1.5-1.9-3-2.9-4.6c-0.9-1.3-2-1.3-2.8,0
		c-1,1.5-1.8,3.1-2.9,4.6c-0.3,0.5-1,0.9-1.5,1.1c-1.7,0.5-3.4,0.9-5.1,1.3c-1.7,0.4-2,1.4-0.9,2.7c1.1,1.4,2.4,2.7,3.5,4.1
		c0.3,0.4,0.6,1.1,0.5,1.7C5.2,50.2,5,52,4.9,53.8c-0.1,1.7,0.8,2.3,2.4,1.7c1.6-0.6,3.1-1.4,4.8-1.9c0.6-0.2,1.5-0.2,2.1,0
		c1.7,0.6,3.2,1.3,4.9,2c1.5,0.6,2.4-0.1,2.3-1.7c-0.1-1.8-0.3-3.6-0.3-5.4c0-0.6,0.2-1.3,0.6-1.8c1-1.3,2.1-2.5,3.1-3.7
		C26,41.3,25.7,40.4,23.6,39.8z M18.6,45.7c-0.4,0.6-0.7,1.3-0.7,2c0,1.4,0.2,2.8,0.3,4.4c-1.3-0.5-2.4-0.9-3.4-1.4
		c-1.2-0.6-2.3-0.6-3.6,0c-1,0.5-2.1,0.9-3.4,1.4C8,50.6,8,49.3,8.2,48c0.2-1.1-0.1-1.8-0.8-2.6c-0.9-1-1.7-2-2.7-3.1
		c1.5-0.4,2.8-0.8,4.1-1c1-0.2,1.6-0.7,2-1.5c0.7-1.2,1.4-2.3,2.2-3.6c0.8,1.4,1.5,2.6,2.4,3.7c0.4,0.5,1.1,1,1.7,1.3
		c1.3,0.5,2.7,0.7,4.3,1.1C20.4,43.4,19.4,44.5,18.6,45.7z"/>
	<path class="st0" d="M96.8,17.9c-1.7-0.4-3.4-0.8-5.1-1.3c-0.6-0.2-1.3-0.7-1.7-1.2c-1-1.5-1.9-3.1-2.9-4.6c-0.7-1.1-1.8-1.1-2.6,0
		c-0.2,0.3-0.4,0.6-0.5,0.9c-1,1.6-1.6,3.6-3,4.5c-1.4,1-3.5,1.1-5.4,1.5c-0.2,0.1-0.5,0.1-0.7,0.2c-1.6,0.4-1.9,1.4-0.9,2.7
		c1.1,1.4,2.4,2.7,3.5,4.1c0.4,0.5,0.6,1.2,0.6,1.8c0,1.8-0.3,3.5-0.4,5.4c-0.1,1.6,0.8,2.2,2.4,1.6c1.6-0.6,3.2-1.4,4.9-2
		c0.6-0.2,1.3-0.2,1.9,0c1.6,0.6,3.2,1.3,4.9,2c1.6,0.6,2.5,0,2.3-1.7c-0.1-1.8-0.3-3.7-0.4-5.5c0-0.5,0.2-1.1,0.5-1.4
		c1.1-1.4,2.4-2.8,3.5-4.2C98.6,19.3,98.3,18.3,96.8,17.9z M91.6,23.3c-0.8,0.8-1.1,1.7-0.9,2.8c0.2,1.2,0.2,2.5,0.3,3.9
		c-1.5-0.6-2.7-1.2-4-1.6c-0.7-0.2-1.6-0.2-2.4,0c-1.3,0.4-2.5,1-4,1.6c0.1-1.5,0.1-2.9,0.3-4.2c0.1-1-0.1-1.8-0.8-2.5
		c-0.9-1-1.7-2-2.7-3.2c1.6-0.4,2.9-0.6,4.2-1.1c0.7-0.3,1.4-0.8,1.9-1.4c0.8-1.1,1.5-2.3,2.3-3.6c0.8,1.3,1.5,2.5,2.3,3.6
		c0.5,0.6,1.2,1.1,1.9,1.4c1.3,0.5,2.7,0.7,4.2,1.1C93.3,21.3,92.5,22.3,91.6,23.3z"/>
	<path class="st0" d="M113.3,39.9c-1.7-0.4-3.3-0.8-5-1.2c-0.6-0.2-1.2-0.6-1.5-1.1c-1-1.5-1.9-3-2.9-4.6c-0.9-1.3-2-1.3-2.8,0
		c-1,1.5-1.8,3.1-2.9,4.6c-0.3,0.5-1,0.9-1.5,1.1c-1.7,0.5-3.4,0.8-5.1,1.3c-1.7,0.4-2,1.4-0.9,2.7c1.1,1.4,2.4,2.7,3.5,4.1
		c0.3,0.4,0.6,1.1,0.5,1.7c-0.1,1.8-0.3,3.6-0.4,5.4c-0.1,1.7,0.8,2.3,2.4,1.7c1.6-0.6,3.1-1.2,4.6-1.9c0.8-0.4,1.5-0.4,2.4,0
		c1.5,0.7,3.1,1.3,4.6,1.9c1.6,0.7,2.5,0,2.4-1.8c-0.1-1.7-0.3-3.4-0.3-5.1c0-0.7,0.3-1.4,0.7-2c1-1.3,2.1-2.5,3.1-3.7
		C115.5,41.3,115.2,40.4,113.3,39.9z M108.3,45.4c-0.7,0.8-1,1.6-0.8,2.6c0.2,1.3,0.2,2.6,0.3,4.1c-1.2-0.5-2.3-0.8-3.3-1.4
		c-1.3-0.7-2.5-0.6-3.8,0c-1,0.5-2.1,0.9-3.3,1.3c0.1-1.5,0.3-2.9,0.3-4.3c0-0.8-0.3-1.6-0.7-2.3c-0.8-1.1-1.7-2.1-2.8-3.3
		c1.5-0.4,2.9-0.6,4.2-1.1c0.7-0.3,1.4-0.8,1.9-1.4c0.8-1.1,1.5-2.3,2.3-3.6c0.8,1.3,1.5,2.6,2.3,3.7c0.4,0.6,1.1,1.1,1.8,1.3
		c1.3,0.5,2.7,0.7,4.2,1.1C110,43.4,109.2,44.5,108.3,45.4z"/>
	<path class="st0" d="M40.5,17.8c-1.7-0.4-3.3-0.8-5-1.2c-0.5-0.1-1-0.5-1.3-1c-1-1.5-1.9-3.1-2.9-4.7c-0.9-1.3-2-1.3-2.8,0
		c-1,1.5-1.8,3.1-2.8,4.6c-0.3,0.5-0.9,0.9-1.4,1c-1.7,0.5-3.5,0.9-5.2,1.3c-1.7,0.4-2,1.4-0.9,2.7c1.1,1.4,2.4,2.7,3.5,4.1
		c0.3,0.4,0.6,1.1,0.5,1.7c-0.1,1.7-0.3,3.4-0.4,5.1c-0.1,2,0.7,2.6,2.6,1.8c1.5-0.6,3.1-1.3,4.6-1.9c0.6-0.2,1.3-0.2,1.9,0
		c1.6,0.5,3.1,1.3,4.6,1.9c1.9,0.8,2.7,0.2,2.6-1.8c-0.1-1.7-0.3-3.3-0.3-5c0-0.7,0.3-1.4,0.7-2c0.9-1.3,2-2.4,3.1-3.6
		C42.8,19.2,42.5,18.3,40.5,17.8z M35.5,23.4c-0.7,0.7-0.9,1.4-0.8,2.4c0.1,1.3,0.2,2.6,0.3,4.2c-1.4-0.6-2.7-1.2-4-1.6
		c-0.8-0.2-1.7-0.2-2.5,0c-1.3,0.4-2.5,1-3.9,1.6c0.1-1.6,0.1-2.9,0.3-4.2c0.1-1-0.1-1.8-0.8-2.5c-0.9-1-1.7-2-2.7-3.2
		c1.6-0.4,3-0.7,4.4-1.1c0.6-0.2,1.2-0.7,1.6-1.2c0.9-1.2,1.6-2.4,2.4-3.8c0.8,1.4,1.5,2.7,2.4,3.8c0.4,0.5,1,1,1.6,1.2
		c1.4,0.5,2.8,0.7,4.4,1.1C37.3,21.4,36.4,22.4,35.5,23.4z"/>
	<path class="st0" d="M68.7,11.3c-1.7-0.4-3.4-0.8-5.1-1.3C63,9.9,62.4,9.4,62,8.9c-1-1.4-1.8-3-2.8-4.5c-0.9-1.3-2-1.4-2.8,0
		c-1,1.6-1.9,3.1-2.9,4.7c-0.3,0.4-0.8,0.8-1.3,1c-1.7,0.5-3.5,0.9-5.2,1.3c-1.6,0.4-2,1.5-0.9,2.7c1.1,1.3,2.2,2.6,3.3,3.9
		c0.6,0.6,0.8,1.3,0.7,2.1c-0.2,1.4-0.2,2.8-0.3,4.2c0,0,0,0,0,0c0,0.2,0,0.4,0,0.6c-0.1,2,0.7,2.6,2.6,1.8c1.5-0.6,3-1.3,4.5-1.8
		c0.6-0.2,1.5-0.2,2.1,0c1.5,0.5,2.9,1.2,4.4,1.8c2.1,0.9,2.9,0.3,2.7-2c-0.1-1.5-0.2-3-0.4-4.5c-0.1-1,0.1-1.7,0.8-2.4
		c1.1-1.2,2.2-2.5,3.3-3.8C70.7,12.8,70.4,11.8,68.7,11.3z M63.5,16.8c-0.7,0.7-1,1.5-0.8,2.5c0.2,1.3,0.2,2.7,0.3,4.2
		c-1.3-0.5-2.6-1-3.7-1.5c-1-0.5-1.9-0.5-2.9,0c-1.1,0.6-2.4,1-3.8,1.6c0.1-1.5,0.2-2.8,0.3-4.1c0.1-1.1-0.1-1.9-0.9-2.7
		c-0.9-0.9-1.7-1.9-2.6-3.1c1.6-0.4,3-0.7,4.3-1.1c0.6-0.2,1.3-0.7,1.7-1.3c0.8-1.1,1.5-2.4,2.3-3.7c0.8,1.3,1.5,2.6,2.3,3.7
		c0.4,0.6,1.1,1.1,1.8,1.3c1.3,0.5,2.7,0.7,4.3,1.1C65.2,14.8,64.4,15.9,63.5,16.8z"/>
</g>
</svg>
