<?xml version="1.0" encoding="utf-8"?>
<!-- Generator: Adobe Illustrator 25.4.1, SVG Export Plug-In . SVG Version: 6.00 Build 0)  -->
<svg version="1.1" id="Layer_1" xmlns="http://www.w3.org/2000/svg" xmlns:xlink="http://www.w3.org/1999/xlink" x="0px" y="0px"
	 viewBox="0 0 514.41 609.85" style="enable-background:new 0 0 514.41 609.85;" xml:space="preserve">
<style type="text/css">
	.st0{fill:#004643;}
</style>
<g>
	<path class="st0" d="M409.66,0c11.62,3.82,20.36,10.58,23.07,23.17c0.66,3.06,0.73,6.29,0.74,9.45
		c0.07,15.84,0.03,31.68,0.03,48.28c2.59,0,4.7,0,6.81,0c14.89,0,29.78-0.12,44.66,0.04c16.41,0.17,28.85,12.56,29.4,29
		c0.05,1.59,0.02,3.18,0.02,4.76c0,114.53,0.01,229.07-0.02,343.6c-0.01,22.83-8.49,42-25.17,57.64
		c-24.62,23.07-49.24,46.15-73.68,69.41c-17.22,16.39-37.49,24.53-61.28,24.5c-80-0.1-159.99-0.04-239.99-0.04
		c-21.84,0-33.34-11.54-33.35-33.45c-0.01-15.48,0-30.95,0-47.45c-2.3,0-4.38,0-6.45,0c-14.69,0-29.38,0.07-44.07-0.02
		C12.6,528.77,0.04,516.3,0.03,498.44c-0.05-156.02-0.05-312.04,0-468.06C0.05,14.26,9.28,4.99,23.76,0C152.39,0,281.02,0,409.66,0z
		 M367.43,587.08c0-2.73,0-5.06,0-7.39c0-22.42-0.15-44.85,0.05-67.27c0.22-25.33,17.12-42.02,42.38-42.09
		c23.61-0.07,47.23-0.01,70.84-0.01c11.48,0,11.51,0,11.51-11.47c0.01-114.7,0.02-229.4,0.01-344.1c0-10.23-1.8-12-12.2-12
		c-121.65-0.01-243.29-0.01-364.94,0c-10.31,0-12.2,1.87-12.2,12.1c-0.01,153.6-0.01,307.19,0,460.79
		c0,10.52,1.56,12.07,12.07,12.08c80.37,0.01,160.74,0.01,241.11-0.02C359.59,587.67,363.12,587.31,367.43,587.08z M411.54,80.9
		c0-15.95,0.01-31.01,0-46.06c-0.01-11.36-1.36-12.73-12.62-12.73c-121.26,0-242.52,0-363.78,0c-11.92,0-12.96,1.03-12.96,12.88
		c0,153.02,0,306.03,0,459.05c0,1.79,0,3.57,0.06,5.36c0.15,4.5,2.7,7.38,6.96,7.44c17.01,0.24,34.03,0.1,51.7,0.1
		c0-3.01,0-5.53,0-8.05c0-128.21,0-256.41,0-384.62c0-21.96,11.4-33.36,33.34-33.37c96.45,0,192.91,0,289.36,0
		C405.96,80.9,408.32,80.9,411.54,80.9z M481.89,492.5c-3.38-0.17-4.7-0.29-6.01-0.29c-22.03-0.01-44.06-0.06-66.09,0.01
		c-12.82,0.04-20.32,7.58-20.35,20.38c-0.05,19.85-0.01,39.69-0.01,59.54c0,1.68,0,3.36,0,5.04c0.53,0.29,1.07,0.58,1.6,0.87
		C420.89,549.93,450.75,521.81,481.89,492.5z"/>
	<path class="st0" d="M297.77,183.57c34.11,0,68.22-0.02,102.33,0.04c2.73,0.01,5.62,0.19,8.16,1.08c4.59,1.61,6.88,5.41,6.8,10.16
		c-0.08,4.73-2.45,8.42-7.1,9.97c-2.2,0.74-4.66,0.97-7,0.97c-68.82,0.05-137.63,0.04-206.45,0.02c-1.78,0-3.59-0.02-5.32-0.37
		c-5.47-1.13-9.24-5.73-9.15-10.92c0.09-5.22,3.96-9.72,9.47-10.67c2.13-0.37,4.35-0.27,6.52-0.27
		C229.95,183.56,263.86,183.57,297.77,183.57z"/>
	<path class="st0" d="M297.45,352.59c-34.9,0-69.8,0.03-104.7-0.02c-9.27-0.01-15.24-7.04-11.72-14.43
		c1.46-3.06,5.35-5.24,8.56-7.07c1.67-0.95,4.27-0.34,6.45-0.34c67.62-0.01,135.24-0.01,202.86-0.01c11.12,0,16.37,3.6,16.23,11.09
		c-0.14,7.35-5.22,10.79-15.95,10.79C365.27,352.59,331.36,352.59,297.45,352.59z"/>
	<path class="st0" d="M297.79,257.22c34.9,0,69.8-0.02,104.7,0.02c8.28,0.01,13.56,5.21,12.47,12.27c-0.81,5.25-3.85,8.61-9.27,9.36
		c-1.95,0.27-3.96,0.22-5.94,0.22c-68.02,0.01-136.03,0.01-204.05,0.01c-10.47,0-15.79-3.8-15.65-11.13
		c0.14-7.14,5.31-10.75,15.41-10.75C229.57,257.22,263.68,257.22,297.79,257.22z"/>
	<path class="st0" d="M249.88,403.98c18.24,0,36.48-0.03,54.72,0.04c2.55,0.01,5.21,0.14,7.61,0.89c4.64,1.44,7.09,4.92,7.24,9.79
		c0.16,5.12-2.18,8.88-7.03,10.53c-2.37,0.81-5.05,0.97-7.59,0.97c-36.68,0.06-73.36,0.04-110.03,0.04c-0.4,0-0.79,0-1.19,0
		c-8.24-0.14-13.47-4.39-13.56-11.02c-0.09-6.63,5.17-11.16,13.33-11.22c13.08-0.09,26.17-0.03,39.26-0.03
		C238.38,403.98,244.13,403.98,249.88,403.98z"/>
</g>
</svg>
