<?xml version="1.0" encoding="utf-8"?>
<!-- Generator: Adobe Illustrator 25.4.1, SVG Export Plug-In . SVG Version: 6.00 Build 0)  -->
<svg version="1.1" id="Layer_1" xmlns="http://www.w3.org/2000/svg" xmlns:xlink="http://www.w3.org/1999/xlink" x="0px" y="0px"
	 viewBox="0 0 150 150" style="enable-background:new 0 0 150 150;" xml:space="preserve">
<style type="text/css">
	.st0{fill:#014643;}
</style>
<g>
	<path class="st0" d="M99,57.4c-3.2-3.1-7.9-3-11.6,0.5c-3.7,3.5-7.1,7.1-10.7,10.7c-6.7,6.7-6.7,6.7-13.8,0.2
		c-0.8-0.7-1.6-1.5-2.5-2c-5.5-2.9-11.9,1.1-11.8,7.3c0.1,4.9,16,20.8,20.9,21c2.5,0,4.5-0.8,6.3-2.6C83.5,84.6,91.3,76.9,99,69
		C102.4,65.4,102.2,60.5,99,57.4z M94.7,67.2c-7,7.1-13.9,14.1-20.9,21.2c-2.6,2.7-5,3.2-7.8,0.3c-3.6-3.7-7.4-7.4-11.1-11.1
		c-1.9-1.8-3-4-1-6.1c2-2.2,4.2-1.2,6.1,0.6c0.3,0.3,0.5,0.5,0.8,0.8c9.2,8.6,9.2,8.6,18-0.3c3.8-3.8,7.6-7.7,11.4-11.5
		c1.4-1.4,3-1.9,4.9-1c1.3,0.6,1.7,1.7,1.8,3.1C97,64.9,95.8,66.1,94.7,67.2z M99,57.4c-3.2-3.1-7.9-3-11.6,0.5
		c-3.7,3.5-7.1,7.1-10.7,10.7c-6.7,6.7-6.7,6.7-13.8,0.2c-0.8-0.7-1.6-1.5-2.5-2c-5.5-2.9-11.9,1.1-11.8,7.3
		c0.1,4.9,16,20.8,20.9,21c2.5,0,4.5-0.8,6.3-2.6C83.5,84.6,91.3,76.9,99,69C102.4,65.4,102.2,60.5,99,57.4z M94.7,67.2
		c-7,7.1-13.9,14.1-20.9,21.2c-2.6,2.7-5,3.2-7.8,0.3c-3.6-3.7-7.4-7.4-11.1-11.1c-1.9-1.8-3-4-1-6.1c2-2.2,4.2-1.2,6.1,0.6
		c0.3,0.3,0.5,0.5,0.8,0.8c9.2,8.6,9.2,8.6,18-0.3c3.8-3.8,7.6-7.7,11.4-11.5c1.4-1.4,3-1.9,4.9-1c1.3,0.6,1.7,1.7,1.8,3.1
		C97,64.9,95.8,66.1,94.7,67.2z M99,57.4c-3.2-3.1-7.9-3-11.6,0.5c-3.7,3.5-7.1,7.1-10.7,10.7c-6.7,6.7-6.7,6.7-13.8,0.2
		c-0.8-0.7-1.6-1.5-2.5-2c-5.5-2.9-11.9,1.1-11.8,7.3c0.1,4.9,16,20.8,20.9,21c2.5,0,4.5-0.8,6.3-2.6C83.5,84.6,91.3,76.9,99,69
		C102.4,65.4,102.2,60.5,99,57.4z M94.7,67.2c-7,7.1-13.9,14.1-20.9,21.2c-2.6,2.7-5,3.2-7.8,0.3c-3.6-3.7-7.4-7.4-11.1-11.1
		c-1.9-1.8-3-4-1-6.1c2-2.2,4.2-1.2,6.1,0.6c0.3,0.3,0.5,0.5,0.8,0.8c9.2,8.6,9.2,8.6,18-0.3c3.8-3.8,7.6-7.7,11.4-11.5
		c1.4-1.4,3-1.9,4.9-1c1.3,0.6,1.7,1.7,1.8,3.1C97,64.9,95.8,66.1,94.7,67.2z M99,57.4c-3.2-3.1-7.9-3-11.6,0.5
		c-3.7,3.5-7.1,7.1-10.7,10.7c-6.7,6.7-6.7,6.7-13.8,0.2c-0.8-0.7-1.6-1.5-2.5-2c-5.5-2.9-11.9,1.1-11.8,7.3
		c0.1,4.9,16,20.8,20.9,21c2.5,0,4.5-0.8,6.3-2.6C83.5,84.6,91.3,76.9,99,69C102.4,65.4,102.2,60.5,99,57.4z M94.7,67.2
		c-7,7.1-13.9,14.1-20.9,21.2c-2.6,2.7-5,3.2-7.8,0.3c-3.6-3.7-7.4-7.4-11.1-11.1c-1.9-1.8-3-4-1-6.1c2-2.2,4.2-1.2,6.1,0.6
		c0.3,0.3,0.5,0.5,0.8,0.8c9.2,8.6,9.2,8.6,18-0.3c3.8-3.8,7.6-7.7,11.4-11.5c1.4-1.4,3-1.9,4.9-1c1.3,0.6,1.7,1.7,1.8,3.1
		C97,64.9,95.8,66.1,94.7,67.2z M99,57.4c-3.2-3.1-7.9-3-11.6,0.5c-3.7,3.5-7.1,7.1-10.7,10.7c-6.7,6.7-6.7,6.7-13.8,0.2
		c-0.8-0.7-1.6-1.5-2.5-2c-5.5-2.9-11.9,1.1-11.8,7.3c0.1,4.9,16,20.8,20.9,21c2.5,0,4.5-0.8,6.3-2.6C83.5,84.6,91.3,76.9,99,69
		C102.4,65.4,102.2,60.5,99,57.4z M94.7,67.2c-7,7.1-13.9,14.1-20.9,21.2c-2.6,2.7-5,3.2-7.8,0.3c-3.6-3.7-7.4-7.4-11.1-11.1
		c-1.9-1.8-3-4-1-6.1c2-2.2,4.2-1.2,6.1,0.6c0.3,0.3,0.5,0.5,0.8,0.8c9.2,8.6,9.2,8.6,18-0.3c3.8-3.8,7.6-7.7,11.4-11.5
		c1.4-1.4,3-1.9,4.9-1c1.3,0.6,1.7,1.7,1.8,3.1C97,64.9,95.8,66.1,94.7,67.2z M99,57.4c-3.2-3.1-7.9-3-11.6,0.5
		c-3.7,3.5-7.1,7.1-10.7,10.7c-6.7,6.7-6.7,6.7-13.8,0.2c-0.8-0.7-1.6-1.5-2.5-2c-5.5-2.9-11.9,1.1-11.8,7.3
		c0.1,4.9,16,20.8,20.9,21c2.5,0,4.5-0.8,6.3-2.6C83.5,84.6,91.3,76.9,99,69C102.4,65.4,102.2,60.5,99,57.4z M94.7,67.2
		c-7,7.1-13.9,14.1-20.9,21.2c-2.6,2.7-5,3.2-7.8,0.3c-3.6-3.7-7.4-7.4-11.1-11.1c-1.9-1.8-3-4-1-6.1c2-2.2,4.2-1.2,6.1,0.6
		c0.3,0.3,0.5,0.5,0.8,0.8c9.2,8.6,9.2,8.6,18-0.3c3.8-3.8,7.6-7.7,11.4-11.5c1.4-1.4,3-1.9,4.9-1c1.3,0.6,1.7,1.7,1.8,3.1
		C97,64.9,95.8,66.1,94.7,67.2z M75.1,30.9c-24.3-0.1-44.4,20-44.4,44.3c0,24.3,20.1,44.3,44.4,44.3c24.3-0.1,44.3-20.3,44.1-44.5
		C119.2,50.8,99.2,30.9,75.1,30.9z M74.8,115.1C53,115,35,96.8,35.1,74.9c0.1-21.9,18.3-39.8,40.1-39.7
		c21.9,0.1,39.9,18.3,39.8,40.1C114.9,97.1,96.7,115.2,74.8,115.1z M87.4,57.9c-3.7,3.5-7.1,7.1-10.7,10.7
		c-6.7,6.7-6.7,6.7-13.8,0.2c-0.8-0.7-1.6-1.5-2.5-2c-5.5-2.9-11.9,1.1-11.8,7.3c0.1,4.9,16,20.8,20.9,21c2.5,0,4.5-0.8,6.3-2.6
		C83.5,84.6,91.3,76.9,99,69c3.4-3.6,3.3-8.5,0.1-11.6C95.8,54.3,91.1,54.4,87.4,57.9z M94.7,67.2c-7,7.1-13.9,14.1-20.9,21.2
		c-2.6,2.7-5,3.2-7.8,0.3c-3.6-3.7-7.4-7.4-11.1-11.1c-1.9-1.8-3-4-1-6.1c2-2.2,4.2-1.2,6.1,0.6c0.3,0.3,0.5,0.5,0.8,0.8
		c9.2,8.6,9.2,8.6,18-0.3c3.8-3.8,7.6-7.7,11.4-11.5c1.4-1.4,3-1.9,4.9-1c1.3,0.6,1.7,1.7,1.8,3.1C97,64.9,95.8,66.1,94.7,67.2z
		 M99,57.4c-3.2-3.1-7.9-3-11.6,0.5c-3.7,3.5-7.1,7.1-10.7,10.7c-6.7,6.7-6.7,6.7-13.8,0.2c-0.8-0.7-1.6-1.5-2.5-2
		c-5.5-2.9-11.9,1.1-11.8,7.3c0.1,4.9,16,20.8,20.9,21c2.5,0,4.5-0.8,6.3-2.6C83.5,84.6,91.3,76.9,99,69
		C102.4,65.4,102.2,60.5,99,57.4z M94.7,67.2c-7,7.1-13.9,14.1-20.9,21.2c-2.6,2.7-5,3.2-7.8,0.3c-3.6-3.7-7.4-7.4-11.1-11.1
		c-1.9-1.8-3-4-1-6.1c2-2.2,4.2-1.2,6.1,0.6c0.3,0.3,0.5,0.5,0.8,0.8c9.2,8.6,9.2,8.6,18-0.3c3.8-3.8,7.6-7.7,11.4-11.5
		c1.4-1.4,3-1.9,4.9-1c1.3,0.6,1.7,1.7,1.8,3.1C97,64.9,95.8,66.1,94.7,67.2z M99,57.4c-3.2-3.1-7.9-3-11.6,0.5
		c-3.7,3.5-7.1,7.1-10.7,10.7c-6.7,6.7-6.7,6.7-13.8,0.2c-0.8-0.7-1.6-1.5-2.5-2c-5.5-2.9-11.9,1.1-11.8,7.3
		c0.1,4.9,16,20.8,20.9,21c2.5,0,4.5-0.8,6.3-2.6C83.5,84.6,91.3,76.9,99,69C102.4,65.4,102.2,60.5,99,57.4z M94.7,67.2
		c-7,7.1-13.9,14.1-20.9,21.2c-2.6,2.7-5,3.2-7.8,0.3c-3.6-3.7-7.4-7.4-11.1-11.1c-1.9-1.8-3-4-1-6.1c2-2.2,4.2-1.2,6.1,0.6
		c0.3,0.3,0.5,0.5,0.8,0.8c9.2,8.6,9.2,8.6,18-0.3c3.8-3.8,7.6-7.7,11.4-11.5c1.4-1.4,3-1.9,4.9-1c1.3,0.6,1.7,1.7,1.8,3.1
		C97,64.9,95.8,66.1,94.7,67.2z M99,57.4c-3.2-3.1-7.9-3-11.6,0.5c-3.7,3.5-7.1,7.1-10.7,10.7c-6.7,6.7-6.7,6.7-13.8,0.2
		c-0.8-0.7-1.6-1.5-2.5-2c-5.5-2.9-11.9,1.1-11.8,7.3c0.1,4.9,16,20.8,20.9,21c2.5,0,4.5-0.8,6.3-2.6C83.5,84.6,91.3,76.9,99,69
		C102.4,65.4,102.2,60.5,99,57.4z M94.7,67.2c-7,7.1-13.9,14.1-20.9,21.2c-2.6,2.7-5,3.2-7.8,0.3c-3.6-3.7-7.4-7.4-11.1-11.1
		c-1.9-1.8-3-4-1-6.1c2-2.2,4.2-1.2,6.1,0.6c0.3,0.3,0.5,0.5,0.8,0.8c9.2,8.6,9.2,8.6,18-0.3c3.8-3.8,7.6-7.7,11.4-11.5
		c1.4-1.4,3-1.9,4.9-1c1.3,0.6,1.7,1.7,1.8,3.1C97,64.9,95.8,66.1,94.7,67.2z M99,57.4c-3.2-3.1-7.9-3-11.6,0.5
		c-3.7,3.5-7.1,7.1-10.7,10.7c-6.7,6.7-6.7,6.7-13.8,0.2c-0.8-0.7-1.6-1.5-2.5-2c-5.5-2.9-11.9,1.1-11.8,7.3
		c0.1,4.9,16,20.8,20.9,21c2.5,0,4.5-0.8,6.3-2.6C83.5,84.6,91.3,76.9,99,69C102.4,65.4,102.2,60.5,99,57.4z M94.7,67.2
		c-7,7.1-13.9,14.1-20.9,21.2c-2.6,2.7-5,3.2-7.8,0.3c-3.6-3.7-7.4-7.4-11.1-11.1c-1.9-1.8-3-4-1-6.1c2-2.2,4.2-1.2,6.1,0.6
		c0.3,0.3,0.5,0.5,0.8,0.8c9.2,8.6,9.2,8.6,18-0.3c3.8-3.8,7.6-7.7,11.4-11.5c1.4-1.4,3-1.9,4.9-1c1.3,0.6,1.7,1.7,1.8,3.1
		C97,64.9,95.8,66.1,94.7,67.2z M75.1,30.9c-24.3-0.1-44.4,20-44.4,44.3c0,24.3,20.1,44.3,44.4,44.3c24.3-0.1,44.3-20.3,44.1-44.5
		C119.2,50.8,99.2,30.9,75.1,30.9z M74.8,115.1C53,115,35,96.8,35.1,74.9c0.1-21.9,18.3-39.8,40.1-39.7
		c21.9,0.1,39.9,18.3,39.8,40.1C114.9,97.1,96.7,115.2,74.8,115.1z M87.4,57.9c-3.7,3.5-7.1,7.1-10.7,10.7
		c-6.7,6.7-6.7,6.7-13.8,0.2c-0.8-0.7-1.6-1.5-2.5-2c-5.5-2.9-11.9,1.1-11.8,7.3c0.1,4.9,16,20.8,20.9,21c2.5,0,4.5-0.8,6.3-2.6
		C83.5,84.6,91.3,76.9,99,69c3.4-3.6,3.3-8.5,0.1-11.6C95.8,54.3,91.1,54.4,87.4,57.9z M94.7,67.2c-7,7.1-13.9,14.1-20.9,21.2
		c-2.6,2.7-5,3.2-7.8,0.3c-3.6-3.7-7.4-7.4-11.1-11.1c-1.9-1.8-3-4-1-6.1c2-2.2,4.2-1.2,6.1,0.6c0.3,0.3,0.5,0.5,0.8,0.8
		c9.2,8.6,9.2,8.6,18-0.3c3.8-3.8,7.6-7.7,11.4-11.5c1.4-1.4,3-1.9,4.9-1c1.3,0.6,1.7,1.7,1.8,3.1C97,64.9,95.8,66.1,94.7,67.2z
		 M99,57.4c-3.2-3.1-7.9-3-11.6,0.5c-3.7,3.5-7.1,7.1-10.7,10.7c-6.7,6.7-6.7,6.7-13.8,0.2c-0.8-0.7-1.6-1.5-2.5-2
		c-5.5-2.9-11.9,1.1-11.8,7.3c0.1,4.9,16,20.8,20.9,21c2.5,0,4.5-0.8,6.3-2.6C83.5,84.6,91.3,76.9,99,69
		C102.4,65.4,102.2,60.5,99,57.4z M94.7,67.2c-7,7.1-13.9,14.1-20.9,21.2c-2.6,2.7-5,3.2-7.8,0.3c-3.6-3.7-7.4-7.4-11.1-11.1
		c-1.9-1.8-3-4-1-6.1c2-2.2,4.2-1.2,6.1,0.6c0.3,0.3,0.5,0.5,0.8,0.8c9.2,8.6,9.2,8.6,18-0.3c3.8-3.8,7.6-7.7,11.4-11.5
		c1.4-1.4,3-1.9,4.9-1c1.3,0.6,1.7,1.7,1.8,3.1C97,64.9,95.8,66.1,94.7,67.2z M99,57.4c-3.2-3.1-7.9-3-11.6,0.5
		c-3.7,3.5-7.1,7.1-10.7,10.7c-6.7,6.7-6.7,6.7-13.8,0.2c-0.8-0.7-1.6-1.5-2.5-2c-5.5-2.9-11.9,1.1-11.8,7.3
		c0.1,4.9,16,20.8,20.9,21c2.5,0,4.5-0.8,6.3-2.6C83.5,84.6,91.3,76.9,99,69C102.4,65.4,102.2,60.5,99,57.4z M94.7,67.2
		c-7,7.1-13.9,14.1-20.9,21.2c-2.6,2.7-5,3.2-7.8,0.3c-3.6-3.7-7.4-7.4-11.1-11.1c-1.9-1.8-3-4-1-6.1c2-2.2,4.2-1.2,6.1,0.6
		c0.3,0.3,0.5,0.5,0.8,0.8c9.2,8.6,9.2,8.6,18-0.3c3.8-3.8,7.6-7.7,11.4-11.5c1.4-1.4,3-1.9,4.9-1c1.3,0.6,1.7,1.7,1.8,3.1
		C97,64.9,95.8,66.1,94.7,67.2z M99,57.4c-3.2-3.1-7.9-3-11.6,0.5c-3.7,3.5-7.1,7.1-10.7,10.7c-6.7,6.7-6.7,6.7-13.8,0.2
		c-0.8-0.7-1.6-1.5-2.5-2c-5.5-2.9-11.9,1.1-11.8,7.3c0.1,4.9,16,20.8,20.9,21c2.5,0,4.5-0.8,6.3-2.6C83.5,84.6,91.3,76.9,99,69
		C102.4,65.4,102.2,60.5,99,57.4z M94.7,67.2c-7,7.1-13.9,14.1-20.9,21.2c-2.6,2.7-5,3.2-7.8,0.3c-3.6-3.7-7.4-7.4-11.1-11.1
		c-1.9-1.8-3-4-1-6.1c2-2.2,4.2-1.2,6.1,0.6c0.3,0.3,0.5,0.5,0.8,0.8c9.2,8.6,9.2,8.6,18-0.3c3.8-3.8,7.6-7.7,11.4-11.5
		c1.4-1.4,3-1.9,4.9-1c1.3,0.6,1.7,1.7,1.8,3.1C97,64.9,95.8,66.1,94.7,67.2z M99,57.4c-3.2-3.1-7.9-3-11.6,0.5
		c-3.7,3.5-7.1,7.1-10.7,10.7c-6.7,6.7-6.7,6.7-13.8,0.2c-0.8-0.7-1.6-1.5-2.5-2c-5.5-2.9-11.9,1.1-11.8,7.3
		c0.1,4.9,16,20.8,20.9,21c2.5,0,4.5-0.8,6.3-2.6C83.5,84.6,91.3,76.9,99,69C102.4,65.4,102.2,60.5,99,57.4z M94.7,67.2
		c-7,7.1-13.9,14.1-20.9,21.2c-2.6,2.7-5,3.2-7.8,0.3c-3.6-3.7-7.4-7.4-11.1-11.1c-1.9-1.8-3-4-1-6.1c2-2.2,4.2-1.2,6.1,0.6
		c0.3,0.3,0.5,0.5,0.8,0.8c9.2,8.6,9.2,8.6,18-0.3c3.8-3.8,7.6-7.7,11.4-11.5c1.4-1.4,3-1.9,4.9-1c1.3,0.6,1.7,1.7,1.8,3.1
		C97,64.9,95.8,66.1,94.7,67.2z M75.1,30.9c-24.3-0.1-44.4,20-44.4,44.3c0,24.3,20.1,44.3,44.4,44.3c24.3-0.1,44.3-20.3,44.1-44.5
		C119.2,50.8,99.2,30.9,75.1,30.9z M74.8,115.1C53,115,35,96.8,35.1,74.9c0.1-21.9,18.3-39.8,40.1-39.7
		c21.9,0.1,39.9,18.3,39.8,40.1C114.9,97.1,96.7,115.2,74.8,115.1z M87.4,57.9c-3.7,3.5-7.1,7.1-10.7,10.7
		c-6.7,6.7-6.7,6.7-13.8,0.2c-0.8-0.7-1.6-1.5-2.5-2c-5.5-2.9-11.9,1.1-11.8,7.3c0.1,4.9,16,20.8,20.9,21c2.5,0,4.5-0.8,6.3-2.6
		C83.5,84.6,91.3,76.9,99,69c3.4-3.6,3.3-8.5,0.1-11.6C95.8,54.3,91.1,54.4,87.4,57.9z M94.7,67.2c-7,7.1-13.9,14.1-20.9,21.2
		c-2.6,2.7-5,3.2-7.8,0.3c-3.6-3.7-7.4-7.4-11.1-11.1c-1.9-1.8-3-4-1-6.1c2-2.2,4.2-1.2,6.1,0.6c0.3,0.3,0.5,0.5,0.8,0.8
		c9.2,8.6,9.2,8.6,18-0.3c3.8-3.8,7.6-7.7,11.4-11.5c1.4-1.4,3-1.9,4.9-1c1.3,0.6,1.7,1.7,1.8,3.1C97,64.9,95.8,66.1,94.7,67.2z
		 M75.1,30.9c-24.3-0.1-44.4,20-44.4,44.3c0,24.3,20.1,44.3,44.4,44.3c24.3-0.1,44.3-20.3,44.1-44.5C119.2,50.8,99.2,30.9,75.1,30.9
		z M74.8,115.1C53,115,35,96.8,35.1,74.9c0.1-21.9,18.3-39.8,40.1-39.7c21.9,0.1,39.9,18.3,39.8,40.1
		C114.9,97.1,96.7,115.2,74.8,115.1z M87.4,57.9c-3.7,3.5-7.1,7.1-10.7,10.7c-6.7,6.7-6.7,6.7-13.8,0.2c-0.8-0.7-1.6-1.5-2.5-2
		c-5.5-2.9-11.9,1.1-11.8,7.3c0.1,4.9,16,20.8,20.9,21c2.5,0,4.5-0.8,6.3-2.6C83.5,84.6,91.3,76.9,99,69c3.4-3.6,3.3-8.5,0.1-11.6
		C95.8,54.3,91.1,54.4,87.4,57.9z M94.7,67.2c-7,7.1-13.9,14.1-20.9,21.2c-2.6,2.7-5,3.2-7.8,0.3c-3.6-3.7-7.4-7.4-11.1-11.1
		c-1.9-1.8-3-4-1-6.1c2-2.2,4.2-1.2,6.1,0.6c0.3,0.3,0.5,0.5,0.8,0.8c9.2,8.6,9.2,8.6,18-0.3c3.8-3.8,7.6-7.7,11.4-11.5
		c1.4-1.4,3-1.9,4.9-1c1.3,0.6,1.7,1.7,1.8,3.1C97,64.9,95.8,66.1,94.7,67.2z M136.7,56c-7.1-6-11.2-13-12.9-22.2
		c-1.6-8.4-7.3-12.8-15.7-12.7c-8.6,0.1-15.6-2.4-22.2-7.9C78.5,7.1,71.6,7,64.3,13.1c-6.7,5.7-14,8.1-22.7,8
		c-7.9-0.1-13.8,4.4-15.2,12c-1.7,9.5-5.9,16.9-13.3,23.1c-5.8,4.8-7,11.6-3.4,18.1c4.7,8.5,7.7,17,4.7,25
		c-0.3,9.9,2.7,15.3,10.9,18.3c7.8,2.9,13.5,7.4,17.7,14.7c4.9,8.5,11.3,10.8,20.7,7.5c7.7-2.7,14.8-2.8,22.5,0
		c9.7,3.4,15.8,1.1,21-7.8c4.1-6.8,9.3-11.4,16.9-14.1c9.2-3.4,12.9-8.9,11.3-18.3c-1.5-9.1,0.2-16.8,4.6-24.7
		C144,68,142.9,61.2,136.7,56z M136.4,73c-5.4,8.7-7,17.7-5.2,27.8c1.2,6.8-1.3,10.7-7.9,13c-9,3.1-15.5,8.5-20.1,16.8
		c-3.6,6.5-8.2,8.1-15.1,5.5c-8.9-3.3-17.3-3.3-26.2,0c-6.7,2.5-11.4,1-14.8-5.2c-4.8-8.7-11.6-14.3-21-17.4
		c-5.6-1.8-8.1-6.3-7.3-14.4c2.9-8.2,0-17.3-5.3-26.2c-2.9-4.9-1.9-10.2,2.5-13.7c8.4-6.4,12.7-14.7,14.4-24.9c1-6,5-9,11.2-8.8
		c9.7,0.3,17.8-2.7,25.2-8.9c5.6-4.8,10.3-4.8,16,0c7.4,6.3,15.6,9.2,25.2,8.9c6.1-0.2,10.1,2.9,11.2,8.9
		c1.8,10.2,6.2,18.4,14.5,24.9C138.4,62.7,139.3,68.2,136.4,73z M75.1,30.9c-24.3-0.1-44.4,20-44.4,44.3c0,24.3,20.1,44.3,44.4,44.3
		c24.3-0.1,44.3-20.3,44.1-44.5C119.2,50.8,99.2,30.9,75.1,30.9z M74.8,115.1C53,115,35,96.8,35.1,74.9
		c0.1-21.9,18.3-39.8,40.1-39.7c21.9,0.1,39.9,18.3,39.8,40.1C114.9,97.1,96.7,115.2,74.8,115.1z M87.4,57.9
		c-3.7,3.5-7.1,7.1-10.7,10.7c-6.7,6.7-6.7,6.7-13.8,0.2c-0.8-0.7-1.6-1.5-2.5-2c-5.5-2.9-11.9,1.1-11.8,7.3
		c0.1,4.9,16,20.8,20.9,21c2.5,0,4.5-0.8,6.3-2.6C83.5,84.6,91.3,76.9,99,69c3.4-3.6,3.3-8.5,0.1-11.6
		C95.8,54.3,91.1,54.4,87.4,57.9z M94.7,67.2c-7,7.1-13.9,14.1-20.9,21.2c-2.6,2.7-5,3.2-7.8,0.3c-3.6-3.7-7.4-7.4-11.1-11.1
		c-1.9-1.8-3-4-1-6.1c2-2.2,4.2-1.2,6.1,0.6c0.3,0.3,0.5,0.5,0.8,0.8c9.2,8.6,9.2,8.6,18-0.3c3.8-3.8,7.6-7.7,11.4-11.5
		c1.4-1.4,3-1.9,4.9-1c1.3,0.6,1.7,1.7,1.8,3.1C97,64.9,95.8,66.1,94.7,67.2z M99,57.4c-3.2-3.1-7.9-3-11.6,0.5
		c-3.7,3.5-7.1,7.1-10.7,10.7c-6.7,6.7-6.7,6.7-13.8,0.2c-0.8-0.7-1.6-1.5-2.5-2c-5.5-2.9-11.9,1.1-11.8,7.3
		c0.1,4.9,16,20.8,20.9,21c2.5,0,4.5-0.8,6.3-2.6C83.5,84.6,91.3,76.9,99,69C102.4,65.4,102.2,60.5,99,57.4z M94.7,67.2
		c-7,7.1-13.9,14.1-20.9,21.2c-2.6,2.7-5,3.2-7.8,0.3c-3.6-3.7-7.4-7.4-11.1-11.1c-1.9-1.8-3-4-1-6.1c2-2.2,4.2-1.2,6.1,0.6
		c0.3,0.3,0.5,0.5,0.8,0.8c9.2,8.6,9.2,8.6,18-0.3c3.8-3.8,7.6-7.7,11.4-11.5c1.4-1.4,3-1.9,4.9-1c1.3,0.6,1.7,1.7,1.8,3.1
		C97,64.9,95.8,66.1,94.7,67.2z M99,57.4c-3.2-3.1-7.9-3-11.6,0.5c-3.7,3.5-7.1,7.1-10.7,10.7c-6.7,6.7-6.7,6.7-13.8,0.2
		c-0.8-0.7-1.6-1.5-2.5-2c-5.5-2.9-11.9,1.1-11.8,7.3c0.1,4.9,16,20.8,20.9,21c2.5,0,4.5-0.8,6.3-2.6C83.5,84.6,91.3,76.9,99,69
		C102.4,65.4,102.2,60.5,99,57.4z M94.7,67.2c-7,7.1-13.9,14.1-20.9,21.2c-2.6,2.7-5,3.2-7.8,0.3c-3.6-3.7-7.4-7.4-11.1-11.1
		c-1.9-1.8-3-4-1-6.1c2-2.2,4.2-1.2,6.1,0.6c0.3,0.3,0.5,0.5,0.8,0.8c9.2,8.6,9.2,8.6,18-0.3c3.8-3.8,7.6-7.7,11.4-11.5
		c1.4-1.4,3-1.9,4.9-1c1.3,0.6,1.7,1.7,1.8,3.1C97,64.9,95.8,66.1,94.7,67.2z M75.1,30.9c-24.3-0.1-44.4,20-44.4,44.3
		c0,24.3,20.1,44.3,44.4,44.3c24.3-0.1,44.3-20.3,44.1-44.5C119.2,50.8,99.2,30.9,75.1,30.9z M74.8,115.1C53,115,35,96.8,35.1,74.9
		c0.1-21.9,18.3-39.8,40.1-39.7c21.9,0.1,39.9,18.3,39.8,40.1C114.9,97.1,96.7,115.2,74.8,115.1z M87.4,57.9
		c-3.7,3.5-7.1,7.1-10.7,10.7c-6.7,6.7-6.7,6.7-13.8,0.2c-0.8-0.7-1.6-1.5-2.5-2c-5.5-2.9-11.9,1.1-11.8,7.3
		c0.1,4.9,16,20.8,20.9,21c2.5,0,4.5-0.8,6.3-2.6C83.5,84.6,91.3,76.9,99,69c3.4-3.6,3.3-8.5,0.1-11.6
		C95.8,54.3,91.1,54.4,87.4,57.9z M94.7,67.2c-7,7.1-13.9,14.1-20.9,21.2c-2.6,2.7-5,3.2-7.8,0.3c-3.6-3.7-7.4-7.4-11.1-11.1
		c-1.9-1.8-3-4-1-6.1c2-2.2,4.2-1.2,6.1,0.6c0.3,0.3,0.5,0.5,0.8,0.8c9.2,8.6,9.2,8.6,18-0.3c3.8-3.8,7.6-7.7,11.4-11.5
		c1.4-1.4,3-1.9,4.9-1c1.3,0.6,1.7,1.7,1.8,3.1C97,64.9,95.8,66.1,94.7,67.2z M99,57.4c-3.2-3.1-7.9-3-11.6,0.5
		c-3.7,3.5-7.1,7.1-10.7,10.7c-6.7,6.7-6.7,6.7-13.8,0.2c-0.8-0.7-1.6-1.5-2.5-2c-5.5-2.9-11.9,1.1-11.8,7.3
		c0.1,4.9,16,20.8,20.9,21c2.5,0,4.5-0.8,6.3-2.6C83.5,84.6,91.3,76.9,99,69C102.4,65.4,102.2,60.5,99,57.4z M94.7,67.2
		c-7,7.1-13.9,14.1-20.9,21.2c-2.6,2.7-5,3.2-7.8,0.3c-3.6-3.7-7.4-7.4-11.1-11.1c-1.9-1.8-3-4-1-6.1c2-2.2,4.2-1.2,6.1,0.6
		c0.3,0.3,0.5,0.5,0.8,0.8c9.2,8.6,9.2,8.6,18-0.3c3.8-3.8,7.6-7.7,11.4-11.5c1.4-1.4,3-1.9,4.9-1c1.3,0.6,1.7,1.7,1.8,3.1
		C97,64.9,95.8,66.1,94.7,67.2z M99,57.4c-3.2-3.1-7.9-3-11.6,0.5c-3.7,3.5-7.1,7.1-10.7,10.7c-6.7,6.7-6.7,6.7-13.8,0.2
		c-0.8-0.7-1.6-1.5-2.5-2c-5.5-2.9-11.9,1.1-11.8,7.3c0.1,4.9,16,20.8,20.9,21c2.5,0,4.5-0.8,6.3-2.6C83.5,84.6,91.3,76.9,99,69
		C102.4,65.4,102.2,60.5,99,57.4z M94.7,67.2c-7,7.1-13.9,14.1-20.9,21.2c-2.6,2.7-5,3.2-7.8,0.3c-3.6-3.7-7.4-7.4-11.1-11.1
		c-1.9-1.8-3-4-1-6.1c2-2.2,4.2-1.2,6.1,0.6c0.3,0.3,0.5,0.5,0.8,0.8c9.2,8.6,9.2,8.6,18-0.3c3.8-3.8,7.6-7.7,11.4-11.5
		c1.4-1.4,3-1.9,4.9-1c1.3,0.6,1.7,1.7,1.8,3.1C97,64.9,95.8,66.1,94.7,67.2z M75.1,30.9c-24.3-0.1-44.4,20-44.4,44.3
		c0,24.3,20.1,44.3,44.4,44.3c24.3-0.1,44.3-20.3,44.1-44.5C119.2,50.8,99.2,30.9,75.1,30.9z M74.8,115.1C53,115,35,96.8,35.1,74.9
		c0.1-21.9,18.3-39.8,40.1-39.7c21.9,0.1,39.9,18.3,39.8,40.1C114.9,97.1,96.7,115.2,74.8,115.1z M87.4,57.9
		c-3.7,3.5-7.1,7.1-10.7,10.7c-6.7,6.7-6.7,6.7-13.8,0.2c-0.8-0.7-1.6-1.5-2.5-2c-5.5-2.9-11.9,1.1-11.8,7.3
		c0.1,4.9,16,20.8,20.9,21c2.5,0,4.5-0.8,6.3-2.6C83.5,84.6,91.3,76.9,99,69c3.4-3.6,3.3-8.5,0.1-11.6
		C95.8,54.3,91.1,54.4,87.4,57.9z M94.7,67.2c-7,7.1-13.9,14.1-20.9,21.2c-2.6,2.7-5,3.2-7.8,0.3c-3.6-3.7-7.4-7.4-11.1-11.1
		c-1.9-1.8-3-4-1-6.1c2-2.2,4.2-1.2,6.1,0.6c0.3,0.3,0.5,0.5,0.8,0.8c9.2,8.6,9.2,8.6,18-0.3c3.8-3.8,7.6-7.7,11.4-11.5
		c1.4-1.4,3-1.9,4.9-1c1.3,0.6,1.7,1.7,1.8,3.1C97,64.9,95.8,66.1,94.7,67.2z M99,57.4c-3.2-3.1-7.9-3-11.6,0.5
		c-3.7,3.5-7.1,7.1-10.7,10.7c-6.7,6.7-6.7,6.7-13.8,0.2c-0.8-0.7-1.6-1.5-2.5-2c-5.5-2.9-11.9,1.1-11.8,7.3
		c0.1,4.9,16,20.8,20.9,21c2.5,0,4.5-0.8,6.3-2.6C83.5,84.6,91.3,76.9,99,69C102.4,65.4,102.2,60.5,99,57.4z M94.7,67.2
		c-7,7.1-13.9,14.1-20.9,21.2c-2.6,2.7-5,3.2-7.8,0.3c-3.6-3.7-7.4-7.4-11.1-11.1c-1.9-1.8-3-4-1-6.1c2-2.2,4.2-1.2,6.1,0.6
		c0.3,0.3,0.5,0.5,0.8,0.8c9.2,8.6,9.2,8.6,18-0.3c3.8-3.8,7.6-7.7,11.4-11.5c1.4-1.4,3-1.9,4.9-1c1.3,0.6,1.7,1.7,1.8,3.1
		C97,64.9,95.8,66.1,94.7,67.2z M99,57.4c-3.2-3.1-7.9-3-11.6,0.5c-3.7,3.5-7.1,7.1-10.7,10.7c-6.7,6.7-6.7,6.7-13.8,0.2
		c-0.8-0.7-1.6-1.5-2.5-2c-5.5-2.9-11.9,1.1-11.8,7.3c0.1,4.9,16,20.8,20.9,21c2.5,0,4.5-0.8,6.3-2.6C83.5,84.6,91.3,76.9,99,69
		C102.4,65.4,102.2,60.5,99,57.4z M94.7,67.2c-7,7.1-13.9,14.1-20.9,21.2c-2.6,2.7-5,3.2-7.8,0.3c-3.6-3.7-7.4-7.4-11.1-11.1
		c-1.9-1.8-3-4-1-6.1c2-2.2,4.2-1.2,6.1,0.6c0.3,0.3,0.5,0.5,0.8,0.8c9.2,8.6,9.2,8.6,18-0.3c3.8-3.8,7.6-7.7,11.4-11.5
		c1.4-1.4,3-1.9,4.9-1c1.3,0.6,1.7,1.7,1.8,3.1C97,64.9,95.8,66.1,94.7,67.2z M99,57.4c-3.2-3.1-7.9-3-11.6,0.5
		c-3.7,3.5-7.1,7.1-10.7,10.7c-6.7,6.7-6.7,6.7-13.8,0.2c-0.8-0.7-1.6-1.5-2.5-2c-5.5-2.9-11.9,1.1-11.8,7.3
		c0.1,4.9,16,20.8,20.9,21c2.5,0,4.5-0.8,6.3-2.6C83.5,84.6,91.3,76.9,99,69C102.4,65.4,102.2,60.5,99,57.4z M94.7,67.2
		c-7,7.1-13.9,14.1-20.9,21.2c-2.6,2.7-5,3.2-7.8,0.3c-3.6-3.7-7.4-7.4-11.1-11.1c-1.9-1.8-3-4-1-6.1c2-2.2,4.2-1.2,6.1,0.6
		c0.3,0.3,0.5,0.5,0.8,0.8c9.2,8.6,9.2,8.6,18-0.3c3.8-3.8,7.6-7.7,11.4-11.5c1.4-1.4,3-1.9,4.9-1c1.3,0.6,1.7,1.7,1.8,3.1
		C97,64.9,95.8,66.1,94.7,67.2z M99,57.4c-3.2-3.1-7.9-3-11.6,0.5c-3.7,3.5-7.1,7.1-10.7,10.7c-6.7,6.7-6.7,6.7-13.8,0.2
		c-0.8-0.7-1.6-1.5-2.5-2c-5.5-2.9-11.9,1.1-11.8,7.3c0.1,4.9,16,20.8,20.9,21c2.5,0,4.5-0.8,6.3-2.6C83.5,84.6,91.3,76.9,99,69
		C102.4,65.4,102.2,60.5,99,57.4z M94.7,67.2c-7,7.1-13.9,14.1-20.9,21.2c-2.6,2.7-5,3.2-7.8,0.3c-3.6-3.7-7.4-7.4-11.1-11.1
		c-1.9-1.8-3-4-1-6.1c2-2.2,4.2-1.2,6.1,0.6c0.3,0.3,0.5,0.5,0.8,0.8c9.2,8.6,9.2,8.6,18-0.3c3.8-3.8,7.6-7.7,11.4-11.5
		c1.4-1.4,3-1.9,4.9-1c1.3,0.6,1.7,1.7,1.8,3.1C97,64.9,95.8,66.1,94.7,67.2z M99,57.4c-3.2-3.1-7.9-3-11.6,0.5
		c-3.7,3.5-7.1,7.1-10.7,10.7c-6.7,6.7-6.7,6.7-13.8,0.2c-0.8-0.7-1.6-1.5-2.5-2c-5.5-2.9-11.9,1.1-11.8,7.3
		c0.1,4.9,16,20.8,20.9,21c2.5,0,4.5-0.8,6.3-2.6C83.5,84.6,91.3,76.9,99,69C102.4,65.4,102.2,60.5,99,57.4z M94.7,67.2
		c-7,7.1-13.9,14.1-20.9,21.2c-2.6,2.7-5,3.2-7.8,0.3c-3.6-3.7-7.4-7.4-11.1-11.1c-1.9-1.8-3-4-1-6.1c2-2.2,4.2-1.2,6.1,0.6
		c0.3,0.3,0.5,0.5,0.8,0.8c9.2,8.6,9.2,8.6,18-0.3c3.8-3.8,7.6-7.7,11.4-11.5c1.4-1.4,3-1.9,4.9-1c1.3,0.6,1.7,1.7,1.8,3.1
		C97,64.9,95.8,66.1,94.7,67.2z M99,57.4c-3.2-3.1-7.9-3-11.6,0.5c-3.7,3.5-7.1,7.1-10.7,10.7c-6.7,6.7-6.7,6.7-13.8,0.2
		c-0.8-0.7-1.6-1.5-2.5-2c-5.5-2.9-11.9,1.1-11.8,7.3c0.1,4.9,16,20.8,20.9,21c2.5,0,4.5-0.8,6.3-2.6C83.5,84.6,91.3,76.9,99,69
		C102.4,65.4,102.2,60.5,99,57.4z M94.7,67.2c-7,7.1-13.9,14.1-20.9,21.2c-2.6,2.7-5,3.2-7.8,0.3c-3.6-3.7-7.4-7.4-11.1-11.1
		c-1.9-1.8-3-4-1-6.1c2-2.2,4.2-1.2,6.1,0.6c0.3,0.3,0.5,0.5,0.8,0.8c9.2,8.6,9.2,8.6,18-0.3c3.8-3.8,7.6-7.7,11.4-11.5
		c1.4-1.4,3-1.9,4.9-1c1.3,0.6,1.7,1.7,1.8,3.1C97,64.9,95.8,66.1,94.7,67.2z M75.1,30.9c-24.3-0.1-44.4,20-44.4,44.3
		c0,24.3,20.1,44.3,44.4,44.3c24.3-0.1,44.3-20.3,44.1-44.5C119.2,50.8,99.2,30.9,75.1,30.9z M74.8,115.1C53,115,35,96.8,35.1,74.9
		c0.1-21.9,18.3-39.8,40.1-39.7c21.9,0.1,39.9,18.3,39.8,40.1C114.9,97.1,96.7,115.2,74.8,115.1z M87.4,57.9
		c-3.7,3.5-7.1,7.1-10.7,10.7c-6.7,6.7-6.7,6.7-13.8,0.2c-0.8-0.7-1.6-1.5-2.5-2c-5.5-2.9-11.9,1.1-11.8,7.3
		c0.1,4.9,16,20.8,20.9,21c2.5,0,4.5-0.8,6.3-2.6C83.5,84.6,91.3,76.9,99,69c3.4-3.6,3.3-8.5,0.1-11.6
		C95.8,54.3,91.1,54.4,87.4,57.9z M94.7,67.2c-7,7.1-13.9,14.1-20.9,21.2c-2.6,2.7-5,3.2-7.8,0.3c-3.6-3.7-7.4-7.4-11.1-11.1
		c-1.9-1.8-3-4-1-6.1c2-2.2,4.2-1.2,6.1,0.6c0.3,0.3,0.5,0.5,0.8,0.8c9.2,8.6,9.2,8.6,18-0.3c3.8-3.8,7.6-7.7,11.4-11.5
		c1.4-1.4,3-1.9,4.9-1c1.3,0.6,1.7,1.7,1.8,3.1C97,64.9,95.8,66.1,94.7,67.2z M99,57.4c-3.2-3.1-7.9-3-11.6,0.5
		c-3.7,3.5-7.1,7.1-10.7,10.7c-6.7,6.7-6.7,6.7-13.8,0.2c-0.8-0.7-1.6-1.5-2.5-2c-5.5-2.9-11.9,1.1-11.8,7.3
		c0.1,4.9,16,20.8,20.9,21c2.5,0,4.5-0.8,6.3-2.6C83.5,84.6,91.3,76.9,99,69C102.4,65.4,102.2,60.5,99,57.4z M94.7,67.2
		c-7,7.1-13.9,14.1-20.9,21.2c-2.6,2.7-5,3.2-7.8,0.3c-3.6-3.7-7.4-7.4-11.1-11.1c-1.9-1.8-3-4-1-6.1c2-2.2,4.2-1.2,6.1,0.6
		c0.3,0.3,0.5,0.5,0.8,0.8c9.2,8.6,9.2,8.6,18-0.3c3.8-3.8,7.6-7.7,11.4-11.5c1.4-1.4,3-1.9,4.9-1c1.3,0.6,1.7,1.7,1.8,3.1
		C97,64.9,95.8,66.1,94.7,67.2z M99,57.4c-3.2-3.1-7.9-3-11.6,0.5c-3.7,3.5-7.1,7.1-10.7,10.7c-6.7,6.7-6.7,6.7-13.8,0.2
		c-0.8-0.7-1.6-1.5-2.5-2c-5.5-2.9-11.9,1.1-11.8,7.3c0.1,4.9,16,20.8,20.9,21c2.5,0,4.5-0.8,6.3-2.6C83.5,84.6,91.3,76.9,99,69
		C102.4,65.4,102.2,60.5,99,57.4z M94.7,67.2c-7,7.1-13.9,14.1-20.9,21.2c-2.6,2.7-5,3.2-7.8,0.3c-3.6-3.7-7.4-7.4-11.1-11.1
		c-1.9-1.8-3-4-1-6.1c2-2.2,4.2-1.2,6.1,0.6c0.3,0.3,0.5,0.5,0.8,0.8c9.2,8.6,9.2,8.6,18-0.3c3.8-3.8,7.6-7.7,11.4-11.5
		c1.4-1.4,3-1.9,4.9-1c1.3,0.6,1.7,1.7,1.8,3.1C97,64.9,95.8,66.1,94.7,67.2z M99,57.4c-3.2-3.1-7.9-3-11.6,0.5
		c-3.7,3.5-7.1,7.1-10.7,10.7c-6.7,6.7-6.7,6.7-13.8,0.2c-0.8-0.7-1.6-1.5-2.5-2c-5.5-2.9-11.9,1.1-11.8,7.3
		c0.1,4.9,16,20.8,20.9,21c2.5,0,4.5-0.8,6.3-2.6C83.5,84.6,91.3,76.9,99,69C102.4,65.4,102.2,60.5,99,57.4z M94.7,67.2
		c-7,7.1-13.9,14.1-20.9,21.2c-2.6,2.7-5,3.2-7.8,0.3c-3.6-3.7-7.4-7.4-11.1-11.1c-1.9-1.8-3-4-1-6.1c2-2.2,4.2-1.2,6.1,0.6
		c0.3,0.3,0.5,0.5,0.8,0.8c9.2,8.6,9.2,8.6,18-0.3c3.8-3.8,7.6-7.7,11.4-11.5c1.4-1.4,3-1.9,4.9-1c1.3,0.6,1.7,1.7,1.8,3.1
		C97,64.9,95.8,66.1,94.7,67.2z M99,57.4c-3.2-3.1-7.9-3-11.6,0.5c-3.7,3.5-7.1,7.1-10.7,10.7c-6.7,6.7-6.7,6.7-13.8,0.2
		c-0.8-0.7-1.6-1.5-2.5-2c-5.5-2.9-11.9,1.1-11.8,7.3c0.1,4.9,16,20.8,20.9,21c2.5,0,4.5-0.8,6.3-2.6C83.5,84.6,91.3,76.9,99,69
		C102.4,65.4,102.2,60.5,99,57.4z M94.7,67.2c-7,7.1-13.9,14.1-20.9,21.2c-2.6,2.7-5,3.2-7.8,0.3c-3.6-3.7-7.4-7.4-11.1-11.1
		c-1.9-1.8-3-4-1-6.1c2-2.2,4.2-1.2,6.1,0.6c0.3,0.3,0.5,0.5,0.8,0.8c9.2,8.6,9.2,8.6,18-0.3c3.8-3.8,7.6-7.7,11.4-11.5
		c1.4-1.4,3-1.9,4.9-1c1.3,0.6,1.7,1.7,1.8,3.1C97,64.9,95.8,66.1,94.7,67.2z M99,57.4c-3.2-3.1-7.9-3-11.6,0.5
		c-3.7,3.5-7.1,7.1-10.7,10.7c-6.7,6.7-6.7,6.7-13.8,0.2c-0.8-0.7-1.6-1.5-2.5-2c-5.5-2.9-11.9,1.1-11.8,7.3
		c0.1,4.9,16,20.8,20.9,21c2.5,0,4.5-0.8,6.3-2.6C83.5,84.6,91.3,76.9,99,69C102.4,65.4,102.2,60.5,99,57.4z M94.7,67.2
		c-7,7.1-13.9,14.1-20.9,21.2c-2.6,2.7-5,3.2-7.8,0.3c-3.6-3.7-7.4-7.4-11.1-11.1c-1.9-1.8-3-4-1-6.1c2-2.2,4.2-1.2,6.1,0.6
		c0.3,0.3,0.5,0.5,0.8,0.8c9.2,8.6,9.2,8.6,18-0.3c3.8-3.8,7.6-7.7,11.4-11.5c1.4-1.4,3-1.9,4.9-1c1.3,0.6,1.7,1.7,1.8,3.1
		C97,64.9,95.8,66.1,94.7,67.2z M99,57.4c-3.2-3.1-7.9-3-11.6,0.5c-3.7,3.5-7.1,7.1-10.7,10.7c-6.7,6.7-6.7,6.7-13.8,0.2
		c-0.8-0.7-1.6-1.5-2.5-2c-5.5-2.9-11.9,1.1-11.8,7.3c0.1,4.9,16,20.8,20.9,21c2.5,0,4.5-0.8,6.3-2.6C83.5,84.6,91.3,76.9,99,69
		C102.4,65.4,102.2,60.5,99,57.4z M94.7,67.2c-7,7.1-13.9,14.1-20.9,21.2c-2.6,2.7-5,3.2-7.8,0.3c-3.6-3.7-7.4-7.4-11.1-11.1
		c-1.9-1.8-3-4-1-6.1c2-2.2,4.2-1.2,6.1,0.6c0.3,0.3,0.5,0.5,0.8,0.8c9.2,8.6,9.2,8.6,18-0.3c3.8-3.8,7.6-7.7,11.4-11.5
		c1.4-1.4,3-1.9,4.9-1c1.3,0.6,1.7,1.7,1.8,3.1C97,64.9,95.8,66.1,94.7,67.2z M75.1,30.9c-24.3-0.1-44.4,20-44.4,44.3
		c0,24.3,20.1,44.3,44.4,44.3c24.3-0.1,44.3-20.3,44.1-44.5C119.2,50.8,99.2,30.9,75.1,30.9z M74.8,115.1C53,115,35,96.8,35.1,74.9
		c0.1-21.9,18.3-39.8,40.1-39.7c21.9,0.1,39.9,18.3,39.8,40.1C114.9,97.1,96.7,115.2,74.8,115.1z M87.4,57.9
		c-3.7,3.5-7.1,7.1-10.7,10.7c-6.7,6.7-6.7,6.7-13.8,0.2c-0.8-0.7-1.6-1.5-2.5-2c-5.5-2.9-11.9,1.1-11.8,7.3
		c0.1,4.9,16,20.8,20.9,21c2.5,0,4.5-0.8,6.3-2.6C83.5,84.6,91.3,76.9,99,69c3.4-3.6,3.3-8.5,0.1-11.6
		C95.8,54.3,91.1,54.4,87.4,57.9z M94.7,67.2c-7,7.1-13.9,14.1-20.9,21.2c-2.6,2.7-5,3.2-7.8,0.3c-3.6-3.7-7.4-7.4-11.1-11.1
		c-1.9-1.8-3-4-1-6.1c2-2.2,4.2-1.2,6.1,0.6c0.3,0.3,0.5,0.5,0.8,0.8c9.2,8.6,9.2,8.6,18-0.3c3.8-3.8,7.6-7.7,11.4-11.5
		c1.4-1.4,3-1.9,4.9-1c1.3,0.6,1.7,1.7,1.8,3.1C97,64.9,95.8,66.1,94.7,67.2z M99,57.4c-3.2-3.1-7.9-3-11.6,0.5
		c-3.7,3.5-7.1,7.1-10.7,10.7c-6.7,6.7-6.7,6.7-13.8,0.2c-0.8-0.7-1.6-1.5-2.5-2c-5.5-2.9-11.9,1.1-11.8,7.3
		c0.1,4.9,16,20.8,20.9,21c2.5,0,4.5-0.8,6.3-2.6C83.5,84.6,91.3,76.9,99,69C102.4,65.4,102.2,60.5,99,57.4z M94.7,67.2
		c-7,7.1-13.9,14.1-20.9,21.2c-2.6,2.7-5,3.2-7.8,0.3c-3.6-3.7-7.4-7.4-11.1-11.1c-1.9-1.8-3-4-1-6.1c2-2.2,4.2-1.2,6.1,0.6
		c0.3,0.3,0.5,0.5,0.8,0.8c9.2,8.6,9.2,8.6,18-0.3c3.8-3.8,7.6-7.7,11.4-11.5c1.4-1.4,3-1.9,4.9-1c1.3,0.6,1.7,1.7,1.8,3.1
		C97,64.9,95.8,66.1,94.7,67.2z M99,57.4c-3.2-3.1-7.9-3-11.6,0.5c-3.7,3.5-7.1,7.1-10.7,10.7c-6.7,6.7-6.7,6.7-13.8,0.2
		c-0.8-0.7-1.6-1.5-2.5-2c-5.5-2.9-11.9,1.1-11.8,7.3c0.1,4.9,16,20.8,20.9,21c2.5,0,4.5-0.8,6.3-2.6C83.5,84.6,91.3,76.9,99,69
		C102.4,65.4,102.2,60.5,99,57.4z M94.7,67.2c-7,7.1-13.9,14.1-20.9,21.2c-2.6,2.7-5,3.2-7.8,0.3c-3.6-3.7-7.4-7.4-11.1-11.1
		c-1.9-1.8-3-4-1-6.1c2-2.2,4.2-1.2,6.1,0.6c0.3,0.3,0.5,0.5,0.8,0.8c9.2,8.6,9.2,8.6,18-0.3c3.8-3.8,7.6-7.7,11.4-11.5
		c1.4-1.4,3-1.9,4.9-1c1.3,0.6,1.7,1.7,1.8,3.1C97,64.9,95.8,66.1,94.7,67.2z M99,57.4c-3.2-3.1-7.9-3-11.6,0.5
		c-3.7,3.5-7.1,7.1-10.7,10.7c-6.7,6.7-6.7,6.7-13.8,0.2c-0.8-0.7-1.6-1.5-2.5-2c-5.5-2.9-11.9,1.1-11.8,7.3
		c0.1,4.9,16,20.8,20.9,21c2.5,0,4.5-0.8,6.3-2.6C83.5,84.6,91.3,76.9,99,69C102.4,65.4,102.2,60.5,99,57.4z M94.7,67.2
		c-7,7.1-13.9,14.1-20.9,21.2c-2.6,2.7-5,3.2-7.8,0.3c-3.6-3.7-7.4-7.4-11.1-11.1c-1.9-1.8-3-4-1-6.1c2-2.2,4.2-1.2,6.1,0.6
		c0.3,0.3,0.5,0.5,0.8,0.8c9.2,8.6,9.2,8.6,18-0.3c3.8-3.8,7.6-7.7,11.4-11.5c1.4-1.4,3-1.9,4.9-1c1.3,0.6,1.7,1.7,1.8,3.1
		C97,64.9,95.8,66.1,94.7,67.2z M99,57.4c-3.2-3.1-7.9-3-11.6,0.5c-3.7,3.5-7.1,7.1-10.7,10.7c-6.7,6.7-6.7,6.7-13.8,0.2
		c-0.8-0.7-1.6-1.5-2.5-2c-5.5-2.9-11.9,1.1-11.8,7.3c0.1,4.9,16,20.8,20.9,21c2.5,0,4.5-0.8,6.3-2.6C83.5,84.6,91.3,76.9,99,69
		C102.4,65.4,102.2,60.5,99,57.4z M94.7,67.2c-7,7.1-13.9,14.1-20.9,21.2c-2.6,2.7-5,3.2-7.8,0.3c-3.6-3.7-7.4-7.4-11.1-11.1
		c-1.9-1.8-3-4-1-6.1c2-2.2,4.2-1.2,6.1,0.6c0.3,0.3,0.5,0.5,0.8,0.8c9.2,8.6,9.2,8.6,18-0.3c3.8-3.8,7.6-7.7,11.4-11.5
		c1.4-1.4,3-1.9,4.9-1c1.3,0.6,1.7,1.7,1.8,3.1C97,64.9,95.8,66.1,94.7,67.2z"/>
</g>
</svg>
