<?xml version="1.0" encoding="utf-8"?>
<!-- Generator: Adobe Illustrator 25.4.1, SVG Export Plug-In . SVG Version: 6.00 Build 0)  -->
<svg version="1.1" id="Layer_1" xmlns="http://www.w3.org/2000/svg" xmlns:xlink="http://www.w3.org/1999/xlink" x="0px" y="0px"
	 viewBox="0 0 514 514" style="enable-background:new 0 0 514 514;" xml:space="preserve">
<style type="text/css">
	.st0{fill:#014643;stroke:#014643;stroke-width:2;stroke-miterlimit:10;}
</style>
<g>
	<path class="st0" d="M419.8,358.3c-5-11.8-16.3-18.8-29.8-17.2c-5.3,0.6-10.7,2.4-15.6,4.8c-16.3,7.9-32.4,16.2-48.6,24.4
		c-6,3-12.1,6.1-18.2,9.2c-4-7.3-9.4-12.5-16.9-14.8c-42.3-13.4-84.6-26.9-127.1-40c-11.1-3.4-21.8-1.4-31.6,4.8
		c-4.9,3.1-9.6,6.6-14.4,9.9c-11.9,8.3-23.7,16.5-35.8,25c-0.9-1.8-1.6-3-2.3-4.4c-4-8.2-5.6-8.7-13.9-4.7
		c-19.6,9.5-39.2,19-58.8,28.6C4.7,384.7,3,386.5,1,388v5c1,1.5,2.1,2.9,2.8,4.4c17.4,35.9,34.8,71.8,52.3,107.6
		c1.4,2.8,3.2,5.3,4.9,7.9h5c1.7-1,3.4-2.1,5.1-2.9c19.5-9.5,38.9-18.9,58.4-28.3c5.9-2.9,6.7-5.2,3.9-11.1
		c-0.8-1.6-1.5-3.3-2.3-5.2c3.8-2.3,7.7-4.4,11.2-6.9c3.7-2.7,7.4-3,11.7-2.1c40.7,8,81.3,15.8,122,23.8c9.5,1.9,17.7-0.1,25.4-5.9
		c24.9-19,49.9-37.9,74.8-56.8c11.5-8.8,23.2-17.4,34.5-26.4C420.8,382.9,424.3,369.1,419.8,358.3z M66.5,499
		C49.3,463.6,32.3,428.5,15,393c18.1-8.8,36-17.5,54.5-26.5c17.2,35.4,34.2,70.5,51.5,106C102.6,481.5,84.8,490.1,66.5,499z
		 M402.4,382.3c-10,8-20.3,15.6-30.6,23.3c-25.5,19.3-51,38.6-76.3,58.1c-5.8,4.5-11.7,5.9-19.1,4.5c-40.3-8.1-80.7-15.7-121-23.6
		c-7-1.4-13.1-0.8-19,3.4c-3.3,2.4-7,4.3-10.9,6.6c-12.9-26.6-25.6-52.8-38.5-79.3c1.3-1,2.6-2,3.9-2.9
		c14.6-10.2,29.3-20.2,43.8-30.6c9.2-6.7,18.8-8.1,29.7-4.6c39.9,12.8,79.9,25.3,119.9,38c10.9,3.4,16,12,13.4,22.1
		c-2.7,10.3-11.6,15.2-22.9,12.6c-30.7-7-61.3-14-91.9-21c-0.5-0.1-1-0.3-1.4-0.4c-4.9-1-7.8,0.4-8.7,4.2c-0.9,3.7,1.2,6.4,6,7.5
		c11.7,2.7,23.3,5.4,35,8c19.5,4.4,38.9,8.9,58.4,13.3c19.9,4.5,35.7-6.5,38.3-26.6c0.2-1.7,1.7-4,3.3-4.8
		c22.3-11.5,44.8-22.8,67.2-34.1c6-3,12.3-4.6,18.8-2C411.7,358.8,413.2,373.7,402.4,382.3z"/>
	<path class="st0" d="M510.2,116.6c-17.5-36-35-72.1-52.5-108.1c-1.3-2.6-3.1-5-4.6-7.5h-5c-1.4,0.8-2.8,1.8-4.2,2.5
		c-19.8,9.6-39.5,19.2-59.3,28.8c-5.9,2.8-6.7,5.2-3.9,11.1c0.8,1.6,1.5,3.3,2.4,5.2c-3.7,2.2-7.4,4.2-10.7,6.6
		c-4,2.9-7.9,3.2-12.7,2.2c-40.3-8-80.7-15.6-121-23.6c-10-2-18.6,0.2-26.7,6.4c-19.3,14.8-38.7,29.5-58.1,44.2
		c-16.7,12.7-33.6,25.2-50.1,38.2c-9.4,7.4-13.5,17.5-10.7,29.3c2.5,10.7,9.8,17.8,20.5,20.5c9.1,2.4,17.8,0.1,26-4.1
		c20.6-10.5,41.3-20.9,61.9-31.3c1.6-0.8,3.2-1.4,4.9-2.2c4.1,7.5,9.9,12.6,17.7,15.1C265.6,162.9,307,176,348.4,189
		c12.8,4,24.7,1.9,35.7-5.6c7.1-4.9,14.2-9.9,21.3-14.8c8.8-6.2,17.7-12.3,26.8-18.6c0.9,1.7,1.6,3,2.3,4.3c4,8.2,5.6,8.7,13.9,4.7
		c19.5-9.4,38.9-18.8,58.4-28.3c2.3-1.1,4.2-3.1,6.3-4.6v-5C512,119.5,510.9,118.1,510.2,116.6z M423.4,141.4
		c-15,10.5-30.1,21-45,31.5c-8.6,6.1-17.7,7.5-27.9,4.3c-40.4-12.9-80.9-25.5-121.4-38.3c-9.5-3-14.3-9.9-13.3-19.1
		c0.9-8.8,7.1-15.4,15.6-16.2c2.6-0.3,5.3,0.2,7.9,0.8c30.7,7,61.3,14,92,21c0.8,0.2,1.6,0.5,2.4,0.6c3.8,0.6,6.8-0.4,7.6-4.5
		c0.8-4-1.5-6.3-5.2-7.2c-10-2.4-20.1-4.7-30.2-6.9c-21.2-4.8-42.5-9.7-63.8-14.5c-20.3-4.6-35.8,6.2-38.6,26.8
		c-0.2,1.6-1.6,3.7-3,4.4c-22.7,11.6-45.4,23.2-68.2,34.5c-7,3.5-14.4,4.9-21.3-0.1c-9.4-6.9-9.2-19.1,0.6-26.8
		c14.1-10.9,28.4-21.6,42.5-32.4c21.8-16.5,43.6-33,65.3-49.6c5.1-3.9,10.4-5.1,16.8-3.9c41.2,8.1,82.3,16.1,123.5,24.1
		c5.8,1.1,11.2,0.5,16.3-2.8c3.9-2.5,7.9-4.8,12.3-7.4c12.9,26.6,25.6,52.7,38.5,79.2C425.7,139.6,424.6,140.5,423.4,141.4z
		 M444.5,147.5c-17.2-35.4-34.2-70.5-51.5-106c18.4-8.9,36.2-17.5,54.5-26.4c17.1,35.3,34.2,70.4,51.5,106
		C480.9,129.8,463,138.5,444.5,147.5z"/>
	<path class="st0" d="M257.4,176c-44.8-0.2-81.3,36-81.4,80.7c-0.1,44.8,36.1,81.2,80.8,81.3c44.7,0.1,81.1-36.3,81.2-80.9
		C338,212.5,301.9,176.2,257.4,176z M256.6,326c-37.9-0.1-68.7-31.3-68.6-69.4c0.1-38,31.2-68.7,69.4-68.6
		c38,0.1,68.7,31.2,68.6,69.4C325.8,295.4,294.7,326.1,256.6,326z"/>
	<path class="st0" d="M263.4,251.7v-26.9c5.1,1.7,7.9,5,9.6,9.3c1.4,3.6,4.1,5.5,7.9,4c4-1.6,4.7-4.8,3.1-8.6
		c-0.8-1.8-1.6-3.7-2.7-5.3c-4.3-6.7-10.6-10.4-18-12c-1.4-5.1,2.3-13.2-6.3-13.1c-9,0.1-4.8,8.4-6.5,13.7
		c-5.9,1.8-10.9,5-14.2,10.4c-7.5,12.2-2.3,29.9,10.5,36.4c1.6,0.8,3.8,2.3,3.9,3.6c0.4,8.1,0.2,16.2,0.2,24.2
		c-0.5,0.3-1,0.6-1.5,0.9c-2.9-3.4-6-6.7-8.6-10.4c-2.4-3.3-5.1-5.1-8.8-2.9c-3.8,2.2-4,5.9-1.5,9c3.9,4.8,7.8,10.2,12.9,13.4
		c5,3.2,8.7,5.5,7.6,12.2c-0.5,3.5,2.2,5.9,6,5.8c3.8-0.1,5.6-2.5,5.8-6.1c0.1-2.3,0-4.6,0-6.7c14.5-4.1,20.7-11.1,21.7-23.8
		C285.7,265.3,280.6,259,263.4,251.7z M250.7,247.4c-4.7-2.2-5.3-6.4-5.6-10.7c-0.3-4.5,0.8-8.4,5.6-11V247.4z M263.3,289.4v-24.2
		c6.4,1,9.1,4,9.4,10.8C273.1,283,270,287.5,263.3,289.4z"/>
</g>
</svg>
