<?xml version="1.0" encoding="utf-8"?>
<!-- Generator: Adobe Illustrator 25.4.1, SVG Export Plug-In . SVG Version: 6.00 Build 0)  -->
<svg version="1.1" id="Layer_1" xmlns="http://www.w3.org/2000/svg" xmlns:xlink="http://www.w3.org/1999/xlink" x="0px" y="0px"
	 viewBox="0 0 357.9 371.9" style="enable-background:new 0 0 357.9 371.9;" xml:space="preserve">
<style type="text/css">
	.st0{fill:#004643;}
</style>
<g>
	<path class="st0" d="M292.4,279.5c-1.7-15.1-16.6-23.3-30.3-16.7c-14.2,6.8-28.2,13.9-42.2,20.8c-0.5,0.3-1.1,0.5-1.6,0.9
		c-2.3,1.8-3.2,4.1-1.9,6.9c1.3,2.8,3.6,3.8,6.5,3.1c1.2-0.3,2.3-0.9,3.4-1.5c13.3-6.6,26.6-13.2,39.9-19.7c5.8-2.8,11.3-1.5,14,3.4
		c2.8,4.9,1.3,10.4-4,13.9c-21.8,14-43.7,28.1-65.6,41.8c-12.1,7.6-25.6,10.3-39.5,7.2c-18.7-4.1-37.3-9-55.9-13.7
		c-11.4-2.9-22.2-2.1-32.5,3.9c-0.8,0.5-1.7,0.7-2.8,1.2c-9.3-18.6-18.5-37-27.8-55.6c13.1-6.9,25.9-13.4,38.4-20.2
		c8.5-4.6,17-5.5,26.3-2.8c16.8,5.1,33.7,9.8,50.6,14.6c8.6,2.5,17.2,4.9,25.8,7.5c5.9,1.8,8.9,7,7.3,12.5c-1.5,5.3-6.9,8-12.9,6.5
		c-0.8-0.2-1.7-0.5-2.5-0.7c-12.7-3.6-25.4-7.3-38.1-10.9c-4-1.1-6.9,0.2-7.8,3.5c-1,3.3,0.7,6.1,4.6,7.2c14,4.1,28,8.2,42,12
		c6.7,1.8,12.9,0.4,18.3-4c6.5-5.3,9-12.3,7.5-20.4c-1.6-8.4-6.8-14-15.2-16.4c-26.3-7.6-52.6-15.2-79-22.8
		c-10.7-3.1-21-1.8-30.8,3.4c-6.8,3.6-13.7,7.2-20.5,10.8c-6.4,3.3-12.8,6.7-19.1,10c-6.1-9.4-11.1-10.7-21-5.8
		c-6.2,3.1-12.5,6.2-18.7,9.4c-7.1,3.7-9.5,10.5-5.9,17.7c12.9,25.9,25.9,51.8,38.9,77.7c3.7,7.4,10.5,9.6,17.9,5.9
		c6.3-3.1,12.5-6.2,18.7-9.4c9.3-4.7,11.2-9.2,8.2-19.4c7.6-5.3,15.7-7.2,24.6-5c17.9,4.5,35.8,8.9,53.7,13.4
		c17.2,4.3,33.7,2.5,49.3-5.8c5-2.7,9.8-5.9,14.6-9c18.2-11.6,36.4-23.2,54.5-34.9C289.6,295.3,293.4,288.4,292.4,279.5z
		 M73.4,350.1c-6.5,3.1-13,6.4-19.4,9.7c-1.8,1-2.9,0.7-3.8-1.2c-12.9-25.9-25.8-51.8-38.8-77.7c-0.1-0.2-0.1-0.5-0.2-1.3
		c7.4-3.7,14.7-7.4,22-11.1c2.5-1.3,3,0.8,3.7,2.3c7.9,15.7,15.8,31.5,23.6,47.2c4.6,9.3,9.2,18.5,13.9,27.8
		C75.6,347.7,75.8,349,73.4,350.1z"/>
	<path class="st0" d="M356.1,85.1c-12.8-25.8-25.8-51.6-38.7-77.3c-3.7-7.4-10.5-9.6-17.9-6c-6.4,3.1-12.7,6.4-19.1,9.5
		c-8.9,4.5-11,9.5-7.8,19c-7.4,5.6-15.6,7.4-24.6,5.2c-18-4.4-36-9-54-13.5c-17.7-4.4-35-2.7-50.6,6.8c-23.3,14.2-46.2,29.2-69.1,44
		c-6,3.8-8.9,9.8-9.1,16.8C64.8,105.4,81,116,95.7,109.1c13-6.1,25.7-12.7,38.6-19c1.7-0.8,3.4-1.6,5-2.5c2.9-1.7,3.7-4.7,2.3-7.4
		c-1.4-2.7-4.2-3.8-7.3-2.6c-1,0.4-2,1-3,1.5c-13.2,6.5-26.3,13.1-39.6,19.5c-5.7,2.8-11.2,1.2-13.9-3.7c-2.7-4.9-1.2-10.2,4-13.5
		c22-14.1,43.9-28.1,66-42c12-7.5,25.3-10.1,39.2-7.2c16.1,3.4,31.9,7.8,47.9,11.7c8.4,2.1,16.9,5.3,25.7,3.3c6-1.3,11.8-3.6,18-5.6
		c8.9,17.9,18.1,36.2,27.5,55.1c-15.2,7.8-30.1,15.6-45.2,23c-5,2.4-10.7,2.3-16.2,0.7c-26.7-7.6-53.4-15.3-80.1-23
		c-5.9-1.7-8.8-7.1-7.1-12.5c1.6-5.2,6.8-7.9,12.6-6.4c0.8,0.2,1.7,0.5,2.5,0.7c12.6,3.6,25.1,7.3,37.7,10.9c4.5,1.3,7.6,0,8.5-3.5
		c0.9-3.4-0.9-6-5.2-7.3c-13.5-3.9-27-7.9-40.6-11.7c-12-3.3-23.2,3-26.4,14.6c-3.1,11.3,3.2,22.5,14.9,25.9
		c26.3,7.7,52.6,15.3,79,22.8c10.3,2.9,20.2,1.9,29.8-3c3.9-2,7.7-4,11.6-6.1c9.6-5,19.2-10.1,28.8-15.1c0.4,0.5,0.7,0.7,0.9,1
		c5,8,10.6,9.5,19,5.4c6.5-3.2,12.9-6.5,19.4-9.7C357.6,99.3,359.9,92.6,356.1,85.1z M324.1,103.4c-0.6,0.3-2.6-1.2-3.2-2.3
		c-8.5-16.7-16.8-33.4-25.2-50.2c-4.1-8.3-8.2-16.5-12.5-24.7c-1.2-2.3-0.8-3.5,1.5-4.6c6.3-3,12.5-6.2,18.7-9.4
		c1.8-0.9,3.1-1.2,4.2,1c12.8,25.8,25.7,51.6,38.6,77.3c0.2,0.3,0.2,0.7,0.4,1.7C339.1,96.1,331.7,99.9,324.1,103.4z"/>
	<path class="st0" d="M192.4,125.1c-34.5,0.1-62.6,28.2-62.6,62.8c0,34.7,28.2,62.9,62.9,62.8c34.6-0.1,62.6-28.2,62.6-62.8
		C255.3,153.1,227.1,125,192.4,125.1z M192.7,239.3c-28.4,0.1-51.4-22.7-51.6-51.2c-0.2-28.3,22.9-51.7,51.1-51.8
		c28.6-0.1,51.8,22.9,51.8,51.4C244.1,216.1,221,239.3,192.7,239.3z"/>
	<path class="st0" d="M201.6,215.5c-2.1,0.9-3.4,1.7-3.4,4.4c0,3.5-2.6,5.8-5.7,5.7c-3,0-5.4-2.3-5.4-6c0-2.3-1-3.1-2.9-3.9
		c-6.9-2.9-11-8-11.6-15.5c0-3.5,1.9-5.9,4.9-6.2c3.2-0.3,5.4,1.3,6.2,4.6c1.7,6.9,8.5,9.8,14.4,6.1c4.5-2.8,4.5-8-0.2-10.4
		c-2.1-1.1-4.8-1.4-7.2-1.6c-11.6-0.9-19.9-10.9-17.6-21.4c1.4-6.2,5.5-10.2,11.2-12.6c1.8-0.7,2.8-1.5,3-3.6
		c0.2-3.1,2.3-4.7,5.3-4.8c3-0.1,5.2,1.6,5.5,4.5c0.3,2.4,1.5,3.2,3.5,4.1c5.9,2.5,9.7,6.9,10.9,13.3c0.9,4.3-0.9,7.5-4.4,8.2
		c-3.3,0.7-5.7-1.4-6.6-5.8c-0.8-4.1-3.7-5.7-7.4-6.3c-3.6-0.6-8,1.3-9.4,4.1c-1.5,2.8-0.4,6.2,2.9,7.8c1.8,0.9,4,1.2,6.1,1.4
		c9,0.9,16.1,5.8,18.3,13.1C214.4,203.1,210.3,211.6,201.6,215.5z"/>
</g>
</svg>
