<?xml version="1.0" encoding="utf-8"?>
<!-- Generator: Adobe Illustrator 25.4.1, SVG Export Plug-In . SVG Version: 6.00 Build 0)  -->
<svg version="1.1" id="Layer_1" xmlns="http://www.w3.org/2000/svg" xmlns:xlink="http://www.w3.org/1999/xlink" x="0px" y="0px"
	 viewBox="0 0 581.99 581.64" style="enable-background:new 0 0 581.99 581.64;" xml:space="preserve">
<style type="text/css">
	.st0{fill:#004643;}
</style>
<g>
	<path class="st0" d="M497.88,0c2.32,0.75,4.67,1.46,6.97,2.27c17.03,6.01,27.8,23.09,25.86,40.97
		c-1.89,17.43-15.74,31.79-32.99,34.2c-18.31,2.55-35.5-7.02-41.8-24.06c-1.81-4.89-4.12-6.11-8.94-5.9
		c-9.08,0.4-18.18,0.18-27.27,0.09c-3.1-0.03-5.1,0.66-5.09,4.33c0.08,35.23,0.1,70.46,0.16,105.68c0,0.33,0.27,0.66,0.67,1.61
		c11.81,0,23.88,0.14,35.94-0.2c1.33-0.04,3.06-2.7,3.8-4.49c6-14.54,16.54-23.41,32.21-25.31c14.73-1.79,26.95,3.56,35.71,15.46
		c9.64,13.09,10.69,27.46,2.92,41.69c-7.77,14.22-20.45,21.32-36.62,20.24c-16.12-1.08-27.82-9.59-33.59-24.81
		c-1.81-4.77-4.11-5.72-8.58-5.6c-10.57,0.27-21.15,0.09-32.24,0.09c-0.14,2.2-0.36,4.01-0.36,5.82
		c-0.02,32.96,0.1,65.92-0.13,98.87c-0.04,5.48,1.59,7.32,7.08,7.08c9.08-0.39,18.19-0.25,27.27-0.03c3.55,0.09,5.19-0.95,6.47-4.5
		c6.6-18.24,24.24-28.41,43.24-25.38c17.88,2.86,31.91,19.06,32.28,37.29c0.39,19.16-12.32,35.21-31.15,39.34
		c-18.2,3.99-37.32-6.2-43.87-24.08c-1.74-4.75-4.07-5.81-8.58-5.66c-9.08,0.29-18.18,0.15-27.28,0.07
		c-14.83-0.13-22.4-7.68-22.42-22.43c-0.04-33.72-0.01-67.43-0.03-101.15c0-1.49-0.16-2.97-0.27-4.83c-16.8,0-33.37,0-50.24,0
		c-1.34,11.05-8.2,16.87-18.98,17.01c-10.24,0.14-15.37,4.35-17.42,14.48c-1.24,6.13-4.77,11.91-7.86,17.52
		c-1.76,3.2-1.62,5.35,0.67,8.04c2.81,3.31,5.35,6.88,7.77,10.5c4.99,7.45,4.46,15.3-1.6,21.84c-3.98,4.31-8.15,8.47-12.46,12.44
		c-6.46,5.96-14.45,6.43-21.86,1.48c-2.52-1.68-4.9-3.56-7.35-5.35c-2.29-1.67-4.58-3.34-5.95-4.34
		c-11.27,4.36-21.85,8.33-32.29,12.65c-1.47,0.61-2.86,2.75-3.24,4.43c-1.06,4.6-1.38,9.36-2.32,13.99
		c-1.75,8.61-7.28,13.62-16.06,14.17c-6.04,0.38-12.13,0.38-18.17,0.02c-8.99-0.54-14.45-5.6-16.3-14.6
		c-1.17-5.72-0.45-12.87-3.7-16.81c-3.06-3.72-10.31-3.83-15.52-6.01c-5.92-2.48-11.61-5.49-17.74-8.43
		c-4.34,3.19-8.85,6.64-13.49,9.89c-8.02,5.61-16.13,5-23.19-1.74c-3.97-3.79-7.89-7.65-11.63-11.68
		c-6.12-6.59-6.74-14.36-1.76-21.81c3.26-4.87,9.04-9.36,9.51-14.41c0.47-5.01-4.44-10.44-6.74-15.8
		c-1.64-3.81-3.46-7.71-4.11-11.74c-0.9-5.56-3.97-7.43-9.08-7.74c-3.58-0.22-7.14-0.86-10.68-1.52c-8.55-1.58-14.04-7.9-14.3-16.59
		c-0.17-5.49-0.12-10.99-0.03-16.48c0.15-9.72,5.49-17.28,14.97-17.52c12.82-0.31,19.84-5.22,22.17-18.05
		c0.95-5.21,4.16-10.12,6.93-14.83c1.77-3.01,1.48-5.03-0.59-7.56c-2.87-3.51-5.57-7.19-8.09-10.96
		c-4.83-7.24-4.36-14.94,1.49-21.38c4.07-4.48,8.37-8.78,12.85-12.86c6.42-5.85,14.11-6.35,21.36-1.49
		c5.02,3.36,9.81,7.06,13.64,9.84c11.25-4.34,21.67-8.22,31.94-12.49c1.62-0.67,3.17-2.95,3.6-4.75c1.14-4.77,1.44-9.73,2.45-14.54
		c1.69-7.97,7.43-12.92,15.52-13.26c6.43-0.27,12.89-0.27,19.31,0.02c7.77,0.36,13.57,5.33,15.23,12.92
		c1.05,4.8,1.76,9.69,2.29,14.57c0.33,3.01,1.56,4.43,4.5,5.53c9.17,3.46,18.1,7.54,27.25,11.07c1.67,0.64,4.31,0.42,5.83-0.51
		c4.19-2.55,7.92-5.85,12.02-8.55c7.03-4.63,14.65-4.18,20.91,1.45c4.64,4.17,9.08,8.61,13.25,13.25
		c5.65,6.28,6.11,13.78,1.47,20.91c-2.58,3.96-5.42,7.77-8.39,11.44c-1.94,2.39-1.9,4.24-0.59,7.09
		c4.02,8.73,7.36,17.78,11.31,26.55c0.81,1.79,2.92,3.58,4.8,4.18c3.38,1.08,7.05,1.31,10.61,1.82c11.15,1.6,15.39,5.54,17.85,16.93
		c16.52,0,33.12,0,50.49,0c0-2.33,0-4.53,0-6.74c0-32.77-0.01-65.54,0.01-98.3c0.01-16.01,7.27-23.28,23.18-23.3
		c9.66-0.01,19.32,0.09,28.98-0.09c1.58-0.03,4.22-0.94,4.54-1.99c4.8-15.69,16.05-24.12,31.14-28.46C489.54,0,493.71,0,497.88,0z
		 M111.66,266.77c6.43-4.71,11.74-8.61,17.06-12.51c6.64-4.86,8.24-4.5,15.32-0.8c8.67,4.54,17.43,10.18,26.77,11.82
		c12.93,2.26,17.11,8.85,17.97,20.82c0.95,13.24,1.59,13.19,14.73,12.51c0.19-0.01,0.45,0.08,0.56-0.02
		c1.32-1.18,3.47-2.21,3.76-3.61c1.23-5.92,1.96-11.94,2.74-17.94c0.7-5.36,3.46-8.49,8.89-9.53c12.79-2.45,24.6-7.39,35.41-14.62
		c4.54-3.04,8.62-3.01,12.98,0.38c5.64,4.39,11.51,8.49,16.79,12.36c4.41-3.97,8.44-7.61,12.72-11.47
		c-4.37-5.93-8.39-11.64-12.69-17.12c-3.51-4.48-3.78-8.69-0.54-13.47c7.3-10.77,12.09-22.67,14.64-35.41
		c1.1-5.49,4.19-8.02,9.59-8.7c7.06-0.88,14.06-2.16,20.95-3.24c0-6.07,0-11.48,0-16.97c-7.24-1.13-14.12-2.4-21.06-3.24
		c-5.46-0.66-8.4-3.33-9.5-8.78c-2.55-12.74-7.41-24.61-14.68-35.4c-3.07-4.55-3-8.64,0.35-12.98c4.38-5.66,8.53-11.5,12.65-17.08
		c-4.16-4.26-7.95-8.15-11.97-12.25c-5.74,4.24-11.45,8.26-16.93,12.56c-4.48,3.52-8.46,3.3-13.51,0.6
		c-8.95-4.79-18.03-10.61-27.73-12.42c-12.87-2.41-17.05-8.95-17.89-20.91c-0.91-13.13-1.56-13.2-14.95-12.07
		c-1.51,0.13-3.77,2.17-4.11,3.68c-1.26,5.71-1.96,11.55-2.7,17.37c-0.71,5.63-3.7,8.74-9.32,9.8
		c-12.42,2.34-23.94,7.07-34.37,14.18c-5.19,3.54-9.59,3.3-14.41-0.57c-5.39-4.33-11.09-8.27-16.25-12.08
		c-4.44,4.19-8.28,7.81-12.41,11.7c4.39,5.98,8.55,11.82,12.9,17.51c3.15,4.11,3.57,8.13,0.62,12.51
		c-7.49,11.12-12.46,23.3-15.1,36.44c-0.99,4.91-3.84,7.45-8.83,8.12c-7.24,0.97-14.44,2.28-21.6,3.43c0,5.89,0,11.29,0,16.92
		c7.2,1.11,14.09,2.34,21.02,3.2c5.42,0.67,8.44,3.3,9.53,8.77c2.54,12.74,7.37,24.62,14.67,35.4c3.25,4.79,2.87,9-0.63,13.47
		c-4.29,5.48-8.28,11.19-12.54,16.99c1.53,1.62,2.87,2.94,4.09,4.35C107.01,261.16,109.28,263.93,111.66,266.77z M513.79,38.87
		c-0.05-12.09-10.04-21.91-22.14-21.78c-11.87,0.13-21.51,9.82-21.62,21.74c-0.12,12.06,9.81,22.1,21.86,22.11
		C503.94,60.95,513.84,50.97,513.79,38.87z M513.79,167.84c0.03-12.1-9.92-22.09-21.95-22.03c-12.04,0.05-21.95,10.14-21.81,22.19
		c0.14,11.9,9.83,21.6,21.68,21.72C503.74,189.82,513.76,179.91,513.79,167.84z M491.7,318.35c12.2,0.08,22.06-9.62,22.09-21.74
		c0.03-12.18-9.71-21.87-21.95-21.84c-12.02,0.03-21.58,9.42-21.81,21.43C469.79,308.32,479.52,318.26,491.7,318.35z"/>
	<path class="st0" d="M581.99,430.73c-3.32,13.12-12.21,20.96-23.89,27.06c-24.64,12.88-48.93,26.44-73.31,39.82
		c-4.61,2.53-8.87,3.55-12.65-1.12c-3.79-4.68-2.29-10.21,3.75-13.52c22.24-12.17,44.51-24.27,66.77-36.39
		c4.49-2.44,9.01-4.81,13.44-7.36c8.14-4.68,11.03-13.67,6.97-21.31c-4.23-7.94-13.51-10.57-22-5.9
		c-27.01,14.87-53.74,30.28-80.97,44.72c-53.84,28.56-111.16,38.18-171.54,30.1c-17.26-2.31-34.59-4.01-51.85-6.29
		c-3.18-0.42-6.94-1.54-9.08-3.69c-4.98-5.01-1.3-12.64,6.61-13.77c13.3-1.9,26.66-3.4,39.99-5.08c33.8-4.26,67.6-8.47,101.38-12.81
		c8.62-1.11,13.59-5.72,14.5-12.8c0.86-6.69-2.19-12.91-8.26-15.26c-3.06-1.19-6.63-1.47-9.97-1.48
		c-35.23-0.1-70.46-0.01-105.69-0.14c-3.51-0.01-7.18-0.63-10.49-1.8c-35.89-12.65-72.05-14.86-108.63-3.28
		c-4.05,1.28-7.8,1.78-11.06-1.54c-4.57-4.66-2.47-12.46,4.5-14.19c12.82-3.19,25.72-6.6,38.79-8.04
		c26.7-2.94,52.83,0.91,78.29,9.52c2.27,0.77,5.6,0.22,7.82-0.93c33.58-17.42,67.46-34.32,100.41-52.88
		c21.82-12.29,45.39-2.74,49.58,22.75c4.6-2.45,9.04-4.83,13.5-7.18c19.61-10.33,39.68-0.74,44.12,21.05
		c0.1,0.51,0.38,0.99,0.81,2.06c5.63-2.92,11.31-5.44,16.56-8.66c21.43-13.12,44.43,1.43,46.32,20.97c0.03,0.32,0.41,0.6,0.46,0.67
		c4.82-0.52,9.52-1.69,14.14-1.41c14.24,0.87,25.19,9.96,29.44,23.67c0.33,1.05,0.82,2.05,1.23,3.08
		C581.99,423.16,581.99,426.94,581.99,430.73z M308.69,470.86c0,0.23-0.01,0.45-0.01,0.68c2.59,0.23,5.18,0.56,7.78,0.68
		c36.61,1.69,72.04-4.04,106.26-17.14c31.44-12.04,59.46-30.65,89-46.35c7.6-4.04,10.01-11.01,6.65-17.51
		c-3.44-6.66-10.78-8.51-18.55-4.42c-29.8,15.66-59.58,31.38-89.32,47.17c-1.5,0.8-3.26,2.23-3.72,3.73
		c-5.04,16.58-16.87,23.38-33.38,25.07C351.78,464.94,330.25,468.11,308.69,470.86z M297.82,398.01c1.78,0.3,2.44,0.5,3.1,0.5
		c16.83,0.02,33.65,0.03,50.48-0.02c1.28,0,2.72-0.16,3.82-0.75c12.31-6.6,24.69-13.09,36.79-20.07c5.05-2.91,6.78-8.15,5.48-13.81
		c-1.31-5.7-5.28-9.48-11.06-9.85c-3.33-0.21-7.08,1.05-10.14,2.63c-24.5,12.63-48.88,25.5-73.29,38.31
		C301.57,395.7,300.21,396.59,297.82,398.01z M406.42,416.68c13.7-7.22,28.5-14.73,42.95-22.88c2.89-1.63,5.25-5.4,6.35-8.69
		c1.56-4.64-0.47-8.96-4.5-11.9c-4.22-3.08-8.74-3.18-13.32-0.69c-16.43,8.9-32.86,17.79-49.27,26.72c-0.4,0.22-0.57,0.88-0.19,0.26
		C394.34,405.14,399.97,410.52,406.42,416.68z"/>
	<path class="st0" d="M17.33,451.15c0,32.28,0,63.65,0,95.71c2.26,0,4.28,0.07,6.29-0.01c46.91-1.74,93.35,4.44,139.91,8.45
		c35.08,3.02,70.11,6.67,105.23,9.2c28.76,2.07,56.29-4.92,82.06-16.84c30.17-13.95,59.4-29.94,89.03-45.05
		c1.35-0.69,2.62-1.52,3.98-2.18c5.11-2.47,9.82-1.18,12.15,3.28c2.23,4.28,1,8.85-3.88,11.54c-39.25,21.58-77.79,44.66-121.05,57.9
		c-25.89,7.92-52.14,10.14-79.11,7.32c-36.33-3.79-72.76-6.67-109.15-9.94c-20.93-1.88-41.82-4.4-62.79-5.47
		c-21.54-1.1-43.14-0.77-64.72-1.07c-1.89-0.03-3.79,0.05-5.68-0.03c-6.37-0.27-9.55-3.2-9.56-9.43
		c-0.07-36.93-0.07-73.85-0.01-110.78c0.01-6.56,3.2-9.63,9.9-9.66c17.61-0.08,35.23,0.09,52.84-0.16c2.76-0.04,5.79-1.25,8.21-2.72
		c11.46-6.98,22.65-14.41,34.14-21.34c5.66-3.41,10.64-2.02,13.08,2.82c2.32,4.6,0.45,8.72-4.95,12.15
		c-12.28,7.8-24.36,15.92-36.72,23.6c-2.56,1.59-5.94,2.53-8.96,2.59c-14.77,0.26-29.54,0.12-44.32,0.12
		C21.41,451.15,19.56,451.15,17.33,451.15z"/>
	<path class="st0" d="M198.73,231.96c-35.67-0.07-65.11-29.99-64.06-65.12c1.11-37.11,31.57-65.38,68.17-63.25
		c35.73,2.08,63.36,33.71,59.84,69.34c-0.8,8.1-3.75,16.12-6.61,23.85c-2.2,5.95-7.09,7.7-11.74,5.58
		c-4.9-2.23-6.15-6.99-3.42-13.02c12.81-28.33-0.45-58.77-29.15-66.9c-19.78-5.6-40.89,2.22-52.23,19.36
		c-11.15,16.85-10.17,39.21,2.41,55.2c12.51,15.9,34.17,22.04,53.18,15.08c1.6-0.58,3.13-1.37,4.76-1.85
		c4.85-1.41,9.18,0.54,10.8,4.74c1.64,4.25,0.11,9.27-4.51,10.84c-8.85,3.01-17.99,5.17-27.01,7.68
		C199.01,232.99,198.87,232.47,198.73,231.96z"/>
</g>
</svg>
