<?xml version="1.0" encoding="utf-8"?>
<!-- Generator: Adobe Illustrator 25.4.1, SVG Export Plug-In . SVG Version: 6.00 Build 0)  -->
<svg version="1.1" id="Layer_1" xmlns="http://www.w3.org/2000/svg" xmlns:xlink="http://www.w3.org/1999/xlink" x="0px" y="0px"
	 viewBox="0 0 321.3 370.3" style="enable-background:new 0 0 321.3 370.3;" xml:space="preserve">
<style type="text/css">
	.st0{fill:#004643;}
</style>
<g>
	<path class="st0" d="M321.2,106.8c0-15.1-0.1-26,0.1-36.9c0.1-4-1.3-6.8-4.3-9.3c-12-10.4-24.6-20-38.4-27.9
		C228.1,3.3,174.1-6.7,116.6,4.4C73.7,12.7,36.3,32.3,3.7,61.2C1.1,63.5,0,65.8,0,69.3c0.1,15.9,0.1,31.7,0,47.6
		c-0.1,39.7,7.3,78,23,114.5c27.1,63,70.8,109.8,133.7,138c2.6,1.2,4.8,1.3,7.5,0.2c26.9-11.9,51.3-27.8,72.5-48.2
		c40.8-39.3,65.7-87.3,78-142.3C320.4,153.8,321.7,128.3,321.2,106.8z M300,194.3c-16,54.8-45.3,100.8-90.4,136.2
		c-14.3,11.2-29.8,20.5-46.4,27.8c-1.5,0.7-3.9,0.5-5.5-0.2c-42.6-19.3-76.1-49.3-101.9-88.2C30.8,232,16,190.3,12.1,145.1
		c-1.8-21.2-0.6-42.7-1.8-64C9.8,71.9,13,66.3,20,60.9c33.8-26.5,71.5-43.5,114.1-48.6c55.4-6.6,106.1,6.6,152.2,37.9
		c7.6,5.2,14.7,11.1,21.8,17c1.4,1.1,2.4,3.5,2.4,5.3c0.2,10.5,0.1,21,0.1,35.6C311.5,134.6,308.6,164.8,300,194.3z"/>
	<path class="st0" d="M287.6,75.1C243.7,41.2,194.4,25.6,139,31.5C99.6,35.7,64.5,50.8,33.4,75.4c-2.4,1.9-3.5,4-3.4,7
		c0.1,8.6,0,17.2,0,25.9c-0.7,42.8,6.2,76.2,19.2,107.6c21.6,52.4,56.3,93.2,106.8,119.9c3.4,1.8,6.1,1.8,9.4,0
		c30.8-16.1,56.3-38.2,76.7-66.2c28.3-38.6,44.3-81.9,47.9-129.6c1.4-19.3,0.8-38.7,1.3-58.1C291.3,78.9,289.9,76.9,287.6,75.1z
		 M256.4,225.5c-20.6,42.7-50.9,76.4-92.7,99.3c-2.2,1.2-3.9,1.2-6.1,0c-44.2-24.3-75.4-60.3-95.9-106.1
		c-14.5-32.5-21.2-66.7-21.2-102.2c0-10.1-0.1-20.2,0.1-30.4c0-1.7,1.1-3.8,2.4-4.9C74,57.5,108.9,43.8,147.9,41.2
		c48.6-3.3,92,11,130.6,40.3c1.2,0.9,2.1,3.1,2.2,4.6c0.2,8,0.1,16,0.1,27.2C281.6,150.5,274,189.1,256.4,225.5z"/>
	<path class="st0" d="M235.1,139.3c-4.8-15-23.3-19.2-34.8-7.8c-17.3,17.1-34.4,34.4-51.6,51.6c-0.9,0.9-1.8,1.7-3.5,3.3
		c-0.9-1.3-1.5-2.6-2.4-3.6c-7.5-7.5-14.9-15.2-22.5-22.5c-8.3-8-21-7.8-29,0.2c-8.1,8-8.5,20.7-0.5,29
		c12.8,13.2,25.7,26.2,38.9,38.9c9.4,9.1,23.3,8.7,32.7-0.3c2.4-2.3,4.8-4.8,7.2-7.1c19.8-19.9,39.6-39.8,59.5-59.6
		C235.3,155.2,237.8,147.9,235.1,139.3z M223.5,151.9c-0.6,0.9-1.5,1.7-2.2,2.5c-21.7,21.7-43.4,43.5-65,65.2c-2.9,3-6.2,5-10.5,4.8
		c-0.2,0.3-0.3,0.6-0.5,0.9c-3-1.6-6.5-2.7-8.8-5c-12.6-12.3-25-24.8-37.4-37.3c-4.6-4.7-4.7-10.9-0.5-15c4.2-4.2,10.5-4.1,15,0.5
		c9.1,8.9,18,18,27,27c4,4,6.3,4.1,10.4,0c18.5-18.5,37-37.2,55.6-55.6c2.1-2,5.1-3.7,7.9-4.3c4.1-0.9,7.5,1.2,9.6,5
		C226.4,144.5,226.1,148.3,223.5,151.9z"/>
</g>
</svg>
