<?xml version="1.0" encoding="utf-8"?>
<!-- Generator: Adobe Illustrator 25.4.1, SVG Export Plug-In . SVG Version: 6.00 Build 0)  -->
<svg version="1.1" id="Layer_1" xmlns="http://www.w3.org/2000/svg" xmlns:xlink="http://www.w3.org/1999/xlink" x="0px" y="0px"
	 viewBox="0 0 392.1 512" style="enable-background:new 0 0 392.1 512;" xml:space="preserve">
<style type="text/css">
	.st0{fill:#004643;}
</style>
<g>
	<path class="st0" d="M391.9,144.5c-0.1-13.1-10-23.7-22.9-24.5c-3.6-0.2-5-1.6-6.3-4.8C338.8,57.4,296.7,20.4,235.9,5
		c-9.5-2.4-19.3-3.4-28.9-5h-22c-1.4,0.3-2.9,0.7-4.3,1c-9.7,1.7-19.6,2.5-29,5.1C93,22.5,52.1,59.2,29.1,115.7c-1,2.5-2,4-5.1,4.3
		C9.3,121.1,0.1,131.2,0.1,146c-0.1,22.2-0.1,44.3,0,66.5c0.1,14.8,10.9,26.1,25.1,26.2c14.1,0.1,25.5-11.2,25.6-25.8
		c0.2-22.5,0.4-45-0.2-67.5c-0.1-5.3-2.7-10.9-5.3-15.7c-1.5-2.9-1.8-4.8-0.8-7.6C71,51.2,144.7,7,219.6,19
		c61.7,9.9,104.1,45.4,127.9,103.1c1.3,3.1,0.6,5.1-1,8c-2.5,4.5-4.9,9.8-5,14.8c-0.5,22.8-0.3,45.7-0.2,68.5
		c0,8.3,3.5,15.2,10.2,20.2c6.8,5.2,7.2,5.6,3.4,13.4c-2.1,4.5-4.9,8.8-8.1,12.5c-5.9,6.8-13.5,11-22.8,12.8
		c-1-9.1-4.8-16-12.2-20.9c0.9-1.8,1.7-3.2,2.5-4.6c15.1-26.5,20.7-54.9,16.8-85.2C321.4,86,250.8,32.7,175.7,44.3
		C99.6,56,48.5,127.6,62,203.6c13.4,75.7,88.7,125.8,163.5,108.6c4.2-1,7.8-1.1,11.8,1.1c3,1.6,6.7,2.2,10.1,2.2c17,0.2,34,0.4,51,0
		c13.6-0.3,23.1-9.1,25.3-22.5c0.2-1.3,0.5-2.5,0.6-3.4c27-6.3,44-21.9,49.8-49c0.4-1.7,2.2-3.6,3.8-4.5c8.9-5,13.9-12.3,14-22.6
		C392.1,190.5,392.1,167.5,391.9,144.5z M34.1,179.2c0,11.2,0,22.3,0,33.5c0,3.8-1.5,7.3-5.2,8.3c-2.7,0.7-6.4,0.4-8.7-1.1
		c-1.9-1.2-3.3-4.7-3.3-7.2c-0.2-22.3-0.2-44.6-0.1-66.9c0-5.6,3.5-9.2,8.3-9.3c5.1-0.1,8.9,3.6,9,9.3
		C34.2,156.9,34.1,168.1,34.1,179.2z M221.5,275.3c-0.1,6.7,0,13.3,0,20.7c-20.4,4.7-40.7,3.8-60.8-2.5c-51.2-16-86.2-65.3-84.4-117
		c1.9-55.3,40.4-102.3,94.5-114.2c67-14.8,133.8,31.6,143.5,99.5c4.2,29.4-1.7,56.6-17.4,81.7c-1.8,2.8-3.7,4.1-7.2,4
		c-13.3-0.2-26.7-0.1-40-0.1C232.4,247.4,221.8,257.9,221.5,275.3z M307.1,289.5c-0.1,5.6-3.4,9.2-9,9.3c-16.8,0.2-33.7,0.2-50.5,0
		c-5.6-0.1-8.7-3.6-8.8-9.4c-0.1-5.3-0.1-10.7,0-16c0.1-5.6,3.1-8.7,8.6-8.8c8.7-0.1,17.3,0,26,0v0c8.2,0,16.3,0,24.5,0
		c5.8,0,9,3,9.1,8.9C307.2,278.9,307.2,284.2,307.1,289.5z M375.3,211.8c0,6.3-3.3,10.1-8.5,10.2c-5.3,0.1-8.9-3.9-8.9-10.4
		c0-21.6,0-43.3,0-64.9c0-6.4,3.7-10.4,9.1-10.2c5.2,0.2,8.2,4,8.3,10.4c0,4.9,0,9.8,0,14.8c0,5.9,0,11.8,0,17.7v10.2
		C375.3,196.9,375.3,204.3,375.3,211.8z"/>
	<path class="st0" d="M383.6,438.7c0-6.8,0-13.7-1-20.4c-7.4-49.8-48.3-85.1-98.6-85.2c-58.6-0.1-117.3-0.1-175.9,0.1
		c-7.1,0-14.3,0.7-21.3,2.1c-41.8,8.2-75.2,45.4-77.5,88c-1.4,25.2-0.5,50.6-0.9,75.9c-0.1,5.4,1.1,9.7,5.7,12.8h364
		c4.6-3.1,5.8-7.5,5.7-12.8C383.5,479,383.7,458.8,383.6,438.7z M367,489.9c0,1.5-0.2,2.9-0.2,4.9h-42.8v-14.6c0-11.7,0-23.3,0-35
		c0-6-3.4-9.8-8.3-9.9c-4.9,0-8.4,3.8-8.4,9.8c0,14.7,0,29.3,0,44v5.7H93.4v-7.1c0-14.5,0-29-0.1-43.5c0-4.5-2.2-7.7-6.8-8.6
		c-3.9-0.8-7,0.8-8.7,4.3c-0.9,1.8-1,4.2-1,6.3c-0.1,14.3,0,28.7-0.1,43c0,1.8-0.2,3.6-0.2,5.6H25.3c-0.1-1.9-0.2-3.6-0.2-5.4
		c0-18.8-0.1-37.7,0-56.5c0.2-46.9,36.2-83,83-83.2c58.6-0.2,117.3-0.2,176,0c46.8,0.1,82.7,36.2,83,83.1
		C367.1,451.9,367,470.9,367,489.9z"/>
</g>
</svg>
