<?xml version="1.0" encoding="utf-8"?>
<!-- Generator: Adobe Illustrator 25.4.1, SVG Export Plug-In . SVG Version: 6.00 Build 0)  -->
<svg version="1.1" id="Layer_1" xmlns="http://www.w3.org/2000/svg" xmlns:xlink="http://www.w3.org/1999/xlink" x="0px" y="0px"
	 viewBox="0 0 385.3 367.5" style="enable-background:new 0 0 385.3 367.5;" xml:space="preserve">
<style type="text/css">
	.st0{fill:#004643;stroke:#004643;stroke-width:2;stroke-miterlimit:10;}
	.st1{fill:#F9BC60;}
</style>
<g>
	<path class="st0" d="M383.4,145.2c-3.1-8.7-10-13.9-19.2-13.8c-3.5,0.1-4.5-1.3-5.4-4.4C334.8,38.8,242-16.3,153.3,5.9
		C89.1,22,47,62.7,26.9,125.9c-1.3,4-2.5,5.7-7.1,5.7C9.5,131.5,1.2,140.3,1.1,151c-0.1,11.9-0.1,23.7,0,35.6
		c0.1,10.9,8.1,19.2,18.9,19.7c2.5,0.1,3.3,1,3.8,3.3c3.1,14.7,7.9,28.9,14.9,42.1c27.6,51.8,70.5,82.7,128.3,92.8
		c2,0.4,2.9,0.8,3.3,3c2.1,11.8,12.2,19.6,23.8,18.8c10.8-0.6,20-9.4,21-19.9c1.1-11.8-6-22.2-17-24.8c-11.3-2.7-22.6,3.2-26.7,14.4
		c-0.9,2.5-2,2.9-4.3,2.5c-63.7-12.2-107.6-48.2-131.2-108.6c-3-7.6-4.7-15.6-7.1-23.6c12.6-3.9,16.7-12.5,16.3-24.3
		c-0.3-9-0.3-18,0-26.9c0.3-10.5-3.3-18.5-13.3-22.7C44.7,72.1,105.4,7,193.3,7.3c88.7,0.3,147.9,66.6,160.3,125
		c-8.3,3.6-13,9.8-13.2,19c-0.2,11.7-0.2,23.5,0,35.2c0.2,9.8,6.3,17.7,15.6,19.3c11.3,2,20.1,0.1,25.9-9.9c1-1.7,1.6-3.6,2.4-5.4
		v-43.4C384,146.5,383.7,145.9,383.4,145.2z M193,327c9.1,0.1,16.4,7.8,16.3,17c-0.1,9.2-7.5,16.5-16.7,16.5
		c-9.4-0.1-16.7-7.6-16.5-17.1C176.2,334.2,183.8,326.9,193,327z M39,151.8c0.1,11.3,0.1,22.7,0,34c-0.1,9-5.9,14.5-14.9,14.6
		c-12,0.2-17.1-4.9-17.1-16.9v-14.9c0-5.6,0-11.2,0-16.8c0.1-8.6,5.8-14.3,14.3-14.4c2.4,0,4.8-0.1,7.1,0.4
		C34.7,139.1,39,144.6,39,151.8z M378.3,186.2c-0.1,8.3-5.8,14.1-14.1,14.2c-2.9,0-6-0.1-8.8-0.9c-5.5-1.7-9-7-9-13.3
		c-0.1-11.5,0-22.9,0-34.4c0-7.4,5.5-15,16.3-14.5c10.5,0.5,15.7,5.4,15.8,16c0,3.1,0,6.2,0,9.3v6.4
		C378.3,174.7,378.4,180.4,378.3,186.2z"/>
	<path class="st0" d="M305.4,270.6c-5.1-14.7-9.1-29.8-13.3-44.7c-0.7-2.5-0.6-5.8,0.4-8.2c8.5-21,10.8-42.5,6.6-64.9
		c-11-58.5-68.2-99.4-126.9-90.8c-54.6,8-95.2,53.7-97.3,109.1c0.6,6.9,0.8,14,1.9,20.8c11.5,73.2,90.8,115.6,158.2,84.7
		c3.5-1.6,6.6-2,10.4-1c15.1,3.7,30.4,6.8,45.4,10.8C301.8,289.2,308.7,279.9,305.4,270.6z M291.5,280.3
		c-15.2-3.9-30.6-7.1-45.8-10.9c-4.4-1.1-8.2-0.6-12.3,1.2c-64.9,29.7-139.3-10.6-149.9-81.1C74.8,131.1,115.5,76.5,174.3,68
		c4.8-0.7,9.7-0.8,14.5-1.2c51.6,0.2,97.4,39.8,105.1,90.7c3,20.1,0.7,39.5-7.2,58.2c-1.6,3.9-1.8,7.6-0.5,11.6
		c4.5,14.8,8.5,29.7,13.3,44.4C301.6,278,298.8,282.2,291.5,280.3z"/>
	<path class="st0" d="M299.5,271.7c-4.8-14.7-8.8-29.6-13.3-44.4c-1.2-4-1.1-7.7,0.5-11.6c7.9-18.7,10.2-38,7.2-58.2
		c-7.7-50.9-53.5-90.5-105.1-90.7c-4.8,0.4-9.7,0.5-14.5,1.2c-58.8,8.5-99.5,63.1-90.7,121.6c10.6,70.5,85,110.8,149.9,81.1
		c4.1-1.9,7.9-2.3,12.3-1.2c15.2,3.7,30.6,7,45.8,10.9C298.8,282.2,301.6,278,299.5,271.7z M124.3,184.7c-8.4,0-14.9-6.6-14.9-14.9
		c0-8.3,6.7-15,14.9-15c8.1,0,15,6.8,15,15C139.4,178,132.6,184.8,124.3,184.7z M190.5,184.7c-8.4,0.1-15.1-6.4-15.1-14.7
		c-0.1-8.3,6.4-15,14.7-15.2c8.2-0.2,15.3,6.8,15.2,15.2C205.3,178.1,198.6,184.7,190.5,184.7z M256.3,184.7c-8.4,0-15-6.6-15-14.9
		c0-8.2,6.7-15,14.9-15c8.1,0,15,6.8,15,15C271.3,178,264.6,184.7,256.3,184.7z"/>
	<path class="st1" d="M378.3,186.2c-0.1,8.3-5.8,14.1-14.1,14.2c-2.9,0-6-0.1-8.8-0.9c-5.5-1.7-9-7-9-13.3c-0.1-11.5,0-22.9,0-34.4
		c0-7.4,5.5-15,16.3-14.5c10.5,0.5,15.7,5.4,15.8,16c0,3.1,0,6.2,0,9.3v6.4C378.3,174.7,378.4,180.4,378.3,186.2z"/>
	<path class="st1" d="M39,185.8c-0.1,9-5.9,14.5-14.9,14.6c-12,0.2-17.1-4.9-17.1-16.9v-14.9c0-5.6,0-11.2,0-16.8
		c0.1-8.6,5.8-14.3,14.3-14.4c2.4,0,4.8-0.1,7.1,0.4c6.3,1.4,10.5,6.9,10.6,14C39.1,163.1,39.2,174.4,39,185.8z"/>
	<path class="st1" d="M209.3,344c-0.1,9.2-7.5,16.5-16.7,16.5c-9.4-0.1-16.7-7.6-16.5-17.1c0.2-9.1,7.7-16.5,16.9-16.3
		C202,327.1,209.4,334.8,209.3,344z"/>
	<path class="st1" d="M190.1,154.8c-8.3,0.2-14.8,6.9-14.7,15.2c0.1,8.3,6.7,14.7,15.1,14.7c8.1-0.1,14.7-6.7,14.8-14.7
		C205.4,161.7,198.3,154.6,190.1,154.8z M190.2,178.7c-5-0.1-8.9-4.1-8.8-9.2c0.1-4.8,4.1-8.8,8.9-8.8c4.9,0,9.1,4.2,9,9.1
		C199.3,174.8,195.2,178.8,190.2,178.7z"/>
	<path class="st1" d="M256.2,154.8c-8.2,0-14.9,6.8-14.9,15c0,8.3,6.6,14.9,15,14.9c8.3,0,15-6.7,14.9-14.9
		C271.2,161.6,264.4,154.8,256.2,154.8z M256.3,178.7c-5.1,0-9-3.9-9-8.9c0-4.8,3.9-8.8,8.7-9c4.9-0.2,9.1,3.9,9.2,8.8
		C265.4,174.7,261.4,178.7,256.3,178.7z"/>
	<path class="st1" d="M124.4,154.8c-8.2,0-14.9,6.7-14.9,15c0,8.3,6.5,14.9,14.9,14.9c8.3,0,15.1-6.7,15-14.9
		C139.3,161.7,132.5,154.8,124.4,154.8z M124.4,178.7c-5.1,0.1-9-3.8-9-8.9c0-4.9,3.8-8.8,8.6-9c4.9-0.2,9.1,3.9,9.3,8.8
		C133.5,174.5,129.4,178.7,124.4,178.7z"/>
	<path class="st1" d="M199.3,169.9c0,4.9-4.1,8.9-9.2,8.8c-5-0.1-8.9-4.1-8.8-9.2c0.1-4.8,4.1-8.8,8.9-8.8
		C195.2,160.8,199.3,165,199.3,169.9z"/>
	<path class="st1" d="M265.3,169.7c0.1,5-3.9,9-8.9,9.1c-5.1,0-9-3.9-9-8.9c0-4.8,3.9-8.8,8.7-9
		C260.9,160.7,265.1,164.7,265.3,169.7z"/>
	<path class="st1" d="M133.4,169.7c0.2,4.9-3.9,9-8.9,9.1c-5.1,0.1-9-3.8-9-8.9c0-4.9,3.8-8.8,8.6-9
		C128.9,160.7,133.2,164.7,133.4,169.7z"/>
</g>
</svg>
