<?xml version="1.0" encoding="utf-8"?>
<!-- Generator: Adobe Illustrator 25.4.1, SVG Export Plug-In . SVG Version: 6.00 Build 0)  -->
<svg version="1.1" id="Layer_1" xmlns="http://www.w3.org/2000/svg" xmlns:xlink="http://www.w3.org/1999/xlink" x="0px" y="0px"
	 viewBox="0 0 918 551.23" style="enable-background:new 0 0 918 551.23;" xml:space="preserve">
<style type="text/css">
	.st0{fill:#004643;}
</style>
<path class="st0" d="M449,0.18c-161.5,5.13-209.5,120.5-220.5,183c14.33-23.17,59.5-74,126-74c77.5,0,136.5,86.5,172.5,113.5
	c43.74,32.8,131.62,76.12,247,41c92-28,134.67-125.67,144-172c-44.5,60.5-112,96.84-195.5,54C665,116.18,622-5.32,449,0.18z"/>
<path class="st0" d="M220.5,274.68C59,279.81,11,395.18,0,457.68c14.33-23.17,59.5-74,126-74c77.5,0,136.5,86.5,172.5,113.5
	c43.74,32.8,131.62,76.11,247,41c92-28,134.67-125.67,144-172c-44.5,60.5-112,96.84-195.5,54
	C436.5,390.68,393.5,269.18,220.5,274.68z"/>
</svg>
