<?xml version="1.0" encoding="utf-8"?>
<!-- Generator: Adobe Illustrator 25.4.1, SVG Export Plug-In . SVG Version: 6.00 Build 0)  -->
<svg version="1.1" id="Layer_1" xmlns="http://www.w3.org/2000/svg" xmlns:xlink="http://www.w3.org/1999/xlink" x="0px" y="0px"
	 viewBox="0 0 133.7 154.9" style="enable-background:new 0 0 133.7 154.9;" xml:space="preserve">
<style type="text/css">
	.st0{fill:#014643;}
</style>
<g>
	<path class="st0" d="M121.5,90.4c-0.4-0.1-0.7-0.2-1.1-0.3c1.1-6.1-2.5-12.2-10.2-13.7c3.1-7.8-2-16-11.7-15.9
		c0.3-0.5,0.5-1,0.7-1.5c6.4-13.2,12.9-26.3,19.2-39.5c1-2,1.8-4.2,2.2-6.4c1.2-6.5-4.1-11.7-10.6-10.5c-3.1,0.6-5.7,2.2-7.6,4.7
		c-1.6,2.1-3.1,4.4-4.5,6.6C87.6,30.5,77.3,47.2,67,63.9c-0.2,0.3-0.4,0.6-0.7,1c-0.2-0.5-0.3-0.8-0.4-1.1c-1-3.9-2-7.9-3-11.9
		c-1.5-6.1-3.7-11.9-7.5-17c-2.1-2.8-4.6-5.3-8.1-6.3c-6-1.8-12.1,1-12.3,8.3c-0.1,2,0.2,4,0.6,6c0.6,2.8,1.9,5.5,2.2,8.3
		c0.7,7.7,1.1,15.4,1.5,23.1c0.2,3.8,0.3,7.7-0.1,11.5c-0.9,9.2-2.1,18.3-3.2,27.5c-0.3,2.2-0.5,4.4-0.8,6.8c-2-1.1-3.8-2-5.7-3
		c-2.2-1.2-3.2-0.9-4.4,1.3c-6.1,10.6-12.2,21.1-18.3,31.7c-0.2,0.3-0.4,0.6-0.5,0.9c-0.5,1.2-0.1,2.5,1,3.1
		c1.2,0.6,2.3,0.4,3.1-0.7c0.3-0.4,0.5-0.8,0.8-1.3c5.5-9.5,11-19,16.5-28.5c0.3-0.5,0.6-0.9,0.9-1.5c0.5,0.3,1,0.5,1.4,0.7
		c19.4,10.5,38.9,20.9,58.3,31.4c0.4,0.2,0.7,0.5,1.1,0.7h1.8c1.1-0.8,2.1-1.9,1.3-3.3c-0.6-1.1-1.9-1.8-3-2.7c0,0.1,0,0,0,0
		c1-0.9,1.9-1.8,2.9-2.6c8.4-7.1,14.7-15.6,18.3-26c0.2-0.6,0.7-1.1,1.1-1.6c4.7-5.3,9.7-10.4,14.1-16
		C129.6,98.2,127.2,92,121.5,90.4z M111.1,81.6c2.7,0.9,4.7,3.4,4.9,6.2c-0.6,1.3-1,2.8-1.9,3.8c-8.3,9.3-16.8,18.5-25.2,27.8
		c-1.2,1.4-2.8,2-4.6,1.4c-2.2-0.8-3.1-2.6-2.2-4.8c0.5-1.1,1.1-2.1,1.8-3.1c7-9.7,14.1-19.3,21.1-28.9
		C106.9,81.5,108.7,80.8,111.1,81.6z M99.8,65.4c2.4,0.1,4.5,1.1,5.7,3.5c1.2,2.3,1,4.6-0.6,6.7C97.5,86,90,96.3,82.4,106.7
		c-2,2.7-4,3.2-6.3,2c-1.8-1-2.4-2.1-2-4.1c0.3-1.2,0.8-2.3,1.3-3.3C81.7,90.3,88,79.4,94.3,68.5C95.5,66.4,97.2,65.4,99.8,65.4z
		 M98.5,133c-4.2,4.6-8.9,8.9-13.4,13.3c-0.3,0.3-1.2,0.2-1.7-0.1c-8.3-4.4-16.5-8.9-24.7-13.3c-5.7-3.1-11.3-6.2-17-9.2
		c-1.4-0.8-1.9-1.6-1.7-3.2c0.9-7,1.5-14.1,2.6-21.2c1.9-12.3,2-24.6,1.2-37c-0.3-4.5-0.8-8.9-1.4-13.4c-0.3-2.2-1.3-4.3-1.8-6.5
		c-0.4-1.8-0.7-3.6-0.6-5.4c0.1-3.4,2.4-4.9,5.7-4c2.4,0.6,4.1,2.3,5.6,4.2c3.3,4.2,5.3,9.1,6.7,14.3c2.4,9.6,4.8,19.1,7.2,28.7
		c0.1,0.2,0.1,0.5,0.2,0.7c0.5,1.4,1.6,2.1,2.8,1.9c1.3-0.3,2.1-1.5,1.8-3c-0.5-2.2-1.1-4.4-1.5-6.6c-0.1-0.8-0.1-1.9,0.3-2.5
		c4.2-6.7,8.5-13.4,12.6-20.1c6.7-10.9,13.2-21.8,19.8-32.7c1.3-2.2,2.7-4.3,4-6.4c1.3-2,3-3.3,5.3-4.1c3.2-1,6,1.3,5.4,4.7
		c-0.3,1.6-0.8,3.2-1.5,4.7C106.4,33,98.8,49.2,90.5,65.1c-5.8,11.3-12.6,22-18.9,33.1c-1,1.7-1.8,3.5-2.3,5.4
		c-1.1,4.7,1.7,8.9,6.5,10.2c0.5,0.1,1.1,0.3,1.6,0.4c-1.5,6,1.1,10.5,6.7,11.6c3.2,0.6,6-0.5,8.2-2.8c1.6-1.7,3.1-3.4,4.8-5.3
		c1.6,2.9,3.9,4.7,7.4,4.7C103,126.2,101.2,130,98.5,133z M122.1,99.8c-1,1.5-2.1,2.9-3.3,4.3c-3.2,3.5-6.4,7.1-9.8,10.5
		c-1.1,1.1-2.6,2-4,2.5c-1.8,0.7-3.4-0.7-3.3-3.4c0.3-0.6,0.9-1.9,1.7-2.8c4.2-4.7,8.5-9.4,12.8-14.1c0.6-0.6,1.4-1.2,2.2-1.6
		c1.4-0.5,2.7-0.2,3.7,1C122.9,97.3,122.9,98.6,122.1,99.8z"/>
	<path class="st0" d="M58.6,25.8c-1,0.9-2.5,0.9-3.5-0.2c-3.9-4.2-7.8-8.4-11.6-12.7c-0.5-0.6-0.7-1.9-0.4-2.7
		C43.3,9.4,44.3,9,45,8.4c0.8,0.5,1.6,0.7,2,1.2c3.9,4.2,7.8,8.4,11.6,12.7C59.7,23.4,59.6,24.9,58.6,25.8z"/>
	<path class="st0" d="M90.4,11.7c-0.1,0.5-0.5,1-0.8,1.4c-3.7,4.1-7.4,8.2-11.2,12.2c-0.5,0.6-1.3,0.9-2.1,1.5
		c-0.8-0.6-1.8-1.1-2-1.7c-0.3-0.8-0.1-1.9,0.3-2.6c0.9-1.4,2.2-2.5,3.3-3.7c2.7-3,5.5-6,8.2-9C87,8.7,88,8.4,89.2,9
		C90.3,9.6,90.7,10.5,90.4,11.7z"/>
	<path class="st0" d="M69.1,11c0,2.7,0,5.3,0,8c0,1.8-0.9,2.8-2.4,2.8c-1.5,0-2.4-1-2.4-2.9c0-5.4,0-10.8,0-16.2
		c0-1.8,1-2.9,2.4-2.9c1.4,0,2.4,1.1,2.4,2.9C69.1,5.6,69.1,8.3,69.1,11z"/>
</g>
</svg>
