<?xml version="1.0" encoding="utf-8"?>
<!-- Generator: Adobe Illustrator 25.4.1, SVG Export Plug-In . SVG Version: 6.00 Build 0)  -->
<svg version="1.1" id="Layer_1" xmlns="http://www.w3.org/2000/svg" xmlns:xlink="http://www.w3.org/1999/xlink" x="0px" y="0px"
	 viewBox="0 0 87.9 67.6" style="enable-background:new 0 0 87.9 67.6;" xml:space="preserve">
<style type="text/css">
	.st0{fill-rule:evenodd;clip-rule:evenodd;fill:#fff;}
</style>
<path class="st0" d="M43.9,40.3c-6.6,0-12-5.2-12.5-11.7c1.4,0.3,2.8,0.6,4.2,0.8c0.7,3.9,4.2,6.9,8.3,6.9c0.9,0,1.7-0.1,2.5-0.4
	l-0.3-5.5l4.2,3c0.9-1.1,1.6-2.4,1.9-3.9c1.4-0.2,2.8-0.5,4.2-0.8C56,35.1,50.6,40.3,43.9,40.3z M60.5,23.3L60.5,23.3
	c-0.2,0.1-0.4,0.1-0.6,0.2c-1.3,0.4-2.6,0.8-3.9,1.1c-1.3,0.3-2.7,0.6-4,0.8c-2.6,0.4-5.3,0.6-8.1,0.6c-2.7,0-5.4-0.2-8.1-0.6
	c-1.4-0.2-2.7-0.5-4-0.8c-1.3-0.3-2.6-0.7-3.9-1.1c-0.2-0.1-0.4-0.1-0.6-0.2h0c0,0,0,4.4,0,4.5c0,9.1,7.4,16.6,16.6,16.6
	c9.1,0,16.6-7.4,16.6-16.5V23.3z"/>
<path class="st0" d="M71.8,48.2l-8.1-5.7l0.6,11.6c-5.9,3.6-12.9,5.7-20.3,5.7c-7.4,0-14.4-2.1-20.3-5.7l0.6-11.6l-8.2,5.7
	c-2.8-2.8-5.2-6.1-7-9.7c0.4-1.8,1-3.5,1.7-5.2c0.7-1.6,1.4-3.1,2.3-4.5c-0.7-1.5-1.3-3.2-1.7-4.8c-0.7-2.8-1.2-5.7-1.2-8.7
	c0-1.6,0.1-3.2,0.3-4.8l11.7,8.1c1.2-0.9,2.4-1.7,3.6-2.4c5.3-3.1,11.5-4.8,18-4.8c6.6,0,12.7,1.8,18,4.8c1.3,0.7,2.5,1.5,3.6,2.4
	l11.7-8.1c0.2,1.6,0.3,3.1,0.3,4.8c0,3-0.4,6-1.2,8.7c-0.4,1.7-1,3.3-1.7,4.8c0.9,1.4,1.6,3,2.3,4.5c0.7,1.7,1.3,3.4,1.7,5.2
	C77,42.1,74.6,45.4,71.8,48.2z M81.2,32.7c-0.6-1.4-1.2-2.9-1.9-4.2c1.6-4.1,2.4-8.6,2.4-13.3c0-2.5-0.2-4.9-0.7-7.2
	c0,0,0-0.1,0-0.1c-0.3-1.4-0.6-2.8-1.1-4.2l-14.3,10c-6.2-4-13.7-6.4-21.7-6.4c-8,0-15.4,2.3-21.7,6.4L8,3.7
	C7.6,5.1,7.2,6.5,6.9,7.9c0,0,0,0.1,0,0.1c-0.5,2.3-0.7,4.8-0.7,7.2c0,4.7,0.9,9.1,2.4,13.3c-0.7,1.4-1.4,2.8-1.9,4.2
	c-0.8,2-1.4,4.1-1.9,6.3c1,2,2.1,4,3.3,5.8c1.4,2,2.9,4,4.6,5.7c1,1,2,2,3,2.9l4-2.8l-0.3,5.6c1.3,0.9,2.6,1.7,3.9,2.4
	c6.1,3.3,13.1,5.2,20.6,5.2c7.5,0,14.5-1.9,20.6-5.2c1.4-0.7,2.7-1.5,3.9-2.4l-0.3-5.6l4,2.8c1-0.9,2.1-1.9,3-2.9
	c1.7-1.8,3.3-3.7,4.6-5.7C81,43,82.1,41,83.1,39C82.6,36.8,82,34.7,81.2,32.7z"/>
</svg>
