<?xml version="1.0" encoding="utf-8"?>
<!-- Generator: Adobe Illustrator 25.4.1, SVG Export Plug-In . SVG Version: 6.00 Build 0)  -->
<svg version="1.1" id="Layer_1" xmlns="http://www.w3.org/2000/svg" xmlns:xlink="http://www.w3.org/1999/xlink" x="0px" y="0px"
	 viewBox="0 0 2605.9 2123.8" style="enable-background:new 0 0 2605.9 2123.8;" xml:space="preserve">
<style type="text/css">
	.st0{display:none;fill:#F2F7F5;}
	.st1{fill:#001E1D;}
	.st2{fill:#F7F4F0;}
	.st3{fill:#C5DDD3;}
	.st4{fill:#004643;}
	.st5{fill:#D9E8E1;}
	.st6{fill:#FEFEFE;}
	.st7{fill:#B6B9FF;}
	.st8{fill:#F9BC60;}
	.st9{fill:#FFFFFF;}
	.st10{fill:#E1D7BC;}
	.st11{fill:#5C6D6B;}
	.st12{fill:#2B2A2A;}
	.st13{fill:#7FAFAF;}
	.st14{fill:#4D5757;}
	.st15{fill:#E5D9BD;}
	.st16{fill:#FCFDFD;}
	.st17{fill:#FBF8F3;}
	.st18{fill:#F9F4ED;}
	.st19{fill:#FAF5EF;}
	.st20{fill:#FCF9F5;}
	.st21{fill:#A3A4A4;}
	.st22{fill:#676565;}
	.st23{fill:#CFD5D5;}
	.st24{fill:#636868;}
	.st25{fill:#272727;}
	.st26{fill:#675252;}
</style>
<g>
	<path class="st0" d="M323.8,527.7c1.7,6.6,2.7,7.1,7.1,3.8c2.8-2.2,4.6-5.8,8.9-5.8c1.6,1.6,1.7,3.7,1.2,5.6
		c-6.1,23.4,4.6,40.9,20.6,55.9c20.6,19.4,45.7,29.2,73.8,31.9c17.5,1.7,35.2,2.7,52.1,8.6c6.5,2.2,12.9,4.9,14,12.6
		c1.2,8.3-4.7,12.7-10.8,16.4c-45.3,27.4-90.5,55-136.1,82.1c-14.2,8.4-21.6,16.8-19.7,35.6c1.8,18.5-0.2,37.8-0.4,56.8
		c-0.2,23,0.1,45.9-0.1,68.9c-0.1,8,1.2,15.9,2,23.8c0.8,8.7,6.1,13.5,13.1,17.6c35.1,20.5,70.2,41,104.9,62.1
		c14.5,8.8,28.9,17.9,43.2,27c25,15.9,51.7,22.4,81.1,15.6c13.2-3.1,23.8-10.2,31.7-21.1c6-8.2,6-15.8,0.7-22.4
		c-4.2-3.1-3-6.9-1.3-10.7c6.9-15.4,16-29.7,23.6-44.8c1.4-2.7,3.4-4.9,6.9-4.8c7.3,3.6,6.5,10.5,6,16.5
		c-1.7,18.2-3.7,36.4-4.6,54.7c-1.3,24.9-5,49.6-2,74.7c2.2,18.6,12.1,31.4,27.6,40.4c30.2,17.6,60.8,34.6,91.3,51.8
		c25.6,14.3,51.4,28.3,76.6,43.2c13.2,7.8,24.3,8.4,37.9,0.2c51.5-30.8,103-61.4,154.8-91.7c12.2-7.1,17.7-18.1,17.2-31.7
		c-1.2-31.2-2.9-62.5-9-93.2c-1-4.9,0.5-10.7-4.8-15.1c-4.6,7-4.6,14.3-4.6,21.5c-0.1,27-0.4,54,0.1,80.9c0.2,11.7-4.1,19.2-14.3,25
		c-45.2,25.6-89.8,52.3-134.9,78.2c-2,1.2-4,2.3-6.3,3.1c-4.8,1.6-7.1-0.2-6.9-5.1c1.5-29.3-2.5-58.4-3.2-87.6
		c-0.2-9.6-1.5-19.2-2.6-28.8c-0.9-8,2-12.1,8.6-15.9c52.8-30.5,105.6-61,158.2-91.7c1.2-0.7-0.3,0.2,0.9-0.5
		c9.5-5.6,18.8-12.1,18-24.3c-0.8-12.9-10.1-20.5-21.2-25.7c-8.4-3.9-17.4-4.1-26.5-3.5c-18.1,1.2-35.9-0.3-53.4-5.4
		c-14.9-4.4-27-12.6-37.1-24.2c-16.2-18.5-12.9-45.3,7.3-59.4c12-8.4,25.4-13.7,39.8-15.1c32-3.1,63.9-2.6,94.7,8.6
		c21,7.6,34.8,20.9,37.3,44.6c2.4,22,14.1,31.1,36.2,31.9c27.8,1.1,52.3-9.3,76.1-21.4c34.4-17.6,66.9-38.6,98.6-60.8
		c2.7-1.9,5.4-3.9,9-4c7.1,2.6,7.8,9,9.5,15.1c0.5,1.9-5.5,1.9-0.8,3.4c16.3,4.9,30.2,15.4,46.7,19.8c3.3,3.4,4.1,7.6,3.9,12
		c-0.6,12.4,0.9,24.6,2.5,36.8c1,7.8-1.8,12.4-7.8,16.7c-36.7,26.5-73.8,52.5-112.2,76.5c-24.1,15-48.9,28.4-75.1,39.4
		c-12.7,5.3-26.1,8.2-39.7,9.2c-17.2,1.3-31-5.8-41.7-19.3c-1.5-1.9-2.8-5.5-5.9-4.4c-3.8,1.3-3.9,5.3-3.4,8.6
		c1.5,12,7.7,21.1,17.8,27.5c16.6,10.5,34.7,11.2,53.1,7.3c27.7-5.9,52.4-19.2,76.6-33.3c45-26.1,87.5-55.9,129.4-86.6
		c17.9-13.1,17.8-13.3,37-1.9c3.2,1.9,6.3,3.8,8.4,6.9c4.7,8,11.2,14.6,16.8,22c3.2,4.2,6.5,8.4,6.4,14.1
		c0.9,47.2-0.5,94.3,0.3,141.5c0.2,12.6,0.8,25.3,2.4,37.8c2.6,21.3,17.6,34.6,34.6,45.2c20.7,12.9,44.1,17,68.1,15.5
		c22-1.3,43.5-5.8,64.2-14c26.2-10.4,43.8-27,45.7-57c0.7-10.7,7.7-18.2,17.5-22.5c19.4-8.6,38.4-5.8,56.9,2.8
		c17.5,8.1,34.4,17.5,51.3,26.9c35.4,19.9,70.5,40.4,104.9,62c18.1,11.4,34.7,12,53,0.5c17.5-11,35.9-20.4,50.5-35
		c-16.3-2.3-29.3,7.3-43.4,13.1c-7.1,2.9-13.9,6.5-21.2,8.9c-6.7,2.2-8.9,0-7.3-6.7c6-26.3,3.1-53,2.1-79.5
		c-0.5-13.6-0.7-27.2-0.9-40.9c-0.1-6.3,3.1-10.5,8.6-13.5c44.9-24.7,89.6-49.9,134.6-74.4c2.9-1.6,5.8-3.4,9.3-3
		c3.1,1,7.6,1.8,6.3,6c-1.6,5.4-8.1,3.3-12.7,6.2c17.9,1.5,34.7-1.8,51.7-2.6c14.2-0.6,28.5-3.9,42.1,3.1c2.7,1.4,5,0.8,7-1.7
		c4.9-6,10.5-5.1,15.6-0.6c4.1,3.6,7.8,2.7,11.8,0.4c4.1-0.1,5.6,3.3,7.2,6.1c18.7,32.5,49.3,44.4,84.3,47.3
		c14.5,1.2,29.2,1.2,43.9-0.9c19.2-2.7,36.8-9,52.5-20.4c2.1-1.5,4.4-3.5,7.2-2.2c3.1,1.4,2.4,4.5,2.2,7
		c-3.5,34.1-5.1,68.3-4.6,102.6c0.1,7.8-3.9,14.2-9.2,19.4c-16.6,16.2-35.9,26.3-59.7,26.1c-20.3-0.2-40.5,1-60.4-5.5
		c-18.5-6.1-32.9-17.3-40.7-34.6c-21.5-47.9-80.7-56.2-120.6-33.2c-20,11.5-37.5,26.5-55.2,41.2c-2,1.7-5.1,3.9-3.5,6.4
		c1.9,3.2,5.5,1.2,8.1,0c20.1-8.9,39-20.2,58.2-31c20-11.2,41-13.1,62.7-6.1c13.4,4.3,23.5,13.7,29.2,25.8
		c19.8,41.9,55.2,56.3,98.4,57.4c19.3,0.5,38.5,0.8,57.3-6c19.1-6.9,34.8-18.2,47.6-33.4c7.6-9,10.4-19.9,10.4-31.6
		c0-29-0.1-57.9,0.1-86.9c0-4.5-1.1-9.4,2.8-13.2c1,0.9,1.9,2,1.8,3.4c-0.6,5.9,2.7,8.4,7.9,9.5c3.3,0.7,5.7,2.3,7.1,6
		c1.4,3.8,5.2,5.9,8.6,8c2.1,1.3,5.5,3.5,3.5,6.2c-3.5,4.9-0.2,6.2,3.1,8.1c14.9,8.7,29.5,17.9,44.8,26c13.3,7,25.5,15.6,37.5,24.5
		c3.1,2.3,6.4,4.7,6.7,10.2c0.2,3.9,4.7,7.6,7.4,11.3c1.2,1.6,2.8,2.9,4.2,4.3c4.5,4.4,8.7,9.1,14.2,12.4c5.6,3.4,3.4,10.8,7.7,15.2
		c3.9,4,6.4,9,11.4,12.2c5.8,3.8,10.2,9.4,12.1,16.5c-4.2,4.8-4.3,7,0.5,9.6c2.7,1.5,5.3,2.5,6.7,5.5c-0.7,2.7-2.6,1-3.9,0.9
		c-3.9-0.2-5.4,1.6-5.3,5.3c0,3.3,0.9,6.5,1.3,9.8c0.7,5.6,3.4,11.9-2.8,16.6c-1.3,1-1.1,2.2-0.2,3.4c7.1,8.4,11.5,18.6,18,27.4
		c0.6,0.8,1.2,1.6,1.9,2.2c2.6,2,5,0.7,5.7-2.5c0.5-2.4-2.1-4.2-0.6-7.1c3.6,2.8,5,7.5,4,10.3c-2.5,7.3,0.9,13.7,1.6,20.4
		c2.3,20.7,4.8,41.3,1.6,62.2c-1.3,8.4-1.7,17.1-2.5,25.6c-1.1,10.8-1.8,21.6-4.5,32.4c-2.8-1.9-0.3-5.5-3.5-7.5
		c-2.8,2.4-3.2,6-4,9.3c-6.2,25.3-11.5,50.9-16.1,76.5c-0.3,1.4-0.9,2.5-1.9,3.3v0c0-4.1,0-8.2,0-12.8c-4.6,1.4-4.2,4.7-5,7
		c-12.2,36.3-27,71.5-44.9,105.3c-6.5,12.3-13.8,24.2-20.8,36.3c-1.3,2.2-2.2,5-5.1,5.8c-13.2,3.7-20.7,13.8-27.5,24.6
		c-5.5,8.8-12.2,16.6-18.7,24.4c-4.6,5.6-10.9,9.7-17.4,13c-3.3,1.7-5.8,3.3-6.9,7.6c-1.6,6.1-6.1,11-11.1,14.9
		c-2.9,2.3-6.1,4-8.6,6.8c-1.6,1.8-3.4,2.3-6.2,1.9c-6.4-0.9-12,1-17.2,5.3c-12.3,10.1-24.8,21.6-40.9,23.5
		c-15.2,1.8-27.9,9.8-42.3,12.7c-8.4,1.7-16.9,3-24.2,8.5c-3.1,2.4-7.7,1.2-11.6,2c-15.4,3.2-29.7,9.5-44.9,13.3
		c-5.5,1.3-10.3,2.9-15.3,7.1c-6.5,5.5-16.1,7.9-25.1,8.3c-7.6,0.4-14.3,2.2-20.6,6.3c-3.6,2.4-7.7,4-11.6,5.9
		c-5,2.4-10.2,3.5-15.1-0.1c-3.4-2.5-6-1.7-8.8,1c-12.3,12-27.8,17.4-44,21.1c-1.8-3.5,3.3-4.2,1.9-7.7c-6.7,2.8-12.8,6.7-19.3,9.6
		c-24.9,11.2-49.6,22.7-74,34.8c-24.1,12-47,26.1-69.4,41.1c-7.1,4.7-14.9,8.2-21.6,14.8c-1.9-5.1,1.8-7.5,1.7-11.5
		c-14.1,3.4-26.6,7.5-32,23.2c-2.7,7.8-8.7,14.1-16.9,17.5c-12.9,5.3-25.6,11.1-38.7,15.9c-52.8,19.1-106.3,35.9-160.4,50.9
		c-30.7,8.5-61,18.2-91.6,27.3c-1.6,0.5-3.9,0.5-4.2,2.2c-0.6,4.5-3.8,3.7-6.7,3.8c-4,0.1-8.4-0.5-8.4,5.7c0,2.3-2,2.3-3.6,2.2
		c-25.3-0.9-48.9,8-73.3,12.5c-14.9,2.8-29.7,6.1-44.9,8.1c-13,1.7-25.1,0.9-37.1-3c-3.2-1-5.8-0.3-8.7,0.4
		c-19.5,4.5-39.2,6.3-59.2,6.1c-18-0.2-35.7,1.4-53.2,5.5c-3.5,0.8-7.2,1-10.8-0.1c-0.5-3.7,4.2-3,4.7-6.9c-5-0.9-10.1-0.8-15.1,0
		c-14.3,2.4-28.6,5-43,7.3c-17.9,2.9-35.6,1-53.1-2.4c-25.4-4.9-50.3-12-75.4-17.8c-11.9-2.8-24-5-36.2-5.5c-3.4-0.1-6-0.8-8.7-3.5
		c-4.5-4.6-10.6-6.3-17-6.3c-1,3.3,3.4,4.3,2.5,7.1c-12.4-1.1-24.6-1.7-36.6-3.4c-14.7-2.2-29.5-4.2-43.9-7.9
		c-6.8-1.7-13.8-2.1-18.9-8.9c-3.3-4.4-10.5-5.3-14.9-9.6c-1.9-1.9-4.3-1.5-6,0.9c-3.6,5.3-8.6,4-13.5,2.9
		c-17.6-4-33.9-11.6-50.2-19.1c-11.5-5.3-22.7-11.1-34-16.9c-4.3-2.2-8.6-3.4-13.4-3.1c-8.2,0.5-16-2-24.6-0.5
		c-7,1.3-13.8-4.1-20.6-6.7c-21-8.2-41.9-16.7-62.8-25.4c-5.4-2.3-11.4-4-15.2-9.2c-1.1-1.5-2.6-2-4.3-2.1c-6-0.2-10.7-3.4-15.3-6.6
		c-7.6-5.3-15.2-10.7-22.7-16c0.6-1.9,3.3-1.4,3.6-4.1c-4.2-1.9-8.6-3.9-13.6-6.3c2.8-1.9,7.6-2.7,6-7.2c-1.4-3.8-4.2-7.1-8.5-7.6
		c-3.5-0.4-6-1.9-8.9-3.6c-8.4-4.8-11.3-2.9-12.1,7.3h0c-10-2.2-17.9-8.6-26.6-13.5c-25.5-14.3-51-28.6-74.9-45.6
		c-3-2.1-11.2-2.7-6.1-10.4c0.6-0.8-1.5-1.9-2.6-2.6c-17-9.9-33.2-20.8-46.5-35.6c-2.1-2.3-3.9-3.6-7.7-2.4
		c-9,2.9-14.7-2.8-11.8-11.6c1.3-3.9-1.3-3.8-3-4.8c-12.9-7.5-25.8-15-38.8-22.4c-3-1.7-5-3.6-6.4-7c-7.7-18-21.8-30.4-36.5-41.6
		c-4.8,1.6,0.3,5.4-3.4,7.1c-4.8-2.4-8.1-5.9-7.8-12.2c0.3-5-2.6-7.8-7.2-9.4c-5.3-1.8-10.4-4.2-15.8-6.4c0.7-1.3,1-2.3,1.7-3
		c3-2.8,2.9-5.1-1.1-6.6c-4-1.5-8-3.5-12.2-4.1c-13.4-1.9-21.4-10.8-28.9-20.8c-9.8-13.1-18.5-26.8-24.1-42.2
		c-2.3-6.4-6.5-10.7-13.3-12.1c-7.5-1.5-11.5-7.8-15.9-13c-5.8-6.8-10.8-14.3-16.2-21.4c-1.8-2.4-3.8-4.9-6.6-5.9
		c-5.9-2.1-8.6-6.7-11.2-12c-9.4-19.1-21.2-36.8-32.7-54.7c-16.8-26-32.5-52.5-45.8-80.5c-1.7-3.6-3.2-7.2-3.3-11.3
		c-0.3-7.9-3.7-14.7-9-20.4c-3.4-3.7-7-7.1-10.6-10.6c-5.9-5.8-10.4-11.9-7.7-21c0.6-2-0.1-4.6-0.6-6.9
		c-5.2-21.9-11.7-43.5-18.4-65.1c-5-16.2-9.9-32.4-14.9-48.5c-1-3.3-1.9-6.1,1.9-8.5c2.9-1.8,2.3-5.3,1.8-8.3
		c-0.3-1.7-1.4-3-3.1-3.5c-2.1-0.7-5.5,2.7-6.4-2c-0.6-3.3,2.1-4.5,4-6.3c1.4-1.3,1.4-2.9,0.6-4.6c-1-2.1-2.2-4.1-3-6.3
		c-3.3-8.2-8.3-16.2-3.9-25.6c2-37.4,9.6-74,15.9-110.8c2.3-13.4,4.2-26.8,6.2-40.2c0.7-4.5,1.1-8.3,7.8-6.7
		c3.9,0.9,3.3-4.4,3.8-6.6c1.9-8.7,2.8-17.6,4.4-26.4c4.8-26,9.6-52.1,17.6-77.4c1.2-3.8,2.5-5.3,6.5-5.7c6.7-0.7,8.7-4.1,7.1-11.1
		c-1.8-7.6-3-15,4-21.4c2.4,5.3-3.5,9.8,0.1,15.5c4.7-7.8,9.5-14.8,7.2-24.5c-2.2-9.1,1-17.4,4.7-25.6c4.7,1.5,3.8,6.9,8.3,8.3
		c7.4-9.1,10.8-19.2,7.5-31.1c-4.7-16.8-0.9-27.7,14.6-36.5c13.2-7.5,21.3-18.6,26.8-32.1c2.8-6.8,2.8-8.1-3.1-12.4
		c-3.2-2.3-3.6-4.5-1.8-7.5c12.6-20.3,20.5-43.3,35.2-62.4c3-3.9,6.4-5.6,11.4-4.3c2.2,2.4-6.9,8.1,2.3,8.7c0.7,0-0.8,2.1-1.6,3
		c-8,8.4-8.7,20.2-14.3,29.8c-1,1.7-1.3,4.4,1.2,6.9c12.7-12.7,15.2-30.8,24.8-45.1c2.2,0,2,5.5,5.6,2.7c1.9-1.5,1.9-4.3,4.4-5.3
		c2.9,1.4-1.5,3.6,1.2,5.3c6.5-3.7,8.3-11,11.4-17.3c1.3-2.7-1-4.5-3.3-5.2c-5.6-1.8-4.7-5.4-3.1-9.4c3.5-8.8,9.6-15.9,15.2-23.3
		c9.5-12.8,21.8-23.2,30.8-36.4c0.2-0.3,0.3-0.7,0.6-0.8c15.1-5.5,18.6-20.9,27.3-31.8c1.4-1.8,2.5-3.9,4-5.7
		c5.3-6.3,5.7-6.4,13.3-2c2.9,1.7,5.7,1.7,8.5,0.1c2.9-1.6,5.7-3.4,8.5-5.2c3.5-2.3,3.9-5.1,1.3-8.4
		C321,535.2,319,531.4,323.8,527.7L323.8,527.7z"/>
	<path class="st1" d="M611.5,1001.1c2.4-1.3,5.2-4.6,6.1,1.3c1.5,10.7-0.2,20.4-7.8,28.8c-11.7,12.9-26.5,18.4-43.4,19.8
		c-22.2,1.9-43.4-2-62.3-13.8c-52.5-32.7-105.9-64.1-159.1-95.6c-8.3-4.9-12.1-11.9-12.1-21.4c0.3-47.9-3.5-95.8,0.4-143.7
		c0.3-3.2-0.8-5.8-1.5-8.7c-2.3-10,0.5-17.5,8.9-23.5c2.2-1.5,4.5-2.8,6.8-4.2c46.7-28.2,93.4-56.5,140-84.7c3.7-2.2,7.6-4.3,10.1-8
		c3.9-5.8,3-10.7-3.1-14.1c-8.6-4.8-18.1-6.5-27.7-7.8c-15.2-2.1-30.5-3.3-45.5-6c-26.2-4.7-49.1-16.3-67.4-36.1
		c-6.9-7.4-12-15.8-15.2-25.5c-3.5-10.9-2.1-21.6,1.1-32.3c13-24.1,36-34,60.2-41.9c18.8-6.2,38.3-6.7,57.9-6.2
		c5.2-3,10.6-0.8,15.6,0.2c20.4,4.2,39.5,11.8,56.4,24.3c12.9,9.4,20.2,22.7,26.1,37c1.1,2.8,2,5.6,2.9,8.5
		c7.7,23,20.3,30.2,44.8,27c16.9-2.2,32-8.8,46.5-17.2c35.7-20.6,71.9-40.5,107.5-61.3c3.8-2.2,7.7-3.8,12-4.5
		c3.7-0.8,6.5-3.2,9.7-4.9c88.8-50.5,177.9-100.4,266-152c25.6-15,75.3-8.5,90.9,30.1c1.1,2.8,2.4,5.5,3.5,8.3
		c10.3,28.1,31.1,44,59.7,50.5c24.1,5.5,48.4,4.7,72.4-0.3c13.8-2.9,26.3-9.4,37.2-18.5c3-2.6,5.9-5.5,8.3-8.6
		c6.9-9.2,7.1-17.2,0.4-26.6c-11.3-15.9-26.6-25.9-45.8-29.6c-12.8-2.5-25.8-3-38.7-4c-13.3-1-26.5-2.6-39.5-5.9
		c-6.2-1.6-12-3.9-17.4-7.2c-19.6-12.1-24.1-34.8-10.8-53.6c4.1-5.8,9.5-10.2,15.6-13.8c57.5-33.5,114.9-67.1,172.4-100.7
		c11.5-6.7,22.5-6.2,34,0.3c54.7,30.9,109.6,61.7,164.5,92.4c10.2,5.7,20.6,10.9,30.9,16.3c3,1.6,5.9,2.7,9.5,2.6
		c15.8-0.6,31.1-3.4,45.7-9.4c8.9-3.6,14.6-8.8,15.2-19.8c0.9-17.3,10-31.2,23.9-40.9c41.4-29.1,105.5-40.9,159-2.2
		c7.6,5.5,14.4,11.8,19.6,19.8c5.7,8.8,7.7,18.4,5.5,28.6c-0.9,4-1,7.9-0.9,11.8c1,39.3,1.7,78.6,3,117.9c0.3,8.9-2.8,15.4-9.3,20.8
		c-10.5,8.8-22.4,14.3-36.3,14.7c-1.5,0-3.2-0.6-4.7,1.1c2.2,2.6,5.4,3.6,8.2,5.1c91.8,49.2,182.8,99.8,272.9,152
		c4,2.3,8.1,4.6,11.9,7.3c19.3,14.2,21,38.6,3.6,55.3c-11.4,11-25.8,14.8-41.2,15.1c-12,0.2-24-0.4-36,0.2
		c-22.8,1.1-43.8,7.7-61.7,22.6c-15.8,13.1-17.5,30.5-4.3,46.3c6.3,7.6,14.2,13.2,23.3,16.7c33.2,13,67.3,15.9,102,7.7
		c19.1-4.5,33.3-16.1,42.4-33.7c3.7-7.1,6.5-14.6,9-22.2c7-21.1,22.3-32.5,43.3-37c7.1-1.5,14.5-2.2,21.9-2c10.4,0.3,20,2.5,29.3,8
		c54.6,31.9,109.4,63.3,164.2,94.9c2.9,1.7,5.8,3.3,8.5,5.2c4.7,3.6,7.1,8.3,8.2,14.3c3.8,22.1,4,44.4,4.8,66.6
		c0.9,26,0.6,52,2.4,77.9c0.7,10.4-3.1,17.9-12.1,23.3c-10,6-19.6,12.5-29.4,18.8c-0.1,3.6,2.5,5.6,3.8,8c5.2,9.5,8.7,19.6,7.9,30.5
		c-1.2,15.4,1.7,30.4,2.1,45.7c0,25.6,0,51.3,0,76.9c0,8.3,0.1,16.7,0,25c-0.2,13.5-4.8,25.5-14,35.4
		c-21.2,22.7-47.2,35.3-78.4,36.5c-22,0.9-43.9,0.5-65.4-5.8c-26.4-7.7-46.5-22.9-58-48.1c-10.6-23.2-31.9-35.7-61.4-32.9
		c-11.9,1.1-22.6,4.5-32.8,10.8c-17.5,10.9-36.1,19.9-54.6,29.1c-3.6,1.8-7.3,3.4-11.4,2.9c-3.7-0.4-5.3-2.9-3.6-6.2
		c0.8-1.7,2.2-3.3,3.7-4.6c19.7-16.9,39.4-34.1,62.4-46.4c27.6-14.8,76.4-16.9,104.7,13.6c5.7,6.2,10.8,12.7,14.2,20.4
		c9.4,21.1,25.9,33.2,48.2,38c22.7,4.9,45.6,5.5,68.5,1.4c17.7-3.2,31.8-13.1,43.8-26.2c5.8-6.3,7.2-14,6.9-22.3
		c-0.8-22.3-0.7-44.6,1.2-66.9c1-11.2,2.1-22.4,3.2-34.3c-1.7,0.8-3,1.2-4,2c-17.9,14.7-39,21.3-61.7,23.1c-24,1.9-48,1.5-71.3-5.9
		c-25-8-43.8-23.3-55.7-46.9c-0.6-1.1-1.5-2.1-2.2-3.2c-3.9-1.5-4.6-5.5-6.4-8.5c-12.2-19.8-30.3-27.2-54.6-25.5
		c-17.7,1.3-32,10.4-46.8,18.8c-4.6,2.6-8.9,6-14.6,5.8c-2.8,0.2-4.8,2.1-7.1,3.3c-43.9,24.3-87.6,49.1-131.9,72.7
		c-9.5,5.1-12,10.2-11.4,20.5c1.7,27.9,2.9,55.8,2.9,83.8c0,11.9,0.6,23.8-6,35.2c4.5,0.4,7.2-1.6,10.2-2.8
		c9.8-4.2,19.7-8.2,29.2-12.9c12.2-6.1,24.8-9.6,38.6-8.6c0.7,2.8-2.1,3.5-3.5,4.9c-18,17.8-40.2,29.4-62.1,41.3
		c-13.1,7.1-26.3,5.3-38.9-2.3c-26-15.6-51.9-31.2-78-46.5c-26.4-15.5-53-30.6-80.3-44.4c-14.2-7.1-29.1-11.2-45.3-8.7
		c-19.6,3-28.6,12.1-30.4,31.8c-1.5,15.8-9,28.3-21.4,38c-13.9,10.9-30,17-46.9,21.2c-27.4,6.8-55.1,10.2-83,3.3
		c-25.5-6.3-46.6-19.2-60.3-42.4c-4.2-7-6.2-14.5-6.5-22.7c-1.4-46.6-2.7-93.2-0.2-139.8c0.1-2,0.4-4.1-0.2-5.9
		c-2.9-9.5-2.2-19.1-1.1-28.7c1.5-4.3,0.5-9.3,3.7-13.2c5.9-7.3,1.8-9.8-5.2-12.1c-7.1-2.3-15-3.3-20.3-9.5c-6.3-3.7-12.8-7-18.9-11
		c-5.7-3.7-9.9-3.6-15.7,0.8c-29,22.3-59,43.4-89.6,63.4c-29.5,19.3-59.5,37.9-91.8,52.2c-19.6,8.7-39.8,15.5-61.7,13
		c-19.7-2.2-35.7-10.6-44.2-29.5c-4.7-10.5-3.7-15.1,4.5-24.6c3.2,3.8,6.7,7.3,9.5,11.3c9.7,14,23.9,17.2,39.6,16
		c12.3-0.9,24.2-4.1,35.8-8.5c29.5-11.1,56.3-27,82.8-43.7c37.2-23.4,73.1-48.8,108.6-74.5c3.4-2.5,4-4.3,3.4-8.7
		c-1.7-12.8-2-25.9-2.9-38.8c-0.3-4.3-0.1-8.7-1.6-12.8c-3.2-3.2-2.8-7.4-2.7-11.3c0.7-19.2-3.9-38.2-1.4-59
		c-13.6,8.6-25,17.6-36.9,25.8c-4.1,2.8-7.7,6.5-13.1,6.7c-12.8,8.4-25.4,16.9-38.3,25.2c-28.3,18.2-56.7,36.1-87.6,49.6
		c-18.8,8.2-38.1,13.9-58.9,13.2c-23.8-0.8-36.5-10.7-38.7-34.3c-2-22-14.3-34.2-33.3-41.8c-24.3-9.7-49.8-11.3-75.6-10.9
		c-13.7,0.2-27.2,1.9-40.2,6.5c-6,2.1-11.7,4.8-16.9,8.4c-21.2,14.4-24.2,40.8-6.7,59.5c13.3,14.2,30.4,21,49.2,24.3
		c12.6,2.2,25.2,2.1,37.9,1.2c9.8-0.7,19.3,0.1,28.3,4.5c1.8,0.9,3.6,1.7,5.3,2.8c21.9,14.6,23.6,36.6-0.5,50.4
		c-53.6,30.9-107.1,62-160.6,93.1c-2,1.2-3.9,2.5-6,3.5c-2.5,1.2-2.9,2.7-2.6,5.5c4,36.7,5.3,73.7,7,110.6c0.2,5.1-1.2,9.8-2,15.6
		c3.1-0.1,5.1-1.8,7.1-3c47.2-27.4,94.3-55,141.6-82.1c7-4,9.7-8.8,9.4-16.8c-1.1-30.3-0.4-60.6,0.8-90.9c0.2-5.6,0.2-11.3,2.7-16.6
		c0.8-1.8,1.7-4,3.9-4.1c2.6-0.1,4.1,2.1,4.9,4.3c0.7,1.9,1.2,3.8,1.6,5.8c5.3,33.2,9,66.6,10.1,100.2c0.6,17.9-6,30.2-21.6,39.3
		c-52.1,30.2-103.9,60.9-155.5,91.9c-11,6.6-20.5,6.6-31.6,0.3c-56.1-32-112.4-63.5-168.6-95.2c-7.3-4.1-14.3-8.5-19.9-14.9
		c-7.4-8.4-12.5-17.7-13.4-29.4c-1.9-25.7,0.2-51.2,2-76.8c1.3-18.9,3.2-37.8,4.9-56.7c0.4-4.9,0-9.3-3.8-12.8
		c-11.3-13.5-7-36.1,8.8-45.9c7.9-4.9,16.5-6.7,25.8-6.5c24,0.3,48,0.9,71.5-5.6c16.2-4.5,31.8-9.6,43.8-22.5
		c18.5-20,13.8-43.2-11.4-53.5c-10.9-4.5-22.3-7.1-33.9-8c-23.3-1.7-46.7-2.6-69.7,2.5c-26.6,6-45.5,20-52.8,48.2
		c-6.2,24-24.5,36.7-48.2,41.1c-21.1,3.9-41.9,2.4-61.2-8.1c-43.4-23.5-84.9-50.2-127.4-75.1c-9.2-5.4-18.1-11.2-27.5-16.2
		c-2.8,3.9-1.4,7.6-1.2,11.1c2.5,34.5,3.2,69.1,3.7,103.7c0.1,7.7,3,12.2,9.4,15.9c49.3,28.6,98.3,57.7,147.5,86.4
		c17.3,10.1,36.9,13.4,57,11.8c9.6-0.8,17.9-5,24.5-12.2C602.3,1006.1,605.9,1002.2,611.5,1001.1z"/>
	<path class="st2" d="M769.7,491.7c-1.9,1.3-3.7,2.7-5.7,3.9c-39.6,22.6-79.2,45.1-118.7,67.6c-12.3,7-25.3,11.7-39.3,13.6
		c-9.4,1.3-18.6,0.8-27.7-1.6c-10-2.6-17.1-8.2-19.7-19c-1.6-6.7-4.3-13.3-6.7-19.8c-6-16.6-17-29.1-32.1-38.1
		c-15.9-9.5-32.9-15.8-51.2-18.8c-3.6-0.6-7.2-1.3-10.8-2c2.3-4.1,6.6-6.5,8.7-10.8c1.3-2.7,4.1-3.1,6.9-3c8,0.4,16-1,23.8,0.9
		c2.1,0.5,3.8,0.2,5.7-0.5c16.6-6.1,33.9-8.2,51.3-10.5c10.1-1.3,20.3-3.3,29.8-7.2c2.5-1,4.3-1.8,6.9,0.9c3.6,3.7,9.1,4.3,13.9,4.2
		c8.4-0.3,16.4,2.2,24.7,2.4c3.1,0.1,8.1-0.4,5.9,6c-0.7,2.2,2.1,1.7,3.6,1.8c7.1,0.7,13.8-1.7,20.6-3c5.8-1.1,11.2-3.3,15.8,3.2
		c2,2.8,6.5,3.1,10,3.7c9.5,1.5,18.8,3.7,27.4,8.3c1.9,1,3.5,1.2,5.6,0.6c10.5-2.8,20.1,2.8,30.3,3.5
		C754.3,484.8,764.2,485,769.7,491.7z"/>
	<path class="st3" d="M2039.1,1302.9c4.3,1.3,6.7,4.7,8.9,8.6c5.7,10.2,11.5,20.2,17.1,30.4c13.4,24.5,26.6,49.1,40.1,73.5
		c3.2,5.8,3.2,10.8,0.6,16.9c-15.3,35.4-30.2,70.9-45.5,106.3c-2,4.7-3.4,11.1-9.9,11.4c-6.7,0.2-9-5.7-11.6-10.8
		c-18-34.9-36-69.8-54.1-104.6c-2.4-4.7-2.6-8.9-0.5-14.1c15-35.8,29.6-71.9,44.3-107.8C2030.5,1307.9,2032.6,1303.3,2039.1,1302.9z
		"/>
	<path class="st4" d="M2430,317.5c4.5,8,2.7,15.4-2.6,22.2c-9.1,11.7-21.3,17.1-35.9,15c-15.8-2.2-26.5-11.7-32-26.6
		c-6.1-16.6-0.2-34.7,14.2-45c13.7-9.8,33-9.2,46.4,1.4c9.9,7.9,13.9,19.9,10.2,30.7C2428.8,315.8,2428.4,316.6,2430,317.5z"/>
	<path class="st5" d="M593,1894.9c1.1,3.6,4.2,5.8,6.6,8.4c5.8,6.1,8.2,13.5,9.8,21.4c0.9,4.4-0.7,8.2-4.5,10.1
		c-3.4,1.7-7.1,0.8-10.1-2.1c-6.4-6.3-11.7-13.6-17.1-20.7c-4.3-5.7-4.4-5.7-10.3-2.3c-6.1,3.5-12,7.2-18,10.7c-3.4,2-6.9,4-11,4.5
		c-7.7,1.1-11.5-3.5-8.7-10.6c1.6-4,3.8-7.6,7.8-10c5.1-3,10-6.5,15-9.9c7-4.7,7-4.7,1.7-11.8c-5-6.6-9.9-13.3-15-19.9
		c-2.7-3.5-4.5-7.4-5.5-11.6c-1.3-5.8,2.5-9.6,8.4-8.4c5.8,1.2,10.2,4.5,13.8,9.2c5.8,7.3,11.9,14.3,17.6,21.7
		c2.9,3.8,5.6,3.9,9.2,1.2c3.5-2.6,7.2-4.9,10.8-7.2c6.1-3.9,13-4.8,20.1-4.5c4.4,0.2,7.7,2.5,8.8,6.7c1,3.8-0.4,7.2-4.1,9.3
		c-6,3.5-12,7.1-18,10.7C598,1891.4,594.9,1892,593,1894.9z"/>
	<path class="st1" d="M2324.4,473.1c2.7,8.2-0.3,14.9-5.4,21c-14.2,17.1-41,19.1-58.1,4.4c-17.4-15.1-19.3-39.4-4.4-55.8
		c15.1-16.6,41.8-17.8,58.3-2.7c4.6,4.2,6.9,9.6,9.6,14.9c1.8,2,0.9,4.4,1.1,6.7c0.2,3.5-0.1,6.8-4.2,8c-3.4,1-6.5,0.7-9.1-2.1
		c-3.4-3.6-6.7-7.4-10.7-10.5c-5.9-4.4-12.2-6.7-19.6-4c-7.7,2.9-11.9,10.2-10.4,18.3c1.4,7.5,8.8,13.1,16.9,12.4
		c7.8-0.7,14.5-4,20.8-8.8C2313.5,471.5,2318.5,466.1,2324.4,473.1z"/>
	<path class="st1" d="M322.7,1878.8c-14.4-0.1-26.2-7.8-30.6-19.7c-3.2-8.5,0.5-17.6-3.3-26.4c-1.9-4.4,2.8-9.9,6.3-14
		c10.7-12.5,28.8-16,43.5-8.5c15,7.7,23.4,25,19.7,40.9C354.5,1867.5,339.9,1878.9,322.7,1878.8z"/>
	<path class="st3" d="M2227.7,231.9c0-16.8,13.3-30.8,29.5-29.7c14.2,1,28.7,11.6,28.9,30.7c0.2,17.3-17,29.2-29.5,28.9
		C2242.6,261.7,2226,250,2227.7,231.9z"/>
	<path class="st6" d="M2601.7,266.2c-1.9-1.5-3.2-4.7-6.4-1.7c-1.9,1.8-4.8,2.2-6.5,4.4c-5.1,6.4-12.4,8.7-19.9,10.3
		c-9,2-17.1-1.5-21.4-8.8c-3.7-6.3-3.1-14.7,1.4-20.6c5.1-6.6,14.3-9.5,22.3-7c7.6,2.4,12.6,8.4,18,13.7c1.2,1.1,1.9,2.7,3,4
		c1.7,2,4.2,2.4,6.3,1.8c2.4-0.7,3.4-3,3.4-5.5c0-3-0.1-6-0.2-8.9C2606.6,254.1,2602.7,260.1,2601.7,266.2z"/>
	<path class="st2" d="M2571.8,1512.9c-0.5,15.1-7.2,28.4-11.7,44.7c-3.1-5.3-2.6-8.7-1.6-11.9
		C2562.1,1534.4,2566.7,1523.6,2571.8,1512.9L2571.8,1512.9z"/>
	<path class="st7" d="M2401.5,2.4c-2.4-1-6.2,3.5-6.7,0.2c-0.6-4.4,4.6-1.3,6.9-2.5C2401.7,0.8,2401.6,1.6,2401.5,2.4z"/>
	<polygon class="st2" points="2575.8,1209.2 2576.6,1209.6 2576.3,1210 	"/>
	<path class="st2" d="M323.8,527.7c0.2-0.3,0.4-0.8,0.4-0.8C324.9,527.1,324.8,527.4,323.8,527.7L323.8,527.7z"/>
	<path class="st2" d="M575.8,1940.6c0.3,0.2,0.8,0.4,0.8,0.4C576.5,1941.7,576.1,1941.5,575.8,1940.6L575.8,1940.6z"/>
	<path class="st8" d="M1865.6,1597.6c-0.3-3.2,0-1.4-0.4-5.1c-0.4-3.1,0.2,1-0.1-2.3c-1.6-15.5-2.6-23.8-17.3-32.3
		c-55.9-32.3-111.9-64.6-168-96.7c-20.4-11.7-41.6-9.9-62.8-2.6c-19.5,6.7-29.7,21.6-34.7,40.7c-0.8,2.9-1.7,5.7-2.8,8.5
		c-3.4,8.7-7.6,17-13.8,24.2c-1.4,1.6-2.3,4.3-5.3,3.3c0-3.7-0.3-7.4,0-11c2.4-26.9,1.6-53.9,2.9-80.8c0.3-6.6-1.4-13.4-0.5-19.9
		c2.9-20.4-4.9-35.1-22.6-44.7c-55.6-30.2-111.3-60.2-166.9-90.3c-6.2-3.3-12.6-6.1-19.5-7.4c-24.5-4.7-47.7-0.8-69.5,11.2
		c-40.9,22.4-81.7,45-122.5,67.5c-18.1,10-36,20.3-54.4,29.7c-26.4,13.4-59.9-0.3-66.9-27.8c-6.4-25.2-21.8-42.2-44.3-53.4
		c-29.7-14.8-61-18.3-93.4-12.1c-17.1,3.2-33.6,8.4-48.9,16.8c-22,12.2-33.7,30.5-33.8,55.9c0,7.3-0.4,14.6-0.8,22
		c-1.9,30.9-4.2,61.8-1.3,92.8c1.7,17.9,6,34.7,18.7,48.4c5,5.4,11.3,9.2,17,14.3c-4.9,5-10.9,8.1-16.7,11.1
		c-12.5,6.5-16.6,16.6-16.6,30.3c0.1,46.6,1,93.2-0.5,139.8c-0.4,11.4,4.3,19.8,14.4,25.4c7.3,4,14.5,8.2,21.7,12.4
		c6.3,3.7,6.3,3.8,4.2,10.8c-1.3,4.1-2.6,8.2-2.5,12.7c0.5,24.6-0.3,49.3,1.4,73.9c1.1,16.6,1.8,33.3,0,49.9
		c-1.3,12.6-1.8,25.2-1.2,37.9c0.4,8.1,2.2,15.9,5.8,23.1c13.4,26.6,34,44.9,62.8,53.3c25.6,7.5,51.4,6,77.1,1
		c17.4-3.4,34.3-8.5,49.6-17.7c13.2-8,23.6-18.6,27.7-34c1.6-5.7,1.7-11.9,2.9-17.7c2.2-10.2,8.3-17.3,18.2-20.8
		c4.7-1.7,9.5-2.7,14.6-3.2c16.6-1.5,31.6,3.5,46,10.9c54,27.7,106.2,58.5,158,89.9c12.4,7.5,22.7,7.9,35.1,0.4
		c30-18,60.5-35,90.9-52.4c20.2-11.6,40.5-23.1,60.6-34.9c13.6-8,21.3-19.8,21.3-36c0-31.3,0.4-62.6-2-93.8
		c-0.5-6.8-0.6-13.5-0.9-20.1c2.8-0.4,3.7,0.8,4.6,1.6c7.9,7.2,12.5,16.3,15,26.5c2.8,11.1,8.5,20.4,17.5,27.3
		c27.5,20.9,62,27.4,95.3,9c62.9-34.9,124.8-71.6,186.6-108.4c9-5.4,13.1-12.3,13.7-22.5c2.6-38.3,7.2-128.8,7.2-122.8
		C1865.4,1603.5,1865.4,1601.8,1865.6,1597.6"/>
	<path class="st5" d="M611.5,1001.1c-4.1,4.3-8.1,8.7-12.4,12.9c-6.7,6.5-14.8,10.3-24.1,10.9c-21.4,1.4-41.9-1.9-60.6-12.9
		c-50.3-29.4-100.4-59.1-150.8-88.3c-4.9-2.8-5.9-6.1-6-11.2c-0.5-36-1.4-71.9-3.6-107.8c-0.3-5.6-1.2-11.1-1.9-16.9
		c4.3,0.4,7,3,10.1,4.9c47.2,28.1,94.4,56.2,141.4,84.6c19.2,11.6,39.7,16.5,62.1,14.3c29.3-2.9,47.9-18.1,55.7-46.2
		c5-18,16.5-30,32.9-37.9c12.5-6,25.9-8.7,39.6-9.6c23.3-1.6,46.6-2.1,69.6,3.4c7.8,1.8,15.4,4.2,22.5,8c18,9.6,23.3,29.4,12.6,46.8
		c-7.3,11.8-17.8,19.7-30.6,24.6c-25.9,9.8-52.5,14.6-80.3,12.3c-6.3-0.5-12.6-0.7-19,0c-26,2.7-38.5,23.6-29.8,46.2
		c0.5,1.2,0.7,2.5,1,3.8c-1.9,0.9-3.2,2.3-4.1,4.1c-8,15.3-16,30.5-24,45.8C610.7,995.6,608.4,998.3,611.5,1001.1z"/>
	<path class="st1" d="M495.6,1451c8.1-10.5,18.8-11.5,27.7-2.2c3.5,3.6,6.4,7.6,8.8,12.1c16.1,29.9,29.8,60.9,44.4,91.5
		c3.4,7.1,3.3,14.1-0.3,21.1c-17.2,32.7-33.6,65.7-49.8,98.8c-4.1,8.4-10.6,13.9-20.2,13.8c-10-0.1-16.5-6-20.6-14.9
		c-15.3-33.2-30.6-66.4-45.9-99.6c-3.4-7.4-3.6-14.6,0-22.1c13.6-28.9,26.9-57.9,44.2-84.9c2-3.1,3.7-6.2,7.2-8
		c5-2.5,8.5-0.8,8.9,4.8c0.1,1.6-0.1,3.3-0.5,4.9c-4.9,20-9.5,40.1-18.9,58.7c-4.9,9.8-9,20-13.7,29.9c-1.5,3.2-2.1,6-0.5,9.4
		c12.7,26.7,25.4,53.4,38.1,80.2c0.4,0.8,1.4,1.4,2.5,2.5c4.6-9.5,9-18.7,13.5-27.9c8.1-16.7,16.2-33.5,24.6-50.2
		c2.1-4.2,2.5-7.7,0.2-12c-16.7-30.6-26.7-63.7-35.9-97c-2-7.4-2.4-7.7-11-8.6C497.3,1451.9,496.4,1451.7,495.6,1451z"/>
	<path class="st9" d="M2057.7,991.2c12.4-8.3,25.4-15.8,39-21.7c17.3-7.5,35.7-8.1,53.5-1.3c15.1,5.8,25,17.1,30,32.5
		c-3.6,7.7-9.1,9.1-13.6,2.5c-2.8-4-5.5-3.9-9.1-3.8c-1.4,0.1-2.7,0.7-2.8,2.2c-0.1,2.1,1.7,4.9-2.1,5.4c-2.6,0.4-5.6,1-7.8-0.7
		c-12.6-9.7-26.7-3.9-40.2-4.4c-1.3,0-2.6,1-3.8,1c-16.2-0.6-32.3,3.5-48.5,2.2c-1.6-0.1-3.3-0.1-4.9-0.6c-0.8-0.2-1.8-1.1-2.1-1.9
		c-0.4-1.4,0.6-2.4,1.9-3c4.8-2.2,10.2-2.4,15.3-3.2C2063.1,992.5,2058.4,993.7,2057.7,991.2z"/>
	<path class="st9" d="M1305.8,813.6c17.6-12.9,35.2-25.8,53.8-39.5c-3.9,26.7,1.4,52,0.3,77.3c-6.2,0.4-11.7-1.9-17.1-4.5
		c-11-5.3-21.7-11.5-33.3-15.6c1.1-2.2,4.4-2.9,2.2-6.4C1309.5,821.4,1308.8,816.9,1305.8,813.6z"/>
	<path class="st10" d="M1402.2,946.9c11.2,3.8,22.3,7.6,34.9,11.9c-5.9,7.1-10,14.7-13.1,22.9c-0.3-3.3-1.2-6.2-3.5-8.9
		c-5.4-6.1-10.2-12.7-15.3-19.1C1403.5,951.7,1401.5,949.9,1402.2,946.9z"/>
	<path class="st11" d="M495.6,1451c0.9,0.1,1.8,0.3,2.7,0.4c-0.6,1.4-1.9,1.9-3.2,1.3C493.9,1452.1,494.4,1451.3,495.6,1451z"/>
	<path class="st9" d="M1708.1,354.4c-1.8,9.1-1.9,9.2,5.7,14.1c33.2,21.6,67.8,40.9,101.7,61.4c14.8,8.9,29.8,17.6,44.6,26.5
		c2.4,1.5,5.3,2.4,6.9,4.9c-46.5,20.7-91.7,43.8-136.1,68.2c-14.3,7.9-27.8,17-41.8,25.4c-33.4,20.2-26.9,63.6,5.5,79.9
		c12.9,6.5,26.7,10.3,41.2,10.7c10.3,0.3,20.7,0.1,31,0.1c11.8,0.1,23.2,2.1,34.1,6.7c14.9,6.2,23.7,17.3,24.5,33.5
		c0.8,15.6-6.4,27.6-19.9,35.5c-16.3,9.6-34.1,14.8-52.6,18c-7.5,1.3-15.1,2.2-22.8,2.5c-27.5,1.2-49.1-9.7-65.9-31
		c-7.1-9-12.4-18.9-16.4-29.6c-10.5-28.2-31.4-43-61.4-44c-18.8-0.6-36.3,3.5-52.6,12.9c-52.8,30.2-107.3,57.7-157.3,92.7
		c-3.8,2.7-6.6,2.9-10.7,0.3c-36.7-23-73.9-45-112.4-64.8c-3.9-2-7.3-4.6-10-8.1c-4.9-6.3-4.2-10.3,2.4-15
		c6.4-4.6,13.7-4.8,21.1-4.4c13,0.7,26,1.6,39,0.9c25.3-1.4,49.1-8.4,71.5-20c6.8-3.5,13-8,18.5-13.4c16.4-16.1,20.1-35.6,10.7-56.6
		c-6.6-14.7-17.4-25.9-30.2-35.3c-29.3-21.4-62.3-27.3-97.7-22c-15.8,2.3-31.3,6.3-45.9,13.2c-22.6,10.7-39.6,26.6-48.7,50.4
		c-0.8,2.2-1.7,4.3-2.7,6.5c-9.1,20.5-25.8,31.1-48.3,30.1c-15.4-0.7-30.1-4.1-43.6-12.5c-38.2-23.8-78.8-43.1-119.6-61.9
		c-4.6-2.1-11.1-6.4-14.2-1.2c-2.4,4,4,8.6,7.9,11.3c16.5,11.3,33.2,22.2,50,33.1c23.2,15,46.5,29.9,70.8,43
		c24.4,13.2,50.6,16.4,77.4,8.2c18.8-5.8,31.8-18.9,40.5-36.4c1.6-3.3,3.2-6.6,4.4-10c6.6-18,19.3-30.3,36.5-37.6
		c29.9-12.8,60.6-17.7,92.4-7c15.1,5.1,28.2,13.4,38.9,25.4c17.7,19.9,15.2,36.3-8,49.5c-17.9,10.2-37.5,15.4-58,17
		c-12.6,1-25.3,0.3-37.9-1.2c-13.6-1.6-26.6,0.4-38.4,7.7c-21.8,13.5-25.5,37.8-8.8,57.2c5.3,6.1,11.7,10.7,18.9,14.5
		c32.7,17.1,65.4,34.3,98.1,51.5c2.9,1.5,6.3,2.3,8.5,5.5c-42.2,29.8-85.1,58.4-130,83.8c-17.1,9.7-34.5,18.7-52.8,25.9
		c-10.6,4.2-21.5,7-32.8,8.3c-6,0.7-11.9,0.5-17.9-0.5c-5.5-0.9-8.2-4-9.2-9c-0.8-3.9-1.5-7.9-1.9-11.8
		c-1.7-16.5-9.8-29.4-22.4-39.8c-14.2-11.8-31.1-18.1-48.8-21.6c-28.9-5.7-58.2-7.4-87.4-2.5c-16.9,2.8-32.8,8.5-46.6,19.2
		c-30.1,23.4-33,65.8-6.4,93.2c17.6,18.2,39.6,27.5,64.3,31.5c13.9,2.2,27.9,2.1,41.9,1.3c7.4-0.5,14.6,0,20.8,5.1
		c3.2,2.7,3.1,4.8-0.5,6.8c-1.7,1-3.5,2-5.2,3c-51.3,29.7-102.6,59.3-153.7,89.1c-5.5,3.2-9.5,3.7-15.3,0.3
		c-54.5-31.4-109.2-62.4-163.8-93.5c-6.4-3.7-12.5-7.7-16.5-14.1c-6.6-10.8-3.5-17.2,9-17.9c5.6-0.3,11.3-0.1,17,0.4
		c30.9,2.4,60.4-3.6,88.9-14.9c18.5-7.3,32.8-19.9,42.6-37.5c17.9-32.5-0.2-63.9-20.3-75.9c-14.6-8.7-30.6-13-47.1-15.3
		c-29.9-4.1-59.8-3.5-89.4,3.2c-8.8,2-17.2,5.2-25.2,9.4c-21.8,11.4-37,28.4-42.7,52.5c-3.7,15.4-13.5,23-27.9,26.2
		c-18.5,4.2-35.6,0.3-51.7-9.3c-38.2-22.9-76.5-45.8-114.8-68.7c-13.7-8.2-27.4-16.4-41.1-24.6c1.9-4,5.7-5,8.7-6.8
		c43.5-26.4,87.1-52.7,130.7-79c7.8-4.7,14.8-10.1,19.3-18.3c9.9-18.1,4.9-36.8-12.9-47.3c-6.7-3.9-13.9-6.2-21.4-8.1
		c-17.5-4.4-35.5-5.6-53.3-7.7c-20.4-2.5-38.5-10.1-54.2-23.4c-5.6-4.8-10.4-10.3-13.7-17c-5.1-10.5-3.8-19.1,4.5-27.3
		c3-3,6.5-5.9,10.2-7.9c40-21.6,80.4-23.2,121.4-2.8c14.2,7.1,23.9,17.7,28.6,32.9c1.2,3.8,2.9,7.5,3.8,11.4
		c5.7,24.8,22.8,36.4,46.5,40.2c27.9,4.5,53.5-2.4,77.6-16.1c45.2-25.6,90.2-51.3,135.4-76.9c88.3-50.1,176.6-100.1,264.9-150.1
		c20.9-11.8,45.1-3.6,54.7,18.6c2.6,6.1,4.8,12.4,7.9,18.3c11.9,23.2,30.2,39.7,54.8,48.4c41.7,14.8,83.6,14.3,124.9-2.1
		c13.4-5.3,25.2-13.6,34.9-24.4c19.1-21.2,19.9-45.5,2.1-67.8c-17.2-21.5-39.5-34.5-66.9-37.8c-18.8-2.3-37.8-3.8-56.6-5.9
		c-6.9-0.8-13.8-2.2-20.2-5.3c-9.3-4.5-10.2-12-2.3-18.7c1.8-1.5,3.8-2.6,5.8-3.8c55.3-32.6,110.8-65,166-97.8
		c5.7-3.4,9.9-3,15.4,0.1c55.9,31,111.5,62.3,168,92.2c7.1,3.7,14.2,7.2,21.2,11.1c10.5,5.8,21.4,8.2,33.6,6.5
		c14.6-2,28.9-4.6,42.6-9.9c6.2-2.4,12.1-5.6,17.4-9.6c9.1-6.8,14.4-15.6,14.6-27.1c0.3-13,5.8-23.4,16.4-30.4
		c37.1-24.9,86.8-33.1,130.6-4.5c4.8,3.1,9.3,6.5,13.1,10.7c9.1,10,9.8,18.4,2.7,29.8c-5.8,9.3-14.1,15.8-23.7,20.9
		c-15,7.8-31.1,11.5-47.7,13.8c-9.9,1.4-19.9,1.9-29.9,2.2c-13.6,0.3-26.2,4.7-37.5,12.1c-6.4,4.2-12.2,9.3-14.1,17.4
		c-2.1,5.6,1.1,11.1,0.4,16.7c0.4,1.3,0.6,2.6,0.9,3.9c0.6,1.5,1.1,3.1,1.7,4.7c0.5,2,2.2,3.3,3.2,5.1c0.5,0.7,0.9,1.4,1.2,2.2
		c1.3,1.5,2.8,2.9,4.2,4.2c-0.1-0.1,0.1,0.6,0.1,0.6s0.3-0.6,0.2-0.7c-1.6-1-2.7-2.5-4-3.7c-0.8-1-1.3-2.1-2.1-3.1
		c-0.9-1.5-2-2.8-2.7-4.3c-0.6-2.2-1.5-4.2-2-6.4c-0.2-1-0.4-1.9-0.7-2.8c-0.2-3.5-1-7,1.4-10.1l0.6,0.1c0.9-1.2,0.5-2.8,1.4-4
		c0.2-0.7,0.5-1.3,0.7-2c3.2,0.3,3.5,2.9,3.3,5.1c-0.9,11.8,3.8,21,12.6,28.4C1707.7,350.6,1709.2,352.1,1708.1,354.4z"/>
	<path class="st9" d="M1567.8,867.4c-1-4.4-5.2-5.6-8.3-7.8c-24.1-17.3-49.3-32.9-74.8-47.9c-28.7-16.9-57.3-33.8-86-50.7
		c-2.8-1.7-5.6-3.5-9.6-6.1c3-1.5,5.2-2.6,7.3-3.7c50.4-24.9,99.4-52.4,148.7-79.5c15.7-8.7,32.2-12.3,50-8.5
		c14.1,3,24,10.8,28.7,24.8c5.4,15.9,13.5,30.4,24.5,43.1c21.4,24.5,48.3,37.1,81,36.2c27.6-0.8,54.1-6.7,79.2-18.5
		c6.6-3.1,13-6.8,18.7-11.4c34.2-27.5,31.6-79.5-5.5-103.1c-15.9-10.1-33.6-14.1-52.2-14.7c-14-0.5-28,1-41.9-1.8
		c-6.9-1.4-13.5-3.5-19.9-6.5c-4.6-2.2-8.4-5.5-10.9-9.9c-4.7-8.2-3.4-15.5,4.3-21c9.2-6.5,18.8-12.7,28.4-18.5
		c34.4-20.9,68.9-41.6,103.5-62.2c13.8-8.2,27.1-17,39-27.7c4.6-4.1,7.7-3.9,12.9-0.9c55.3,32.6,110.8,65,166.2,97.3
		c12.1,7,24.2,14,36.3,21c4.9,2.9,10.4,5.8,10,12.5c-0.4,7.1-5.5,11-11.4,13.9c-7.8,3.8-16.1,4-24.4,3.7c-16-0.5-32-0.7-47.8,2
		c-22.5,3.8-42.7,12.5-60.1,27.4c-23.1,19.7-27.1,48-10.3,73.4c9.5,14.4,23,24.1,38.8,30.2c37.3,14.4,75.8,17.5,114.7,8.4
		c27.8-6.5,48.2-23.4,60.5-49.4c3-6.3,6.1-12.7,7.8-19.4c4.1-15.4,14.8-22.4,29.5-24.3c12.3-1.6,23.7-0.3,35.3,6.5
		c49.4,29.4,99.5,57.9,149.3,86.7c2.8,1.6,6.1,2.6,8,5.5c-2.4,2.6-5.5,3.8-8.4,5.5c-49.7,29-99.4,58.1-149.2,86.9
		c-8.6,5-15.7,11.3-21,19.5c-11,16.8-8.2,34.3,7.3,47.1c13,10.7,28.4,15.5,44.8,17.9c18.5,2.7,37.1,3.5,55.8,3.9
		c11.2,0.2,21.8,2.6,31.6,8.1c9.3,5.2,16.7,12.2,20.1,22.6c3.4,10.2,2.3,19.6-5.1,27.9c-10.6,11.9-23.8,19.4-39.1,22.6
		c-23.4,4.9-47,5.1-70.4,0c-24.4-5.3-41.9-19.3-51.7-42.6c-9.2-21.8-25.2-36.9-47.8-43.6c-26.2-7.7-52.1-5.9-76.5,7.4
		c-56.3,30.9-112.6,61.8-168.6,93.1c-9,5-15.9,4.8-24.7-0.5c-48.1-29.1-96.5-57.7-146.5-83.4c-15.8-8.1-31.8-15.1-49.8-16.5
		c-14.2-1.1-28,0.6-40.9,6.8c-18.8,9.1-30.1,23.9-31.5,45.1c-0.8,11.3-5.6,19.4-14.9,25.5c-13.9,9.2-29.5,13.5-45.6,16.5
		c-21.1,3.9-42.3,5.4-63.3-0.8c-14.1-4.2-26.1-11.7-35.5-23c-10.9-12.9-9.7-27.7,3-38.8c15.5-13.6,34.5-19.7,54.1-24.1
		c16.9-3.8,34.1-5.8,51.5-6.3c8.8-0.2,17.1-2.5,24.6-7.2c14.5-9.1,20.3-25.5,14.7-41.7c-5.4-15.7-16.7-26-30.9-33.7
		c-2.7,1.8-2.5,5.7-5.8,6.7L1567.8,867.4z"/>
	<path class="st5" d="M1443.8,1040.5c2.1-0.9,2.7,0.1,3.4,0.7c25.1,21.5,55,27.4,86.8,25.6c21.4-1.3,42.2-5.5,62.2-13.5
		c9-3.6,17.5-8.1,25-14.3c12.4-10.1,19.9-22.8,21.3-39.1c1.5-17.6,8.9-25.2,26.2-29c15.8-3.5,30.5,0,44.6,6.5
		c19.3,8.9,38,19.3,56.6,29.6c36.4,20.1,72.2,41.3,108.1,62.4c2.9,1.7,5.3,3,5.3,7.3c-0.4,39.3,2,78.6-1.2,117.8
		c-0.1,0.7-0.3,1.3-0.5,2c-3.1,0.8-4.7-1.6-6.8-3c-46.5-30-94.9-56.6-144.3-81.3c-21.5-10.7-44-14.6-67.9-9.2
		c-25.9,5.8-44.5,27.1-44.8,52.8c-0.1,9.5-5.2,16.2-12.4,21.7c-8.9,6.7-19,11-29.6,14.1c-25.2,7.4-50.8,11.1-76.9,5.6
		c-17.4-3.7-32.5-11.7-43.3-26.5c-4.1-5.5-5.9-11.4-6.3-18.5c-1.4-30.3-0.9-60.6-3.5-90.8
		C1445.2,1054.3,1444.5,1047.3,1443.8,1040.5z"/>
	<path class="st5" d="M663.5,968.8c2.3-0.6,4.3,1.6,6.5,2.8c54.1,30.7,108.2,61.4,162.3,92c4.8,2.7,6.6,5.3,6.1,11.5
		c-1,11.2-0.2,22.6,0.4,33.9c1.5,29.6,2,59.2,0.7,88.9c-3,1.3-4.9-1-7.1-2.2c-50.6-28.1-100.7-57.1-150.6-86.4
		c-11.9-7-18.5-16-18.2-30.6c0.5-25.6-0.1-51.3-0.2-76.9C663.4,990.9,663.5,980,663.5,968.8z"/>
	<path class="st5" d="M1386,778.5c16.2,6.7,32.5,10.1,46.6,19.5c41.7,28.1,85.5,52.8,128.2,79.4c4.8,3,9.7,5.8,13.7,9.9
		c1.8,1.9,3.6,3.9,5.1,6.1c9.2,13.7,3.7,25.1-12.8,26.2c-18.6,1.2-37.2,1.9-55.6,5.5c-21.1,4.1-41.4,10.2-59.4,22.3
		c-3.1,2.1-5.2,2.5-8.5-0.1c-16.3-12.7-33.5-24.2-51.6-34c-3.9-2.1-6.2-4.1-4.9-9.3c1-4.1,0.7-8.6,0.5-12.9
		c-0.7-23.3-1.9-46.6-2.3-69.9C1384.6,807.4,1385.6,793.5,1386,778.5z"/>
	<path class="st5" d="M2398.9,791.2c-3.6,20.3-3.8,39.5-2.6,58.8c1.1,17.3,1.8,34.6,3.2,51.8c0.6,6.5-1.3,10.3-7,13.6
		c-8.4,4.7-16.3,10.3-24.3,15.7c-3.3,2.2-6,2.8-10,0.7c-15.4-8-32.1-10.3-49.3-10.4c-19.3-0.1-38.6-1.2-57.4-5.9
		c-7.6-1.9-14.4-5.2-20.2-10.4c-4.6-4.2-4.8-6.9-1.5-12.3c2.8-4.6,6.6-8.4,11.3-11.1c51.1-29.8,102.2-59.6,153.4-89.4
		C2395.3,791.9,2396.3,791.9,2398.9,791.2z"/>
	<path class="st5" d="M1708.1,354.4c-8.4-7-15.6-14.7-17.4-26.3c-0.6-4.1,3.3-8.3-0.4-12.2c2.7-6.6,8.3-10.3,14.4-12.9
		c11.1-4.9,22.7-7.3,35-6.1c21.4,2.1,42.6,0.6,63.4-4.8c14-3.6,26.7-9.9,37.8-18.4c2.5,1.5,2.2,3.2,2.2,4.8
		c0.2,29.6,0.1,59.3,0.8,88.9c0.2,7.2-2.8,11-8.5,14.2c-10.5,5.9-22.1,7-33.8,7.7c-5,0.3-10.1,0-14.5,2.8c-3.6,2.2-6.3,0.1-9.2-1.5
		c-19.6-10.6-39.2-21.2-58.9-31.7C1715.6,357,1712.4,354.4,1708.1,354.4z"/>
	<path class="st12" d="M1687.6,321.7c0,4,0.1,8.1,0.1,12.1c-0.7,0.9-1.4,1-2.2,0.1c-2.9-6.2-3.1-12.3,0.2-18.4
		C1686.4,317.6,1685.3,320.2,1687.6,321.7z"/>
	<path class="st13" d="M1563.8,867.4c1.3,0,2.7,0.1,4,0.1c0,0-0.3-0.1-0.3-0.1c1.1,0.8,2.3,2.3,1.6,3.1c-1.9,2-3.4-0.7-5.1-1.1
		c-0.7-0.4-0.9-0.8-0.7-1.2C1563.4,867.6,1563.6,867.4,1563.8,867.4z"/>
	<path class="st14" d="M1563.8,867.4c0,0.7,0,1.3,0.1,1.9c-1.5-0.7-4-0.8-2.8-3.2C1561.6,865.1,1563.2,866.2,1563.8,867.4z"/>
	<path class="st15" d="M1689.6,317.8c0.6,1.7,0.1,3.1-1.4,4C1687.7,320.2,1688,318.8,1689.6,317.8z"/>
	<path class="st16" d="M295.4,1843.3c3.4-2.6,6.9-4.4,9.7-7.4c4.6-4.8,11.1-5.9,17.3-6.9c5.4-0.9,11.5,3.1,13.9,8
		c2.5,5.3,1.3,12.4-2.8,16.7c-4.5,4.7-11.5,6.4-17.4,3.4c-4.7-2.4-9-5.6-13.2-8.9C300.6,1846.4,298.6,1844.3,295.4,1843.3z"/>
	<path class="st17" d="M1018,1374.7c9.3,21.6,25.3,35.3,48,41.1c19.5,5,38.1,3.4,55.9-6.5c7.8-4.4,15.3-9.4,23.7-12.5
		c24.9,7.9,50,14.3,76.2,16.6c9.8,0.9,19.8,0.5,29.6,2.6c1.9,0.4,4,0.2,5.8,1.2c19.2,10.4,40.2,11.8,61.4,12.9
		c8.2,0.4,16.4,2.2,24.8,5.4c16.3,6.3,33.9,9.2,51.5,9.9c7,0.3,13.6,2.9,20.7,2.4c2.8-0.2,5.8,1.9,4.5,6c-7.6,5.9-15.8,11-22.6,18
		c-14.3,14.8-16.9,35.5-6.3,53.2c6.7,11.2,15.8,20,27.9,24.7c42.1,16.4,85.1,21.1,129,8.1c21.5-6.4,35.8-21.1,45.2-41
		c2.4-5.1,4.7-10.3,6.3-15.7c5.4-17.6,18.2-25.6,35.4-27.8c13.8-1.7,26.7,0.1,39.2,7.8c48.7,30.1,98,59.4,147,89
		c3.9,2.4,8.3,4.2,11.4,7.8c-0.3,3-2.7,3.7-4.7,4.8c-60.9,33.6-121,68.8-182.4,101.5c-22.1,11.8-42.1,9.1-62-3.7
		c-5.2-3.3-9.4-7.7-10.9-13.8c-10.3-41.4-40.5-59.5-79-68.1c-3.2-0.7-6.5-1.4-9.8-2.1c-6.3-5.2-14-3.2-21-3.2
		c-4.4,0-8.5,0.1-12.6-1.5c-7.2-2.7-14.8-3.7-22.2-5.4c-32.3-7.4-65.7-9.5-97.5-18.4c-22.3-6.2-45.1-7.6-67.4-12.7
		c-27.6-6.3-55.7-10.8-83.9-14.5c-11.9-1.6-24.4-3.4-35.5-9.2c-4-2.1-8.5-1.2-12.8-1.5c-18.6-1.2-36.6-6.8-55.1-8.2
		c-3.3-0.3-6.6-1.1-9.5-2.7c-7.2-4.1-15-5.1-23.1-5.4c-18.7-0.7-36.7-5.8-55-8.8c-4.6-0.7-7.4-3.3-4.6-8.5l0,0
		c2.2-1.1,4.3-2.3,6.1-3.9l0,0c1.1-1,3.1-0.6,3.9-2.3l-0.2,0.2c1-0.3,1.6-1.1,2.3-1.9l0,0c2.7-1.3,4.5-3.4,6.1-5.8l0.1-0.1
		c0.6-0.7,1.4-1.3,1.8-2.1l-0.1,0.1c1-0.7,1.8-1.5,1.9-2.8c-0.2-0.5,0-0.9,0.5-1.2c0.7-0.8,1.4-1.6,1.5-2.7c-0.2-0.5-0.1-1,0.4-1.3
		c1.1-1.3,0.9-3.1,1.6-4.5c-0.3-0.5-0.2-1,0.3-1.5c1.6-6,1.5-12,0-17.9c-8.1-24.2-27.7-31.8-50.3-33.9c-12.2-1.2-24.6-0.7-36.8-2
		c-18.3-2-36.1-5.8-52.4-14.7c-11.9-6.5-20.6-15.7-23.6-29.4c-2-9.3-0.9-17.8,6.9-24.4c7.6,7.4,17.9,5.1,26.6,5.7
		c12.2,0.9,23.5,3,35.2,6.9c14.6,4.8,30.2,7.2,45.7,8.8c15.3,1.5,31,0.9,45.2,8.5C1010,1376.4,1014,1376.1,1018,1374.7z"/>
	<path class="st18" d="M1348,1684.4c1.9,4.6,3.5,9.3,5.7,13.7c7.7,15.4,20.4,25.1,36.3,30.9c18.6,6.8,38.1,9.1,57.6,11.7
		c12.2,1.6,24.5,2.7,36.5,5.7c4.2,1.1,8.3,2.4,12,4.9c6.6,4.4,7.2,9.9,2.1,16c-2.2,2.6-5.2,4.2-8.1,5.8c-48.5,28-97,55.8-145.3,84
		c-5.1,3-8.7,2.4-13.5-0.4c-43.6-25.8-87.1-51.7-131.8-75.3c-12.6-6.7-25.1-13.7-38.4-19.1c-21.7-8.8-43.9-10.9-66.3-3.2
		c-22.1,7.5-34.5,23.6-36.7,46.5c-1.3,13.7-7.8,22.9-19.2,29.5c-14.4,8.3-30.3,12.1-46.3,14.9c-19.1,3.4-38.3,4.4-57.4-1.1
		c-21.3-6.1-37.1-18.9-47.4-38.5c-9.4-17.9-4.6-34.2,13.3-43.8c13.7-7.4,28.9-9.7,44.1-11.8c20.2-2.7,40.6-2.4,60.9-2.6
		c7-0.1,14-0.6,20.5-3.4c17.7-7.7,25-24.7,18.2-42.8c-5.1-13.7-14.9-23.4-27.4-30.6c-32.6-18.8-65.2-37.6-97.8-56.4
		c-2-1.1-3.8-2.6-5.7-3.9c4.3-5.2,9.8-2.8,14.9-2.1c41.1,6,81.7,14.9,122.6,22c26.2,4.5,51.8,11.5,78.2,14.8
		c41.5,5.2,81.9,16.6,123.4,21.9c11.8,1.5,23.3,5.2,35,7.6c16.3,3.3,33.2,2.7,49.1,8C1341.3,1688.5,1344.6,1686.8,1348,1684.4z"/>
	<path class="st19" d="M1348,1684.4c-2.1,8.1-2.7,7.2-10.3,6c-8.5-1.3-16.1-6.5-25.8-4.5c-5.9,1.3-12.7-1.9-19.1-3.2
		c-2.6-0.5-5.1-1.8-7.7-1.8c-10.6,0.1-20.3-5.8-30.2-6.2c-7.7-0.3-14.3-5.1-22.6-3.1c-5,1.2-11.3-2.2-17.1-3.3
		c-8.1-1.6-16.1-3.4-24.3-4.2c-10.1-1-19.7-6.3-29.4-6.8c-8.8-0.4-16.4-5.1-25.8-3.8c-6.3,0.9-14-2.6-21.2-3.5
		c-2.3-0.3-4.6-1.4-6.8-1c-9,1.4-16.3-4.6-24.9-5.3c-2.9-0.3-5.7-2.5-9.1-1.1c-1.1,0.5-2.7,0.3-3.9-0.2c-15.6-5.5-32-7.2-48.2-9.5
		c-2.3-0.3-4.5-0.6-6.5-2c-1.3-0.9-3.2-2.1-4.4-1.8c-6.8,1.7-13.1-1.2-19.1-2.8c-7.9-2.1-16-2.5-23.9-4.6c-9-2.3-18.8-3.7-28.3-4.6
		c-5.3-0.5-10.4-2-15.7-2.5c-3.3-0.3-6.5-0.5-9.8,0.3c-20.7-10.5-40.4-22.8-60.5-34.4c-0.4-0.3-0.6-1.1-0.9-1.8
		c1-2.8,3.8-3.5,5.9-4.8c40.3-25.1,80.6-50.2,121-75.2c1.4-0.9,3-1.4,4.5-2c0.4,2.6,0,6,3.7,6c14.6,0.1,28.2,5.8,42.9,6.9
		c9.6,0.7,19.6,0.9,29.2,3.3c2,0.5,3.9,0.7,5.4,2.1c5.3,5,11.7,5.2,18.4,4.4c1.6-0.2,3.7-0.7,4.9,0.1c9.1,5.8,20.2,3.1,29.6,7.1
		c7.7-3.1,15.1,4.1,22.9,0.7c1-0.4,3.3,0,3.7,0.7c3.5,6.2,9.8,4.6,15.1,5.8c13.1,3,26.1,7.1,39.4,8c7,0.5,13.9,3.8,21.1,1.5
		c1.6-0.5,3.3-0.3,4.8,0.7c0.3,0.2,0.6,0.4,0.8,0.6c4.1,6.1,13-4,16.3,4.9c6,1.7,11.9,2.7,18.3,2c6.2-0.8,11.6,3.9,17.8,4.8
		c12.4,1.7,24.8,3.7,37.3,4c2.6,0.1,4.6,0.6,6.2,2.3c1.5,1.6,3.2,2.1,5.2,2.5c16.1,3.2,32.2,6.5,48.2,9.7c7.4-3.9,14.7,3.5,22.2,0.4
		c0.9-0.4,3,0.2,3.6,1c5.4,7.4,14,4.6,21,6.7c8.8,2.5,18.6,1.3,26.9,6c8.8,5.1,18.1,2.7,27.3,2.3c4.3-0.2,8.3-0.7,8,5.5
		c-10.2-0.7-20.4-2-30.8-1.9c-26.5,0.3-51.2,7.2-73.9,20.8c-21.7,13-32.6,32.5-31.7,58C1347.5,1677.1,1347.8,1680.8,1348,1684.4z"/>
	<path class="st20" d="M1420.2,1453.8c-0.6-1.6-1.6-3.9-3-3.7c-6.8,0.7-13.3-2-19.7-2.2c-11.8-0.4-23.2-1.4-34.3-5.2
		c-1.2-0.4-2.8-1.7-3.6-1.3c-6.3,3.1-11.2-1.9-16.8-2.4c-1.7-0.2-3.7-0.1-4.3-1.9c-1.5-4.5-4.3-4.2-7.9-2.7
		c-2.6,1.1-5.2,0.6-7.5-1.2c-0.5-0.4-1.3-1.2-1.6-1.1c-7.6,3.8-14.9-1.9-22.4-0.6c-1.3,0.2-3,1.5-3.7,1c-10.8-6.3-25-2.7-34.6-10.2
		c-7.1-5.5-15.5-1.3-21.9-6.2c-0.7-0.5-3.1,0.8-4.5,1.6c-2.7,1.4-5,1.3-7.4-0.6c-1-0.8-2.6-2-3.4-1.7c-8.7,3.1-16.3-3.7-24.8-2.4
		c-4,0.6-7.9-0.2-11.5-2.2c-5.6-3.2-12.4,0.5-18.1-3.4c-2-1.3-5.2-0.9-6.7-3.5c-1.7-2.9-4.1-2.9-6.9-1.7c-5.6,2.4-7.9-1.1-9.7-5.4
		c14.1-9.4,29.4-16.9,44.2-25.1c35.5-19.8,71.1-39.3,106.6-59.1c14.5-8,30-10.6,46.3-9.4c7.4,0.6,14.2,3.2,20.8,6.7
		c55.2,29.5,110.6,58.6,166.3,87.2c2.1,1.1,4.3,2.1,6,3.6c5.2,4.6,8.6,10.4,7.3,17.6c-1.3,6.9-6.4,10.6-12.8,12.7
		c-7.1,2.4-14.5,2.2-21.8,2c-20.1-0.5-39.8,2.2-59.1,8.2C1439.2,1444.3,1429.8,1449.3,1420.2,1453.8z"/>
	<path class="st20" d="M1018,1374.7c-0.3,2-0.6,5.1-2.6,4.8c-5.1-0.8-10.9-1.5-14.6-4.5c-2.7-2.1-3.9-3.5-7.2-2.3
		c-1.9,0.7-4.1,0.4-5.7-0.9c-2.8-2.4-5.7-3.2-9.1-1.4c-0.6,0.3-1.5,0.7-1.9,0.4c-6.8-3.8-14.5-1.7-21.6-3.1
		c-9.2-1.9-19-1.4-27.5-6.3c-6.1,3-11.3-2.3-16.8-2.1c-5.3,0.3-4.8-8.1-10.3-5.6c-4.1,1.9-7.7,1.5-11.1-1.5
		c-0.2-0.2-0.7-0.5-0.9-0.4c-7.3,5.4-14.3-1.9-21.5-0.4c-7.7,1.6-9.4,0.6-13.7-7c2.8-4.8,7.5-7.6,12.2-10
		c36.7-18.4,74.4-22.9,113.4-7.3c5.6,2.2,10.8,5.2,15.7,8.6C1008.6,1345.1,1016.1,1358.3,1018,1374.7z"/>
	<path class="st19" d="M1009.9,1449c3,6,3.1,12,0,17.9C1009.9,1461,1009.9,1455,1009.9,1449z"/>
	<path class="st19" d="M1001.8,1483c-0.2,3.8-2.2,5.8-6.1,5.8C997.3,1486.5,999.4,1484.5,1001.8,1483z"/>
	<path class="st19" d="M989.7,1492.9c-1.1,2.8-3.1,4.2-6.1,3.9C985.1,1494.5,987.2,1493.3,989.7,1492.9z"/>
	<path class="st19" d="M1009.6,1468.4c0.2,1.8,0.1,3.4-1.6,4.5C1007.9,1471.2,1008.2,1469.6,1009.6,1468.4z"/>
	<path class="st19" d="M993.6,1490.6c-0.6,1.9-2.1,2.3-3.9,2.3C990.6,1491.3,992,1490.7,993.6,1490.6z"/>
	<path class="st19" d="M1007.6,1474.2c-0.1,1.1-0.5,2.1-1.5,2.7C1006.1,1475.7,1006.6,1474.8,1007.6,1474.2z"/>
	<path class="st19" d="M1005.6,1478.1c-0.1,1.3-0.7,2.2-1.9,2.8C1003.8,1479.6,1004.5,1478.7,1005.6,1478.1z"/>
	<path class="st19" d="M1003.7,1480.8c-0.6,0.7-1.2,1.4-1.8,2.1C1002,1481.8,1002.6,1481.1,1003.7,1480.8z"/>
	<path class="st19" d="M995.7,1488.9c-0.4,1-1.2,1.7-2.3,1.9C993.8,1489.6,994.6,1489,995.7,1488.9z"/>
	<path class="st21" d="M1697.7,354c-2.4-1.6-4.8-3.3-5.8-6.3c0.8-0.6,1.6-0.5,2.4,0.1c2.6,1.3,4.1,3.7,5.6,6
		C1699.2,354.7,1698.5,354.7,1697.7,354z"/>
	<path class="st22" d="M1688.1,335.5c1.8,1.6,2,3.9,2.5,6c-0.8,1-1.6,1.1-2.6,0.2c-0.7-1.3-2-2.4-1.8-4.2
		C1686.7,336.9,1686.8,335.7,1688.1,335.5z"/>
	<path class="st23" d="M1697.7,354c0.7-0.1,1.4-0.1,2.2-0.2c1.3,0.7,3.8,1.7,2.2,3.1C1700.4,358.2,1698.7,355.7,1697.7,354z"/>
	<path class="st24" d="M1688,341.8c0.9-0.1,1.7-0.2,2.6-0.2c1.4,0.9,1.7,2.3,1.5,3.8c-0.2,0.2-0.5,0.5-0.7,0.7
		C1689.3,345.4,1688.7,343.6,1688,341.8z"/>
	<path class="st25" d="M1688.1,335.5c-0.6,0.7-1.3,1.4-1.9,2.1c-0.2-1.2-0.5-2.5-0.7-3.7c0.7,0,1.4-0.1,2.2-0.1
		C1688.1,334.3,1688.2,334.9,1688.1,335.5z"/>
	<path class="st26" d="M1694.3,347.8c-0.8,0-1.6-0.1-2.4-0.1c-0.4-0.5-0.5-1-0.5-1.6c0.4-0.1,0.6-0.4,0.7-0.7
		C1693.4,345.7,1693.9,346.7,1694.3,347.8z"/>
</g>
</svg>
