<?xml version="1.0" encoding="utf-8"?>
<!-- Generator: Adobe Illustrator 25.4.1, SVG Export Plug-In . SVG Version: 6.00 Build 0)  -->
<svg version="1.1" id="Layer_1" xmlns="http://www.w3.org/2000/svg" xmlns:xlink="http://www.w3.org/1999/xlink" x="0px" y="0px"
	 viewBox="0 0 384 299" style="enable-background:new 0 0 384 299;" xml:space="preserve">
<style type="text/css">
	.st0{fill:#004643;}
</style>
<g>
	<path class="st0" d="M364.6,55c-14.7-4.4-29.9-5.9-45.1-6.7c-2.8-0.2-5.7,0-9,0c0-5.2-0.2-9.8,0.1-14.3c0.5-7.2-2.9-12.2-8.7-15.8
		c-8.6-5.5-18.2-8.1-28-10.3c-31.4-7-63.3-8.4-95.4-7.6c-10.2,0.2-20.5,1.1-30.7,1.7c-0.8,0.1-1.5,0.2-2.2,0.3
		c-4.5,0.6-6.6,2.7-6.2,6.3c0.4,3.5,3,5.2,7.5,4.8c35.6-3.2,71.2-3.3,106.5,2.2c12.1,1.9,24,5.5,35.9,8.9c3.7,1,6.8,3.7,10.2,5.7
		c0,0.5,0,1,0.1,1.5c-2.5,1.7-4.9,3.7-7.5,5c-10.6,5.1-21.9,7.6-33.4,9.4c-38,6-76.1,6.2-114.3,2.5c-16.8-1.6-33.5-4.2-49.2-10.5
		c-3.7-1.5-7.1-3.8-11.7-6.4c2.9-2.2,4.5-4.1,6.5-4.9c9-3.2,18.2-6,27.3-9c0.7-0.2,1.5-0.2,2.2-0.4c3.2-1,4.8-3.5,4.3-6.5
		c-0.5-2.9-3.1-5-6.4-4.4c-12,2.2-24,5-34.7,11.4c-6.2,3.7-9.9,8.9-9.3,16.6c0.3,4.3,0.1,8.7,0.1,13.4C67,48.2,60.7,48.5,54.4,49
		c-13.3,1.2-26.5,3-39.3,7.4C8.9,58.6,3.4,61.8,0,67.8v174c3.3,6.1,8.8,9.2,15.1,11.4c15.6,5.4,31.9,7,48.2,8.1c3.2,0.2,6.5,0,9.9,0
		c0.1,1.7,0.4,2.8,0.2,3.9c-0.7,7.4,2.8,12.9,9,15.9c7.8,3.8,15.9,7.2,24.3,9.3c32,8.1,64.7,9.1,97.5,8.5c25.6-0.5,51.2-2.4,76-9.2
		c6.8-1.9,13.5-4.5,19.8-7.7c7.1-3.5,11.5-9.2,10.4-17.8c-0.1-0.5,0-1,0-1.5c0-0.2,0.2-0.5,0.4-1c6.5-0.4,13-0.9,19.6-1.2
		c3.2-0.2,5.6-1.3,6.3-4.7c0.8-3.8-1.8-6.7-6.1-6.5c-6.6,0.3-13.2,0.8-20,1.2v-30.8c20.9-1,41.7-2,62-10c0,9.6,0.1,18.8-0.1,28
		c0,0.9-1.5,2.3-2.7,2.7c-4.5,1.8-9.1,3.4-13.7,4.9c-3.1,1-5,2.8-4.8,6.2c0.2,3,2.9,5.5,5.9,4.9c7.9-1.6,15.6-3.6,22-8.9
		c1.8-1.5,3.1-3.8,4.6-5.7v-174C379.8,60.1,372.3,57.3,364.6,55z M73.3,208.4c-4.7-0.2-9.3-0.4-14-0.7c-1.9-0.1-3.7-0.4-5.6-0.4
		c-3.5,0-5.9,2.2-6,5.3c-0.1,3.2,2,5.6,5.5,5.8c5.7,0.4,11.5,0.7,17.2,1c0.9,0.1,1.7,0.2,2.8,0.3v30.5c-19-0.8-37.7-1.8-55.7-8.4
		c-6.4-2.3-6.3-2.5-6.3-9.1v-23c4.3,1.3,8.2,2.6,12.1,3.7c4.9,1.4,8,0.1,8.9-3.4c0.9-3.7-1.1-6-5.9-7.5c-4.3-1.3-8.5-2.8-12.6-4.6
		c-1.2-0.5-2.4-2.3-2.4-3.6c-0.2-8.7-0.1-17.5-0.1-26.9c20.2,8,41,9,62,10.1V208.4z M73.3,166.4c-6.2-0.4-12.4-0.4-18.5-1.2
		c-10.5-1.4-20.9-3.4-31.3-5.1c-1.1-0.2-2.2-0.6-3.2-1c-8.9-3.1-9-3.3-9-12.6v-20.9c20.2,8,41.1,9,62,10V166.4z M73.3,124.4
		c-6.2-0.4-12.4-0.4-18.5-1.2c-10.5-1.4-20.9-3.4-31.3-5.2c-1.1-0.2-2.2-0.6-3.2-1c-8.9-3.1-9-3.2-9-12.6V83.6
		c20.3,8,41.1,9,62.1,10.1V124.4z M73.4,82.4c-21-1.4-42-1.6-61.3-11.7c19.3-9.8,40.1-10.4,61.3-11.6V82.4z M295.2,271.8
		c-8.5,3.2-16.9,6.8-25.7,8.9c-29.5,6.8-59.6,7.6-89.8,7c-24.1-0.5-48.2-2.2-71.6-8.5c-6.8-1.8-13.3-4.9-19.8-7.6
		c-2.5-1.1-3.6-3.2-3.6-6.3c0.2-12.6,0.1-25.2,0.1-37.9v-3.7c11.8,5.7,23.8,8.5,36.1,10.8c21.5,3.9,43.1,5.3,64.9,5.4
		c29.7,0.2,59.2-0.9,88.2-7.8c8.4-2,16.6-5,25.1-7.5c0,0.7,0.1,1.9,0.1,3.1c0,12.4-0.1,24.7,0.1,37.1
		C299.4,268.2,298.2,270.7,295.2,271.8z M295.2,212.5c-7.4,2.9-14.8,6.2-22.4,8.1c-23.9,6-48.3,7.4-72.8,7.8
		c-26.2,0.4-52.3-0.4-78-5.5c-10.3-2.1-20.4-5.7-30.4-8.9c-5-1.6-7.2-4.9-7-10.8c0.6-11.6,0.2-23.2,0.2-34.9v-4.1
		c11.6,5.6,23.6,8.5,35.7,10.7c21.6,3.9,43.4,5.3,65.3,5.5c29.7,0.2,59.2-0.9,88.2-7.8c8.4-2,16.6-5,25.1-7.5c0,0.7,0.1,1.9,0.1,3.1
		c0,12.4-0.1,24.8,0.1,37.1C299.4,208.9,298.2,211.4,295.2,212.5z M294.8,94.4c-7.2,2.8-14.4,5.6-21.8,7.8c-5.3,1.6-11,2.2-16.5,3.3
		c-4.5,0.9-6.7,4-5.3,7.7c1.2,3.2,3.8,4,7,3.5c13.3-2.2,26.5-4.8,38.9-10.6c0.5-0.2,1.1-0.5,2.2-0.9c0,14.8,0.1,28.9-0.2,43
		c0,1.7-2,4.3-3.6,5c-8.5,3.4-17.1,7.1-26,9.1c-29.5,6.8-59.6,7.6-89.8,7c-24.1-0.5-48.2-2.2-71.6-8.5c-6.8-1.8-13.3-4.9-19.8-7.7
		c-2.6-1.1-3.6-3.3-3.6-6.3c0.2-12.6,0.1-25.2,0.1-37.9c0-1.1,0.1-2.2,0.1-3.6c13,6.2,26.6,9.2,40.4,11.4
		c25.6,4.1,51.4,5.3,77.3,4.7c8.4-0.2,16.7-0.7,25.1-1.1c1.2,0,2.5-0.2,3.7-0.5c3.2-0.8,4.7-2.9,4.3-6c-0.3-3-2.2-4.8-5.3-4.8
		c-3.1,0-6.2,0.2-9.4,0.4c-33.3,1.9-66.5,1.3-99.3-4.9c-10.2-1.9-20.1-5.6-30.1-8.7c-5.1-1.6-7.4-5-7.2-11
		c0.5-12.7,0.2-25.5,0.2-38.5c5,1.8,9.6,3.7,14.4,5.2c16,5.1,32.6,7.4,49.3,8.9c25.7,2.3,51.4,2.5,77.1,0.8
		c21-1.4,41.8-3.9,61.9-10.4c3.9-1.3,7.6-2.9,11.8-4.5v28.7c0,4-0.3,8,0.1,12C299.7,90.5,298.1,93.1,294.8,94.4z M310.6,59.2
		c21,1.1,41.9,1.7,61.3,11.5c-19.2,10.2-40.2,10.3-61.3,11.8V59.2z M310.6,93.7c20.9-1.2,41.8-2,62.1-10.1c0,9.5,0.1,18.6-0.1,27.6
		c0,1-1.6,2.6-2.8,3c-7.9,2.5-15.8,5.5-24,6.8c-11.5,1.9-23.2,2.6-35.3,3.9V93.7z M372.6,153.3c0,1-1.4,2.4-2.5,2.8
		c-6.7,2.3-13.3,5.2-20.2,6.3c-12.9,2.1-25.9,3.2-39.2,4.7v-31.4c20.8-1.1,41.8-2,62-10.1C372.7,135.2,372.8,144.2,372.6,153.3z
		 M372.6,195.3c0,1.1-1.8,2.8-3.1,3.2c-6.6,2.2-13.2,4.8-20,5.9c-12.8,2-25.7,3.1-38.8,4.6v-31.4c21-1,41.9-2,62-10
		C372.7,177.2,372.8,186.3,372.6,195.3z"/>
</g>
</svg>
