<?xml version="1.0" encoding="utf-8"?>
<!-- Generator: Adobe Illustrator 25.4.1, SVG Export Plug-In . SVG Version: 6.00 Build 0)  -->
<svg version="1.1" id="Layer_1" xmlns="http://www.w3.org/2000/svg" xmlns:xlink="http://www.w3.org/1999/xlink" x="0px" y="0px"
	 viewBox="0 0 123.9 158.2" style="enable-background:new 0 0 123.9 158.2;" xml:space="preserve">
<style type="text/css">
	.st0{fill:#777777;}
</style>
<g>
	<g>
		<path class="st0" d="M48.2,0c-5.7,0-10.3,4.7-10.3,10.3v6.9h-27c-0.2,0-0.4-0.1-0.6-0.1c-0.2,0-0.3,0-0.5,0.1H3.5
			c-1.2,0-2.4,0.6-3,1.7c-0.6,1.1-0.6,2.4,0,3.5c0.6,1.1,1.8,1.7,3,1.7h3.4v123.8c0,5.7,4.7,10.3,10.3,10.3h89.4
			c5.7,0,10.3-4.7,10.3-10.3V24.1h3.4c1.2,0,2.4-0.6,3-1.7c0.6-1.1,0.6-2.4,0-3.5c-0.6-1.1-1.8-1.7-3-1.7h-6.3
			c-0.4-0.1-0.8-0.1-1.1,0H86v-6.9C86,4.7,81.4,0,75.7,0L48.2,0z M48.2,6.9h27.5c1.9,0,3.4,1.5,3.4,3.4v6.9H44.8v-6.9
			C44.8,8.4,46.3,6.9,48.2,6.9z M13.8,24.1h26.9c0.4,0.1,0.8,0.1,1.1,0H82c0.4,0.1,0.8,0.1,1.1,0h27v123.8c0,1.9-1.5,3.4-3.4,3.4
			H17.2c-1.9,0-3.4-1.5-3.4-3.4V24.1z M37.8,61.9c-1.4,0-2.6,0.9-3.2,2.2c-0.5,1.3-0.2,2.8,0.8,3.8l21.6,21.6l-21.6,21.6
			c-0.9,0.9-1.3,2.2-0.9,3.3c0.3,1.2,1.2,2.2,2.5,2.5c1.2,0.3,2.5,0,3.3-0.9L62,94.3L83.6,116c0.9,0.9,2.2,1.3,3.3,0.9
			c1.2-0.3,2.2-1.2,2.5-2.5c0.3-1.2,0-2.5-0.9-3.3L66.8,89.4l21.6-21.6c1-1,1.3-2.5,0.8-3.8c-0.6-1.3-1.8-2.2-3.3-2.1
			c-0.9,0-1.7,0.4-2.4,1L62,84.6L40.3,62.9C39.7,62.3,38.8,61.9,37.8,61.9z"/>
	</g>
</g>
</svg>
