<svg xmlns="http://www.w3.org/2000/svg" version="1.1" xmlns:xlink="http://www.w3.org/1999/xlink" xmlns:svgjs="http://svgjs.com/svgjs" width="512" height="512" x="0" y="0" viewBox="0 0 512 512" style="enable-background:new 0 0 512 512" xml:space="preserve" class=""><g>
<g xmlns="http://www.w3.org/2000/svg">
	<g>
		<path d="M435.574,59.858H25.119C11.268,59.858,0,71.126,0,84.977v273.637c0,13.851,11.268,25.119,25.119,25.119h144.839    l-6.547,52.376h-10.025c-4.427,0-8.017,3.589-8.017,8.017c0,4.427,3.589,8.017,8.017,8.017h42.756    c4.427,0,8.017-3.589,8.017-8.017c0-4.427-3.589-8.017-8.017-8.017H179.57l6.547-52.376h10.025c4.427,0,8.017-3.589,8.017-8.017    c0-4.427-3.589-8.017-8.017-8.017H25.119c-5.01,0-9.086-4.076-9.086-9.086v-26.188h180.109c4.427,0,8.017-3.589,8.017-8.017    s-3.589-8.017-8.017-8.017H16.033V84.977c0-5.01,4.076-9.086,9.086-9.086h410.455c5.01,0,9.086,4.076,9.086,9.086V256    c0,4.427,3.589,8.017,8.017,8.017c4.427,0,8.017-3.589,8.017-8.017V84.977C460.693,71.126,449.425,59.858,435.574,59.858z" fill="#004643" data-original="#000000" class=""></path>
	</g>
</g>
<g xmlns="http://www.w3.org/2000/svg">
	<g>
		<path d="M367.165,213.779H247.449c-13.851,0-25.119,11.268-25.119,25.119v188.125c0,13.851,11.268,25.119,25.119,25.119h119.716    c13.851,0,25.119-11.268,25.119-25.119V238.898C392.284,225.047,381.016,213.779,367.165,213.779z M376.251,427.023    c0,5.01-4.076,9.086-9.086,9.086H247.449c-5.01,0-9.086-4.076-9.086-9.086v-9.086h137.887V427.023z M376.251,401.904H238.363    V264.017h137.887V401.904z M376.251,247.983H238.363v-9.086c0-5.01,4.076-9.086,9.086-9.086h119.716    c5.01,0,9.086,4.076,9.086,9.086V247.983z" fill="#004643" data-original="#000000" class=""></path>
	</g>
</g>
<g xmlns="http://www.w3.org/2000/svg">
	<g>
		<path d="M486.881,282.188h-51.307c-13.851,0-25.119,11.268-25.119,25.119v119.716c0,13.851,11.268,25.119,25.119,25.119h51.307    c13.851,0,25.119-11.268,25.119-25.119V307.307C512,293.456,500.732,282.188,486.881,282.188z M495.967,427.023    c0,5.01-4.076,9.086-9.086,9.086h-51.307c-5.01,0-9.086-4.076-9.086-9.086v-9.086h69.478V427.023z M495.967,401.904h-69.478    v-69.478h69.478V401.904z M495.967,316.393h-69.478v-9.086c0-5.01,4.076-9.086,9.086-9.086h51.307c5.01,0,9.086,4.076,9.086,9.086    V316.393z" fill="#004643" data-original="#000000" class=""></path>
	</g>
</g>

</g></svg>