<?xml version="1.0" encoding="utf-8"?>
<!-- Generator: Adobe Illustrator 25.4.1, SVG Export Plug-In . SVG Version: 6.00 Build 0)  -->
<svg version="1.1" id="Layer_1" xmlns="http://www.w3.org/2000/svg" xmlns:xlink="http://www.w3.org/1999/xlink" x="0px" y="0px"
	 viewBox="0 0 348.2 276.1" style="enable-background:new 0 0 348.2 276.1;" xml:space="preserve">
<style type="text/css">
	.st0{fill:#004643;}
</style>
<g>
	<path class="st0" d="M288.1,144v-4.4c0-39.6,0-79.3,0-118.9c0-13.6-7-20.6-20.4-20.6C185.2,0,102.9,0,20.5,0C7,0,0,7.1,0,20.6
		v180.4c0,14.2,6.8,21,21.2,21h195.9c7.2,35,37.4,55.5,68.7,54c32.2-1.6,57.8-26.2,62-59.7C351.1,190.5,333.6,149.5,288.1,144z
		 M12,200.4V20.9c0-7.2,1.6-8.9,8.7-8.9h246.8c6.8,0,8.6,1.8,8.6,8.7v122.4c-10.1,3.4-19.6,6.6-29.1,9.8c-0.1,0.5-0.2,1.1-0.3,1.6
		c-0.8-1.1-1.5-2.3-2.4-3.3c-14.2-15.6-28.4-31.3-42.6-46.9c-6.4-7.1-13.1-7.2-20-0.4c-9.5,9.6-19.1,19.1-28.6,28.6
		c-0.9,0.9-1.8,1.7-2.9,2.7c-0.8-1-1.6-1.8-2.2-2.6c-9.7-12.7-19.4-25.4-29.2-38.1c-6.8-8.9-14.9-8.9-21.9-0.2
		c-27.2,34.1-54.5,68.1-81.7,102.2C14.3,197.6,13.5,198.6,12,200.4z M19.9,209.8c29.4-36.6,58.5-73,87.9-109.7
		c28,36.6,55.7,72.9,83.8,109.7H19.9z M216,209.5c-6.6,1.8-8.5,1.2-12.4-3.9c-14.7-19.2-29.3-38.3-43.9-57.5
		c-0.7-0.9-1.3-1.8-1.6-2.1c11.3-11.8,22.2-23.1,33.5-34.9c15.5,17,30.5,33.6,45.9,50.4C223.7,174.7,216.5,190.6,216,209.5z
		 M282.1,264.1c-29.9-0.1-54.2-24.3-54.1-54.2c0.1-30,24.5-54.1,54.7-53.9c29.5,0.2,53.4,24.7,53.3,54.5
		C335.9,240,311.5,264.2,282.1,264.1z"/>
	<path class="st0" d="M222,24c-16.4,0-29.9,13.4-30,29.7C192,70.5,205.5,84.1,222.3,84c16.4,0,29.8-13.5,29.8-29.9
		C252.1,37.5,238.6,24,222,24z M222.1,72c-9.9,0-18.1-8.1-18.1-18.1c0-9.8,8.2-17.9,17.9-17.9c10,0,18.1,8.1,18.1,18.1
		C240,63.9,231.9,72,222.1,72z"/>
	<path class="st0" d="M315.1,221.3c-3.1,2.5-6.2,5-9.4,7.5c-6.2,5-12.5,10-18.7,15c-4,3.2-6,3.2-10,0c-9.4-7.5-18.8-14.9-28.1-22.5
		c-4.2-3.4-4-9,0.6-10.5c2-0.6,5,0,6.8,1.2c5.5,3.9,10.6,8.3,15.9,12.5c1.1,0.8,2.1,1.6,3.8,2.9v-43.5c0-1.1,0-2.2,0-3.4
		c0.2-3.9,2.5-6.4,5.9-6.4c3.5-0.1,6,2.5,6.1,6.6c0.1,9.5,0,19,0,28.5v18.3c2.7-2.1,4.8-3.7,6.9-5.4c4.2-3.3,8.4-6.8,12.6-10.1
		c3.5-2.7,7-2.5,9.2,0.4C319,215.3,318.4,218.6,315.1,221.3z"/>
</g>
</svg>
