<svg xmlns="http://www.w3.org/2000/svg" version="1.1" xmlns:xlink="http://www.w3.org/1999/xlink" xmlns:svgjs="http://svgjs.com/svgjs" width="512" height="512" x="0" y="0" viewBox="0 0 479.808 479.808" style="enable-background:new 0 0 512 512" xml:space="preserve" class=""><g><path xmlns="http://www.w3.org/2000/svg" d="m466.85 276.916-13.173 16.352c-6.627 8.226-9.986 18.566-9.46 29.116l1.045 20.972c1.372 27.505-16.927 52.691-43.51 59.887l-20.269 5.486c-10.196 2.76-18.992 9.15-24.768 17.995l-11.48 17.581c-15.058 23.059-44.665 32.681-70.402 22.875l-19.622-7.475c-9.871-3.761-20.743-3.761-30.614 0l-19.622 7.475c-25.735 9.804-55.343.186-70.402-22.875l-11.48-17.581c-5.775-8.844-14.571-15.235-24.768-17.995l-20.269-5.486c-26.584-7.196-44.883-32.382-43.511-59.887.22-4.413 3.979-7.795 8.389-7.592 4.413.22 7.812 3.976 7.592 8.389-1 20.046 12.336 38.402 31.71 43.646l20.268 5.486c13.991 3.787 26.06 12.555 33.984 24.691l11.48 17.581c10.975 16.806 32.555 23.816 51.309 16.671l19.622-7.475c13.545-5.159 28.462-5.159 42.007 0l19.622 7.475c18.755 7.147 40.335.135 51.309-16.671l11.48-17.581c7.924-12.136 19.994-20.904 33.984-24.691l20.269-5.486c19.374-5.244 32.71-23.6 31.71-43.646l-1.045-20.972c-.722-14.476 3.888-28.664 12.98-39.951l13.173-16.352c12.592-15.63 12.592-38.319 0-53.95l-13.173-16.351c-9.093-11.288-13.703-25.476-12.98-39.951l1.045-20.972c1-20.046-12.336-38.402-31.71-43.646l-20.268-5.486c-13.991-3.787-26.06-12.555-33.984-24.691l-11.48-17.581c-10.975-16.806-32.555-23.816-51.309-16.671l-19.622 7.475c-13.545 5.159-28.462 5.159-42.007 0l-19.622-7.475c-18.754-7.146-40.334-.134-51.309 16.671l-11.48 17.581c-7.924 12.136-19.994 20.904-33.984 24.691l-20.269 5.486c-19.374 5.244-32.71 23.6-31.71 43.646l1.045 20.972c.722 14.476-3.888 28.664-12.98 39.951l-13.173 16.352c-12.592 15.63-12.592 38.319 0 53.95l13.173 16.351c2.771 3.441 2.229 8.477-1.211 11.249-3.44 2.771-8.476 2.229-11.249-1.211l-13.173-16.352c-17.277-21.447-17.277-52.579 0-74.025l13.173-16.352c6.627-8.226 9.986-18.566 9.46-29.116l-1.045-20.972c-1.372-27.505 16.927-52.691 43.51-59.887l20.269-5.486c10.196-2.76 18.992-9.15 24.768-17.995l11.48-17.581c15.059-23.059 44.667-32.681 70.402-22.875l19.622 7.475c9.871 3.761 20.743 3.761 30.614 0l19.622-7.475c25.737-9.805 55.344-.184 70.402 22.875l11.48 17.581c5.775 8.844 14.571 15.235 24.768 17.995l20.269 5.486c26.584 7.196 44.883 32.382 43.511 59.887l-1.045 20.972c-.526 10.55 2.833 20.891 9.46 29.117l13.173 16.351c17.276 21.447 17.276 52.579-.001 74.025zm-304.321-193.775c-106.008 52.868-132.172 194.239-46.137 280.275 68.677 68.677 178.315 68.708 247.023 0 68.677-68.677 68.708-178.315 0-247.023-33.203-33.203-77.066-51.488-123.512-51.488-4.418 0-8 3.582-8 8s3.582 8 8 8c87.673 0 159 71.327 159 159s-71.327 159-159 159-159-71.327-159-159c0-59.64 34.843-115.552 88.766-142.445 3.954-1.972 5.561-6.776 3.589-10.729-1.971-3.956-6.775-5.562-10.729-3.59zm9.375 240.763c0 4.418 3.582 8 8 8h120c4.418 0 8-3.582 8-8s-3.582-8-8-8h-120c-4.419 0-8 3.581-8 8zm-11.2-109c4.418 0 8-3.582 8-8s-3.582-8-8-8h-39.6c-4.418 0-8 3.582-8 8v66c0 4.418 3.582 8 8 8s8-3.582 8-8v-25h25c4.418 0 8-3.582 8-8s-3.582-8-8-8h-25v-17zm132 0c4.418 0 8-3.582 8-8s-3.582-8-8-8h-39.6c-4.418 0-8 3.582-8 8v66c0 4.418 3.582 8 8 8h39.6c4.418 0 8-3.582 8-8s-3.582-8-8-8h-31.6v-17h18.4c4.418 0 8-3.582 8-8s-3.582-8-8-8h-18.4v-17zm-58 8.5c0-13.509-10.991-24.5-24.5-24.5h-23.1c-4.418 0-8 3.582-8 8v66c0 4.418 3.582 8 8 8s8-3.582 8-8v-58h15.1c4.687 0 8.5 3.813 8.5 8.5s-3.813 8.5-8.5 8.5c-3.202 0-7.656-.544-10.261 4.059-1.42 2.508-1.381 5.586.102 8.057l19.8 33c2.275 3.793 7.191 5.015 10.976 2.744 3.789-2.273 5.018-7.187 2.744-10.976l-13.717-22.862c8.728-3.752 14.856-12.435 14.856-22.522zm124-8.5c4.418 0 8-3.582 8-8s-3.582-8-8-8h-39.6c-4.418 0-8 3.582-8 8v66c0 4.418 3.582 8 8 8h39.6c4.418 0 8-3.582 8-8s-3.582-8-8-8h-31.6v-17h18.4c4.418 0 8-3.582 8-8s-3.582-8-8-8h-18.4v-17z" fill="#004643" data-original="#000000" class=""></path></g></svg>