<?xml version="1.0" encoding="utf-8"?>
<!-- Generator: Adobe Illustrator 25.4.1, SVG Export Plug-In . SVG Version: 6.00 Build 0)  -->
<svg version="1.1" id="Layer_1" xmlns="http://www.w3.org/2000/svg" xmlns:xlink="http://www.w3.org/1999/xlink" x="0px" y="0px"
	 viewBox="0 0 512 479.6" style="enable-background:new 0 0 512 479.6;" xml:space="preserve">
<style type="text/css">
	.st0{fill:#004643;}
</style>
<g>
	<path class="st0" d="M500.4,311.5c-32.1,0.2-64.3,0.1-96.4,0.1c-12.7,0-17.2,3.5-20.6,16c-14,0-28.2,0.1-42.3,0
		c-5.5,0-10.8-0.3-13,6.1c-21.4-5-42.1-9.8-62.8-14.8c-6.5-1.6-12.7-1.2-19,1.4c-19.8,8.2-39.7,16.2-59.5,24.3
		c-8,3.2-13.8,8.6-16.9,16.6c-0.3,0.7-0.8,1.4-1.3,2.1c-7-1.9-13.7-3.7-20.4-5.5c-39.2-10.5-78.3-21-117.5-31.5
		c-9.3-2.5-17.7-0.5-24.1,6.7c-2.9,3.2-4.4,7.7-6.6,11.5v27c2.4,8.7,8.4,14.3,15.8,19.1c22.7,14.8,45.5,29.6,67.7,45.2
		c11.7,8.3,24.1,13.1,38.1,15.9c42.2,8.4,84.3,17.7,126.5,26.2c5.2,1.1,11,0.9,16.2-0.2c21-4.5,41.8-9.7,63.4-14.7
		c0.9,8.5,6.9,8.7,13.5,8.6c13.5-0.2,27-0.2,40.5,0.1c2.3,0,4.5,1.8,6.8,2.8c3.9,1.7,7.7,4.8,11.6,4.9c34.3,0.4,68.6,0.3,102.9,0
		c3.1,0,6.1-3.1,9.1-4.8v-158C509.2,312.5,505.3,311.5,500.4,311.5z M328,355.5c-0.1,28.3-0.4,56.6-0.3,85c0,4.5-1,6.6-5.8,7.6
		c-20.3,4.5-40.5,9.6-60.7,14.2c-3.1,0.7-6.7,0.8-9.8,0.1c-46.7-9.7-93.5-19.6-140.2-29.5c-2.4-0.5-4.8-1.4-6.8-2.7
		c-27.5-18.2-54.8-36.6-82.3-54.8c-4.2-2.8-6.4-6-6-11.1c0.3-4,0-8,0.1-12c0-9.5,3.8-12.4,12.8-10c19,5.1,37.9,10.2,56.9,15.2
		c26.3,7.1,52.7,14.2,79,21.2c3.1,0.8,5,2.3,6.5,5.3c4.8,9.5,12.8,15.1,23.5,15.3c19.8,0.4,39.7,0.1,59.5,0.1c0.5,0,0.9-0.2,1.6-0.4
		v-15.6h-5.3c-17.3,0-34.6,0-52,0c-7.9,0-12.9-3.5-14.3-9.8c-1.3-6.2,2-11.5,9.3-14.5c19.4-8,38.7-16,58.2-23.7
		c3-1.2,6.9-1.5,10-0.8c21.9,4.9,43.7,10.1,66.2,15.3C328,352.2,328,353.8,328,355.5z M383.7,455.3h-39.3V343.8h39.3V455.3z
		 M495.8,463.3h-95.4V327.9h95.4V463.3z"/>
	<path class="st0" d="M360,95.3h-16c0-4.8,0-9.6,0-14.3c-0.1-6.5-3-9.4-9.5-9.4c-52.3,0-104.6,0-156.9,0c-6.6,0-9.5,2.9-9.6,9.4
		c-0.1,4.6,0,9.3,0,14.3h-15.7c0-6.5-0.7-13,0.1-19.4c1.5-11.6,11.4-20.2,23.1-20.2c53.6-0.1,107.2-0.1,160.9,0
		c13.1,0,23.2,10.5,23.6,23.6C360.1,84.4,360,89.6,360,95.3z"/>
	<path class="st0" d="M360.5,207.8c-0.6,7.8-0.2,15.9-2,23.5c-2.5,10.2-12.3,16.2-23.7,16.3c-48.5,0-96.9,0-145.4,0
		c-4.5,0-9,0.1-13.5,0c-13.4-0.3-23.6-10.5-23.9-23.9c-0.1-5.1,0-10.3,0-15.9h16c0,5-0.1,9.7,0,14.5c0.1,6.2,3,9.2,9.2,9.2
		c52.5,0,104.9,0,157.4,0c6.5,0,9.3-3,9.4-9.6c0.1-4.6,0-9.2,0-14.1H360.5z"/>
	<path class="st0" d="M384.1,161.3c7.9-7.5,8.2-16.6,7.9-25.9c-0.5-13.4-10.5-23.6-24-23.8c-7.5-0.1-15-0.1-22.5,0
		c-6.8,0-9.6,2.9-9.6,9.9c0,22.3,0,44.6,0,66.9c0,0.9,0.2,1.9,0.2,2.8h16v-24.1c6.3,0.4,13.4-1.2,17.4,1.7
		c6.9,4.9,7.4,13.9,6.1,22.4h15.7C393.1,180.2,392.6,169.8,384.1,161.3z M376,141.7c-0.3,6-2.6,9.5-7.6,9.7
		c-5.3,0.3-10.6,0.1-16.2,0.1v-23.9c5.6,0,11.1-0.4,16.5,0.1C373.4,128.3,376.6,130.2,376,141.7z"/>
	<path class="st0" d="M248,135.8c-0.2-13.7-10.4-24-24-24.2c-7.5-0.1-15-0.1-22.5,0c-6.5,0.1-9.4,2.9-9.4,9.5
		c-0.1,10.2,0,20.3,0,30.5c0,10.3-0.1,20.6,0,31c0.1,5.9,3,8.9,9,9c7.7,0.1,15.3,0.1,23,0c13.6-0.2,23.8-10.5,24-24.2
		C248.1,156.8,248.1,146.3,248,135.8z M232,167.3c0,4.6-2.6,7.7-7.2,8.1c-5.4,0.4-10.9,0.1-16.5,0.1v-47.7c5.8,0,11.7-0.5,17.5,0.2
		c4,0.4,6.2,3.8,6.2,7.9C232,146.4,232.1,156.8,232,167.3z"/>
	<path class="st0" d="M175.9,183.7c-0.1,4.7-3.2,7.8-8,7.8c-11,0.2-22,0.3-33,0c-8.2-0.2-14.8-7.1-14.8-15.3
		c-0.2-16.3-0.2-32.6,0-49c0.1-8.5,6.7-15.3,15.2-15.5c13.3-0.3,26.6-0.1,40.5-0.1v15.9h-39.5v47.7h23.4v-15.5h-7.3v-16.1
		c5.5,0,11.2-0.3,16.7,0.1c4.1,0.3,6.7,3.2,6.8,7.4C176.1,162,176.1,172.8,175.9,183.7z"/>
	<path class="st0" d="M319.9,135c-0.3-12.8-10.5-23-23.3-23.3c-7.8-0.2-15.7-0.1-23.5,0c-6,0.1-9.1,3-9.1,8.8
		c-0.1,23.2,0,46.3,0,69.5c0,0.5,0.3,0.9,0.4,1.3h15.6v-23.7c5.6,0,10.9,0.1,16.2,0c11.3-0.3,20.6-7.6,22.9-18.7
		C320.1,144.4,320,139.6,319.9,135z M304,144.1c-0.5,4.6-3.5,7.3-8.4,7.5c-5,0.1-9.9,0-15.4,0v-23.9c5.7,0,11.3,0,16.9,0
		c0.3,0,0.7,0.1,1,0.2C303.3,129.4,305.1,134.4,304,144.1z"/>
	<path class="st0" d="M284.4,16.9c-3,4.6-5.8,8.8-8.8,13.3c-5.8-3.8-11.2-7.3-16.5-11c-2.3-1.6-3.9-1.6-6.2,0
		c-5.3,3.7-10.7,7.2-16.5,11c-3-4.5-5.8-8.8-8.8-13.3c8.3-5.6,16.2-11.1,24.5-16c2-1.2,5.9-1.2,7.9,0
		C268.2,5.8,276.1,11.3,284.4,16.9z"/>
	<path class="st0" d="M87.7,150.9c3.7,5.1,7,10.5,10.9,16.3c-4.4,3-8.6,5.8-13.3,8.9c-5.6-8.5-11.2-16.7-16.4-25.2
		c-1-1.6-1-4.9,0-6.5c5.1-8.5,10.8-16.7,16.3-25.2c4.6,3,8.7,5.8,13.3,8.9c-3.7,5.6-7.2,11.1-10.9,16.3
		C86,146.7,86,148.4,87.7,150.9z"/>
	<path class="st0" d="M442.7,151.5c-4.9,8.3-10.5,16.1-16,24.5c-4.8-3.2-8.9-5.9-13.3-8.9c3.8-5.7,7.3-11.2,11-16.5
		c1.6-2.2,1.7-3.9,0-6.2c-3.8-5.3-7.2-10.7-11-16.5c4.5-3,8.7-5.8,13.3-8.8c5.5,8.3,11.1,16.2,16,24.4
		C443.9,145.6,443.9,149.5,442.7,151.5z"/>
	<path class="st0" d="M284.5,286.3c-8.5,5.6-16.7,11.2-25.2,16.3c-1.7,1-5.2,0.9-7-0.1c-8.4-5.1-16.4-10.6-24.8-16.2
		c3.2-4.8,5.9-8.8,8.9-13.3c5.6,3.7,11,7.1,16.2,10.8c2.4,1.7,4.1,1.9,6.6,0.1c5.1-3.7,10.5-7,16.3-10.9
		C278.5,277.3,281.3,281.5,284.5,286.3z"/>
	<rect x="432.4" y="431.9" class="st0" width="31.4" height="15.4"/>
</g>
</svg>
