<?xml version="1.0" encoding="utf-8"?>
<!-- Generator: Adobe Illustrator 25.4.1, SVG Export Plug-In . SVG Version: 6.00 Build 0)  -->
<svg version="1.1" id="Layer_1" xmlns="http://www.w3.org/2000/svg" xmlns:xlink="http://www.w3.org/1999/xlink" x="0px" y="0px"
	 viewBox="0 0 372 367.6" style="enable-background:new 0 0 372 367.6;" xml:space="preserve">
<style type="text/css">
	.st0{fill:#004643;}
</style>
<g>
	<path class="st0" d="M357.2,130.4c-6.4-6.1-12.9-12.2-19.4-18.2c-5.2-4.8-8.5-10.6-10.1-17.6c-1.9-8.6-4-17.3-6-25.9
		C317,49,301.7,35.6,282,34c-9-0.7-18-1.3-27-1.5c-8.2-0.2-15.3-2.8-21.8-7.8c-7.2-5.6-14.5-11.1-21.9-16.4
		c-15.5-11-34.9-11.1-50.5-0.2c-7.9,5.5-15.5,11.4-23.2,17.2c-5.2,3.9-11,6.5-17.5,6.9c-9.5,0.6-19,1.2-28.5,1.6
		C72.4,34.7,56,47.5,51,66.3c-2.5,9.3-4.6,18.7-6.7,28c-1.6,7.2-5,13.2-10.4,18.2c-6.4,5.8-12.6,11.7-18.9,17.7
		c-16,15.2-19.4,34.6-9.5,54.3c3.8,7.6,7.6,15.2,11.5,22.7c3.7,7,4.6,14.3,3.6,22.1c-1.4,10.3-2.5,20.6-3.6,30.3
		c0.9,19.6,9.7,33.3,27.1,41.2c8.1,3.7,16.2,7.1,24.4,10.5c7.2,2.9,12.7,7.7,16.9,14.2c5.1,8,10.1,16.1,15.7,23.8
		c10.5,14.3,25,20.8,42.5,17.5c11.1-2.1,21.9-6,32.8-9.2c6.4-1.9,12.8-1.9,19.2,0c8.8,2.7,17.7,5.4,26.5,7.9
		c20,5.8,38.7-1,50.3-18.4c4.8-7.3,9.7-14.6,14.3-22c4.1-6.5,9.6-11,16.6-13.9c8.8-3.6,17.5-7.3,26.1-11.3c17-8,26.9-25.3,25-43.9
		c-0.7-7.1-1.4-14.2-2.6-21.2c-2-11.5-0.9-22.2,5.3-32.4c3.6-5.8,6.3-12.2,9.4-18.3C376.2,164.8,372.8,145.3,357.2,130.4z
		 M356,178.5c-3.2,6.5-6.2,13.1-9.9,19.3c-7,11.8-8.5,24.3-6.2,37.6c1.2,7,1.9,14.1,2.7,21.2c1.5,14.3-5.5,26.8-18.7,32.8
		c-8.3,3.8-16.7,7.3-25.1,10.8c-9.2,3.8-16.5,9.7-21.8,18.1c-4.8,7.5-9.6,14.9-14.5,22.3c-8.6,13-21.8,17.9-36.8,13.5
		c-9.3-2.7-18.6-5.7-28-8.3c-3.7-1-7.6-1.4-12.1-2.2c-4.7,1-10,1.9-15.1,3.3c-8.3,2.3-16.5,5-24.8,7.4c-14.1,4-27.2-0.7-35.4-12.8
		c-5.2-7.6-10.2-15.4-15.2-23.2c-5.2-8-12-13.9-20.8-17.6c-8.2-3.4-16.3-6.9-24.4-10.5c-15.3-6.6-22.3-19.3-20.1-35.8
		c1.2-8.8,2.2-17.6,3.2-26.4c1-8.9-0.6-17.4-4.7-25.4c-4.1-7.9-8-15.8-12-23.7c-7.5-14.9-5-28.6,7.3-40.1
		c6.2-5.8,12.3-11.7,18.6-17.4c7.4-6.8,12.1-15.1,14.2-25c1.9-8.7,3.9-17.3,6.1-25.9c3.6-14.8,15.3-24,30.5-24.7
		c10.5-0.5,21-1.1,31.4-2c7.5-0.6,14.1-3.9,20.1-8.4c7.1-5.3,14.2-10.6,21.3-15.9c13.2-9.9,27.2-10,40.4-0.2
		c6.9,5.1,13.9,10.2,20.7,15.5c8.2,6.3,17.4,9.5,27.8,9.8c8.9,0.2,17.7,0.9,26.6,1.5c14.2,1,25.2,10.4,28.6,24.5
		c2.3,9.3,4.5,18.7,6.6,28c2,8.4,6.1,15.5,12.3,21.5c6.8,6.5,13.7,12.8,20.5,19.3C360.7,150.3,363.2,164.1,356,178.5z"/>
	<path class="st0" d="M185.8,61.2c-67.8,0.3-122.6,55.2-122.5,122.7c0.1,67.6,55,122.5,122.6,122.6c67.6,0.1,123.1-55.6,122.7-122.9
		C308.2,115.8,253.2,60.9,185.8,61.2z M186,294.5c-61-0.1-110.6-49.7-110.6-110.7c0-61,49.8-110.7,110.7-110.6
		c61,0,110.7,49.8,110.6,110.7C296.6,244.9,246.9,294.6,186,294.5z"/>
	<path class="st0" d="M259.1,146.9c-1.6-8.7-6.7-14.8-15.1-17.5c-8.5-2.8-16.4-0.9-22.8,5.5c-11.1,11-22,22.2-33,33.3
		c-5.5,5.6-11.2,11-17.2,16.8c-6.4-6.4-12.8-13-19.4-19.5c-9.6-9.5-23.5-9.8-32.5-0.8c-9.1,9-8.8,22.9,0.7,32.5
		c11.6,11.7,23.3,23.4,35,35c10,9.9,23.3,9.9,33.3,0c5.7-5.6,11.3-11.3,16.9-17c15.6-15.8,31.2-31.7,46.9-47.5
		C257.7,161.8,260.6,155.1,259.1,146.9z M244.2,158.2c-21.6,22.1-43.3,44-65.1,65.9c-4.6,4.7-10.7,4.6-15.4,0
		c-12-11.8-24-23.8-35.8-35.8c-4.5-4.6-4.6-10.9-0.4-15.1c4.1-4.1,10.6-4.2,15.1,0.3c7.8,7.6,15.4,15.4,23.1,23
		c4.4,4.4,7,4.4,11.4-0.1c17.2-17.3,34.3-34.6,51.5-52c3.5-3.5,7.3-5.2,12.1-3.4c4,1.5,6.7,5.3,7.4,9.8
		C246.9,153.3,246.1,156.3,244.2,158.2z"/>
</g>
</svg>
