<?xml version="1.0" encoding="utf-8"?>
<!-- Generator: Adobe Illustrator 25.4.1, SVG Export Plug-In . SVG Version: 6.00 Build 0)  -->
<svg version="1.1" id="Layer_1" xmlns="http://www.w3.org/2000/svg" xmlns:xlink="http://www.w3.org/1999/xlink" x="0px" y="0px"
	 viewBox="0 0 492.53 557.08" style="enable-background:new 0 0 492.53 557.08;" xml:space="preserve">
<style type="text/css">
	.st0{fill:#004643;}
</style>
<g>
	<path class="st0" d="M0,0c164.18,0,328.35,0,492.53,0c-2.26,33.31-4.43,66.63-6.79,99.94c-4.89,68.79-9.92,137.57-14.81,206.36
		c-4.18,58.83-8.3,117.67-12.3,176.52c-0.28,4.07-1.73,5.92-5.62,7.2c-67.51,22.09-134.96,44.37-202.48,66.45
		c-2.51,0.82-5.76,0.81-8.28-0.01c-65.44-21.41-130.84-42.98-196.24-64.53c-11.65-3.84-11.41-3.87-12.24-16.19
		c-2.57-38.21-5.32-76.4-8.03-114.6c-2.75-38.74-5.55-77.48-8.31-116.22c-2.69-37.84-5.34-75.67-8.04-113.51
		C6.28,87.61,3.13,43.81,0,0z M87.85,82.01c5.02,71.64,10.01,142.74,15.03,214.44c73.87,0,147.3,0,221.32,0
		c-1.97,27.42-3.84,54.19-5.97,80.94c-0.1,1.32-2.24,3.07-3.77,3.59c-21.47,7.25-42.98,14.36-64.53,21.37
		c-1.93,0.63-4.39,0.89-6.26,0.28c-22.06-7.17-44.08-14.48-66.03-22c-1.46-0.5-2.94-2.83-3.23-4.51c-0.8-4.58-0.96-9.28-1.38-13.97
		c-21.89,0-43.39,0-64.91,0c0,2.16-0.11,3.97,0.02,5.76c1.3,18.47,2.76,36.93,3.88,55.41c0.21,3.48,1.38,4.95,4.62,6.03
		c41.98,13.9,83.9,27.97,125.88,41.85c2.23,0.74,5.1,0.91,7.29,0.19c42.33-13.99,84.58-28.18,126.9-42.21
		c2.92-0.97,3.84-2.48,4.02-5.4c0.82-13.04,1.88-26.07,2.82-39.1c2.8-38.93,5.58-77.85,8.35-116.78
		c0.86-12.08,1.66-24.17,2.53-36.87c-76.94,0-153.46,0-230.41,0c-1.98-28.15-3.91-55.75-5.89-83.85c80.9,0,161.28,0,242.16,0
		c1.55-21.9,3.07-43.37,4.61-65.15C299.16,82.01,193.92,82.01,87.85,82.01z"/>
</g>
</svg>
