<?xml version="1.0" encoding="utf-8"?>
<!-- Generator: Adobe Illustrator 25.4.1, SVG Export Plug-In . SVG Version: 6.00 Build 0)  -->
<svg version="1.1" id="Layer_1" xmlns="http://www.w3.org/2000/svg" xmlns:xlink="http://www.w3.org/1999/xlink" x="0px" y="0px"
	 viewBox="0 0 580.89 517.4" style="enable-background:new 0 0 580.89 517.4;" xml:space="preserve">
<style type="text/css">
	.st0{fill:#004643;}
</style>
<g>
	<path class="st0" d="M580.89,83.97c0,114.96,0,229.93,0,344.89c-0.38,1.03-0.9,2.04-1.11,3.1c-9.35,48.74-51.81,85.03-101.41,85.16
		c-124.98,0.34-249.96,0.39-374.93,0C45.78,516.94,0.09,470.26,0.05,412.66C-0.03,309.99,0,207.32,0.1,104.66
		c0.01-6.39,0.44-12.9,1.67-19.16C11.7,34.8,53.85,0.17,105.67,0.13c102.1-0.08,204.2-0.03,306.3-0.02c23.63,0,47.28-0.33,70.9,0.15
		c44.26,0.89,83.13,31.18,95.09,73.52C578.93,77.18,579.91,80.57,580.89,83.97z M291.62,460.77c11.72,0,23.44,0,35.16,0
		c50.66,0,101.32,0.06,151.98-0.03c20.83-0.04,36.45-12.38,41.36-32.65c1.1-4.54,1.54-9.34,1.54-14.03
		c0.08-102.46,0.08-204.91,0.05-307.37c-0.01-27.68-19.44-47.27-47-47.28c-123.06-0.04-246.12-0.05-369.18,0
		C78.11,59.42,58.82,78.76,58.8,106.2c-0.04,102.65-0.03,205.29,0.02,307.94c0,3.57,0.07,7.23,0.81,10.71
		c4.55,21.46,22.75,35.88,45.42,35.91C167.24,460.81,229.43,460.77,291.62,460.77z"/>
	<path class="st0" d="M288.32,410.8c-45.75,0-91.49,0.05-137.24-0.03c-15.15-0.03-26.08-7.45-30.23-20.19
		c-3.19-9.79-1.79-19.18,3.59-27.73c21.45-34.04,42.96-68.03,64.71-101.88c7.11-11.06,17.69-16.11,30.93-15.07
		c7.38,0.58,13.28,4.01,17.86,9.76c4.71,5.91,9.41,11.83,14.04,17.81c12.76,16.47,36.38,16.25,48.43-0.87
		c12.61-17.92,24.68-36.21,37.07-54.29c8.36-12.21,22.47-17.2,36.29-13.01c8.67,2.63,14.84,8.14,18.39,16.42
		c20.67,48.22,41.42,96.4,61.83,144.73c7.8,18.47-1.88,38.94-20.05,43.47c-3.24,0.81-6.73,0.85-10.11,0.85
		C378.67,410.81,333.5,410.8,288.32,410.8z"/>
	<path class="st0" d="M383.46,143.89c0.11-23.33,20.48-43.12,44.31-43.06c23.11,0.06,43.91,20.86,43.96,43.95
		c0.05,23.17-21.28,44.39-44.42,44.17C403.41,188.73,383.34,168.11,383.46,143.89z"/>
</g>
</svg>
