<?xml version="1.0" encoding="utf-8"?>
<!-- Generator: Adobe Illustrator 25.4.1, SVG Export Plug-In . SVG Version: 6.00 Build 0)  -->
<svg version="1.1" id="Layer_1" xmlns="http://www.w3.org/2000/svg" xmlns:xlink="http://www.w3.org/1999/xlink" x="0px" y="0px"
	 viewBox="0 0 553.9 502.19" style="enable-background:new 0 0 553.9 502.19;" xml:space="preserve">
<style type="text/css">
	.st0{fill:#004643;}
</style>
<g>
	<path class="st0" d="M276.36,502.16c-66.45,0-132.9,0.08-199.36-0.03c-37.91-0.07-67.95-24.4-75.42-60.89
		c-1.02-4.96-1.49-10.12-1.49-15.19C0.01,309.49-0.06,192.94,0.08,76.38C0.12,37.87,25.9,7.55,63.79,0.9
		c4.61-0.81,9.39-0.85,14.1-0.85C210.6,0,343.31-0.02,476.01,0.02c38.76,0.01,69,24.22,76.35,61.17c1.1,5.54,1.45,11.3,1.46,16.96
		c0.08,115.38,0.1,230.75,0.04,346.13c-0.02,39.75-25.55,70.44-64.05,77.01c-5,0.85-10.18,0.82-15.28,0.83
		C408.48,502.18,342.42,502.16,276.36,502.16z M503.46,201.22c-151.39,0-302.04,0-453,0c0,2.42,0,4.37,0,6.32
		c0,72.01,0,144.02,0,216.04c0,18.61,10.03,28.54,28.91,28.54c131.72,0.01,263.44,0.01,395.17,0c19.11,0,28.92-9.91,28.92-29.11
		c0-71.62,0-143.24,0-214.86C503.46,206,503.46,203.85,503.46,201.22z M201.91,75.61c0,16.87,0,33.19,0,49.26
		c16.83,0,33.19,0,49.56,0c0-16.69,0-32.86,0-49.26C234.81,75.61,218.55,75.61,201.91,75.61z M101.17,125.01c16.9,0,33.1,0,49.36,0
		c0-16.7,0-33,0-49.26c-16.69,0-32.89,0-49.36,0C101.17,92.3,101.17,108.47,101.17,125.01z"/>
	<path class="st0" d="M100.89,326.32c0-16.08-0.07-32.17,0.02-48.25c0.09-16.91,10.29-26.96,27.29-26.98
		c32.04-0.03,64.07-0.03,96.11,0c17.16,0.02,27.51,10.27,27.55,27.49c0.08,31.97,0.09,63.95,0,95.92
		c-0.05,17.09-10.52,27.27-27.77,27.28c-31.84,0.03-63.68,0.03-95.52,0c-17.68-0.01-27.62-9.99-27.67-27.8
		C100.85,358.1,100.89,342.21,100.89,326.32z"/>
	<path class="st0" d="M452.76,251.42c0,16.56,0,32.77,0,49.49c-50.08,0-100,0-150.33,0c0-16.47,0-32.81,0-49.49
		C352.44,251.42,402.24,251.42,452.76,251.42z"/>
	<path class="st0" d="M302.5,351.78c50.19,0,99.98,0,150.15,0c0,16.67,0,33.02,0,49.69c-50.03,0-99.85,0-150.15,0
		C302.5,385.15,302.5,368.81,302.5,351.78z"/>
</g>
</svg>
