<svg width="224" height="217" viewBox="0 0 224 217" fill="none" xmlns="http://www.w3.org/2000/svg">
<path d="M223.808 111.924C223.539 96.8735 220.3 82.0244 214.277 68.2291C208.254 54.4339 199.566 41.9641 188.71 31.5359C172.724 16.087 152.51 5.73237 130.632 1.78444C108.754 -2.16349 86.1965 0.473054 65.8185 9.35988C52.4927 15.2071 40.4373 23.6819 30.461 34.0769C20.4847 44.4719 12.6019 56.8015 7.40435 70.1273C-3.0142 96.8952 -2.41731 126.698 9.06466 153.027C14.7242 165.906 22.9391 177.571 33.002 187.215C43.065 196.86 54.9903 204.468 67.883 209.493C80.7554 214.495 94.4868 216.913 108.294 216.61C128.731 216.214 148.591 209.766 165.362 198.08C182.134 186.395 195.062 169.998 202.513 150.963C205.442 143.426 207.454 135.563 208.504 127.545L209.356 127.574C211.352 127.573 213.327 127.158 215.154 126.355C216.982 125.552 218.624 124.379 219.975 122.91C221.326 121.44 222.358 119.707 223.006 117.818C223.653 115.93 223.902 113.928 223.736 111.938H223.794L223.808 111.924ZM200.867 150.255C195.568 162.253 187.902 173.124 178.489 182.105C169.075 191.085 157.959 198.159 145.947 202.808C133.95 207.453 121.154 209.681 108.294 209.363C95.612 209.088 83.1092 206.314 71.5021 201.198C59.8951 196.082 49.412 188.725 40.6539 179.549C32.017 170.501 25.2469 159.841 20.7302 148.176C11.7568 124.952 12.359 99.1167 22.4049 76.3354C27.3425 65.2186 34.4747 55.1412 43.2093 46.8252C51.944 38.5092 62.2813 31.969 73.4126 27.6811C84.5439 23.3787 96.4549 21.3574 108.294 21.6751C120.132 21.9927 131.812 24.5914 142.482 29.3558C153.165 34.1058 162.838 40.978 170.822 49.3806C178.806 57.7833 185.087 67.7163 189.187 78.4144C193.283 89.0935 195.231 100.476 194.919 111.909H194.976C194.664 115.661 195.83 119.386 198.225 122.291C200.62 125.196 204.054 127.05 207.797 127.459C206.405 135.304 204.074 142.953 200.852 150.241L200.867 150.255Z" fill="#004643"/>
<path d="M139 125.095C139 131.128 137.045 136.324 133.135 140.681C129.225 145.039 124.145 147.73 117.897 148.756V159.107C117.897 159.659 117.72 160.113 117.366 160.468C117.013 160.823 116.561 161 116.01 161H108.052C107.542 161 107.099 160.813 106.726 160.438C106.353 160.063 106.166 159.62 106.166 159.107V148.756C103.572 148.401 101.067 147.789 98.6503 146.922C96.2335 146.054 94.2391 145.177 92.6671 144.29C91.0952 143.402 89.6412 142.456 88.305 141.45C86.9689 140.445 86.0552 139.705 85.564 139.232C85.0727 138.759 84.7289 138.404 84.5324 138.167C83.8643 137.339 83.825 136.531 84.4145 135.742L90.4861 127.757C90.7612 127.362 91.2131 127.126 91.8419 127.047C92.4314 126.968 92.9029 127.145 93.2566 127.579L93.3745 127.698C97.8152 131.602 102.59 134.066 107.699 135.092C109.153 135.407 110.607 135.565 112.061 135.565C115.244 135.565 118.044 134.717 120.461 133.021C122.878 131.326 124.086 128.92 124.086 125.805C124.086 124.701 123.792 123.656 123.202 122.67C122.613 121.684 121.954 120.856 121.227 120.185C120.5 119.515 119.351 118.775 117.779 117.967C116.207 117.159 114.91 116.528 113.888 116.074C112.867 115.621 111.295 114.98 109.172 114.152C107.64 113.521 106.431 113.028 105.547 112.673C104.663 112.318 103.455 111.796 101.922 111.105C100.389 110.415 99.1612 109.804 98.2377 109.272C97.3142 108.739 96.204 108.039 94.9072 107.172C93.6103 106.304 92.5591 105.466 91.7535 104.658C90.9478 103.85 90.0931 102.883 89.1892 101.759C88.2854 100.636 87.5878 99.492 87.0966 98.3287C86.6054 97.1654 86.1927 95.8542 85.8587 94.3951C85.5247 92.936 85.3576 91.3981 85.3576 89.7813C85.3576 84.3393 87.2833 79.5677 91.1345 75.4665C94.9858 71.3653 99.9963 68.7232 106.166 67.5402V56.8929C106.166 56.3802 106.353 55.9366 106.726 55.5619C107.099 55.1873 107.542 55 108.052 55H116.01C116.561 55 117.013 55.1775 117.366 55.5324C117.72 55.8873 117.897 56.3408 117.897 56.8929V67.3036C120.137 67.5402 122.308 67.9937 124.41 68.6641C126.513 69.3344 128.222 69.995 129.539 70.6456C130.855 71.2963 132.103 72.0357 133.282 72.8638C134.461 73.692 135.227 74.2638 135.581 74.5792C135.935 74.8947 136.229 75.1708 136.465 75.4074C137.133 76.1172 137.232 76.8664 136.76 77.6551L131.985 86.2913C131.671 86.8828 131.219 87.1983 130.629 87.2377C130.079 87.356 129.549 87.218 129.038 86.8237C128.92 86.7054 128.635 86.4688 128.183 86.1138C127.731 85.7589 126.965 85.2364 125.884 84.5463C124.803 83.8562 123.654 83.2253 122.436 82.6535C121.217 82.0817 119.754 81.569 118.044 81.1155C116.335 80.662 114.655 80.4353 113.004 80.4353C109.271 80.4353 106.225 81.2831 103.867 82.9788C101.509 84.6745 100.33 86.8631 100.33 89.5446C100.33 90.5699 100.497 91.5164 100.831 92.3839C101.165 93.2515 101.745 94.0698 102.57 94.8387C103.396 95.6077 104.172 96.2584 104.899 96.7907C105.626 97.3231 106.726 97.9343 108.2 98.6244C109.674 99.3145 110.862 99.8469 111.766 100.222C112.67 100.596 114.045 101.138 115.893 101.848C117.975 102.637 119.567 103.258 120.667 103.711C121.768 104.165 123.261 104.855 125.147 105.782C127.034 106.709 128.517 107.547 129.598 108.296C130.679 109.045 131.897 110.031 133.253 111.253C134.608 112.476 135.65 113.728 136.377 115.009C137.104 116.291 137.723 117.799 138.234 119.535C138.745 121.27 139 123.123 139 125.095Z" fill="#004643"/>
</svg>
