<svg version="1.1" xmlns="http://www.w3.org/2000/svg" xmlns:xlink="http://www.w3.org/1999/xlink" viewBox="0 0 172 172"><g fill="none" fill-rule="nonzero" stroke="none" stroke-width="1" stroke-linecap="butt" stroke-linejoin="miter" stroke-miterlimit="10" stroke-dasharray="" stroke-dashoffset="0" font-family="none" font-weight="none" font-size="none" text-anchor="none" style="mix-blend-mode: normal"><path d="M0,172v-172h172v172z" fill="none"></path><g fill="#666666"><path d="M32.25,19.35v133.3h107.5v-101.94023l-31.35976,-31.35977zM36.55,23.65h68.8v30.1h30.1v94.6h-98.9zM109.65,26.69024l22.75977,22.75976h-22.75977zM47.3,27.95c-1.18418,0 -2.15,0.96582 -2.15,2.15c0,1.18418 0.96582,2.15 2.15,2.15c1.18418,0 2.15,-0.96582 2.15,-2.15c0,-1.18418 -0.96582,-2.15 -2.15,-2.15zM47.3,36.55c-1.18418,0 -2.15,0.96582 -2.15,2.15c0,1.18418 0.96582,2.15 2.15,2.15c1.18418,0 2.15,-0.96582 2.15,-2.15c0,-1.18418 -0.96582,-2.15 -2.15,-2.15zM47.3,45.15c-1.18418,0 -2.15,0.96582 -2.15,2.15c0,1.18418 0.96582,2.15 2.15,2.15c1.18418,0 2.15,-0.96582 2.15,-2.15c0,-1.18418 -0.96582,-2.15 -2.15,-2.15zM47.3,53.75c-1.18418,0 -2.15,0.96582 -2.15,2.15c0,1.18418 0.96582,2.15 2.15,2.15c1.18418,0 2.15,-0.96582 2.15,-2.15c0,-1.18418 -0.96582,-2.15 -2.15,-2.15zM47.3,62.35c-1.18418,0 -2.15,0.96582 -2.15,2.15c0,1.18418 0.96582,2.15 2.15,2.15c1.18418,0 2.15,-0.96582 2.15,-2.15c0,-1.18418 -0.96582,-2.15 -2.15,-2.15zM87.17578,62.35c-2.1752,0 -4.17402,1.21777 -5.20703,2.95625c-1.02461,1.73008 -1.36055,3.81289 -1.34375,6.13086c0.0252,4.62754 1.53691,10.34687 4.13203,16.0998c0.07559,0.15957 0.19316,0.31074 0.26875,0.47031c-0.41992,1.24297 -0.70547,2.41875 -1.18418,3.67012c-1.48652,3.88848 -3.26699,7.67617 -5.13145,11.22871c-3.10742,1.0918 -6.08047,2.30117 -8.64199,3.67852c-2.75469,1.47813 -5.11465,3.09902 -6.87832,4.95508c-1.76367,1.86445 -2.98984,4.07324 -2.98984,6.54238c0,2.51113 2.25918,4.46797 4.99707,4.46797c2.42715,0 4.64434,-1.18418 6.70195,-2.89746c2.05762,-1.72168 4.01445,-4.03125 5.9125,-6.75234c1.32695,-1.89805 2.54473,-4.19082 3.7793,-6.41641c2.94785,-0.97422 6.03848,-1.85605 9.1627,-2.53633c1.6209,-0.34434 3.15781,-0.48711 4.75351,-0.74746c0.08399,0.07559 0.13438,0.16797 0.20996,0.24355c4.64434,4.40918 10.32168,7.5166 16.6625,7.5166c1.86445,0 3.67012,-0.22676 5.26582,-1.16738c1.5957,-0.94063 2.75469,-2.86387 2.75469,-4.98867c0,-2.31797 -1.6125,-4.24121 -3.56934,-5.24902c-1.95684,-1.00781 -4.36719,-1.47813 -7.15547,-1.68809c-3.61973,-0.26875 -7.95332,0.10078 -12.45488,0.70547c-2.98145,-3.1998 -5.53457,-6.9959 -7.5334,-11.00195c1.6377,-5.11465 2.93105,-10.07812 3.26699,-14.15977c0.22676,-2.79668 0.14277,-5.21543 -0.63828,-7.26465c-0.78105,-2.05762 -2.78828,-3.79609 -5.13984,-3.79609zM87.17578,66.65c0.71387,0 0.73906,0.0084 1.11699,1.00781c0.37793,1.00781 0.57109,2.95625 0.36953,5.4002c-0.19316,2.37676 -0.74746,5.25742 -1.53691,8.33965c-1.28496,-3.7457 -2.18359,-7.34023 -2.20039,-9.98574c-0.0084,-1.83926 0.33594,-3.2166 0.73906,-3.91367c0.41152,-0.68867 0.62988,-0.84824 1.51172,-0.84824zM47.3,70.95c-1.18418,0 -2.15,0.96582 -2.15,2.15c0,1.18418 0.96582,2.15 2.15,2.15c1.18418,0 2.15,-0.96582 2.15,-2.15c0,-1.18418 -0.96582,-2.15 -2.15,-2.15zM47.3,79.55c-1.18418,0 -2.15,0.96582 -2.15,2.15c0,1.18418 0.96582,2.15 2.15,2.15c1.18418,0 2.15,-0.96582 2.15,-2.15c0,-1.18418 -0.96582,-2.15 -2.15,-2.15zM47.3,88.15c-1.18418,0 -2.15,0.96582 -2.15,2.15c0,1.18418 0.96582,2.15 2.15,2.15c1.18418,0 2.15,-0.96582 2.15,-2.15c0,-1.18418 -0.96582,-2.15 -2.15,-2.15zM87.88125,93.13867c1.31016,2.20879 2.78828,4.23281 4.40918,6.22324c-0.82305,0.15957 -1.6125,0.20996 -2.44394,0.38633c-1.88125,0.41153 -3.68691,1.01621 -5.54297,1.52852c1.25137,-2.64551 2.50273,-5.31621 3.55254,-8.0541c0.0084,-0.03359 0.0168,-0.05879 0.0252,-0.08398zM47.3,96.75c-1.18418,0 -2.15,0.96582 -2.15,2.15c0,1.18418 0.96582,2.15 2.15,2.15c1.18418,0 2.15,-0.96582 2.15,-2.15c0,-1.18418 -0.96582,-2.15 -2.15,-2.15zM105.68594,102.0998c1.31016,-0.03359 2.55312,-0.0168 3.67012,0.05879c2.45234,0.18477 4.40918,0.65508 5.50938,1.21777c1.1002,0.57109 1.23457,0.83984 1.23457,1.42774c0,0.90703 -0.12598,0.98262 -0.63828,1.28496c-0.5123,0.30234 -1.64609,0.57109 -3.08223,0.57109c-3.85488,0 -7.45781,-1.80566 -10.84238,-4.3084c1.42773,-0.12598 2.83027,-0.21836 4.14883,-0.25195zM47.3,105.35c-1.18418,0 -2.15,0.96582 -2.15,2.15c0,1.18418 0.96582,2.15 2.15,2.15c1.18418,0 2.15,-0.96582 2.15,-2.15c0,-1.18418 -0.96582,-2.15 -2.15,-2.15zM75.05684,109.1209c-0.26035,0.40312 -0.50391,0.93223 -0.77266,1.31016c-1.74688,2.51953 -3.52734,4.57715 -5.13984,5.9125c-1.6125,1.34375 -2.99824,1.90645 -3.94726,1.90645c-0.5543,0 -0.66348,-0.20996 -0.68867,-0.24355c0.0252,-1.00781 0.5459,-2.1752 1.80566,-3.51055c1.29336,-1.36055 3.30059,-2.78828 5.78652,-4.11523c0.84824,-0.46191 2.00723,-0.82305 2.95625,-1.25977zM47.3,113.95c-1.18418,0 -2.15,0.96582 -2.15,2.15c0,1.18418 0.96582,2.15 2.15,2.15c1.18418,0 2.15,-0.96582 2.15,-2.15c0,-1.18418 -0.96582,-2.15 -2.15,-2.15zM47.3,122.55c-1.18418,0 -2.15,0.96582 -2.15,2.15c0,1.18418 0.96582,2.15 2.15,2.15c1.18418,0 2.15,-0.96582 2.15,-2.15c0,-1.18418 -0.96582,-2.15 -2.15,-2.15zM47.3,131.15c-1.18418,0 -2.15,0.96582 -2.15,2.15c0,1.18418 0.96582,2.15 2.15,2.15c1.18418,0 2.15,-0.96582 2.15,-2.15c0,-1.18418 -0.96582,-2.15 -2.15,-2.15zM47.3,139.75c-1.18418,0 -2.15,0.96582 -2.15,2.15c0,1.18418 0.96582,2.15 2.15,2.15c1.18418,0 2.15,-0.96582 2.15,-2.15c0,-1.18418 -0.96582,-2.15 -2.15,-2.15z"></path></g></g></svg>