<?xml version="1.0" encoding="utf-8"?>
<!-- Generator: Adobe Illustrator 25.4.1, SVG Export Plug-In . SVG Version: 6.00 Build 0)  -->
<svg version="1.1" id="Layer_1" xmlns="http://www.w3.org/2000/svg" xmlns:xlink="http://www.w3.org/1999/xlink" x="0px" y="0px"
	 viewBox="0 0 372.1 372.1" style="enable-background:new 0 0 372.1 372.1;" xml:space="preserve">
<style type="text/css">
	.st0{fill:#004643;}
</style>
<g>
	<path class="st0" d="M351.3,203.3c-13.1-5.4-26.3-10.9-39.4-16.4c-3.9-1.6-9.2-2.4-11.2-5.4c-2-3-0.4-8.2-0.7-12.5
		c-0.1-2.3,1-3.4,2.6-4.8c4.8-3.9,9.7-7.9,13.9-12.5c6.5-7.2,10.2-16.2,12.4-25.5c11.6-1.4,18.2-7,19.2-15.8
		c0.5-4.4-0.2-8.5-2.7-12.2c-3.4-5.3-8.5-7.7-14.7-8.5c2.2-5.3,4.5-10.2,6.4-15.2c8.2-21.2,0.8-45.9-18.5-57.6
		c-10.2-6.2-21.8-10.4-33.1-14.7c-4.6-1.8-10-2.1-15.1-2.1c-14.1-0.1-26.6,4.5-38,12.8c-4.3,3.1-9,5.7-13.7,8.1
		c-11.5,5.7-19.3,14.4-21.4,27.1c-1,6.1-0.2,12.5-0.2,18.8h-25.8c0-0.1,0.1-0.7,0.2-1.3c3.7-21.9-6.8-42.4-26.7-52.2
		c-6.3-3.1-12.7-6-19.1-8.7c-12-5-24.4-6-37.1-3.2C78.5,3.8,69.6,8.8,61.5,15.2c-2,1.6-4.2,3.3-6.6,4.2c-23.4,8.2-33,31.8-21.9,54
		c2.7,5.4,5.3,10.7,8,16.1c-11.9,3-17.7,9.4-17.4,19c0.4,10,6.5,15.7,19.5,17.9c3.9,16.5,12.8,29.5,27.2,38.7
		c0.8,0.5,1.5,1.7,1.5,2.6c0.1,4.7,0.1,9.5,0.1,14.3c-17.7,7.4-35.2,14.7-52.7,22C6.9,209.2,0,219.4,0,232.9c0,25.8,0,51.5,0,77.3
		c0,5.9,2,7.9,7.9,7.9c12,0,24,0,36,0H48c0,15.7,0,30.8,0,45.9c0,6.2,1.9,8.1,8,8.1c86.8,0,173.5,0,260.3,0c5.8,0,7.8-2,7.8-8
		c0-14,0-28,0-42v-4.1c13.6,0,26.6,0,39.6,0c6.6,0,8.4-1.8,8.4-8.5v-75C372.1,218.8,365.7,209.3,351.3,203.3z M190.5,78.4
		c6.1,0.8,12.1,2.8,17.9,5c5.7,2.1,11.2,4.8,16.7,7.7c18.1,9.5,24.9,33.1,14.3,50.1c-1.8-3.5-3.4-6.8-5.1-10.1
		c-2.9-5.8-6.1-6.5-11.3-2.8c-5.5,3.9-10.8,8.3-16.8,11.1c-16,7.5-31.8,6.1-46.7-3.5c-3.9-2.5-7.4-5.5-11.2-8.2
		c-4.1-2.9-7.6-2.1-9.9,2.3c-2,3.9-3.9,7.8-6.2,12.3c-5.4-9.1-10.1-17.8-6.6-28.3c3.2-9.9,10.1-16.1,20.4-17.6
		c12.6-1.8,22,3.9,29.1,14.9c3.3-2.2,6.5-4.3,9.9-6.6c-5.5-9.5-13.4-15.7-24.2-19.3C170.4,79.6,180.2,77,190.5,78.4z M181.4,227.8
		c-24.7-2.9-43-22.8-43.3-47.2c0-3.8,0.5-7.6-0.1-11.2c-1.6-10.6,3.2-19.1,8.3-28c26.6,19.5,53,19.5,79.8-0.1c3.1,7.7,9,14,8.1,23.2
		c-0.9,8.9,0.1,18.2-1.7,26.8C227.5,214.6,204.4,230.6,181.4,227.8z M204,248.6c0,0.6-0.5,1.4-1,1.9c-5.5,5.6-11,11.2-16.8,17.1
		c-6-6-11.8-11.6-17.4-17.5c-0.9-0.9-0.7-3-0.8-4.6c-0.1-2.6,0-5.2,0-8.2c12,3.4,23.8,3.7,36-0.1C204.1,241.3,204.1,245,204,248.6z
		 M125.9,168.1v11.8c-3.9-0.1-8.2,1.5-10.6-2.6c-1-1.7-1-4.8-0.1-6.5C117.6,166.6,121.9,168.2,125.9,168.1z M48,301.6
		c0,1.3,0,2.7,0,4.3H12V302c0-22.6,0-45.3,0-67.9c0-10.2,3.6-15.6,13.2-19.6c17.5-7.3,35-14.6,52.5-21.9c5.7-2.4,6.3-3.3,6.3-9.5
		s-0.1-12.5,0-18.8c0.1-3.8-1.3-6.3-4.7-8.2c-14-7.8-22.3-19.6-24.8-35.5c-0.8-5.3-2.7-6.8-8-6.8c-1.5,0-3,0.1-4.5,0
		c-3.6-0.2-6-2.7-6-5.9c0-3.3,2.4-5.8,5.9-6c2-0.1,4,0,6-0.1c3.6-0.2,5.8-2.4,6-5.9c0.3-4.3-0.1-8.4-2.3-12.3
		c-3.1-5.4-5.8-11.1-8.4-16.7c-7.2-15.1,0-31.3,16-36.2c2.3-0.7,4.5-2.1,6.5-3.6c7.9-6,15.8-11.8,25.8-13.9
		c10.1-2.1,19.9-1.4,29.4,2.5c6.5,2.7,12.8,5.6,19.1,8.7c17.7,8.8,25.1,29,17.4,47.1c-0.5,1.3-1.6,2.5-2.8,3.3
		c-3.8,2.9-7.7,5.6-11.6,8.2c-1.6,1.1-3.4,2.1-5.2,2.8c-21.4,7.5-31.4,31-21.7,51.6c2.8,6,5.9,11.8,9,18.2c-15.9,1.5-23,7.1-23,18
		c0,6.5,2.4,12.3,8.1,15c5.1,2.5,11,3.1,17.3,4.7c2.8,12.1,9.3,23.4,19.8,32.3c0.4,0.3,0.7,0.8,1.2,1c7.3,3.1,8.8,8.9,7.7,16
		c-0.2,1.5,0,3,0,4.8c-8.8,2.5-17.6,5-26.3,7.4c-19.5,5.4-39,10.8-58.4,16.2C56.6,275,48.1,286.3,48,301.6z M312.1,358.6
		c0,0.4-0.1,0.7-0.3,1.3h-35.5v-47.6h-12.1v47.5H108.1v-47.5H96.2v47.7H60v-6.1c0-17.3,0-34.5,0-51.8c0-10.5,4.6-16.7,14.6-19.5
		c27.5-7.7,55.1-15.3,82.6-23.1c2.4-0.7,3.8-0.2,5.5,1.6c5.9,6.1,12,12.1,18,18.1c3.9,3.9,6.8,3.9,10.6,0.1
		c6.2-6.2,12.3-12.4,18.7-18.5c1-0.9,3.1-1.6,4.4-1.2c28.2,7.7,56.3,15.5,84.4,23.4c7.9,2.2,13.1,8.8,13.2,16.8
		C312.2,319.4,312.1,339,312.1,358.6z M360.1,305.8h-35.7c-0.3-3.6-0.2-7.2-0.9-10.7c-2.3-12.1-9.5-20.2-21.4-23.6
		c-27.6-7.9-55.3-15.5-82.9-23.2c-1-0.3-1.9-0.6-2.8-0.9c-0.2-0.6-0.2-0.7-0.2-0.8c0-4.4-1.2-9.2,0.3-13c1.4-3.4,5.8-5.6,8.9-8.3
		c9.8-8.6,15.2-17.5,19.8-33.3c2,0,4.1,0,6.2,0c10.8-0.1,18.9-7.8,18.9-18.1c0-10.1-8.1-17.8-18.7-17.9c-1.4,0-2.7,0-4.7,0
		c2.1-4.9,4.1-9.3,5.9-13.9c7.2-18.2,4.7-35.3-7.8-50.2c-4.2-5-10.4-8.4-15.8-12.4c-1.8-1.3-3.9-2.3-6.1-2.9
		c-9.9-2.7-13.4-10.1-14.2-19.2c-0.9-10.1,2.7-19.2,11.8-23.3c9.3-4.1,16.8-10.7,25.4-15.6c13.5-7.6,27.7-8.8,42.2-3.1
		c7,2.7,13.8,5.9,20.5,9.3c16.7,8.4,24.1,27.8,17.5,45.3c-1.8,4.7-4.2,9.1-5.7,13.8c-1.2,3.8-1.8,7.9-2.1,12
		c-0.2,3.7,2.3,5.9,6.1,6.1c2,0.1,4-0.1,6,0.1c3.3,0.3,5.7,2.7,5.8,5.8c0.1,3.3-2.3,5.8-5.8,6.1c-1.5,0.1-3,0-4.5,0
		c-5.6,0-7.4,1.5-8.2,7c-1.3,8.8-4.4,16.8-10.4,23.3c-4.3,4.6-9.5,8.4-14.7,12c-2.8,2-4.5,3.9-4.5,7.5c0.1,6.9,0.1,13.8,0,20.6
		c-0.1,3.9,1.5,6.2,5.1,7.7c17.9,7.4,35.7,14.9,53.6,22.3c9.9,4.1,13.4,9.4,13.4,20.2V305.8z M246.3,180v-11.8
		c3.7,0,7.9-1.5,10.5,2.3c1,1.5,1.2,4.5,0.5,6.2C255.1,181.3,250.5,179.7,246.3,180z"/>
</g>
</svg>
