<?xml version="1.0" encoding="utf-8"?>
<!-- Generator: Adobe Illustrator 25.4.1, SVG Export Plug-In . SVG Version: 6.00 Build 0)  -->
<svg version="1.1" id="Layer_1" xmlns="http://www.w3.org/2000/svg" xmlns:xlink="http://www.w3.org/1999/xlink" x="0px" y="0px"
	 viewBox="0 0 383.9 327.5" style="enable-background:new 0 0 383.9 327.5;" xml:space="preserve">
<style type="text/css">
	.st0{fill:#004643;}
</style>
<path class="st0" d="M262.7,47c0,4.1-3.2,7.4-7.3,7.5c-4.1,0.1-7.5-3.1-7.6-7.2c-0.1-4.2,3.3-7.7,7.5-7.7
	C259.3,39.6,262.6,42.9,262.7,47z"/>
<path d="M265.3,75.5c-21.5,0.1-39,17.7-39,39.2c0,21.5,17.6,39.1,39.1,39.1c21.5-0.1,39-17.6,39-39.2
	C304.4,93,286.8,75.4,265.3,75.5z M265.3,138.7c-13.2-0.1-24-10.9-24-24.1c0-13.2,10.8-24.1,24-24.1c13.3-0.1,24.2,10.9,24.2,24.3
	C289.4,128,278.5,138.8,265.3,138.7z"/>
<path class="st0" d="M383.5,219.9c0-0.1,0-0.2,0-0.3c0-2.4-0.3-4.7-0.9-7c-7-26.8-14-53.6-21.3-80.4c-3.2-11.6-5.7-23.2-5-35.4
	c0.5-8.8,0-17.7,0.1-26.6c0.1-12.5-5.5-21.8-16-28.2c-2.3-1.4-3.6-3.2-4.3-5.8c-1-4.1-2-8.2-3.2-12.3c-5.5-18.6-21.5-27.5-40.2-22.5
	C276.9,5.7,260.9,9.8,245,14c-25.5,6.7-51,13.3-76.4,20.3c-9.7,2.6-19.4,4.2-29.5,4c-24.7-0.4-49.4-0.1-74.2-0.1
	c-3.8,0-7.5,0.2-11.2,0.7c-14.7,2-25.6,13.7-26.2,28.7c-0.1,3.4-1.4,4.7-4.6,5.6C10.4,76.7,2,84.3,0,97.8v6.8
	c0.7,1.1,0.3,2.3,0.3,3.5c0,0.1,0,0.2,0,0.3c0,0.1,0,0.2,0,0.3c0,2.4,0.3,4.7,0.9,7c7,26.8,14,53.6,21.3,80.4
	c3.2,11.6,5.7,23.2,5,35.4c-0.5,8.7,0.1,17.5-0.1,26.2c-0.3,12.9,5.5,22.2,16.3,28.7c2.2,1.3,3.5,3,4.1,5.5
	c1.1,4.6,2.2,9.2,3.7,13.8c1.5,4.6,3.7,8.8,7.1,12.2c9.7,9.9,21.3,11.5,34.2,7.9c13.1-3.7,26.3-6.9,39.5-10.4
	c26.9-7.1,53.9-14,80.8-21.3c9.7-2.7,19.4-4.2,29.5-4.1c25.6,0.4,51.2,0.1,76.8,0.1c3.6,0,7.2-0.2,10.8-0.7
	c14.7-2,25.6-13.7,26.2-28.6c0.1-3.2,1.2-4.7,4.3-5.5c12.8-3.5,21.2-11.1,23.3-24.7V220C383.7,219.9,383.6,219.9,383.5,219.9z
	 M28.5,153.9c-0.2,0-0.4-0.1-0.6-0.1c-4.1-15.8-8.4-31.5-12.4-47.3c-2-8,3.1-16.1,10.8-17.8c1.4-0.3,2.2-0.5,2.2,1.5
	C28.5,111.5,28.5,132.7,28.5,153.9z M167.3,289.4c-27.5,7.2-55,14.5-82.6,21.6c-7.8,2-15.4-2.3-17.8-9.8c-1.1-3.4-1.8-7-2.8-10.5
	c-0.5-1.6-0.2-2.4,1.6-2.2c0.5,0,1,0,1.5,0h100.3C167.4,288.9,167.3,289.1,167.3,289.4z M71.2,273.7c6.3-9.1,12.2-17.4,18.1-25.8
	c16.2-23.2,32.5-46.4,48.6-69.7c1.9-2.7,2.6-2.5,4.3,0c9.9,14.4,19.9,28.7,30,42.9c1.3,1.9,1.3,3-0.3,4.7
	c-13.5,15.2-27,30.5-40.5,45.7c-0.9,1-1.7,2.1-3.3,2C109.5,273.7,90.7,273.7,71.2,273.7z M149.9,273.4c22.3-25.2,44.2-50,66.4-75.2
	c22.1,25.1,44.1,49.9,66.4,75.2H149.9z M340.3,146.3c0,37.1,0,74.2,0,111.3c0,10.5-5.3,16-15.8,16.1c-6.2,0-12.5-0.1-18.7,0
	c-2.1,0-3.4-0.7-4.8-2.2c-25.1-28.5-50.2-57-75.3-85.4c-1.1-1.2-2.1-2.5-3.3-3.6c-4-4.2-8.3-4.2-12.2,0.1
	c-8.1,9-16.1,18.1-24.1,27.2c-0.6,0.6-1.2,1.3-2,2.3c-11.8-16.8-23.3-33.2-34.8-49.7c-0.8-1.1-1.5-2.3-2.3-3.4
	c-4.2-5.8-9.8-5.8-13.9,0.2c-19,27.2-38.1,54.4-57.1,81.5c-6.9,9.9-14,19.8-20.7,29.8c-1.6,2.4-3,2.4-5.1,1
	c-4.1-2.8-6.4-6.6-6.5-11.6c-0.1-4,0-8,0-12V71.5c0-12,5-17,17.1-17h157c1.4,0,2.8,0,4.1-0.1c4-0.3,6.7-3.3,6.9-7.1
	c0.1-3.8-2.5-7.1-6.3-7.5c-2.8-0.3-5.6-0.1-8.4-0.1c0-0.3-0.1-0.6-0.1-1c9.2-2.4,18.4-4.8,27.6-7.2c18.9-5,37.8-10,56.8-14.9
	c9.2-2.4,16.4,1.8,19,10.9c0.9,3.1,1.6,6.3,2.6,9.4c0.7,2.2,0,2.8-2.2,2.8c-9.2-0.1-18.5-0.1-27.7,0c-5.1,0-8.2,2.8-8.4,7.2
	c-0.2,4.5,3,7.7,8.1,7.7c11.6,0.1,23.2,0,34.9,0c3.2,0,6.2,0.3,9,2c4.8,3,6.8,7.4,6.8,12.9C340.3,95.1,340.3,120.7,340.3,146.3z
	 M357.5,239.5c-1.4,0.3-2.2,0.5-2.2-1.5c0.1-21.2,0-42.4,0-63.7c0.2,0,0.4,0.1,0.6,0.1c4.1,15.8,8.4,31.5,12.4,47.3
	C370.4,229.7,365.3,237.7,357.5,239.5z"/>
<path class="st0" d="M265.3,75.5c-21.5,0.1-39,17.7-39,39.2c0,21.5,17.6,39.1,39.1,39.1c21.5-0.1,39-17.6,39-39.2
	C304.4,93,286.8,75.4,265.3,75.5z M265.3,138.7c-13.2-0.1-24-10.9-24-24.1c0-13.2,10.8-24.1,24-24.1c13.3-0.1,24.2,10.9,24.2,24.3
	C289.4,128,278.5,138.8,265.3,138.7z"/>
<path class="st0" d="M262.7,47c0,4.1-3.2,7.4-7.3,7.5c-4.1,0.1-7.5-3.1-7.6-7.2c-0.1-4.2,3.3-7.7,7.5-7.7
	C259.3,39.6,262.6,42.9,262.7,47z"/>
</svg>
