<?xml version="1.0" encoding="utf-8"?>
<!-- Generator: Adobe Illustrator 25.4.1, SVG Export Plug-In . SVG Version: 6.00 Build 0)  -->
<svg version="1.1" id="Layer_1" xmlns="http://www.w3.org/2000/svg" xmlns:xlink="http://www.w3.org/1999/xlink" x="0px" y="0px"
	 viewBox="0 0 383.3 374.6" style="enable-background:new 0 0 383.3 374.6;" xml:space="preserve">
<style type="text/css">
	.st0{fill:#004643;}
</style>
<g>
	<path class="st0" d="M383.2,69.1c0-34.9-23.4-62.6-57.8-68.3c-4-0.7-8.2-0.8-12.3-0.8C232.1,0,151,0,69.9,0
		C33.7,0,6.4,23.3,0.6,59.2c-0.1,0.5-0.4,0.9-0.6,1.3V314c0.6,2.8,1.2,5.5,1.9,8.3c7.5,30.8,33.9,52,66.2,52.1
		c82.3,0.2,164.7,0.3,247,0c38.9-0.1,68.2-30.1,68.2-69.1C383.3,226.6,383.3,147.9,383.2,69.1z M157.1,209.6
		c-11,1.5-22.4,1.1-33.5,1.6c-0.7,0-1.5,0.1-2.7,0.2v4.5c0,14.6-0.1,29.2,0.1,43.9c0,3.6-0.8,5.1-4.8,5c-8.6-0.3-17.2-0.2-25.8,0
		c-2.9,0-4.2-0.7-4.2-4c0.1-53.6,0.1-107.2,0-160.8c0-2.1,0.1-3.7,2.9-3.7c20.1-0.1,40.2-0.8,60.2-0.3c13.4,0.3,26,4.5,36.9,12.8
		c14.6,11.1,20.7,26.4,20.7,44.4C207,186.5,185.3,205.7,157.1,209.6z M316.7,230.8c-1.2,14.8-9.1,25-22.2,31.4
		c-7.9,3.8-16.3,5.3-25,5.7c-14.1,0.6-27.8-0.8-41.1-5.9c-3.1-1.2-4.5-2.9-4.4-6.4c0.2-7.6,0.1-15.2,0.1-22.9c0-1.3,0.2-2.6,0.3-4
		c7.3,2.7,14,5.5,20.8,7.5c8.8,2.6,17.8,3.6,27,2.1c1.7-0.3,3.4-0.7,5-1.3c5.7-2.3,7-8.2,2.5-12.2c-2.5-2.2-5.5-3.8-8.5-5.2
		c-9.7-4.8-20-8.5-29.2-14.1c-26.1-15.9-21.5-51.2,2.6-63.9c7.5-4,15.5-6,24-6.4c12.9-0.6,25.7,0.1,38,4.2c2.4,0.8,3.8,2.1,3.8,4.8
		c-0.1,8,0,16,0,24c0,3.2-1.4,4-4.4,2.6c-10.1-5-20.8-6.8-31.8-7c-3.3-0.1-6.7,0.5-10,1.1c-3.4,0.6-5.6,2.7-6.3,6.1
		c-0.7,3.2,0.8,5.9,3.4,7.4c5.5,3.1,11.3,5.8,17,8.6c6.6,3.2,13.4,6,19.8,9.5C311.5,203.6,318,215.2,316.7,230.8z"/>
	<path class="st0" d="M160.2,175.4c-4,2.1-8.5,3.9-13,4.5c-8.5,1.1-17,1.2-26,1.7v-54.5c12.9-0.2,25.8-2.1,37.8,3.9
		c8.5,4.2,12.6,11.4,13,20.8C172.6,161.9,169.7,170.5,160.2,175.4z"/>
</g>
</svg>
