<?xml version="1.0" encoding="utf-8"?>
<!-- Generator: Adobe Illustrator 25.4.1, SVG Export Plug-In . SVG Version: 6.00 Build 0)  -->
<svg version="1.1" id="Layer_1" xmlns="http://www.w3.org/2000/svg" xmlns:xlink="http://www.w3.org/1999/xlink" x="0px" y="0px"
	 viewBox="0 0 489.01 492.13" style="enable-background:new 0 0 489.01 492.13;" xml:space="preserve">
<style type="text/css">
	.st0{fill:#004643;}
</style>
<g>
	<path class="st0" d="M470.18,18.72c-150.61,0-300.88,0-451.77,0c0,11.95,0.01,23.57-0.01,35.19c0,2.29,0.05,4.61-0.27,6.87
		c-0.72,5.1-3.99,7.77-8.95,8.06c-4.7,0.27-8.71-3.47-8.94-8.61c-0.33-7.45-0.17-14.92-0.19-22.38C0.03,28.66-0.07,19.48,0.09,10.3
		C0.21,3.28,3.41,0.23,10.31,0.02c1.53-0.05,3.06-0.01,4.59-0.01c153.07,0,306.14,0,459.21,0c12.84,0,14.73,1.84,14.73,14.42
		c0,140.63-0.22,281.27,0.17,421.9c0.09,30.68-20.11,50.55-41.98,54.67c-4.66,0.88-9.51,1.08-14.27,1.08
		c-139.68,0.05-279.35,0.05-419.03,0.04c-11.38,0-13.69-2.36-13.69-13.87c-0.01-124.75,0-249.5,0-374.26
		c0-11.81,2.32-14.14,14.01-14.14c135.66,0,271.32,0,406.98,0c9.46,0,13.69,2.79,13.79,9.08c0.1,6.36-4.15,9.29-13.5,9.29
		c-131.64,0-263.28,0-394.92,0c-2.44,0-4.87,0-7.64,0c0,122.02,0,243.4,0,365.23c2.35,0.11,4.4,0.28,6.44,0.28
		c135.85,0.01,271.7,0.02,407.55,0c19.48,0,32.57-9.08,36.65-25.62c0.9-3.66,1.03-7.58,1.03-11.37
		c0.05-137.38,0.04-274.76,0.03-412.14C470.46,22.75,470.29,20.88,470.18,18.72z"/>
	<path class="st0" d="M177.94,256.26c-36.14,0-72.28,0-108.41,0c-10.98,0-13.68-2.63-13.69-13.39c-0.01-27.34-0.02-54.69,0-82.03
		c0.01-9.84,2.83-12.71,12.57-12.71c73.04-0.02,146.08-0.02,219.12,0c9.71,0,12.51,2.88,12.52,12.74c0.02,27.34,0.01,54.69,0,82.03
		c0,10.56-2.75,13.35-13.12,13.36C250.6,256.26,214.27,256.26,177.94,256.26z M281.44,166.94c-69.33,0-138.05,0-206.8,0
		c0,23.85,0,47.24,0,70.54c69.17,0,137.91,0,206.8,0C281.44,213.82,281.44,190.56,281.44,166.94z"/>
	<path class="st0" d="M435.6,269.41c0,36.15,0.01,72.3,0,108.45c0,10.15-2.74,12.87-12.92,12.88c-27.73,0.01-55.47,0.02-83.2,0
		c-9.51-0.01-12.42-2.81-12.42-12.24c-0.03-72.68-0.03-145.36,0-218.04c0-9.45,2.9-12.3,12.37-12.31
		c27.73-0.03,55.47-0.02,83.2-0.01c10.23,0.01,12.98,2.73,12.98,12.83C435.6,197.11,435.6,233.26,435.6,269.41z M345.77,371.9
		c24,0,47.57,0,71.09,0c0-68.62,0-136.78,0-205.16c-23.81,0-47.27,0-71.09,0C345.77,235.14,345.77,303.3,345.77,371.9z"/>
	<path class="st0" d="M246.21,282.46c14.15,0,28.31-0.04,42.46,0.02c8.23,0.03,11.35,3.18,11.37,11.54
		c0.04,28.31,0.04,56.61,0,84.92c-0.01,8.63-3.15,11.78-11.73,11.79c-28.31,0.03-56.61,0.03-84.92,0
		c-8.95-0.01-11.95-3.02-11.96-12.15c-0.04-28.12-0.05-56.23,0.01-84.35c0.02-8.73,3.08-11.73,11.74-11.76
		C217.52,282.43,231.86,282.46,246.21,282.46z M210.03,371.91c24.16,0,47.72,0,71.26,0c0-23.85,0-47.25,0-70.6
		c-23.95,0-47.51,0-71.26,0C210.03,325.02,210.03,348.26,210.03,371.91z"/>
	<path class="st0" d="M110.11,390.73c-14.34,0-28.69,0.04-43.03-0.02c-7.89-0.03-11.19-3.24-11.21-11.16
		c-0.07-28.69-0.07-57.38,0-86.07c0.02-7.86,3.33-11,11.32-11.01c28.69-0.04,57.38-0.04,86.07,0c7.92,0.01,11.19,3.21,11.21,11.13
		c0.07,28.69,0.07,57.38,0,86.07c-0.02,7.8-3.41,11.02-11.33,11.05C138.8,390.77,124.45,390.73,110.11,390.73z M74.56,301.12
		c0,23.91,0,47.3,0,70.86c23.92,0,47.49,0,71.22,0c0-23.78,0-47.18,0-70.86C121.99,301.12,98.55,301.12,74.56,301.12z"/>
	<path class="st0" d="M159.56,434.36c-30.02,0-60.04,0-90.06-0.01c-1.91,0-3.85,0.12-5.73-0.16c-4.56-0.68-7.23-3.61-7.7-8.02
		c-0.48-4.44,1.6-7.92,5.94-9.34c2.29-0.75,4.87-0.82,7.32-0.82c60.04-0.04,120.07-0.04,180.11,0.01c2.63,0,5.43,0.16,7.85,1.06
		c4.05,1.51,5.65,4.97,5.22,9.22c-0.45,4.32-3.04,6.94-7.19,7.82c-1.84,0.39-3.81,0.22-5.72,0.22
		C219.59,434.37,189.58,434.36,159.56,434.36z"/>
	<path class="st0" d="M345.55,416c14.52,0,29.04-0.11,43.56,0.04c8.22,0.08,13.34,7.1,9.33,13.2c-1.66,2.53-5.75,4.86-8.77,4.89
		c-29.61,0.36-59.22,0.26-88.84,0.18c-6.09-0.02-9.78-3.5-9.92-8.79c-0.15-5.5,3.66-9.41,9.93-9.47
		C315.74,415.9,330.65,416.01,345.55,416z"/>
	<path class="st0" d="M86.61,54.15c0.01,5.03-4.07,9.15-9.08,9.17c-4.95,0.02-9.17-4.18-9.19-9.12c-0.02-4.94,4.18-9.15,9.14-9.16
		C82.5,45.03,86.59,49.12,86.61,54.15z"/>
	<path class="st0" d="M132.39,45.04c5.02-0.13,9.21,3.87,9.33,8.91s-3.86,9.24-8.88,9.37c-4.94,0.13-9.26-3.97-9.39-8.92
		C123.32,49.46,127.41,45.17,132.39,45.04z"/>
	<path class="st0" d="M187.57,45.04c5.01-0.09,9.18,3.95,9.26,8.98c0.09,5.04-3.93,9.21-8.95,9.3c-4.94,0.09-9.23-4.04-9.32-8.99
		C178.47,49.39,182.6,45.13,187.57,45.04z"/>
</g>
</svg>
