<?xml version="1.0" encoding="utf-8"?>
<!-- Generator: Adobe Illustrator 25.4.1, SVG Export Plug-In . SVG Version: 6.00 Build 0)  -->
<svg version="1.1" id="Layer_1" xmlns="http://www.w3.org/2000/svg" xmlns:xlink="http://www.w3.org/1999/xlink" x="0px" y="0px"
	 viewBox="0 0 384 384" style="enable-background:new 0 0 384 384;" xml:space="preserve">
<style type="text/css">
	.st0{fill:#004643;}
</style>
<g>
	<path class="st0" d="M378.4,11.6C374.2,5,367.4,1.8,360,0H24C17,1.8,10.4,4.5,6.3,10.7C3.6,14.7,2,19.5,0,24v267
		c0.2,0.7,0.5,1.4,0.7,2.1C4.2,306.6,14.9,315,28.8,315c37.2,0.1,74.4,0,111.7,0h4.6c1.7,9.3,0.6,17.9-3.6,26
		c-3.5,6.8-7.3,13.3-11,20c-6.1,11-4.6,16.7,6.1,23h111c0.5-0.3,1-0.7,1.5-1c7.7-3.9,10.3-11.6,6.2-19.1c-3.8-7-7.8-14-11.7-20.9
		c-4.8-8.6-6.4-17.7-4.7-28h4.3c35.5,0,70.9-0.5,106.4,0.2c18.8,0.4,30.9-8.1,34.5-24.2V24C382.2,19.8,380.8,15.4,378.4,11.6z
		 M12.4,22.7c1.4-7.2,8.5-11.5,16.5-11.5c26.2,0,52.5,0,78.7,0H143c-0.2,8.5-0.3,16.6-0.5,24.6c-0.1,6.1-3,9.1-8.9,9.1
		c-40.1,0-80.2,0-120.3,0c-0.5,0-1,0-2.5-0.1C11.3,37.5,11,29.9,12.4,22.7z M245,368.7c1.7,3,1.1,4-2.4,4c-33.7,0-67.4,0-101.1,0
		c-3.7,0-4.2-0.9-2.3-4.3c3.2-5.8,6.3-11.6,9.7-17.3c6.2-10.5,9.3-21.7,8-34c-0.1-0.6,0-1.2,0-2h70.1c0,3.1-0.1,6,0,9
		c0.3,8.9,2.8,17.2,7.1,24.9C237.7,355.6,241.4,362.1,245,368.7z M372,291c-1.5,7.5-8.1,12.4-15.6,12.7c-0.8,0-1.5,0-2.2,0H29.8
		c-10.1,0-17.5-6-18.4-15c-0.4-4.1-0.1-8.2-0.1-12.8h4.1c21.9,0,43.8,0,65.6,0c1.2,0,2.6,0.1,3.7-0.2c2.9-0.7,4.5-2.6,4.4-5.7
		c-0.1-2.9-1.8-4.6-4.5-5.2c-1.2-0.3-2.5-0.1-3.7-0.1c-21.8,0-43.5,0-65.2,0h-4.3V56.2h121.1c13.5,0,21.2-7.7,21.2-21.1
		c0-4.9,0-9.8,0-14.6c0-6.2,3-9.3,9.2-9.3c19.4,0,38.8,0,58.1,0c5.9,0,9,3.1,9.1,9c0.1,5.6,0,11.3,0,16.9c0.2,10.8,8.3,19,19,19.1
		c16,0.1,32,0,48,0c4.8,0,7.3-1.9,7.3-5.5c0-3.7-2.5-5.7-7.2-5.7c-15.4,0-30.8,0-46.1,0c-7.1,0-9.8-2.7-9.8-9.7
		c-0.1-7.9-0.3-15.9-0.5-24h112.5c12.6,0,19.3,6.6,19.3,19.1V45h-44c-0.8,0-1.5,0-2.2,0c-4.3,0.1-6.9,2.3-6.8,5.8
		c0.1,3.3,2.7,5.5,6.7,5.5c13.9,0,27.8,0,41.6,0h4.4v208.5H113.2c-6.1,0-8.8,1.8-8.8,5.6c0,3.9,2.8,5.6,8.9,5.6H373
		C372.7,281.2,373,286.2,372,291z"/>
	<path class="st0" d="M334.6,82.7c-3.7-11.7-16-18-27.5-14c-11.5,4-17.4,16.4-13.2,27.9c0.7,1.9,1.5,3.3-0.5,5.2
		c-19.9,19.7-39.7,39.5-59.4,59.3c-1.4,1.4-2.4,2-4.5,1c-5.4-2.4-11-2.5-16.4-0.1c-2.2,1-3.5,0.5-5.1-1.1
		c-14.5-14.6-29.1-29.2-43.7-43.8c-1.7-1.6-1.9-2.8-1-5.1c3.8-9.3,0.7-19.5-7.3-25.4c-7.7-5.6-18.3-5.5-25.8,0.4
		c-7.7,5.9-10.5,16.1-6.6,25.2c0.9,2.2,0.5,3.3-1,4.8c-10.7,10.6-21.4,21.3-32.1,32.1c-3.2,3.3-6.3,6.7-9.3,9.8
		c-12.3-5.1-22.7-2.6-29,6.5c-5.7,8.3-4.9,19.6,2.1,27c6.9,7.3,18.2,8.9,26.8,3.7c9.8-5.9,12.5-15.8,8.2-28.5
		c14.9-14.9,29.5-29.5,44.3-44.3c6,3,12.4,3.2,19.1,0.5c0.9-0.4,2.6,0.2,3.3,1c4.3,4,8.4,8.2,12.5,12.4c11.3,11.3,22.6,22.6,33,33
		c-0.6,5.8-1.9,10.4-1.4,14.8c1,9,6.4,15.1,15.2,17.6c8.4,2.4,16,0.4,21.9-6.1c6.1-6.7,7.3-14.6,3.8-23c-0.8-1.9-0.4-2.8,0.9-4.1
		c19.9-19.9,39.8-39.7,59.6-59.7c1.5-1.5,2.7-1.6,4.5-0.8c4.5,2,9.2,2.2,13.9,0.9C331.6,106.5,338.3,94.3,334.6,82.7z M69.8,188
		c-5.6-0.1-10.1-4.8-10.1-10.4c0-5.6,4.7-10.2,10.2-10.2c5.5,0,10.2,4.7,10.3,10.2C80.3,183.3,75.4,188.1,69.8,188z M143.6,114.5
		c-5.5,0.2-10.3-4.4-10.6-10c-0.2-5.7,4.5-10.6,10.2-10.7c5.5,0,10.3,4.6,10.4,10.2C153.8,109.5,149.2,114.3,143.6,114.5z
		 M220.8,192.2c-5.6-0.1-10.1-4.9-10-10.4c0.2-5.6,4.9-10.1,10.5-10c5.6,0.1,10.2,4.7,10.2,10.3
		C231.5,187.7,226.7,192.3,220.8,192.2z M314.3,99.3c-5.8,0.1-10.6-4.5-10.5-10.3c0-5.5,4.7-10.2,10.2-10.2
		c5.6,0,10.2,4.5,10.3,10.1C324.4,94.5,320,99.2,314.3,99.3z"/>
	<path class="st0" d="M337.3,230c-0.2-6.5-3.9-10.1-10.4-10.2c-5.9,0-11.7,0-17.6,0c-5.9,0-11.7,0-17.6,0c-6.2,0.1-10,3.7-10.2,10
		c-0.1,4.5-0.1,9,0,13.5c0.2,6.5,3.9,10.2,10.4,10.2c11.6,0.1,23.2,0.1,34.9,0c6.7,0,10.4-3.6,10.6-10.4
		C337.4,238.7,337.4,234.3,337.3,230z M325.7,242h-32.9v-10.8h32.9V242z"/>
	<path class="st0" d="M102.5,229.7c-0.2-6.3-4-9.9-10.3-9.9c-11.7-0.1-23.5-0.1-35.2,0c-6.3,0-10.1,3.6-10.3,9.9
		c-0.2,4.6-0.2,9.2,0,13.9c0.2,6.3,4,9.9,10.2,9.9c5.9,0.1,11.7,0,17.6,0c5.9,0,11.8,0,17.6,0c6.3-0.1,10.1-3.6,10.3-9.9
		C102.7,239,102.7,234.3,102.5,229.7z M91.1,242.1H58.2v-10.8h32.9V242.1z"/>
	<path class="st0" d="M180.7,229.8c-0.1-6.2-3.8-9.9-10.1-10c-5.9-0.1-11.8,0-17.6,0c-6.1,0-12.2-0.1-18.4,0
		c-5.6,0.1-9.3,3.8-9.5,9.4c-0.1,4.9-0.1,9.8,0,14.6c0.1,5.8,3.9,9.6,9.7,9.6c12,0.1,24,0.1,36,0c6,0,9.8-3.8,9.9-9.8
		C180.8,239,180.8,234.4,180.7,229.8z M169.3,242h-32.8v-10.8h32.8V242z"/>
	<path class="st0" d="M258.9,229.1c-0.2-5.6-3.9-9.3-9.6-9.3c-12.1-0.1-24.2-0.1-36.3,0c-5.8,0.1-9.5,3.9-9.6,9.7
		c-0.1,4.6-0.1,9.2,0,13.9c0.1,6.2,3.8,10,10.1,10.1c6,0.1,12,0,18,0c6,0,12,0.1,18,0c5.7-0.1,9.4-3.8,9.5-9.4
		C259,239.1,259,234.1,258.9,229.1z M247.4,242.1h-32.6v-10.9h32.6V242.1z"/>
	<path class="st0" d="M33.7,28.1c0,3.1-2.7,5.7-5.8,5.6c-3.1-0.1-5.6-2.8-5.4-5.9c0.2-3,2.8-5.3,5.8-5.2
		C31.2,22.6,33.7,25.1,33.7,28.1z"/>
	<path class="st0" d="M56.2,28.1c0,3.1-2.6,5.7-5.7,5.6c-3.1-0.1-5.6-2.8-5.4-5.9c0.2-3,2.8-5.3,5.7-5.3
		C53.7,22.6,56.2,25.1,56.2,28.1z"/>
	<path class="st0" d="M78.7,28c0.1,3.1-2.6,5.8-5.7,5.7c-3,0-5.5-2.5-5.5-5.5c0-3.1,2.6-5.7,5.7-5.7C76.2,22.6,78.7,25.1,78.7,28z"
		/>
</g>
</svg>
