<?xml version="1.0" encoding="utf-8"?>
<!-- Generator: Adobe Illustrator 25.4.1, SVG Export Plug-In . SVG Version: 6.00 Build 0)  -->
<svg version="1.1" id="Layer_1" xmlns="http://www.w3.org/2000/svg" xmlns:xlink="http://www.w3.org/1999/xlink" x="0px" y="0px"
	 viewBox="0 0 122.9 95.5" style="enable-background:new 0 0 122.9 95.5;" xml:space="preserve">
<style type="text/css">
	.st0{fill-rule:evenodd;clip-rule:evenodd;fill:#004643;}
</style>
<g>
	<path class="st0" d="M12.6,30.1h96.8V84H12.6V30.1L12.6,30.1z M59.3,47h7.2v13.9c0,1.4-0.2,2.7-0.7,3.9c-0.4,1.2-1.1,2.3-2,3.2
		c-0.9,0.9-1.9,1.6-2.9,1.9c-1.4,0.5-3.1,0.8-5.1,0.8c-1.1,0-2.4-0.1-3.7-0.2c-1.3-0.2-2.5-0.5-3.4-1s-1.7-1.1-2.5-2
		s-1.3-1.8-1.5-2.7c-0.5-1.5-0.7-2.8-0.7-4V47h7.2v14.3c0,1.3,0.3,2.3,1.1,3c0.7,0.7,1.7,1.1,2.9,1.1s2.2-0.3,2.9-1.1
		c0.7-0.7,1.1-1.7,1.1-3L59.3,47L59.3,47z M71.6,47h7.3v23.4h-7.3V47L71.6,47z M8.3,0h106.2c4.6,0,8.3,3.7,8.3,8.3v78.9
		c0,4.6-3.7,8.3-8.3,8.3H8.3c-4.6,0-8.3-3.7-8.3-8.3V8.3C0,3.7,3.7,0,8.3,0L8.3,0z M118,23.3H5.3V88c0,0.6,0.3,1.2,0.7,1.6
		s1,0.7,1.6,0.7h108c0.6,0,1.2-0.3,1.6-0.7c0.4-0.4,0.7-1,0.7-1.6L118,23.3L118,23.3L118,23.3z M106.6,9.3c2.3,0,4.1,1.8,4.1,4.1
		s-1.8,4.1-4.1,4.1c-2.3,0-4.1-1.8-4.1-4.1C102.5,11.2,104.4,9.3,106.6,9.3L106.6,9.3z M78.8,9.3c2.3,0,4.1,1.8,4.1,4.1
		s-1.8,4.1-4.1,4.1c-2.3,0-4.1-1.8-4.1-4.1S76.5,9.3,78.8,9.3L78.8,9.3z M92.7,9.3c2.3,0,4.1,1.8,4.1,4.1s-1.8,4.1-4.1,4.1
		c-2.3,0-4.1-1.8-4.1-4.1S90.4,9.3,92.7,9.3L92.7,9.3z"/>
</g>
</svg>
