<?xml version="1.0" encoding="utf-8"?>
<!-- Generator: Adobe Illustrator 25.4.1, SVG Export Plug-In . SVG Version: 6.00 Build 0)  -->
<svg version="1.1" id="Layer_1" xmlns="http://www.w3.org/2000/svg" xmlns:xlink="http://www.w3.org/1999/xlink" x="0px" y="0px"
	 viewBox="0 0 103.1 61.3" style="enable-background:new 0 0 103.1 61.3;" xml:space="preserve">
<style type="text/css">
	.st0{fill:#004643;}
</style>
<path class="st0" d="M61.8,17c-1.8-0.2-5.4,0.8-7,8.6c0,4.7,1.1,7.6,2.9,8.6c3.3,1,7.2-3.4,7.2-8.2C65,22.9,65.2,18.8,61.8,17z
	 M61.8,17c-1.8-0.2-5.4,0.8-7,8.6c0,4.7,1.1,7.6,2.9,8.6c3.3,1,7.2-3.4,7.2-8.2C65,22.9,65.2,18.8,61.8,17z M91.4,0H11.7
	C5.2,0,0,5.3,0,11.7v27.4c0,6.5,5.3,11.7,11.7,11.7h79.7c6.4,0,11.7-5.2,11.7-11.7V11.7C103.1,5.2,97.8,0,91.4,0z M35.6,43.6
	c0,0-5.6-7.3-6.9-12.8s-1.6-3-1.6-3s-4.4,9.9-9,16.2s-6.9-3.1-6.9-3.1C9.6,38.9,5,11,5,11c2.6-7.1,7-1.3,7-1.3l4.4,22.7
	c0,0,6.9-13.9,9.2-17.5s6.2-2.6,6.5,1.1c0.3,3.8,4.1,14,4.1,14c0.3-10.7,4.9-20.7,5.5-22.4s7.8-3.6,6.5,3.2
	c-3.1,7.7-6.2,23.7-5.4,32.5C40.7,49.9,35.6,43.6,35.6,43.6z M64.3,39.9c-2.1,0.9-9.8,6.3-15.4-5.7c-3.5-12.1,4.2-21,4.2-21
	s10.1-8.6,17,2.8C75.6,28.5,66.4,38.9,64.3,39.9z M89.9,39.9c-2.1,0.9-9.8,6.3-15.4-5.7c-3.5-12.1,4.2-21,4.2-21s10.1-8.6,17,2.8
	C101.3,28.5,92.1,38.9,89.9,39.9z M87.4,17c-1.8-0.2-5.4,0.8-7,8.6c0,4.7,1.1,7.6,2.9,8.6c3.3,1,7.2-3.4,7.2-8.2
	C90.7,22.9,90.8,18.8,87.4,17z M61.8,17c-1.8-0.2-5.4,0.8-7,8.6c0,4.7,1.1,7.6,2.9,8.6c3.3,1,7.2-3.4,7.2-8.2
	C65,22.9,65.2,18.8,61.8,17z"/>
<path class="st0" d="M49.4,50.8l17.9,10.5l-3.7-10.5l-10.3-2.9L49.4,50.8z"/>
</svg>
