<?xml version="1.0" encoding="utf-8"?>
<!-- Generator: Adobe Illustrator 25.4.1, SVG Export Plug-In . SVG Version: 6.00 Build 0)  -->
<svg version="1.1" id="Layer_1" xmlns="http://www.w3.org/2000/svg" xmlns:xlink="http://www.w3.org/1999/xlink" x="0px" y="0px"
	 viewBox="0 0 589.69 588.98" style="enable-background:new 0 0 589.69 588.98;" xml:space="preserve">
<style type="text/css">
	.st0{fill:#004643;}
</style>
<g>
	<path class="st0" d="M0,279.34c4.96-23.15,8.48-46.72,15.12-69.38C51.21,86.9,162.71-2.68,300.36,0.06
		c143.7,2.87,260.51,104.71,284.7,240.6c29.74,167.09-87.25,324.16-255.38,343.11c-6.72,0.76-13.23,3.43-19.83,5.21
		c-9.25,0-18.5,0-27.75,0c-6.58-1.78-13.07-4.44-19.77-5.2C138.2,569.7,38.47,480.77,10.32,358.53C6.4,341.49,3.41,324.23,0,307.07
		C0,297.83,0,288.59,0,279.34z M295.63,571.27c151.34,0.31,278.8-127.02,278.6-278.3c-0.2-150.59-125.67-276.55-276.74-277.84
		C146.54,13.86,18.53,140.67,17.73,292.28C16.93,443.28,144.11,570.97,295.63,571.27z"/>
	<path class="st0" d="M414.31,417.21c-26.99-76.3-53.99-152.6-81.91-231.54c9.59-1.21,16.94-0.46,22.37-3.33
		c4.9-2.59,10.54-9.09,10.64-13.98c0.1-4.84-6.21-14.01-9.87-14.09c-45.44-0.99-90.91-1.02-136.35-0.08
		c-3.9,0.08-11.21,9.47-10.54,13.47c0.94,5.63,8.46,14.99,12.13,14.53c21.91-2.74,25.26,12.14,32.85,27.24
		c26.97,53.65,28.28,105.97,0.03,159.51c-8.13,15.41-11.99,33.06-19.69,55.05c-29.07-82.05-56.46-159.33-84.51-238.52
		c8.29-1.08,15.43-0.03,19.62-3.07c5.12-3.71,10.29-10.71,10.58-16.53c0.2-3.94-7.77-11.65-12.42-11.91
		c-22.24-1.27-44.59-0.57-67.54-0.57C154.86,51.9,333.97,1.86,455.34,109.1c-7.33,3.8-14.7,6.8-21.19,11.12
		c-21.43,14.28-28.72,40.38-12.76,59.77c45.27,54.98,42.87,113.93,19.55,175.92c-7.55,20.07-14.47,40.38-21.67,60.59
		C417.61,416.74,415.96,416.97,414.31,417.21z"/>
	<path class="st0" d="M365.37,526.88c-48.78,14.57-94.17,14.37-141.87-1.06c23.83-63.17,47.04-124.69,72.83-193.08
		C320.33,400.21,342.17,461.63,365.37,526.88z"/>
	<path class="st0" d="M518.94,195.07c53.21,97.94,5.88,256.11-97.92,305.3c3.11-11.12,4.91-19.42,7.74-27.35
		c23.48-65.83,47.95-131.32,70.36-197.5C508.12,248.93,512.72,220.85,518.94,195.07z"/>
	<path class="st0" d="M174.12,502.83C69.73,449.04,24.41,309.91,69.06,206.72C104.41,306.36,138.56,402.62,174.12,502.83z"/>
</g>
</svg>
