<svg xmlns="http://www.w3.org/2000/svg" version="1.1" xmlns:xlink="http://www.w3.org/1999/xlink" xmlns:svgjs="http://svgjs.com/svgjs" width="512" height="512" x="0" y="0" viewBox="0 0 512.01 512.01" style="enable-background:new 0 0 512 512" xml:space="preserve" class=""><g>
<g xmlns="http://www.w3.org/2000/svg">
	<g id="Layer_2_8_">
		<g id="Surfaces_9_">
			<g id="UI_UX_Surface">
				<g id="Outline_no_shadow_9_">
					<path d="M421.35,6.4H90.67C40.59,6.4,0,46.99,0,97.07v317.88c0,50.07,40.59,90.66,90.67,90.66h330.68       c50.07,0,90.66-40.59,90.66-90.66V97.07C512.01,46.99,471.42,6.4,421.35,6.4z M273.97,357.68c-0.23,0.81-1.03,0.3-2.4,0.53       h-48.78c-3.43,0-5.83-0.13-7.21-2.42c-4.58-8.93-9.16-17.8-13.74-26.62c-4.58-8.81-9.45-17.8-14.59-26.96       c-5.16-9.15-10.25-18.43-15.29-27.82h-0.34c-4.59,9.16-9.34,18.32-14.26,27.48c-4.92,9.16-9.79,18.26-14.6,27.3       c-4.8,9.05-9.73,18.04-14.76,26.97c-0.92,2.06-2.53,2.27-4.81,2.27H76.13c-0.91,0-1.43,0.36-1.55-0.56       c-0.12-0.83,0.06-1.69,0.52-2.4l66.29-108.88L76.82,137.34c-0.69-0.91-0.8-1.65-0.35-2.23c0.52-0.59,1.28-0.91,2.06-0.86h48.43       c1.06-0.06,2.12,0.12,3.1,0.52c0.82,0.46,1.52,1.11,2.06,1.89c4.12,9.16,8.7,18.32,13.74,27.47       c5.03,9.16,10.12,18.21,15.28,27.14c5.15,8.93,9.9,17.97,14.25,27.13h0.35c4.58-9.38,9.21-18.54,13.91-27.47       c4.69-8.94,9.5-17.92,14.42-26.97c4.93-9.04,9.68-18.03,14.26-26.96c0.26-0.85,0.74-1.62,1.37-2.23       c0.85-0.43,1.8-0.61,2.75-0.52h45c1.05-0.26,2.12,0.39,2.38,1.44c0.18,0.74-0.08,1.521-0.67,2l-63.88,105.44l68.35,111.98       C274.07,355.89,274.19,356.81,273.97,357.68z M435.4,349.27c-11.16,4.65-22.79,8.11-34.69,10.3       c-10.88,2.01-21.91,3.04-32.97,3.09c-15.81,0.24-31.48-3.04-45.86-9.61c-13.39-6.2-24.59-16.33-32.11-29.03       c-7.79-12.93-11.68-29.13-11.68-48.6c-0.13-15.76,3.9-31.28,11.68-45c8.01-13.96,19.8-25.39,34-32.97       c14.88-8.24,32.86-12.36,53.93-12.36c1.14,0,2.63,0.05,4.46,0.17s4.01,0.29,6.53,0.51v-67.66c0-1.6,0.69-2.41,2.06-2.41h43.28       c0.99-0.14,1.92,0.55,2.06,1.55c0.02,0.17,0.02,0.34,0,0.51v203c0,3.9,0.17,8.13,0.51,12.71c0.35,4.58,0.63,8.7,0.86,12.36       C437.55,347.29,436.73,348.66,435.4,349.27z M375.98,224.93c-8.33-0.08-16.57,1.8-24.04,5.49c-7.28,3.62-13.49,9.07-18.03,15.8       c-4.7,6.87-7.05,15.92-7.05,27.14c-0.16,7.49,1.06,14.94,3.61,21.98c2.08,5.68,5.36,10.83,9.62,15.11       c4.08,3.95,9.01,6.88,14.42,8.59c5.72,1.85,11.69,2.78,17.69,2.75c3.21,0,6.18-0.12,8.93-0.34c2.56-0.2,5.1-0.66,7.56-1.38       V226.3c-1.86-0.5-3.75-0.84-5.67-1.03C380.68,225.04,378.33,224.92,375.98,224.93z" fill="#004643" data-original="#000000" class=""></path>
				</g>
			</g>
		</g>
	</g>
</g>
</g></svg>